M48
; DRILL file {KiCad 5.1.12-84ad8e8a86~92~ubuntu18.04.1} date Fri 26 Nov 2021 01:46:10 PM EST
; FORMAT={-:-/ absolute / metric / decimal}
; #@! TF.CreationDate,2021-11-26T13:46:10-05:00
; #@! TF.GenerationSoftware,Kicad,Pcbnew,5.1.12-84ad8e8a86~92~ubuntu18.04.1
; #@! TF.FileFunction,Plated,1,2,PTH
FMAT,2
METRIC
T1C1.000
%
G90
G05
T1
X-0.762Y1.397
X-0.762Y-1.143
X-0.762Y-3.683
X-0.762Y-6.223
X-0.762Y-8.763
X-0.762Y-11.303
X-0.762Y-13.843
X-0.762Y-16.383
X-0.762Y-18.923
X-0.762Y-21.463
X9.017Y-1.27
X11.557Y-1.27
X21.844Y1.397
X21.844Y-1.143
X21.844Y-3.683
X21.844Y-6.223
X21.844Y-8.763
X21.844Y-11.303
X21.844Y-13.843
X21.844Y-16.383
X21.844Y-18.923
X21.844Y-21.463
T0
M30
