%TF.GenerationSoftware,KiCad,Pcbnew,5.1.12-84ad8e8a86~92~ubuntu18.04.1*%
%TF.CreationDate,2021-11-25T16:48:48-05:00*%
%TF.ProjectId,shifter,73686966-7465-4722-9e6b-696361645f70,rev?*%
%TF.SameCoordinates,Original*%
%TF.FileFunction,Legend,Top*%
%TF.FilePolarity,Positive*%
%FSLAX46Y46*%
G04 Gerber Fmt 4.6, Leading zero omitted, Abs format (unit mm)*
G04 Created by KiCad (PCBNEW 5.1.12-84ad8e8a86~92~ubuntu18.04.1) date 2021-11-25 16:48:48*
%MOMM*%
%LPD*%
G01*
G04 APERTURE LIST*
%ADD10C,0.120000*%
%ADD11C,0.150000*%
G04 APERTURE END LIST*
D10*
%TO.C,C1*%
X3281000Y1092252D02*
X3281000Y-330252D01*
X5101000Y1092252D02*
X5101000Y-330252D01*
%TO.C,C2*%
X3281000Y-5537252D02*
X3281000Y-4114748D01*
X5101000Y-5537252D02*
X5101000Y-4114748D01*
%TO.C,J1*%
X568000Y2727000D02*
X-2092000Y2727000D01*
X568000Y-20193000D02*
X568000Y2727000D01*
X-2092000Y-20193000D02*
X-2092000Y2727000D01*
X568000Y-20193000D02*
X-2092000Y-20193000D01*
X568000Y-21463000D02*
X568000Y-22793000D01*
X568000Y-22793000D02*
X-762000Y-22793000D01*
%TO.C,J2*%
X12887000Y60000D02*
X12887000Y-1270000D01*
X11557000Y60000D02*
X12887000Y60000D01*
X10287000Y60000D02*
X10287000Y-2600000D01*
X10287000Y-2600000D02*
X7687000Y-2600000D01*
X10287000Y60000D02*
X7687000Y60000D01*
X7687000Y60000D02*
X7687000Y-2600000D01*
%TO.C,J3*%
X20514000Y2727000D02*
X21844000Y2727000D01*
X20514000Y1397000D02*
X20514000Y2727000D01*
X20514000Y127000D02*
X23174000Y127000D01*
X23174000Y127000D02*
X23174000Y-22793000D01*
X20514000Y127000D02*
X20514000Y-22793000D01*
X20514000Y-22793000D02*
X23174000Y-22793000D01*
%TO.C,R1*%
X18944000Y-4918064D02*
X18944000Y-3463936D01*
X17124000Y-4918064D02*
X17124000Y-3463936D01*
%TO.C,U1*%
X6935000Y-8076000D02*
X5120000Y-8076000D01*
X6935000Y-7841000D02*
X6935000Y-8076000D01*
X10795000Y-7841000D02*
X6935000Y-7841000D01*
X14655000Y-7841000D02*
X14655000Y-8076000D01*
X10795000Y-7841000D02*
X14655000Y-7841000D01*
X6935000Y-20861000D02*
X6935000Y-20626000D01*
X10795000Y-20861000D02*
X6935000Y-20861000D01*
X14655000Y-20861000D02*
X14655000Y-20626000D01*
X10795000Y-20861000D02*
X14655000Y-20861000D01*
%TO.C,U2*%
X14788000Y-4320000D02*
X14788000Y-5780000D01*
X11628000Y-4320000D02*
X11628000Y-6480000D01*
X11628000Y-4320000D02*
X12558000Y-4320000D01*
X14788000Y-4320000D02*
X13858000Y-4320000D01*
%TO.C,C1*%
D11*
X2262142Y1484333D02*
X2309761Y1436714D01*
X2357380Y1293857D01*
X2357380Y1198619D01*
X2309761Y1055761D01*
X2214523Y960523D01*
X2119285Y912904D01*
X1928809Y865285D01*
X1785952Y865285D01*
X1595476Y912904D01*
X1500238Y960523D01*
X1405000Y1055761D01*
X1357380Y1198619D01*
X1357380Y1293857D01*
X1405000Y1436714D01*
X1452619Y1484333D01*
X2357380Y2436714D02*
X2357380Y1865285D01*
X2357380Y2151000D02*
X1357380Y2151000D01*
X1500238Y2055761D01*
X1595476Y1960523D01*
X1643095Y1865285D01*
%TO.C,C2*%
X6580142Y-4992666D02*
X6627761Y-5040285D01*
X6675380Y-5183142D01*
X6675380Y-5278380D01*
X6627761Y-5421238D01*
X6532523Y-5516476D01*
X6437285Y-5564095D01*
X6246809Y-5611714D01*
X6103952Y-5611714D01*
X5913476Y-5564095D01*
X5818238Y-5516476D01*
X5723000Y-5421238D01*
X5675380Y-5278380D01*
X5675380Y-5183142D01*
X5723000Y-5040285D01*
X5770619Y-4992666D01*
X5770619Y-4611714D02*
X5723000Y-4564095D01*
X5675380Y-4468857D01*
X5675380Y-4230761D01*
X5723000Y-4135523D01*
X5770619Y-4087904D01*
X5865857Y-4040285D01*
X5961095Y-4040285D01*
X6103952Y-4087904D01*
X6675380Y-4659333D01*
X6675380Y-4040285D01*
%TO.C,J1*%
X2206666Y-21296380D02*
X2206666Y-22010666D01*
X2159047Y-22153523D01*
X2063809Y-22248761D01*
X1920952Y-22296380D01*
X1825714Y-22296380D01*
X3206666Y-22296380D02*
X2635238Y-22296380D01*
X2920952Y-22296380D02*
X2920952Y-21296380D01*
X2825714Y-21439238D01*
X2730476Y-21534476D01*
X2635238Y-21582095D01*
%TO.C,J2*%
X8556666Y-3135380D02*
X8556666Y-3849666D01*
X8509047Y-3992523D01*
X8413809Y-4087761D01*
X8270952Y-4135380D01*
X8175714Y-4135380D01*
X8985238Y-3230619D02*
X9032857Y-3183000D01*
X9128095Y-3135380D01*
X9366190Y-3135380D01*
X9461428Y-3183000D01*
X9509047Y-3230619D01*
X9556666Y-3325857D01*
X9556666Y-3421095D01*
X9509047Y-3563952D01*
X8937619Y-4135380D01*
X9556666Y-4135380D01*
%TO.C,J3*%
X18208666Y2960619D02*
X18208666Y2246333D01*
X18161047Y2103476D01*
X18065809Y2008238D01*
X17922952Y1960619D01*
X17827714Y1960619D01*
X18589619Y2960619D02*
X19208666Y2960619D01*
X18875333Y2579666D01*
X19018190Y2579666D01*
X19113428Y2532047D01*
X19161047Y2484428D01*
X19208666Y2389190D01*
X19208666Y2151095D01*
X19161047Y2055857D01*
X19113428Y2008238D01*
X19018190Y1960619D01*
X18732476Y1960619D01*
X18637238Y2008238D01*
X18589619Y2055857D01*
%TO.C,R1*%
X19248380Y-928666D02*
X18772190Y-1262000D01*
X19248380Y-1500095D02*
X18248380Y-1500095D01*
X18248380Y-1119142D01*
X18296000Y-1023904D01*
X18343619Y-976285D01*
X18438857Y-928666D01*
X18581714Y-928666D01*
X18676952Y-976285D01*
X18724571Y-1023904D01*
X18772190Y-1119142D01*
X18772190Y-1500095D01*
X19248380Y23714D02*
X19248380Y-547714D01*
X19248380Y-262000D02*
X18248380Y-261999D01*
X18391238Y-357238D01*
X18486476Y-452476D01*
X18534095Y-547714D01*
%TO.C,U1*%
X10033095Y-13803380D02*
X10033095Y-14612904D01*
X10080714Y-14708142D01*
X10128333Y-14755761D01*
X10223571Y-14803380D01*
X10414047Y-14803380D01*
X10509285Y-14755761D01*
X10556904Y-14708142D01*
X10604523Y-14612904D01*
X10604523Y-13803380D01*
X11604523Y-14803380D02*
X11033095Y-14803380D01*
X11318809Y-14803380D02*
X11318809Y-13803380D01*
X11223571Y-13946238D01*
X11128333Y-14041476D01*
X11033095Y-14089095D01*
%TO.C,U2*%
X9485380Y-6476904D02*
X10294904Y-6476904D01*
X10390142Y-6429285D01*
X10437761Y-6381666D01*
X10485380Y-6286428D01*
X10485380Y-6095952D01*
X10437761Y-6000714D01*
X10390142Y-5953095D01*
X10294904Y-5905476D01*
X9485380Y-5905476D01*
X9580619Y-5476904D02*
X9533000Y-5429285D01*
X9485380Y-5334047D01*
X9485380Y-5095952D01*
X9533000Y-5000714D01*
X9580619Y-4953095D01*
X9675857Y-4905476D01*
X9771095Y-4905476D01*
X9913952Y-4953095D01*
X10485380Y-5524523D01*
X10485380Y-4905476D01*
%TD*%
M02*
