%TF.GenerationSoftware,KiCad,Pcbnew,5.1.12-84ad8e8a86~92~ubuntu18.04.1*%
%TF.CreationDate,2021-11-25T16:48:48-05:00*%
%TF.ProjectId,shifter,73686966-7465-4722-9e6b-696361645f70,rev?*%
%TF.SameCoordinates,Original*%
%TF.FileFunction,Copper,L1,Top*%
%TF.FilePolarity,Positive*%
%FSLAX46Y46*%
G04 Gerber Fmt 4.6, Leading zero omitted, Abs format (unit mm)*
G04 Created by KiCad (PCBNEW 5.1.12-84ad8e8a86~92~ubuntu18.04.1) date 2021-11-25 16:48:48*
%MOMM*%
%LPD*%
G01*
G04 APERTURE LIST*
%TA.AperFunction,ComponentPad*%
%ADD10O,1.700000X1.700000*%
%TD*%
%TA.AperFunction,ComponentPad*%
%ADD11R,1.700000X1.700000*%
%TD*%
%TA.AperFunction,SMDPad,CuDef*%
%ADD12R,0.800000X0.900000*%
%TD*%
%TA.AperFunction,Conductor*%
%ADD13C,0.500000*%
%TD*%
%TA.AperFunction,Conductor*%
%ADD14C,0.250000*%
%TD*%
G04 APERTURE END LIST*
%TO.P,C1,1*%
%TO.N,+5V*%
%TA.AperFunction,SMDPad,CuDef*%
G36*
G01*
X3540999Y2431000D02*
X4841001Y2431000D01*
G75*
G02*
X5091000Y2181001I0J-249999D01*
G01*
X5091000Y1530999D01*
G75*
G02*
X4841001Y1281000I-249999J0D01*
G01*
X3540999Y1281000D01*
G75*
G02*
X3291000Y1530999I0J249999D01*
G01*
X3291000Y2181001D01*
G75*
G02*
X3540999Y2431000I249999J0D01*
G01*
G37*
%TD.AperFunction*%
%TO.P,C1,2*%
%TO.N,GND*%
%TA.AperFunction,SMDPad,CuDef*%
G36*
G01*
X3540999Y-519000D02*
X4841001Y-519000D01*
G75*
G02*
X5091000Y-768999I0J-249999D01*
G01*
X5091000Y-1419001D01*
G75*
G02*
X4841001Y-1669000I-249999J0D01*
G01*
X3540999Y-1669000D01*
G75*
G02*
X3291000Y-1419001I0J249999D01*
G01*
X3291000Y-768999D01*
G75*
G02*
X3540999Y-519000I249999J0D01*
G01*
G37*
%TD.AperFunction*%
%TD*%
%TO.P,C2,2*%
%TO.N,GND*%
%TA.AperFunction,SMDPad,CuDef*%
G36*
G01*
X4841001Y-3926000D02*
X3540999Y-3926000D01*
G75*
G02*
X3291000Y-3676001I0J249999D01*
G01*
X3291000Y-3025999D01*
G75*
G02*
X3540999Y-2776000I249999J0D01*
G01*
X4841001Y-2776000D01*
G75*
G02*
X5091000Y-3025999I0J-249999D01*
G01*
X5091000Y-3676001D01*
G75*
G02*
X4841001Y-3926000I-249999J0D01*
G01*
G37*
%TD.AperFunction*%
%TO.P,C2,1*%
%TO.N,+3V3*%
%TA.AperFunction,SMDPad,CuDef*%
G36*
G01*
X4841001Y-6876000D02*
X3540999Y-6876000D01*
G75*
G02*
X3291000Y-6626001I0J249999D01*
G01*
X3291000Y-5975999D01*
G75*
G02*
X3540999Y-5726000I249999J0D01*
G01*
X4841001Y-5726000D01*
G75*
G02*
X5091000Y-5975999I0J-249999D01*
G01*
X5091000Y-6626001D01*
G75*
G02*
X4841001Y-6876000I-249999J0D01*
G01*
G37*
%TD.AperFunction*%
%TD*%
D10*
%TO.P,J1,10*%
%TO.N,Net-(J1-Pad10)*%
X-762000Y1397000D03*
%TO.P,J1,9*%
%TO.N,Net-(J1-Pad9)*%
X-762000Y-1143000D03*
%TO.P,J1,8*%
%TO.N,Net-(J1-Pad8)*%
X-762000Y-3683000D03*
%TO.P,J1,7*%
%TO.N,Net-(J1-Pad7)*%
X-762000Y-6223000D03*
%TO.P,J1,6*%
%TO.N,Net-(J1-Pad6)*%
X-762000Y-8763000D03*
%TO.P,J1,5*%
%TO.N,Net-(J1-Pad5)*%
X-762000Y-11303000D03*
%TO.P,J1,4*%
%TO.N,Net-(J1-Pad4)*%
X-762000Y-13843000D03*
%TO.P,J1,3*%
%TO.N,Net-(J1-Pad3)*%
X-762000Y-16383000D03*
%TO.P,J1,2*%
%TO.N,Net-(J1-Pad2)*%
X-762000Y-18923000D03*
D11*
%TO.P,J1,1*%
%TO.N,Net-(J1-Pad1)*%
X-762000Y-21463000D03*
%TD*%
%TO.P,J2,1*%
%TO.N,+3V3*%
X11557000Y-1270000D03*
D10*
%TO.P,J2,2*%
%TO.N,GND*%
X9017000Y-1270000D03*
%TD*%
D11*
%TO.P,J3,1*%
%TO.N,+5V*%
X21844000Y1397000D03*
D10*
%TO.P,J3,2*%
%TO.N,Net-(J3-Pad2)*%
X21844000Y-1143000D03*
%TO.P,J3,3*%
%TO.N,Net-(J3-Pad3)*%
X21844000Y-3683000D03*
%TO.P,J3,4*%
%TO.N,Net-(J3-Pad4)*%
X21844000Y-6223000D03*
%TO.P,J3,5*%
%TO.N,Net-(J3-Pad5)*%
X21844000Y-8763000D03*
%TO.P,J3,6*%
%TO.N,Net-(J3-Pad6)*%
X21844000Y-11303000D03*
%TO.P,J3,7*%
%TO.N,Net-(J3-Pad7)*%
X21844000Y-13843000D03*
%TO.P,J3,8*%
%TO.N,Net-(J3-Pad8)*%
X21844000Y-16383000D03*
%TO.P,J3,9*%
%TO.N,Net-(J3-Pad9)*%
X21844000Y-18923000D03*
%TO.P,J3,10*%
%TO.N,GND*%
X21844000Y-21463000D03*
%TD*%
%TO.P,R1,1*%
%TO.N,Net-(J1-Pad10)*%
%TA.AperFunction,SMDPad,CuDef*%
G36*
G01*
X18659001Y-6216000D02*
X17408999Y-6216000D01*
G75*
G02*
X17159000Y-5966001I0J249999D01*
G01*
X17159000Y-5340999D01*
G75*
G02*
X17408999Y-5091000I249999J0D01*
G01*
X18659001Y-5091000D01*
G75*
G02*
X18909000Y-5340999I0J-249999D01*
G01*
X18909000Y-5966001D01*
G75*
G02*
X18659001Y-6216000I-249999J0D01*
G01*
G37*
%TD.AperFunction*%
%TO.P,R1,2*%
%TO.N,+3V3*%
%TA.AperFunction,SMDPad,CuDef*%
G36*
G01*
X18659001Y-3291000D02*
X17408999Y-3291000D01*
G75*
G02*
X17159000Y-3041001I0J249999D01*
G01*
X17159000Y-2415999D01*
G75*
G02*
X17408999Y-2166000I249999J0D01*
G01*
X18659001Y-2166000D01*
G75*
G02*
X18909000Y-2415999I0J-249999D01*
G01*
X18909000Y-3041001D01*
G75*
G02*
X18659001Y-3291000I-249999J0D01*
G01*
G37*
%TD.AperFunction*%
%TD*%
%TO.P,U1,1*%
%TO.N,Net-(J1-Pad1)*%
%TA.AperFunction,SMDPad,CuDef*%
G36*
G01*
X5120000Y-8786000D02*
X5120000Y-8486000D01*
G75*
G02*
X5270000Y-8336000I150000J0D01*
G01*
X7020000Y-8336000D01*
G75*
G02*
X7170000Y-8486000I0J-150000D01*
G01*
X7170000Y-8786000D01*
G75*
G02*
X7020000Y-8936000I-150000J0D01*
G01*
X5270000Y-8936000D01*
G75*
G02*
X5120000Y-8786000I0J150000D01*
G01*
G37*
%TD.AperFunction*%
%TO.P,U1,2*%
%TO.N,Net-(J1-Pad9)*%
%TA.AperFunction,SMDPad,CuDef*%
G36*
G01*
X5120000Y-10056000D02*
X5120000Y-9756000D01*
G75*
G02*
X5270000Y-9606000I150000J0D01*
G01*
X7020000Y-9606000D01*
G75*
G02*
X7170000Y-9756000I0J-150000D01*
G01*
X7170000Y-10056000D01*
G75*
G02*
X7020000Y-10206000I-150000J0D01*
G01*
X5270000Y-10206000D01*
G75*
G02*
X5120000Y-10056000I0J150000D01*
G01*
G37*
%TD.AperFunction*%
%TO.P,U1,3*%
%TO.N,Net-(J1-Pad8)*%
%TA.AperFunction,SMDPad,CuDef*%
G36*
G01*
X5120000Y-11326000D02*
X5120000Y-11026000D01*
G75*
G02*
X5270000Y-10876000I150000J0D01*
G01*
X7020000Y-10876000D01*
G75*
G02*
X7170000Y-11026000I0J-150000D01*
G01*
X7170000Y-11326000D01*
G75*
G02*
X7020000Y-11476000I-150000J0D01*
G01*
X5270000Y-11476000D01*
G75*
G02*
X5120000Y-11326000I0J150000D01*
G01*
G37*
%TD.AperFunction*%
%TO.P,U1,4*%
%TO.N,Net-(J1-Pad7)*%
%TA.AperFunction,SMDPad,CuDef*%
G36*
G01*
X5120000Y-12596000D02*
X5120000Y-12296000D01*
G75*
G02*
X5270000Y-12146000I150000J0D01*
G01*
X7020000Y-12146000D01*
G75*
G02*
X7170000Y-12296000I0J-150000D01*
G01*
X7170000Y-12596000D01*
G75*
G02*
X7020000Y-12746000I-150000J0D01*
G01*
X5270000Y-12746000D01*
G75*
G02*
X5120000Y-12596000I0J150000D01*
G01*
G37*
%TD.AperFunction*%
%TO.P,U1,5*%
%TO.N,Net-(J1-Pad6)*%
%TA.AperFunction,SMDPad,CuDef*%
G36*
G01*
X5120000Y-13866000D02*
X5120000Y-13566000D01*
G75*
G02*
X5270000Y-13416000I150000J0D01*
G01*
X7020000Y-13416000D01*
G75*
G02*
X7170000Y-13566000I0J-150000D01*
G01*
X7170000Y-13866000D01*
G75*
G02*
X7020000Y-14016000I-150000J0D01*
G01*
X5270000Y-14016000D01*
G75*
G02*
X5120000Y-13866000I0J150000D01*
G01*
G37*
%TD.AperFunction*%
%TO.P,U1,6*%
%TO.N,Net-(J1-Pad5)*%
%TA.AperFunction,SMDPad,CuDef*%
G36*
G01*
X5120000Y-15136000D02*
X5120000Y-14836000D01*
G75*
G02*
X5270000Y-14686000I150000J0D01*
G01*
X7020000Y-14686000D01*
G75*
G02*
X7170000Y-14836000I0J-150000D01*
G01*
X7170000Y-15136000D01*
G75*
G02*
X7020000Y-15286000I-150000J0D01*
G01*
X5270000Y-15286000D01*
G75*
G02*
X5120000Y-15136000I0J150000D01*
G01*
G37*
%TD.AperFunction*%
%TO.P,U1,7*%
%TO.N,Net-(J1-Pad4)*%
%TA.AperFunction,SMDPad,CuDef*%
G36*
G01*
X5120000Y-16406000D02*
X5120000Y-16106000D01*
G75*
G02*
X5270000Y-15956000I150000J0D01*
G01*
X7020000Y-15956000D01*
G75*
G02*
X7170000Y-16106000I0J-150000D01*
G01*
X7170000Y-16406000D01*
G75*
G02*
X7020000Y-16556000I-150000J0D01*
G01*
X5270000Y-16556000D01*
G75*
G02*
X5120000Y-16406000I0J150000D01*
G01*
G37*
%TD.AperFunction*%
%TO.P,U1,8*%
%TO.N,Net-(J1-Pad3)*%
%TA.AperFunction,SMDPad,CuDef*%
G36*
G01*
X5120000Y-17676000D02*
X5120000Y-17376000D01*
G75*
G02*
X5270000Y-17226000I150000J0D01*
G01*
X7020000Y-17226000D01*
G75*
G02*
X7170000Y-17376000I0J-150000D01*
G01*
X7170000Y-17676000D01*
G75*
G02*
X7020000Y-17826000I-150000J0D01*
G01*
X5270000Y-17826000D01*
G75*
G02*
X5120000Y-17676000I0J150000D01*
G01*
G37*
%TD.AperFunction*%
%TO.P,U1,9*%
%TO.N,Net-(J1-Pad2)*%
%TA.AperFunction,SMDPad,CuDef*%
G36*
G01*
X5120000Y-18946000D02*
X5120000Y-18646000D01*
G75*
G02*
X5270000Y-18496000I150000J0D01*
G01*
X7020000Y-18496000D01*
G75*
G02*
X7170000Y-18646000I0J-150000D01*
G01*
X7170000Y-18946000D01*
G75*
G02*
X7020000Y-19096000I-150000J0D01*
G01*
X5270000Y-19096000D01*
G75*
G02*
X5120000Y-18946000I0J150000D01*
G01*
G37*
%TD.AperFunction*%
%TO.P,U1,10*%
%TO.N,GND*%
%TA.AperFunction,SMDPad,CuDef*%
G36*
G01*
X5120000Y-20216000D02*
X5120000Y-19916000D01*
G75*
G02*
X5270000Y-19766000I150000J0D01*
G01*
X7020000Y-19766000D01*
G75*
G02*
X7170000Y-19916000I0J-150000D01*
G01*
X7170000Y-20216000D01*
G75*
G02*
X7020000Y-20366000I-150000J0D01*
G01*
X5270000Y-20366000D01*
G75*
G02*
X5120000Y-20216000I0J150000D01*
G01*
G37*
%TD.AperFunction*%
%TO.P,U1,11*%
%TO.N,Net-(J3-Pad9)*%
%TA.AperFunction,SMDPad,CuDef*%
G36*
G01*
X14420000Y-20216000D02*
X14420000Y-19916000D01*
G75*
G02*
X14570000Y-19766000I150000J0D01*
G01*
X16320000Y-19766000D01*
G75*
G02*
X16470000Y-19916000I0J-150000D01*
G01*
X16470000Y-20216000D01*
G75*
G02*
X16320000Y-20366000I-150000J0D01*
G01*
X14570000Y-20366000D01*
G75*
G02*
X14420000Y-20216000I0J150000D01*
G01*
G37*
%TD.AperFunction*%
%TO.P,U1,12*%
%TO.N,Net-(J3-Pad8)*%
%TA.AperFunction,SMDPad,CuDef*%
G36*
G01*
X14420000Y-18946000D02*
X14420000Y-18646000D01*
G75*
G02*
X14570000Y-18496000I150000J0D01*
G01*
X16320000Y-18496000D01*
G75*
G02*
X16470000Y-18646000I0J-150000D01*
G01*
X16470000Y-18946000D01*
G75*
G02*
X16320000Y-19096000I-150000J0D01*
G01*
X14570000Y-19096000D01*
G75*
G02*
X14420000Y-18946000I0J150000D01*
G01*
G37*
%TD.AperFunction*%
%TO.P,U1,13*%
%TO.N,Net-(J3-Pad7)*%
%TA.AperFunction,SMDPad,CuDef*%
G36*
G01*
X14420000Y-17676000D02*
X14420000Y-17376000D01*
G75*
G02*
X14570000Y-17226000I150000J0D01*
G01*
X16320000Y-17226000D01*
G75*
G02*
X16470000Y-17376000I0J-150000D01*
G01*
X16470000Y-17676000D01*
G75*
G02*
X16320000Y-17826000I-150000J0D01*
G01*
X14570000Y-17826000D01*
G75*
G02*
X14420000Y-17676000I0J150000D01*
G01*
G37*
%TD.AperFunction*%
%TO.P,U1,14*%
%TO.N,Net-(J3-Pad6)*%
%TA.AperFunction,SMDPad,CuDef*%
G36*
G01*
X14420000Y-16406000D02*
X14420000Y-16106000D01*
G75*
G02*
X14570000Y-15956000I150000J0D01*
G01*
X16320000Y-15956000D01*
G75*
G02*
X16470000Y-16106000I0J-150000D01*
G01*
X16470000Y-16406000D01*
G75*
G02*
X16320000Y-16556000I-150000J0D01*
G01*
X14570000Y-16556000D01*
G75*
G02*
X14420000Y-16406000I0J150000D01*
G01*
G37*
%TD.AperFunction*%
%TO.P,U1,15*%
%TO.N,Net-(J3-Pad5)*%
%TA.AperFunction,SMDPad,CuDef*%
G36*
G01*
X14420000Y-15136000D02*
X14420000Y-14836000D01*
G75*
G02*
X14570000Y-14686000I150000J0D01*
G01*
X16320000Y-14686000D01*
G75*
G02*
X16470000Y-14836000I0J-150000D01*
G01*
X16470000Y-15136000D01*
G75*
G02*
X16320000Y-15286000I-150000J0D01*
G01*
X14570000Y-15286000D01*
G75*
G02*
X14420000Y-15136000I0J150000D01*
G01*
G37*
%TD.AperFunction*%
%TO.P,U1,16*%
%TO.N,Net-(J3-Pad4)*%
%TA.AperFunction,SMDPad,CuDef*%
G36*
G01*
X14420000Y-13866000D02*
X14420000Y-13566000D01*
G75*
G02*
X14570000Y-13416000I150000J0D01*
G01*
X16320000Y-13416000D01*
G75*
G02*
X16470000Y-13566000I0J-150000D01*
G01*
X16470000Y-13866000D01*
G75*
G02*
X16320000Y-14016000I-150000J0D01*
G01*
X14570000Y-14016000D01*
G75*
G02*
X14420000Y-13866000I0J150000D01*
G01*
G37*
%TD.AperFunction*%
%TO.P,U1,17*%
%TO.N,Net-(J3-Pad3)*%
%TA.AperFunction,SMDPad,CuDef*%
G36*
G01*
X14420000Y-12596000D02*
X14420000Y-12296000D01*
G75*
G02*
X14570000Y-12146000I150000J0D01*
G01*
X16320000Y-12146000D01*
G75*
G02*
X16470000Y-12296000I0J-150000D01*
G01*
X16470000Y-12596000D01*
G75*
G02*
X16320000Y-12746000I-150000J0D01*
G01*
X14570000Y-12746000D01*
G75*
G02*
X14420000Y-12596000I0J150000D01*
G01*
G37*
%TD.AperFunction*%
%TO.P,U1,18*%
%TO.N,Net-(J3-Pad2)*%
%TA.AperFunction,SMDPad,CuDef*%
G36*
G01*
X14420000Y-11326000D02*
X14420000Y-11026000D01*
G75*
G02*
X14570000Y-10876000I150000J0D01*
G01*
X16320000Y-10876000D01*
G75*
G02*
X16470000Y-11026000I0J-150000D01*
G01*
X16470000Y-11326000D01*
G75*
G02*
X16320000Y-11476000I-150000J0D01*
G01*
X14570000Y-11476000D01*
G75*
G02*
X14420000Y-11326000I0J150000D01*
G01*
G37*
%TD.AperFunction*%
%TO.P,U1,19*%
%TO.N,Net-(J1-Pad10)*%
%TA.AperFunction,SMDPad,CuDef*%
G36*
G01*
X14420000Y-10056000D02*
X14420000Y-9756000D01*
G75*
G02*
X14570000Y-9606000I150000J0D01*
G01*
X16320000Y-9606000D01*
G75*
G02*
X16470000Y-9756000I0J-150000D01*
G01*
X16470000Y-10056000D01*
G75*
G02*
X16320000Y-10206000I-150000J0D01*
G01*
X14570000Y-10206000D01*
G75*
G02*
X14420000Y-10056000I0J150000D01*
G01*
G37*
%TD.AperFunction*%
%TO.P,U1,20*%
%TO.N,+3V3*%
%TA.AperFunction,SMDPad,CuDef*%
G36*
G01*
X14420000Y-8786000D02*
X14420000Y-8486000D01*
G75*
G02*
X14570000Y-8336000I150000J0D01*
G01*
X16320000Y-8336000D01*
G75*
G02*
X16470000Y-8486000I0J-150000D01*
G01*
X16470000Y-8786000D01*
G75*
G02*
X16320000Y-8936000I-150000J0D01*
G01*
X14570000Y-8936000D01*
G75*
G02*
X14420000Y-8786000I0J150000D01*
G01*
G37*
%TD.AperFunction*%
%TD*%
D12*
%TO.P,U2,1*%
%TO.N,GND*%
X12258000Y-6080000D03*
%TO.P,U2,2*%
%TO.N,+3V3*%
X14158000Y-6080000D03*
%TO.P,U2,3*%
%TO.N,+5V*%
X13208000Y-4080000D03*
%TD*%
D13*
%TO.N,+5V*%
X21385000Y1856000D02*
X21844000Y1397000D01*
X13208000Y-4080000D02*
X14462000Y-4080000D01*
X15162000Y-3380000D02*
X15162000Y1856000D01*
X14462000Y-4080000D02*
X15162000Y-3380000D01*
X4191000Y1856000D02*
X15162000Y1856000D01*
X15162000Y1856000D02*
X21385000Y1856000D01*
%TO.N,GND*%
X4191000Y-1094000D02*
X4191000Y-3351000D01*
D14*
X7170000Y-20066000D02*
X6145000Y-20066000D01*
D13*
X12258000Y-6080000D02*
X12258000Y-14978000D01*
X8841000Y-1094000D02*
X9017000Y-1270000D01*
X4191000Y-1094000D02*
X8841000Y-1094000D01*
X9017000Y-2839000D02*
X12258000Y-6080000D01*
X9017000Y-1270000D02*
X9017000Y-2839000D01*
X14968456Y-21463000D02*
X21844000Y-21463000D01*
X12258000Y-14978000D02*
X12258000Y-18752544D01*
X12192000Y-20066000D02*
X12881728Y-19376272D01*
X6145000Y-20066000D02*
X12192000Y-20066000D01*
X12258000Y-18752544D02*
X12881728Y-19376272D01*
X12881728Y-19376272D02*
X14968456Y-21463000D01*
%TO.N,+3V3*%
X14682500Y-6080000D02*
X14158000Y-6080000D01*
X18034000Y-2728500D02*
X14682500Y-6080000D01*
X14158000Y-7349000D02*
X15445000Y-8636000D01*
X14158000Y-6080000D02*
X14158000Y-7349000D01*
X12447999Y-4980001D02*
X12357999Y-4890001D01*
X13058001Y-4980001D02*
X12447999Y-4980001D01*
X14158000Y-6080000D02*
X13058001Y-4980001D01*
X10256999Y30001D02*
X11557000Y-1270000D01*
X3350035Y30001D02*
X10256999Y30001D01*
X2338039Y-981995D02*
X3350035Y30001D01*
X2338039Y-4448039D02*
X2338039Y-981995D01*
X4191000Y-6301000D02*
X2338039Y-4448039D01*
X11557000Y-4089002D02*
X12447999Y-4980001D01*
X11557000Y-1270000D02*
X11557000Y-4089002D01*
D14*
%TO.N,Net-(J1-Pad10)*%
X1763031Y-1128031D02*
X-762000Y1397000D01*
X1763031Y-6549031D02*
X1763031Y-1128031D01*
%TO.N,Net-(J1-Pad9)*%
X6145000Y-9906000D02*
X5120000Y-9906000D01*
X1313021Y-7369021D02*
X1313021Y-3218021D01*
X1313021Y-3218021D02*
X-762000Y-1143000D01*
%TO.N,Net-(J1-Pad8)*%
X6145000Y-11176000D02*
X5120000Y-11176000D01*
%TO.N,Net-(J1-Pad7)*%
X5718232Y-12446000D02*
X6145000Y-12446000D01*
%TO.N,Net-(J1-Pad8)*%
X863011Y-5308011D02*
X863011Y-7590779D01*
X-762000Y-3683000D02*
X863011Y-5308011D01*
%TO.N,Net-(J1-Pad6)*%
X5120000Y-13716000D02*
X6145000Y-13716000D01*
%TO.N,Net-(J1-Pad5)*%
X5461000Y-14986000D02*
X6145000Y-14986000D01*
%TO.N,Net-(J3-Pad2)*%
X19768979Y-7877021D02*
X19768979Y-3218021D01*
X16470000Y-11176000D02*
X19768979Y-7877021D01*
X19768979Y-3218021D02*
X21844000Y-1143000D01*
X15445000Y-11176000D02*
X16470000Y-11176000D01*
%TO.N,Net-(J3-Pad3)*%
X20218989Y-5308011D02*
X21844000Y-3683000D01*
X20218989Y-8697011D02*
X20218989Y-5308011D01*
X16470000Y-12446000D02*
X20218989Y-8697011D01*
X15445000Y-12446000D02*
X16470000Y-12446000D01*
%TO.N,Net-(J3-Pad4)*%
X20668999Y-7398001D02*
X21844000Y-6223000D01*
X20668999Y-9517001D02*
X20668999Y-7398001D01*
X16470000Y-13716000D02*
X20668999Y-9517001D01*
X15445000Y-13716000D02*
X16470000Y-13716000D01*
%TO.N,Net-(J3-Pad5)*%
X21844000Y-9612000D02*
X21844000Y-8763000D01*
X15445000Y-14986000D02*
X16470000Y-14986000D01*
%TO.N,Net-(J3-Pad6)*%
X16891000Y-16256000D02*
X21844000Y-11303000D01*
X15445000Y-16256000D02*
X16891000Y-16256000D01*
%TO.N,Net-(J3-Pad7)*%
X18161000Y-17526000D02*
X21844000Y-13843000D01*
X15445000Y-17526000D02*
X18161000Y-17526000D01*
%TO.N,Net-(J3-Pad8)*%
X19431000Y-18796000D02*
X21844000Y-16383000D01*
X15445000Y-18796000D02*
X19431000Y-18796000D01*
%TO.N,Net-(J3-Pad9)*%
X20701000Y-20066000D02*
X21844000Y-18923000D01*
X15445000Y-20066000D02*
X20701000Y-20066000D01*
%TO.N,Net-(J1-Pad10)*%
X16470000Y-9906000D02*
X18034000Y-8342000D01*
X18034000Y-8342000D02*
X18034000Y-5653500D01*
X15445000Y-9906000D02*
X16470000Y-9906000D01*
X19318969Y-4368531D02*
X18034000Y-5653500D01*
X19318969Y-1929029D02*
X19318969Y-4368531D01*
X21279999Y32001D02*
X19318969Y-1929029D01*
X22408001Y32001D02*
X21279999Y32001D01*
X23019001Y-578999D02*
X22408001Y32001D01*
X23019001Y-22027001D02*
X23019001Y-578999D01*
X22408001Y-22638001D02*
X23019001Y-22027001D01*
X4794990Y-20412758D02*
X7020233Y-22638001D01*
X4794990Y-19719242D02*
X4794990Y-20412758D01*
X7020233Y-22638001D02*
X22408001Y-22638001D01*
X5073242Y-19440990D02*
X4794990Y-19719242D01*
X7611420Y-19440990D02*
X5073242Y-19440990D01*
X9340009Y-17712401D02*
X7611420Y-19440990D01*
X6406778Y-7201010D02*
X9340010Y-10134242D01*
X2415010Y-7201010D02*
X6406778Y-7201010D01*
X9340010Y-10134242D02*
X9340009Y-17712401D01*
X1763031Y-6549031D02*
X2415010Y-7201010D01*
%TO.N,Net-(J1-Pad9)*%
X3850000Y-9906000D02*
X6145000Y-9906000D01*
X1313021Y-7369021D02*
X3850000Y-9906000D01*
%TO.N,Net-(J1-Pad8)*%
X4448232Y-11176000D02*
X6145000Y-11176000D01*
X863011Y-7590779D02*
X4448232Y-11176000D01*
%TO.N,Net-(J1-Pad7)*%
X5081822Y-12446000D02*
X6145000Y-12446000D01*
X413001Y-7777179D02*
X5081822Y-12446000D01*
X413001Y-7398001D02*
X413001Y-7777179D01*
X-762000Y-6223000D02*
X413001Y-7398001D01*
%TO.N,Net-(J1-Pad6)*%
X4191000Y-13716000D02*
X6145000Y-13716000D01*
X-762000Y-8763000D02*
X4191000Y-13716000D01*
%TO.N,Net-(J1-Pad5)*%
X2921000Y-14986000D02*
X6145000Y-14986000D01*
X-762000Y-11303000D02*
X2921000Y-14986000D01*
%TO.N,Net-(J1-Pad4)*%
X1651000Y-16256000D02*
X6145000Y-16256000D01*
X-762000Y-13843000D02*
X1651000Y-16256000D01*
%TO.N,Net-(J1-Pad3)*%
X381000Y-17526000D02*
X6145000Y-17526000D01*
X-762000Y-16383000D02*
X381000Y-17526000D01*
%TO.N,Net-(J1-Pad2)*%
X6018000Y-18923000D02*
X6145000Y-18796000D01*
X-762000Y-18923000D02*
X6018000Y-18923000D01*
%TO.N,Net-(J1-Pad1)*%
X-1937001Y-18358999D02*
X-1937001Y-20287999D01*
X-1326001Y-17747999D02*
X-1937001Y-18358999D01*
X-1937001Y-20287999D02*
X-762000Y-21463000D01*
X-197999Y-17747999D02*
X-1326001Y-17747999D01*
X224992Y-18170990D02*
X-197999Y-17747999D01*
X8890000Y-10356000D02*
X8890000Y-17526000D01*
X8245010Y-18170990D02*
X224992Y-18170990D01*
X8890000Y-17526000D02*
X8245010Y-18170990D01*
X7170000Y-8636000D02*
X8890000Y-10356000D01*
X6145000Y-8636000D02*
X7170000Y-8636000D01*
%TO.N,Net-(J3-Pad5)*%
X16470000Y-14986000D02*
X21844000Y-9612000D01*
%TD*%
M02*
