<?xml version="1.0" encoding="UTF-8" standalone="no"?>
<svg width="92.715mm" height="92.715mm" viewBox="-46.3575 -46.3575 92.715 92.715" xmlns="http://www.w3.org/2000/svg">
  <path id="barcode" d="M -18.0 -10.0 L -17.6 -10.0 L -17.6 10.0 L -18.0 10.0 Z" fill="#000000" />
  <path id="barcode" d="M -17.6 -10.0 L -17.200000000000003 -10.0 L -17.200000000000003 10.0 L -17.6 10.0 Z" fill="#000000" />
  <path id="barcode" d="M -16.800000000000004 -10.0 L -16.400000000000006 -10.0 L -16.400000000000006 10.0 L -16.800000000000004 10.0 Z" fill="#000000" />
  <path id="barcode" d="M -15.600000000000007 -10.0 L -15.200000000000006 -10.0 L -15.200000000000006 10.0 L -15.600000000000007 10.0 Z" fill="#000000" />
  <path id="barcode" d="M -15.200000000000006 -10.0 L -14.800000000000006 -10.0 L -14.800000000000006 10.0 L -15.200000000000006 10.0 Z" fill="#000000" />
  <path id="barcode" d="M -14.800000000000006 -10.0 L -14.400000000000006 -10.0 L -14.400000000000006 10.0 L -14.800000000000006 10.0 Z" fill="#000000" />
  <path id="barcode" d="M -13.600000000000005 -10.0 L -13.200000000000005 -10.0 L -13.200000000000005 10.0 L -13.600000000000005 10.0 Z" fill="#000000" />
  <path id="barcode" d="M -12.800000000000004 -10.0 L -12.400000000000004 -10.0 L -12.400000000000004 10.0 L -12.800000000000004 10.0 Z" fill="#000000" />
  <path id="barcode" d="M -12.400000000000004 -10.0 L -12.000000000000004 -10.0 L -12.000000000000004 10.0 L -12.400000000000004 10.0 Z" fill="#000000" />
  <path id="barcode" d="M -10.800000000000002 -10.0 L -10.400000000000002 -10.0 L -10.400000000000002 10.0 L -10.800000000000002 10.0 Z" fill="#000000" />
  <path id="barcode" d="M -10.400000000000002 -10.0 L -10.000000000000002 -10.0 L -10.000000000000002 10.0 L -10.400000000000002 10.0 Z" fill="#000000" />
  <path id="barcode" d="M -10.000000000000002 -10.0 L -9.600000000000001 -10.0 L -9.600000000000001 10.0 L -10.000000000000002 10.0 Z" fill="#000000" />
  <path id="barcode" d="M -9.200000000000001 -10.0 L -8.8 -10.0 L -8.8 10.0 L -9.200000000000001 10.0 Z" fill="#000000" />
  <path id="barcode" d="M -8.0 -10.0 L -7.6 -10.0 L -7.6 10.0 L -8.0 10.0 Z" fill="#000000" />
  <path id="barcode" d="M -7.6 -10.0 L -7.199999999999999 -10.0 L -7.199999999999999 10.0 L -7.6 10.0 Z" fill="#000000" />
  <path id="barcode" d="M -6.799999999999999 -10.0 L -6.399999999999999 -10.0 L -6.399999999999999 10.0 L -6.799999999999999 10.0 Z" fill="#000000" />
  <path id="barcode" d="M -6.399999999999999 -10.0 L -5.999999999999998 -10.0 L -5.999999999999998 10.0 L -6.399999999999999 10.0 Z" fill="#000000" />
  <path id="barcode" d="M -5.999999999999998 -10.0 L -5.599999999999998 -10.0 L -5.599999999999998 10.0 L -5.999999999999998 10.0 Z" fill="#000000" />
  <path id="barcode" d="M -4.799999999999997 -10.0 L -4.399999999999997 -10.0 L -4.399999999999997 10.0 L -4.799999999999997 10.0 Z" fill="#000000" />
  <path id="barcode" d="M -3.999999999999997 -10.0 L -3.599999999999997 -10.0 L -3.599999999999997 10.0 L -3.999999999999997 10.0 Z" fill="#000000" />
  <path id="barcode" d="M -3.599999999999997 -10.0 L -3.199999999999997 -10.0 L -3.199999999999997 10.0 L -3.599999999999997 10.0 Z" fill="#000000" />
  <path id="barcode" d="M -2.3999999999999972 -10.0 L -1.9999999999999973 -10.0 L -1.9999999999999973 10.0 L -2.3999999999999972 10.0 Z" fill="#000000" />
  <path id="barcode" d="M -1.9999999999999973 -10.0 L -1.5999999999999974 -10.0 L -1.5999999999999974 10.0 L -1.9999999999999973 10.0 Z" fill="#000000" />
  <path id="barcode" d="M -1.5999999999999974 -10.0 L -1.1999999999999975 -10.0 L -1.1999999999999975 10.0 L -1.5999999999999974 10.0 Z" fill="#000000" />
  <path id="barcode" d="M -0.39999999999999747 -10.0 L 2.55351295663786e-15 -10.0 L 2.55351295663786e-15 10.0 L -0.39999999999999747 10.0 Z" fill="#000000" />
  <path id="barcode" d="M 1.2000000000000026 -10.0 L 1.6000000000000028 -10.0 L 1.6000000000000028 10.0 L 1.2000000000000026 10.0 Z" fill="#000000" />
  <path id="barcode" d="M 1.6000000000000028 -10.0 L 2.0000000000000027 -10.0 L 2.0000000000000027 10.0 L 1.6000000000000028 10.0 Z" fill="#000000" />
  <path id="barcode" d="M 2.4000000000000026 -10.0 L 2.8000000000000025 -10.0 L 2.8000000000000025 10.0 L 2.4000000000000026 10.0 Z" fill="#000000" />
  <path id="barcode" d="M 4.000000000000003 -10.0 L 4.400000000000003 -10.0 L 4.400000000000003 10.0 L 4.000000000000003 10.0 Z" fill="#000000" />
  <path id="barcode" d="M 5.200000000000004 -10.0 L 5.600000000000004 -10.0 L 5.600000000000004 10.0 L 5.200000000000004 10.0 Z" fill="#000000" />
  <path id="barcode" d="M 5.600000000000004 -10.0 L 6.000000000000004 -10.0 L 6.000000000000004 10.0 L 5.600000000000004 10.0 Z" fill="#000000" />
  <path id="barcode" d="M 6.000000000000004 -10.0 L 6.400000000000005 -10.0 L 6.400000000000005 10.0 L 6.000000000000004 10.0 Z" fill="#000000" />
  <path id="barcode" d="M 6.400000000000005 -10.0 L 6.800000000000005 -10.0 L 6.800000000000005 10.0 L 6.400000000000005 10.0 Z" fill="#000000" />
  <path id="barcode" d="M 7.600000000000006 -10.0 L 8.000000000000005 -10.0 L 8.000000000000005 10.0 L 7.600000000000006 10.0 Z" fill="#000000" />
  <path id="barcode" d="M 8.400000000000006 -10.0 L 8.800000000000006 -10.0 L 8.800000000000006 10.0 L 8.400000000000006 10.0 Z" fill="#000000" />
  <path id="barcode" d="M 8.800000000000006 -10.0 L 9.200000000000006 -10.0 L 9.200000000000006 10.0 L 8.800000000000006 10.0 Z" fill="#000000" />
  <path id="barcode" d="M 9.200000000000006 -10.0 L 9.600000000000007 -10.0 L 9.600000000000007 10.0 L 9.200000000000006 10.0 Z" fill="#000000" />
  <path id="barcode" d="M 9.600000000000007 -10.0 L 10.000000000000007 -10.0 L 10.000000000000007 10.0 L 9.600000000000007 10.0 Z" fill="#000000" />
  <path id="barcode" d="M 11.200000000000008 -10.0 L 11.600000000000009 -10.0 L 11.600000000000009 10.0 L 11.200000000000008 10.0 Z" fill="#000000" />
  <path id="barcode" d="M 12.000000000000009 -10.0 L 12.40000000000001 -10.0 L 12.40000000000001 10.0 L 12.000000000000009 10.0 Z" fill="#000000" />
  <path id="barcode" d="M 12.80000000000001 -10.0 L 13.20000000000001 -10.0 L 13.20000000000001 10.0 L 12.80000000000001 10.0 Z" fill="#000000" />
  <path id="barcode" d="M 13.20000000000001 -10.0 L 13.60000000000001 -10.0 L 13.60000000000001 10.0 L 13.20000000000001 10.0 Z" fill="#000000" />
  <path id="barcode" d="M 14.800000000000011 -10.0 L 15.200000000000012 -10.0 L 15.200000000000012 10.0 L 14.800000000000011 10.0 Z" fill="#000000" />
  <path id="barcode" d="M 15.200000000000012 -10.0 L 15.600000000000012 -10.0 L 15.600000000000012 10.0 L 15.200000000000012 10.0 Z" fill="#000000" />
  <path id="barcode" d="M 15.600000000000012 -10.0 L 16.00000000000001 -10.0 L 16.00000000000001 10.0 L 15.600000000000012 10.0 Z" fill="#000000" />
  <path id="barcode" d="M 16.40000000000001 -10.0 L 16.800000000000008 -10.0 L 16.800000000000008 10.0 L 16.40000000000001 10.0 Z" fill="#000000" />
  <path id="barcode" d="M 17.200000000000006 -10.0 L 17.600000000000005 -10.0 L 17.600000000000005 10.0 L 17.200000000000006 10.0 Z" fill="#000000" />
  <path id="barcode" d="M 17.600000000000005 -10.0 L 18.000000000000004 -10.0 L 18.000000000000004 10.0 L 17.600000000000005 10.0 Z" fill="#000000" />
  <path id="text" d="M -12.560000000000002 -15.72 L -12.260000000000002 -15.72 L -12.260000000000002 -15.620000000000001 L -12.560000000000002 -15.620000000000001 Z" fill="#000000" />
  <path id="text" d="M -10.760000000000002 -15.72 L -9.96 -15.72 L -9.96 -15.620000000000001 L -10.760000000000002 -15.620000000000001 Z" fill="#000000" />
  <path id="text" d="M -7.360000000000002 -15.72 L -7.060000000000002 -15.72 L -7.060000000000002 -15.620000000000001 L -7.360000000000002 -15.620000000000001 Z" fill="#000000" />
  <path id="text" d="M -5.160000000000002 -15.72 L -4.360000000000001 -15.72 L -4.360000000000001 -15.620000000000001 L -5.160000000000002 -15.620000000000001 Z" fill="#000000" />
  <path id="text" d="M -1.7600000000000016 -15.72 L -1.4600000000000009 -15.72 L -1.4600000000000009 -15.620000000000001 L -1.7600000000000016 -15.620000000000001 Z" fill="#000000" />
  <path id="text" d="M 0.5399999999999991 -15.72 L 1.339999999999998 -15.72 L 1.339999999999998 -15.620000000000001 L 0.5399999999999991 -15.620000000000001 Z" fill="#000000" />
  <path id="text" d="M 3.2399999999999984 -15.72 L 4.039999999999999 -15.72 L 4.039999999999999 -15.620000000000001 L 3.2399999999999984 -15.620000000000001 Z" fill="#000000" />
  <path id="text" d="M 5.34 -15.72 L 7.640000000000001 -15.72 L 7.640000000000001 -15.620000000000001 L 5.34 -15.620000000000001 Z" fill="#000000" />
  <path id="text" d="M 8.939999999999998 -15.72 L 9.739999999999998 -15.72 L 9.739999999999998 -15.620000000000001 L 8.939999999999998 -15.620000000000001 Z" fill="#000000" />
  <path id="text" d="M 11.439999999999998 -15.72 L 13.14 -15.72 L 13.14 -15.620000000000001 L 11.439999999999998 -15.620000000000001 Z" fill="#000000" />
  <path id="text" d="M -12.660000000000002 -15.620000000000001 L -12.260000000000002 -15.620000000000001 L -12.260000000000002 -15.52 L -12.660000000000002 -15.52 Z" fill="#000000" />
  <path id="text" d="M -10.960000000000003 -15.620000000000001 L -9.760000000000002 -15.620000000000001 L -9.760000000000002 -15.52 L -10.960000000000003 -15.52 Z" fill="#000000" />
  <path id="text" d="M -7.460000000000002 -15.620000000000001 L -7.060000000000002 -15.620000000000001 L -7.060000000000002 -15.52 L -7.460000000000002 -15.52 Z" fill="#000000" />
  <path id="text" d="M -5.360000000000001 -15.620000000000001 L -4.160000000000002 -15.620000000000001 L -4.160000000000002 -15.52 L -5.360000000000001 -15.52 Z" fill="#000000" />
  <path id="text" d="M -1.8600000000000012 -15.620000000000001 L -1.4600000000000009 -15.620000000000001 L -1.4600000000000009 -15.52 L -1.8600000000000012 -15.52 Z" fill="#000000" />
  <path id="text" d="M 0.23999999999999844 -15.620000000000001 L 1.5399999999999991 -15.620000000000001 L 1.5399999999999991 -15.52 L 0.23999999999999844 -15.52 Z" fill="#000000" />
  <path id="text" d="M 3.039999999999999 -15.620000000000001 L 4.239999999999998 -15.620000000000001 L 4.239999999999998 -15.52 L 3.039999999999999 -15.52 Z" fill="#000000" />
  <path id="text" d="M 5.34 -15.620000000000001 L 7.640000000000001 -15.620000000000001 L 7.640000000000001 -15.52 L 5.34 -15.52 Z" fill="#000000" />
  <path id="text" d="M 8.64 -15.620000000000001 L 9.939999999999998 -15.620000000000001 L 9.939999999999998 -15.52 L 8.64 -15.52 Z" fill="#000000" />
  <path id="text" d="M 11.439999999999998 -15.620000000000001 L 13.14 -15.620000000000001 L 13.14 -15.52 L 11.439999999999998 -15.52 Z" fill="#000000" />
  <path id="text" d="M -12.760000000000002 -15.52 L -12.260000000000002 -15.52 L -12.260000000000002 -15.42 L -12.760000000000002 -15.42 Z" fill="#000000" />
  <path id="text" d="M -11.060000000000002 -15.52 L -9.560000000000002 -15.52 L -9.560000000000002 -15.42 L -11.060000000000002 -15.42 Z" fill="#000000" />
  <path id="text" d="M -7.460000000000002 -15.52 L -7.060000000000002 -15.52 L -7.060000000000002 -15.42 L -7.460000000000002 -15.42 Z" fill="#000000" />
  <path id="text" d="M -5.460000000000003 -15.52 L -3.960000000000001 -15.52 L -3.960000000000001 -15.42 L -5.460000000000003 -15.42 Z" fill="#000000" />
  <path id="text" d="M -1.8600000000000012 -15.52 L -1.4600000000000009 -15.52 L -1.4600000000000009 -15.42 L -1.8600000000000012 -15.42 Z" fill="#000000" />
  <path id="text" d="M 0.1399999999999988 -15.52 L 1.7399999999999984 -15.52 L 1.7399999999999984 -15.42 L 0.1399999999999988 -15.42 Z" fill="#000000" />
  <path id="text" d="M 2.9399999999999977 -15.52 L 4.439999999999998 -15.52 L 4.439999999999998 -15.42 L 2.9399999999999977 -15.42 Z" fill="#000000" />
  <path id="text" d="M 5.34 -15.52 L 7.640000000000001 -15.52 L 7.640000000000001 -15.42 L 5.34 -15.42 Z" fill="#000000" />
  <path id="text" d="M 8.54 -15.52 L 10.14 -15.52 L 10.14 -15.42 L 8.54 -15.42 Z" fill="#000000" />
  <path id="text" d="M 11.34 -15.52 L 13.14 -15.52 L 13.14 -15.42 L 11.34 -15.42 Z" fill="#000000" />
  <path id="text" d="M -12.860000000000003 -15.42 L -12.260000000000002 -15.42 L -12.260000000000002 -15.32 L -12.860000000000003 -15.32 Z" fill="#000000" />
  <path id="text" d="M -11.160000000000002 -15.42 L -9.46 -15.42 L -9.46 -15.32 L -11.160000000000002 -15.32 Z" fill="#000000" />
  <path id="text" d="M -7.560000000000002 -15.42 L -7.060000000000002 -15.42 L -7.060000000000002 -15.32 L -7.560000000000002 -15.32 Z" fill="#000000" />
  <path id="text" d="M -5.560000000000002 -15.42 L -3.860000000000001 -15.42 L -3.860000000000001 -15.32 L -5.560000000000002 -15.32 Z" fill="#000000" />
  <path id="text" d="M -1.9600000000000009 -15.42 L -1.4600000000000009 -15.42 L -1.4600000000000009 -15.32 L -1.9600000000000009 -15.32 Z" fill="#000000" />
  <path id="text" d="M 0.03999999999999915 -15.42 L 1.8399999999999999 -15.42 L 1.8399999999999999 -15.32 L 0.03999999999999915 -15.32 Z" fill="#000000" />
  <path id="text" d="M 2.84 -15.42 L 4.539999999999999 -15.42 L 4.539999999999999 -15.32 L 2.84 -15.32 Z" fill="#000000" />
  <path id="text" d="M 5.34 -15.42 L 7.640000000000001 -15.42 L 7.640000000000001 -15.32 L 5.34 -15.32 Z" fill="#000000" />
  <path id="text" d="M 8.439999999999998 -15.42 L 10.239999999999998 -15.42 L 10.239999999999998 -15.32 L 8.439999999999998 -15.32 Z" fill="#000000" />
  <path id="text" d="M 11.34 -15.42 L 13.14 -15.42 L 13.14 -15.32 L 11.34 -15.32 Z" fill="#000000" />
  <path id="text" d="M -12.960000000000003 -15.32 L -12.260000000000002 -15.32 L -12.260000000000002 -15.22 L -12.960000000000003 -15.22 Z" fill="#000000" />
  <path id="text" d="M -11.260000000000002 -15.32 L -10.660000000000002 -15.32 L -10.660000000000002 -15.22 L -11.260000000000002 -15.22 Z" fill="#000000" />
  <path id="text" d="M -10.060000000000002 -15.32 L -9.360000000000003 -15.32 L -9.360000000000003 -15.22 L -10.060000000000002 -15.22 Z" fill="#000000" />
  <path id="text" d="M -7.660000000000002 -15.32 L -7.060000000000002 -15.32 L -7.060000000000002 -15.22 L -7.660000000000002 -15.22 Z" fill="#000000" />
  <path id="text" d="M -5.660000000000002 -15.32 L -5.060000000000002 -15.32 L -5.060000000000002 -15.22 L -5.660000000000002 -15.22 Z" fill="#000000" />
  <path id="text" d="M -4.460000000000001 -15.32 L -3.7600000000000016 -15.32 L -3.7600000000000016 -15.22 L -4.460000000000001 -15.22 Z" fill="#000000" />
  <path id="text" d="M -2.0600000000000023 -15.32 L -1.4600000000000009 -15.32 L -1.4600000000000009 -15.22 L -2.0600000000000023 -15.22 Z" fill="#000000" />
  <path id="text" d="M -0.060000000000002274 -15.32 L 0.5399999999999991 -15.32 L 0.5399999999999991 -15.22 L -0.060000000000002274 -15.22 Z" fill="#000000" />
  <path id="text" d="M 1.2399999999999984 -15.32 L 1.8399999999999999 -15.32 L 1.8399999999999999 -15.22 L 1.2399999999999984 -15.22 Z" fill="#000000" />
  <path id="text" d="M 2.7399999999999984 -15.32 L 3.34 -15.32 L 3.34 -15.22 L 2.7399999999999984 -15.22 Z" fill="#000000" />
  <path id="text" d="M 3.9399999999999977 -15.32 L 4.640000000000001 -15.32 L 4.640000000000001 -15.22 L 3.9399999999999977 -15.22 Z" fill="#000000" />
  <path id="text" d="M 7.239999999999998 -15.32 L 7.539999999999999 -15.32 L 7.539999999999999 -15.22 L 7.239999999999998 -15.22 Z" fill="#000000" />
  <path id="text" d="M 8.34 -15.32 L 8.939999999999998 -15.32 L 8.939999999999998 -15.22 L 8.34 -15.22 Z" fill="#000000" />
  <path id="text" d="M 9.64 -15.32 L 10.34 -15.32 L 10.34 -15.22 L 9.64 -15.22 Z" fill="#000000" />
  <path id="text" d="M 11.34 -15.32 L 11.739999999999998 -15.32 L 11.739999999999998 -15.22 L 11.34 -15.22 Z" fill="#000000" />
  <path id="text" d="M -12.960000000000003 -15.22 L -12.260000000000002 -15.22 L -12.260000000000002 -15.120000000000001 L -12.960000000000003 -15.120000000000001 Z" fill="#000000" />
  <path id="text" d="M -11.360000000000003 -15.22 L -10.760000000000002 -15.22 L -10.760000000000002 -15.120000000000001 L -11.360000000000003 -15.120000000000001 Z" fill="#000000" />
  <path id="text" d="M -9.860000000000003 -15.22 L -9.360000000000003 -15.22 L -9.360000000000003 -15.120000000000001 L -9.860000000000003 -15.120000000000001 Z" fill="#000000" />
  <path id="text" d="M -7.760000000000002 -15.22 L -7.060000000000002 -15.22 L -7.060000000000002 -15.120000000000001 L -7.760000000000002 -15.120000000000001 Z" fill="#000000" />
  <path id="text" d="M -5.760000000000002 -15.22 L -5.160000000000002 -15.22 L -5.160000000000002 -15.120000000000001 L -5.760000000000002 -15.120000000000001 Z" fill="#000000" />
  <path id="text" d="M -4.260000000000002 -15.22 L -3.7600000000000016 -15.22 L -3.7600000000000016 -15.120000000000001 L -4.260000000000002 -15.120000000000001 Z" fill="#000000" />
  <path id="text" d="M -2.160000000000002 -15.22 L -1.4600000000000009 -15.22 L -1.4600000000000009 -15.120000000000001 L -2.160000000000002 -15.120000000000001 Z" fill="#000000" />
  <path id="text" d="M -0.16000000000000192 -15.22 L 0.4399999999999977 -15.22 L 0.4399999999999977 -15.120000000000001 L -0.16000000000000192 -15.120000000000001 Z" fill="#000000" />
  <path id="text" d="M 1.4399999999999977 -15.22 L 1.9399999999999977 -15.22 L 1.9399999999999977 -15.120000000000001 L 1.4399999999999977 -15.120000000000001 Z" fill="#000000" />
  <path id="text" d="M 2.639999999999997 -15.22 L 3.2399999999999984 -15.22 L 3.2399999999999984 -15.120000000000001 L 2.639999999999997 -15.120000000000001 Z" fill="#000000" />
  <path id="text" d="M 4.139999999999997 -15.22 L 4.640000000000001 -15.22 L 4.640000000000001 -15.120000000000001 L 4.139999999999997 -15.120000000000001 Z" fill="#000000" />
  <path id="text" d="M 7.140000000000001 -15.22 L 7.439999999999998 -15.22 L 7.439999999999998 -15.120000000000001 L 7.140000000000001 -15.120000000000001 Z" fill="#000000" />
  <path id="text" d="M 8.34 -15.22 L 8.84 -15.22 L 8.84 -15.120000000000001 L 8.34 -15.120000000000001 Z" fill="#000000" />
  <path id="text" d="M 9.84 -15.22 L 10.34 -15.22 L 10.34 -15.120000000000001 L 9.84 -15.120000000000001 Z" fill="#000000" />
  <path id="text" d="M 11.34 -15.22 L 11.739999999999998 -15.22 L 11.739999999999998 -15.120000000000001 L 11.34 -15.120000000000001 Z" fill="#000000" />
  <path id="text" d="M -13.060000000000002 -15.120000000000001 L -12.260000000000002 -15.120000000000001 L -12.260000000000002 -15.02 L -13.060000000000002 -15.02 Z" fill="#000000" />
  <path id="text" d="M -11.360000000000003 -15.120000000000001 L -10.860000000000003 -15.120000000000001 L -10.860000000000003 -15.02 L -11.360000000000003 -15.02 Z" fill="#000000" />
  <path id="text" d="M -9.760000000000002 -15.120000000000001 L -9.260000000000002 -15.120000000000001 L -9.260000000000002 -15.02 L -9.760000000000002 -15.02 Z" fill="#000000" />
  <path id="text" d="M -7.960000000000002 -15.120000000000001 L -7.060000000000002 -15.120000000000001 L -7.060000000000002 -15.02 L -7.960000000000002 -15.02 Z" fill="#000000" />
  <path id="text" d="M -5.760000000000002 -15.120000000000001 L -5.260000000000002 -15.120000000000001 L -5.260000000000002 -15.02 L -5.760000000000002 -15.02 Z" fill="#000000" />
  <path id="text" d="M -4.160000000000002 -15.120000000000001 L -3.660000000000002 -15.120000000000001 L -3.660000000000002 -15.02 L -4.160000000000002 -15.02 Z" fill="#000000" />
  <path id="text" d="M -2.360000000000001 -15.120000000000001 L -1.4600000000000009 -15.120000000000001 L -1.4600000000000009 -15.02 L -2.360000000000001 -15.02 Z" fill="#000000" />
  <path id="text" d="M -0.16000000000000192 -15.120000000000001 L 0.23999999999999844 -15.120000000000001 L 0.23999999999999844 -15.02 L -0.16000000000000192 -15.02 Z" fill="#000000" />
  <path id="text" d="M 1.5399999999999991 -15.120000000000001 L 1.9399999999999977 -15.120000000000001 L 1.9399999999999977 -15.02 L 1.5399999999999991 -15.02 Z" fill="#000000" />
  <path id="text" d="M 2.639999999999997 -15.120000000000001 L 3.139999999999997 -15.120000000000001 L 3.139999999999997 -15.02 L 2.639999999999997 -15.02 Z" fill="#000000" />
  <path id="text" d="M 4.239999999999998 -15.120000000000001 L 4.739999999999998 -15.120000000000001 L 4.739999999999998 -15.02 L 4.239999999999998 -15.02 Z" fill="#000000" />
  <path id="text" d="M 7.039999999999999 -15.120000000000001 L 7.34 -15.120000000000001 L 7.34 -15.02 L 7.039999999999999 -15.02 Z" fill="#000000" />
  <path id="text" d="M 8.239999999999998 -15.120000000000001 L 8.739999999999998 -15.120000000000001 L 8.739999999999998 -15.02 L 8.239999999999998 -15.02 Z" fill="#000000" />
  <path id="text" d="M 9.939999999999998 -15.120000000000001 L 10.439999999999998 -15.120000000000001 L 10.439999999999998 -15.02 L 9.939999999999998 -15.02 Z" fill="#000000" />
  <path id="text" d="M 11.34 -15.120000000000001 L 11.739999999999998 -15.120000000000001 L 11.739999999999998 -15.02 L 11.34 -15.02 Z" fill="#000000" />
  <path id="text" d="M -13.160000000000002 -15.02 L -12.260000000000002 -15.02 L -12.260000000000002 -14.92 L -13.160000000000002 -14.92 Z" fill="#000000" />
  <path id="text" d="M -11.460000000000003 -15.02 L -10.960000000000003 -15.02 L -10.960000000000003 -14.92 L -11.460000000000003 -14.92 Z" fill="#000000" />
  <path id="text" d="M -9.660000000000002 -15.02 L -9.260000000000002 -15.02 L -9.260000000000002 -14.92 L -9.660000000000002 -14.92 Z" fill="#000000" />
  <path id="text" d="M -8.060000000000002 -15.02 L -7.060000000000002 -15.02 L -7.060000000000002 -14.92 L -8.060000000000002 -14.92 Z" fill="#000000" />
  <path id="text" d="M -5.860000000000001 -15.02 L -5.360000000000001 -15.02 L -5.360000000000001 -14.92 L -5.860000000000001 -14.92 Z" fill="#000000" />
  <path id="text" d="M -4.060000000000002 -15.02 L -3.660000000000002 -15.02 L -3.660000000000002 -14.92 L -4.060000000000002 -14.92 Z" fill="#000000" />
  <path id="text" d="M -2.460000000000001 -15.02 L -1.4600000000000009 -15.02 L -1.4600000000000009 -14.92 L -2.460000000000001 -14.92 Z" fill="#000000" />
  <path id="text" d="M -0.26000000000000156 -15.02 L 0.23999999999999844 -15.02 L 0.23999999999999844 -14.92 L -0.26000000000000156 -14.92 Z" fill="#000000" />
  <path id="text" d="M 1.5399999999999991 -15.02 L 2.039999999999999 -15.02 L 2.039999999999999 -14.92 L 1.5399999999999991 -14.92 Z" fill="#000000" />
  <path id="text" d="M 2.539999999999999 -15.02 L 3.039999999999999 -15.02 L 3.039999999999999 -14.92 L 2.539999999999999 -14.92 Z" fill="#000000" />
  <path id="text" d="M 4.34 -15.02 L 4.739999999999998 -15.02 L 4.739999999999998 -14.92 L 4.34 -14.92 Z" fill="#000000" />
  <path id="text" d="M 6.939999999999998 -15.02 L 7.34 -15.02 L 7.34 -14.92 L 6.939999999999998 -14.92 Z" fill="#000000" />
  <path id="text" d="M 8.239999999999998 -15.02 L 8.64 -15.02 L 8.64 -14.92 L 8.239999999999998 -14.92 Z" fill="#000000" />
  <path id="text" d="M 10.04 -15.02 L 10.439999999999998 -15.02 L 10.439999999999998 -14.92 L 10.04 -14.92 Z" fill="#000000" />
  <path id="text" d="M 11.239999999999998 -15.02 L 11.64 -15.02 L 11.64 -14.92 L 11.239999999999998 -14.92 Z" fill="#000000" />
  <path id="text" d="M -13.260000000000002 -14.92 L -12.760000000000002 -14.92 L -12.760000000000002 -14.82 L -13.260000000000002 -14.82 Z" fill="#000000" />
  <path id="text" d="M -12.660000000000002 -14.92 L -12.260000000000002 -14.92 L -12.260000000000002 -14.82 L -12.660000000000002 -14.82 Z" fill="#000000" />
  <path id="text" d="M -11.460000000000003 -14.92 L -11.060000000000002 -14.92 L -11.060000000000002 -14.82 L -11.460000000000003 -14.82 Z" fill="#000000" />
  <path id="text" d="M -9.660000000000002 -14.92 L -9.260000000000002 -14.92 L -9.260000000000002 -14.82 L -9.660000000000002 -14.82 Z" fill="#000000" />
  <path id="text" d="M -8.260000000000002 -14.92 L -7.560000000000002 -14.92 L -7.560000000000002 -14.82 L -8.260000000000002 -14.82 Z" fill="#000000" />
  <path id="text" d="M -7.460000000000002 -14.92 L -7.060000000000002 -14.92 L -7.060000000000002 -14.82 L -7.460000000000002 -14.82 Z" fill="#000000" />
  <path id="text" d="M -5.860000000000001 -14.92 L -5.460000000000003 -14.92 L -5.460000000000003 -14.82 L -5.860000000000001 -14.82 Z" fill="#000000" />
  <path id="text" d="M -4.060000000000002 -14.92 L -3.660000000000002 -14.92 L -3.660000000000002 -14.82 L -4.060000000000002 -14.82 Z" fill="#000000" />
  <path id="text" d="M -2.660000000000002 -14.92 L -1.9600000000000009 -14.92 L -1.9600000000000009 -14.82 L -2.660000000000002 -14.82 Z" fill="#000000" />
  <path id="text" d="M -1.8600000000000012 -14.92 L -1.4600000000000009 -14.92 L -1.4600000000000009 -14.82 L -1.8600000000000012 -14.82 Z" fill="#000000" />
  <path id="text" d="M -0.26000000000000156 -14.92 L 0.1399999999999988 -14.92 L 0.1399999999999988 -14.82 L -0.26000000000000156 -14.82 Z" fill="#000000" />
  <path id="text" d="M 1.639999999999997 -14.92 L 2.039999999999999 -14.92 L 2.039999999999999 -14.82 L 1.639999999999997 -14.82 Z" fill="#000000" />
  <path id="text" d="M 2.539999999999999 -14.92 L 2.9399999999999977 -14.92 L 2.9399999999999977 -14.82 L 2.539999999999999 -14.82 Z" fill="#000000" />
  <path id="text" d="M 4.34 -14.92 L 4.739999999999998 -14.92 L 4.739999999999998 -14.82 L 4.34 -14.82 Z" fill="#000000" />
  <path id="text" d="M 6.84 -14.92 L 7.239999999999998 -14.92 L 7.239999999999998 -14.82 L 6.84 -14.82 Z" fill="#000000" />
  <path id="text" d="M 8.239999999999998 -14.92 L 8.64 -14.92 L 8.64 -14.82 L 8.239999999999998 -14.82 Z" fill="#000000" />
  <path id="text" d="M 10.04 -14.92 L 10.439999999999998 -14.92 L 10.439999999999998 -14.82 L 10.04 -14.82 Z" fill="#000000" />
  <path id="text" d="M 11.239999999999998 -14.92 L 11.64 -14.92 L 11.64 -14.82 L 11.239999999999998 -14.82 Z" fill="#000000" />
  <path id="text" d="M -13.260000000000002 -14.82 L -12.860000000000003 -14.82 L -12.860000000000003 -14.72 L -13.260000000000002 -14.72 Z" fill="#000000" />
  <path id="text" d="M -12.660000000000002 -14.82 L -12.260000000000002 -14.82 L -12.260000000000002 -14.72 L -12.660000000000002 -14.72 Z" fill="#000000" />
  <path id="text" d="M -11.260000000000002 -14.82 L -11.060000000000002 -14.82 L -11.060000000000002 -14.72 L -11.260000000000002 -14.72 Z" fill="#000000" />
  <path id="text" d="M -9.660000000000002 -14.82 L -9.260000000000002 -14.82 L -9.260000000000002 -14.72 L -9.660000000000002 -14.72 Z" fill="#000000" />
  <path id="text" d="M -8.360000000000003 -14.82 L -7.660000000000002 -14.82 L -7.660000000000002 -14.72 L -8.360000000000003 -14.72 Z" fill="#000000" />
  <path id="text" d="M -7.460000000000002 -14.82 L -7.060000000000002 -14.82 L -7.060000000000002 -14.72 L -7.460000000000002 -14.72 Z" fill="#000000" />
  <path id="text" d="M -5.660000000000002 -14.82 L -5.460000000000003 -14.82 L -5.460000000000003 -14.72 L -5.660000000000002 -14.72 Z" fill="#000000" />
  <path id="text" d="M -4.060000000000002 -14.82 L -3.660000000000002 -14.82 L -3.660000000000002 -14.72 L -4.060000000000002 -14.72 Z" fill="#000000" />
  <path id="text" d="M -2.7600000000000016 -14.82 L -2.0600000000000023 -14.82 L -2.0600000000000023 -14.72 L -2.7600000000000016 -14.72 Z" fill="#000000" />
  <path id="text" d="M -1.8600000000000012 -14.82 L -1.4600000000000009 -14.82 L -1.4600000000000009 -14.72 L -1.8600000000000012 -14.72 Z" fill="#000000" />
  <path id="text" d="M -0.26000000000000156 -14.82 L 0.1399999999999988 -14.82 L 0.1399999999999988 -14.72 L -0.26000000000000156 -14.72 Z" fill="#000000" />
  <path id="text" d="M 1.639999999999997 -14.82 L 2.039999999999999 -14.82 L 2.039999999999999 -14.72 L 1.639999999999997 -14.72 Z" fill="#000000" />
  <path id="text" d="M 2.7399999999999984 -14.82 L 2.9399999999999977 -14.82 L 2.9399999999999977 -14.72 L 2.7399999999999984 -14.72 Z" fill="#000000" />
  <path id="text" d="M 4.34 -14.82 L 4.739999999999998 -14.82 L 4.739999999999998 -14.72 L 4.34 -14.72 Z" fill="#000000" />
  <path id="text" d="M 6.84 -14.82 L 7.140000000000001 -14.82 L 7.140000000000001 -14.72 L 6.84 -14.72 Z" fill="#000000" />
  <path id="text" d="M 8.239999999999998 -14.82 L 8.64 -14.82 L 8.64 -14.72 L 8.239999999999998 -14.72 Z" fill="#000000" />
  <path id="text" d="M 10.04 -14.82 L 10.439999999999998 -14.82 L 10.439999999999998 -14.72 L 10.04 -14.72 Z" fill="#000000" />
  <path id="text" d="M 11.239999999999998 -14.82 L 11.64 -14.82 L 11.64 -14.72 L 11.239999999999998 -14.72 Z" fill="#000000" />
  <path id="text" d="M -13.360000000000003 -14.72 L -12.860000000000003 -14.72 L -12.860000000000003 -14.620000000000001 L -13.360000000000003 -14.620000000000001 Z" fill="#000000" />
  <path id="text" d="M -12.660000000000002 -14.72 L -12.260000000000002 -14.72 L -12.260000000000002 -14.620000000000001 L -12.660000000000002 -14.620000000000001 Z" fill="#000000" />
  <path id="text" d="M -9.660000000000002 -14.72 L -9.260000000000002 -14.72 L -9.260000000000002 -14.620000000000001 L -9.660000000000002 -14.620000000000001 Z" fill="#000000" />
  <path id="text" d="M -8.360000000000003 -14.72 L -7.760000000000002 -14.72 L -7.760000000000002 -14.620000000000001 L -8.360000000000003 -14.620000000000001 Z" fill="#000000" />
  <path id="text" d="M -7.460000000000002 -14.72 L -7.060000000000002 -14.72 L -7.060000000000002 -14.620000000000001 L -7.460000000000002 -14.620000000000001 Z" fill="#000000" />
  <path id="text" d="M -4.060000000000002 -14.72 L -3.660000000000002 -14.72 L -3.660000000000002 -14.620000000000001 L -4.060000000000002 -14.620000000000001 Z" fill="#000000" />
  <path id="text" d="M -2.7600000000000016 -14.72 L -2.160000000000002 -14.72 L -2.160000000000002 -14.620000000000001 L -2.7600000000000016 -14.620000000000001 Z" fill="#000000" />
  <path id="text" d="M -1.8600000000000012 -14.72 L -1.4600000000000009 -14.72 L -1.4600000000000009 -14.620000000000001 L -1.8600000000000012 -14.620000000000001 Z" fill="#000000" />
  <path id="text" d="M -0.060000000000002274 -14.72 L 0.1399999999999988 -14.72 L 0.1399999999999988 -14.620000000000001 L -0.060000000000002274 -14.620000000000001 Z" fill="#000000" />
  <path id="text" d="M 1.639999999999997 -14.72 L 2.039999999999999 -14.72 L 2.039999999999999 -14.620000000000001 L 1.639999999999997 -14.620000000000001 Z" fill="#000000" />
  <path id="text" d="M 4.34 -14.72 L 4.739999999999998 -14.72 L 4.739999999999998 -14.620000000000001 L 4.34 -14.620000000000001 Z" fill="#000000" />
  <path id="text" d="M 6.739999999999998 -14.72 L 7.140000000000001 -14.72 L 7.140000000000001 -14.620000000000001 L 6.739999999999998 -14.620000000000001 Z" fill="#000000" />
  <path id="text" d="M 8.239999999999998 -14.72 L 8.64 -14.72 L 8.64 -14.620000000000001 L 8.239999999999998 -14.620000000000001 Z" fill="#000000" />
  <path id="text" d="M 10.04 -14.72 L 10.439999999999998 -14.72 L 10.439999999999998 -14.620000000000001 L 10.04 -14.620000000000001 Z" fill="#000000" />
  <path id="text" d="M 11.239999999999998 -14.72 L 11.64 -14.72 L 11.64 -14.620000000000001 L 11.239999999999998 -14.620000000000001 Z" fill="#000000" />
  <path id="text" d="M -13.460000000000003 -14.620000000000001 L -12.960000000000003 -14.620000000000001 L -12.960000000000003 -14.52 L -13.460000000000003 -14.52 Z" fill="#000000" />
  <path id="text" d="M -12.660000000000002 -14.620000000000001 L -12.260000000000002 -14.620000000000001 L -12.260000000000002 -14.52 L -12.660000000000002 -14.52 Z" fill="#000000" />
  <path id="text" d="M -9.660000000000002 -14.620000000000001 L -9.260000000000002 -14.620000000000001 L -9.260000000000002 -14.52 L -9.660000000000002 -14.52 Z" fill="#000000" />
  <path id="text" d="M -8.360000000000003 -14.620000000000001 L -7.960000000000002 -14.620000000000001 L -7.960000000000002 -14.52 L -8.360000000000003 -14.52 Z" fill="#000000" />
  <path id="text" d="M -7.460000000000002 -14.620000000000001 L -7.060000000000002 -14.620000000000001 L -7.060000000000002 -14.52 L -7.460000000000002 -14.52 Z" fill="#000000" />
  <path id="text" d="M -4.060000000000002 -14.620000000000001 L -3.660000000000002 -14.620000000000001 L -3.660000000000002 -14.52 L -4.060000000000002 -14.52 Z" fill="#000000" />
  <path id="text" d="M -2.7600000000000016 -14.620000000000001 L -2.360000000000001 -14.620000000000001 L -2.360000000000001 -14.52 L -2.7600000000000016 -14.52 Z" fill="#000000" />
  <path id="text" d="M -1.8600000000000012 -14.620000000000001 L -1.4600000000000009 -14.620000000000001 L -1.4600000000000009 -14.52 L -1.8600000000000012 -14.52 Z" fill="#000000" />
  <path id="text" d="M 1.639999999999997 -14.620000000000001 L 2.039999999999999 -14.620000000000001 L 2.039999999999999 -14.52 L 1.639999999999997 -14.52 Z" fill="#000000" />
  <path id="text" d="M 4.34 -14.620000000000001 L 4.739999999999998 -14.620000000000001 L 4.739999999999998 -14.52 L 4.34 -14.52 Z" fill="#000000" />
  <path id="text" d="M 6.640000000000001 -14.620000000000001 L 7.039999999999999 -14.620000000000001 L 7.039999999999999 -14.52 L 6.640000000000001 -14.52 Z" fill="#000000" />
  <path id="text" d="M 8.239999999999998 -14.620000000000001 L 8.739999999999998 -14.620000000000001 L 8.739999999999998 -14.52 L 8.239999999999998 -14.52 Z" fill="#000000" />
  <path id="text" d="M 9.939999999999998 -14.620000000000001 L 10.439999999999998 -14.620000000000001 L 10.439999999999998 -14.52 L 9.939999999999998 -14.52 Z" fill="#000000" />
  <path id="text" d="M 11.14 -14.620000000000001 L 11.54 -14.620000000000001 L 11.54 -14.52 L 11.14 -14.52 Z" fill="#000000" />
  <path id="text" d="M -13.560000000000002 -14.52 L -13.060000000000002 -14.52 L -13.060000000000002 -14.42 L -13.560000000000002 -14.42 Z" fill="#000000" />
  <path id="text" d="M -12.660000000000002 -14.52 L -12.260000000000002 -14.52 L -12.260000000000002 -14.42 L -12.660000000000002 -14.42 Z" fill="#000000" />
  <path id="text" d="M -9.760000000000002 -14.52 L -9.360000000000003 -14.52 L -9.360000000000003 -14.42 L -9.760000000000002 -14.42 Z" fill="#000000" />
  <path id="text" d="M -8.360000000000003 -14.52 L -8.160000000000002 -14.52 L -8.160000000000002 -14.42 L -8.360000000000003 -14.42 Z" fill="#000000" />
  <path id="text" d="M -7.460000000000002 -14.52 L -7.060000000000002 -14.52 L -7.060000000000002 -14.42 L -7.460000000000002 -14.42 Z" fill="#000000" />
  <path id="text" d="M -4.160000000000002 -14.52 L -3.7600000000000016 -14.52 L -3.7600000000000016 -14.42 L -4.160000000000002 -14.42 Z" fill="#000000" />
  <path id="text" d="M -2.7600000000000016 -14.52 L -2.5600000000000023 -14.52 L -2.5600000000000023 -14.42 L -2.7600000000000016 -14.42 Z" fill="#000000" />
  <path id="text" d="M -1.8600000000000012 -14.52 L -1.4600000000000009 -14.52 L -1.4600000000000009 -14.42 L -1.8600000000000012 -14.42 Z" fill="#000000" />
  <path id="text" d="M 1.639999999999997 -14.52 L 2.039999999999999 -14.52 L 2.039999999999999 -14.42 L 1.639999999999997 -14.42 Z" fill="#000000" />
  <path id="text" d="M 4.239999999999998 -14.52 L 4.640000000000001 -14.52 L 4.640000000000001 -14.42 L 4.239999999999998 -14.42 Z" fill="#000000" />
  <path id="text" d="M 6.640000000000001 -14.52 L 6.939999999999998 -14.52 L 6.939999999999998 -14.42 L 6.640000000000001 -14.42 Z" fill="#000000" />
  <path id="text" d="M 8.34 -14.52 L 8.84 -14.52 L 8.84 -14.42 L 8.34 -14.42 Z" fill="#000000" />
  <path id="text" d="M 9.84 -14.52 L 10.34 -14.52 L 10.34 -14.42 L 9.84 -14.42 Z" fill="#000000" />
  <path id="text" d="M 11.14 -14.52 L 11.54 -14.52 L 11.54 -14.42 L 11.14 -14.42 Z" fill="#000000" />
  <path id="text" d="M 11.84 -14.52 L 12.54 -14.52 L 12.54 -14.42 L 11.84 -14.42 Z" fill="#000000" />
  <path id="text" d="M -13.660000000000002 -14.42 L -13.160000000000002 -14.42 L -13.160000000000002 -14.32 L -13.660000000000002 -14.32 Z" fill="#000000" />
  <path id="text" d="M -12.660000000000002 -14.42 L -12.260000000000002 -14.42 L -12.260000000000002 -14.32 L -12.660000000000002 -14.32 Z" fill="#000000" />
  <path id="text" d="M -9.860000000000003 -14.42 L -9.360000000000003 -14.42 L -9.360000000000003 -14.32 L -9.860000000000003 -14.32 Z" fill="#000000" />
  <path id="text" d="M -7.460000000000002 -14.42 L -7.060000000000002 -14.42 L -7.060000000000002 -14.32 L -7.460000000000002 -14.32 Z" fill="#000000" />
  <path id="text" d="M -4.260000000000002 -14.42 L -3.7600000000000016 -14.42 L -3.7600000000000016 -14.32 L -4.260000000000002 -14.32 Z" fill="#000000" />
  <path id="text" d="M -1.8600000000000012 -14.42 L -1.4600000000000009 -14.42 L -1.4600000000000009 -14.32 L -1.8600000000000012 -14.32 Z" fill="#000000" />
  <path id="text" d="M 1.5399999999999991 -14.42 L 1.9399999999999977 -14.42 L 1.9399999999999977 -14.32 L 1.5399999999999991 -14.32 Z" fill="#000000" />
  <path id="text" d="M 4.139999999999997 -14.42 L 4.640000000000001 -14.42 L 4.640000000000001 -14.32 L 4.139999999999997 -14.32 Z" fill="#000000" />
  <path id="text" d="M 6.539999999999999 -14.42 L 6.939999999999998 -14.42 L 6.939999999999998 -14.32 L 6.539999999999999 -14.32 Z" fill="#000000" />
  <path id="text" d="M 8.439999999999998 -14.42 L 8.939999999999998 -14.42 L 8.939999999999998 -14.32 L 8.439999999999998 -14.32 Z" fill="#000000" />
  <path id="text" d="M 9.739999999999998 -14.42 L 10.34 -14.42 L 10.34 -14.32 L 9.739999999999998 -14.32 Z" fill="#000000" />
  <path id="text" d="M 11.14 -14.42 L 11.54 -14.42 L 11.54 -14.32 L 11.14 -14.32 Z" fill="#000000" />
  <path id="text" d="M 11.64 -14.42 L 12.84 -14.42 L 12.84 -14.32 L 11.64 -14.32 Z" fill="#000000" />
  <path id="text" d="M -13.660000000000002 -14.32 L -13.260000000000002 -14.32 L -13.260000000000002 -14.22 L -13.660000000000002 -14.22 Z" fill="#000000" />
  <path id="text" d="M -12.660000000000002 -14.32 L -12.260000000000002 -14.32 L -12.260000000000002 -14.22 L -12.660000000000002 -14.22 Z" fill="#000000" />
  <path id="text" d="M -10.060000000000002 -14.32 L -9.46 -14.32 L -9.46 -14.22 L -10.060000000000002 -14.22 Z" fill="#000000" />
  <path id="text" d="M -7.460000000000002 -14.32 L -7.060000000000002 -14.32 L -7.060000000000002 -14.22 L -7.460000000000002 -14.22 Z" fill="#000000" />
  <path id="text" d="M -4.460000000000001 -14.32 L -3.860000000000001 -14.32 L -3.860000000000001 -14.22 L -4.460000000000001 -14.22 Z" fill="#000000" />
  <path id="text" d="M -1.8600000000000012 -14.32 L -1.4600000000000009 -14.32 L -1.4600000000000009 -14.22 L -1.8600000000000012 -14.22 Z" fill="#000000" />
  <path id="text" d="M 1.5399999999999991 -14.32 L 1.9399999999999977 -14.32 L 1.9399999999999977 -14.22 L 1.5399999999999991 -14.22 Z" fill="#000000" />
  <path id="text" d="M 3.9399999999999977 -14.32 L 4.539999999999999 -14.32 L 4.539999999999999 -14.22 L 3.9399999999999977 -14.22 Z" fill="#000000" />
  <path id="text" d="M 6.439999999999998 -14.32 L 6.84 -14.32 L 6.84 -14.22 L 6.439999999999998 -14.22 Z" fill="#000000" />
  <path id="text" d="M 8.54 -14.32 L 10.14 -14.32 L 10.14 -14.22 L 8.54 -14.22 Z" fill="#000000" />
  <path id="text" d="M 11.14 -14.32 L 12.939999999999998 -14.32 L 12.939999999999998 -14.22 L 11.14 -14.22 Z" fill="#000000" />
  <path id="text" d="M -13.760000000000002 -14.22 L -13.260000000000002 -14.22 L -13.260000000000002 -14.120000000000001 L -13.760000000000002 -14.120000000000001 Z" fill="#000000" />
  <path id="text" d="M -12.660000000000002 -14.22 L -12.260000000000002 -14.22 L -12.260000000000002 -14.120000000000001 L -12.660000000000002 -14.120000000000001 Z" fill="#000000" />
  <path id="text" d="M -10.560000000000002 -14.22 L -9.560000000000002 -14.22 L -9.560000000000002 -14.120000000000001 L -10.560000000000002 -14.120000000000001 Z" fill="#000000" />
  <path id="text" d="M -7.460000000000002 -14.22 L -7.060000000000002 -14.22 L -7.060000000000002 -14.120000000000001 L -7.460000000000002 -14.120000000000001 Z" fill="#000000" />
  <path id="text" d="M -4.960000000000001 -14.22 L -3.960000000000001 -14.22 L -3.960000000000001 -14.120000000000001 L -4.960000000000001 -14.120000000000001 Z" fill="#000000" />
  <path id="text" d="M -1.8600000000000012 -14.22 L -1.4600000000000009 -14.22 L -1.4600000000000009 -14.120000000000001 L -1.8600000000000012 -14.120000000000001 Z" fill="#000000" />
  <path id="text" d="M 1.4399999999999977 -14.22 L 1.9399999999999977 -14.22 L 1.9399999999999977 -14.120000000000001 L 1.4399999999999977 -14.120000000000001 Z" fill="#000000" />
  <path id="text" d="M 3.4399999999999977 -14.22 L 4.439999999999998 -14.22 L 4.439999999999998 -14.120000000000001 L 3.4399999999999977 -14.120000000000001 Z" fill="#000000" />
  <path id="text" d="M 6.439999999999998 -14.22 L 6.84 -14.22 L 6.84 -14.120000000000001 L 6.439999999999998 -14.120000000000001 Z" fill="#000000" />
  <path id="text" d="M 8.64 -14.22 L 10.04 -14.22 L 10.04 -14.120000000000001 L 8.64 -14.120000000000001 Z" fill="#000000" />
  <path id="text" d="M 11.14 -14.22 L 13.04 -14.22 L 13.04 -14.120000000000001 L 11.14 -14.120000000000001 Z" fill="#000000" />
  <path id="text" d="M -13.860000000000003 -14.120000000000001 L -13.360000000000003 -14.120000000000001 L -13.360000000000003 -14.02 L -13.860000000000003 -14.02 Z" fill="#000000" />
  <path id="text" d="M -12.660000000000002 -14.120000000000001 L -12.260000000000002 -14.120000000000001 L -12.260000000000002 -14.02 L -12.660000000000002 -14.02 Z" fill="#000000" />
  <path id="text" d="M -10.560000000000002 -14.120000000000001 L -9.760000000000002 -14.120000000000001 L -9.760000000000002 -14.02 L -10.560000000000002 -14.02 Z" fill="#000000" />
  <path id="text" d="M -7.460000000000002 -14.120000000000001 L -7.060000000000002 -14.120000000000001 L -7.060000000000002 -14.02 L -7.460000000000002 -14.02 Z" fill="#000000" />
  <path id="text" d="M -4.960000000000001 -14.120000000000001 L -4.160000000000002 -14.120000000000001 L -4.160000000000002 -14.02 L -4.960000000000001 -14.02 Z" fill="#000000" />
  <path id="text" d="M -1.8600000000000012 -14.120000000000001 L -1.4600000000000009 -14.120000000000001 L -1.4600000000000009 -14.02 L -1.8600000000000012 -14.02 Z" fill="#000000" />
  <path id="text" d="M 1.339999999999998 -14.120000000000001 L 1.8399999999999999 -14.120000000000001 L 1.8399999999999999 -14.02 L 1.339999999999998 -14.02 Z" fill="#000000" />
  <path id="text" d="M 3.4399999999999977 -14.120000000000001 L 4.239999999999998 -14.120000000000001 L 4.239999999999998 -14.02 L 3.4399999999999977 -14.02 Z" fill="#000000" />
  <path id="text" d="M 6.34 -14.120000000000001 L 6.739999999999998 -14.120000000000001 L 6.739999999999998 -14.02 L 6.34 -14.02 Z" fill="#000000" />
  <path id="text" d="M 8.54 -14.120000000000001 L 10.04 -14.120000000000001 L 10.04 -14.02 L 8.54 -14.02 Z" fill="#000000" />
  <path id="text" d="M 11.04 -14.120000000000001 L 11.739999999999998 -14.120000000000001 L 11.739999999999998 -14.02 L 11.04 -14.02 Z" fill="#000000" />
  <path id="text" d="M 12.54 -14.120000000000001 L 13.14 -14.120000000000001 L 13.14 -14.02 L 12.54 -14.02 Z" fill="#000000" />
  <path id="text" d="M -13.960000000000003 -14.02 L -13.460000000000003 -14.02 L -13.460000000000003 -13.92 L -13.960000000000003 -13.92 Z" fill="#000000" />
  <path id="text" d="M -12.660000000000002 -14.02 L -12.260000000000002 -14.02 L -12.260000000000002 -13.92 L -12.660000000000002 -13.92 Z" fill="#000000" />
  <path id="text" d="M -10.560000000000002 -14.02 L -9.46 -14.02 L -9.46 -13.92 L -10.560000000000002 -13.92 Z" fill="#000000" />
  <path id="text" d="M -7.460000000000002 -14.02 L -7.060000000000002 -14.02 L -7.060000000000002 -13.92 L -7.460000000000002 -13.92 Z" fill="#000000" />
  <path id="text" d="M -4.960000000000001 -14.02 L -3.860000000000001 -14.02 L -3.860000000000001 -13.92 L -4.960000000000001 -13.92 Z" fill="#000000" />
  <path id="text" d="M -1.8600000000000012 -14.02 L -1.4600000000000009 -14.02 L -1.4600000000000009 -13.92 L -1.8600000000000012 -13.92 Z" fill="#000000" />
  <path id="text" d="M 1.2399999999999984 -14.02 L 1.7399999999999984 -14.02 L 1.7399999999999984 -13.92 L 1.2399999999999984 -13.92 Z" fill="#000000" />
  <path id="text" d="M 3.4399999999999977 -14.02 L 4.539999999999999 -14.02 L 4.539999999999999 -13.92 L 3.4399999999999977 -13.92 Z" fill="#000000" />
  <path id="text" d="M 6.34 -14.02 L 6.739999999999998 -14.02 L 6.739999999999998 -13.92 L 6.34 -13.92 Z" fill="#000000" />
  <path id="text" d="M 8.439999999999998 -14.02 L 10.239999999999998 -14.02 L 10.239999999999998 -13.92 L 8.439999999999998 -13.92 Z" fill="#000000" />
  <path id="text" d="M 11.04 -14.02 L 11.64 -14.02 L 11.64 -13.92 L 11.04 -13.92 Z" fill="#000000" />
  <path id="text" d="M 12.64 -14.02 L 13.239999999999998 -14.02 L 13.239999999999998 -13.92 L 12.64 -13.92 Z" fill="#000000" />
  <path id="text" d="M -13.960000000000003 -13.92 L -13.560000000000002 -13.92 L -13.560000000000002 -13.82 L -13.960000000000003 -13.82 Z" fill="#000000" />
  <path id="text" d="M -12.660000000000002 -13.92 L -12.260000000000002 -13.92 L -12.260000000000002 -13.82 L -12.660000000000002 -13.82 Z" fill="#000000" />
  <path id="text" d="M -10.560000000000002 -13.92 L -9.360000000000003 -13.92 L -9.360000000000003 -13.82 L -10.560000000000002 -13.82 Z" fill="#000000" />
  <path id="text" d="M -7.460000000000002 -13.92 L -7.060000000000002 -13.92 L -7.060000000000002 -13.82 L -7.460000000000002 -13.82 Z" fill="#000000" />
  <path id="text" d="M -4.960000000000001 -13.92 L -3.7600000000000016 -13.92 L -3.7600000000000016 -13.82 L -4.960000000000001 -13.82 Z" fill="#000000" />
  <path id="text" d="M -1.8600000000000012 -13.92 L -1.4600000000000009 -13.92 L -1.4600000000000009 -13.82 L -1.8600000000000012 -13.82 Z" fill="#000000" />
  <path id="text" d="M 1.1399999999999988 -13.92 L 1.639999999999997 -13.92 L 1.639999999999997 -13.82 L 1.1399999999999988 -13.82 Z" fill="#000000" />
  <path id="text" d="M 3.4399999999999977 -13.92 L 4.640000000000001 -13.92 L 4.640000000000001 -13.82 L 3.4399999999999977 -13.82 Z" fill="#000000" />
  <path id="text" d="M 6.239999999999998 -13.92 L 6.640000000000001 -13.92 L 6.640000000000001 -13.82 L 6.239999999999998 -13.82 Z" fill="#000000" />
  <path id="text" d="M 8.34 -13.92 L 9.04 -13.92 L 9.04 -13.82 L 8.34 -13.82 Z" fill="#000000" />
  <path id="text" d="M 9.64 -13.92 L 10.34 -13.92 L 10.34 -13.82 L 9.64 -13.82 Z" fill="#000000" />
  <path id="text" d="M 11.239999999999998 -13.92 L 11.439999999999998 -13.92 L 11.439999999999998 -13.82 L 11.239999999999998 -13.82 Z" fill="#000000" />
  <path id="text" d="M 12.739999999999998 -13.92 L 13.239999999999998 -13.92 L 13.239999999999998 -13.82 L 12.739999999999998 -13.82 Z" fill="#000000" />
  <path id="text" d="M -14.060000000000002 -13.82 L -13.560000000000002 -13.82 L -13.560000000000002 -13.72 L -14.060000000000002 -13.72 Z" fill="#000000" />
  <path id="text" d="M -12.660000000000002 -13.82 L -12.260000000000002 -13.82 L -12.260000000000002 -13.72 L -12.660000000000002 -13.72 Z" fill="#000000" />
  <path id="text" d="M -9.860000000000003 -13.82 L -9.260000000000002 -13.82 L -9.260000000000002 -13.72 L -9.860000000000003 -13.72 Z" fill="#000000" />
  <path id="text" d="M -7.460000000000002 -13.82 L -7.060000000000002 -13.82 L -7.060000000000002 -13.72 L -7.460000000000002 -13.72 Z" fill="#000000" />
  <path id="text" d="M -4.260000000000002 -13.82 L -3.660000000000002 -13.82 L -3.660000000000002 -13.72 L -4.260000000000002 -13.72 Z" fill="#000000" />
  <path id="text" d="M -1.8600000000000012 -13.82 L -1.4600000000000009 -13.82 L -1.4600000000000009 -13.72 L -1.8600000000000012 -13.72 Z" fill="#000000" />
  <path id="text" d="M 1.0399999999999991 -13.82 L 1.5399999999999991 -13.82 L 1.5399999999999991 -13.72 L 1.0399999999999991 -13.72 Z" fill="#000000" />
  <path id="text" d="M 4.139999999999997 -13.82 L 4.739999999999998 -13.82 L 4.739999999999998 -13.72 L 4.139999999999997 -13.72 Z" fill="#000000" />
  <path id="text" d="M 6.239999999999998 -13.82 L 6.640000000000001 -13.82 L 6.640000000000001 -13.72 L 6.239999999999998 -13.72 Z" fill="#000000" />
  <path id="text" d="M 8.239999999999998 -13.82 L 8.84 -13.82 L 8.84 -13.72 L 8.239999999999998 -13.72 Z" fill="#000000" />
  <path id="text" d="M 9.84 -13.82 L 10.439999999999998 -13.82 L 10.439999999999998 -13.72 L 9.84 -13.72 Z" fill="#000000" />
  <path id="text" d="M 12.84 -13.82 L 13.239999999999998 -13.82 L 13.239999999999998 -13.72 L 12.84 -13.72 Z" fill="#000000" />
  <path id="text" d="M -14.160000000000002 -13.72 L -13.660000000000002 -13.72 L -13.660000000000002 -13.620000000000001 L -14.160000000000002 -13.620000000000001 Z" fill="#000000" />
  <path id="text" d="M -12.660000000000002 -13.72 L -12.260000000000002 -13.72 L -12.260000000000002 -13.620000000000001 L -12.660000000000002 -13.620000000000001 Z" fill="#000000" />
  <path id="text" d="M -9.660000000000002 -13.72 L -9.160000000000002 -13.72 L -9.160000000000002 -13.620000000000001 L -9.660000000000002 -13.620000000000001 Z" fill="#000000" />
  <path id="text" d="M -7.460000000000002 -13.72 L -7.060000000000002 -13.72 L -7.060000000000002 -13.620000000000001 L -7.460000000000002 -13.620000000000001 Z" fill="#000000" />
  <path id="text" d="M -4.060000000000002 -13.72 L -3.5600000000000023 -13.72 L -3.5600000000000023 -13.620000000000001 L -4.060000000000002 -13.620000000000001 Z" fill="#000000" />
  <path id="text" d="M -1.8600000000000012 -13.72 L -1.4600000000000009 -13.72 L -1.4600000000000009 -13.620000000000001 L -1.8600000000000012 -13.620000000000001 Z" fill="#000000" />
  <path id="text" d="M 0.9399999999999977 -13.72 L 1.4399999999999977 -13.72 L 1.4399999999999977 -13.620000000000001 L 0.9399999999999977 -13.620000000000001 Z" fill="#000000" />
  <path id="text" d="M 4.34 -13.72 L 4.84 -13.72 L 4.84 -13.620000000000001 L 4.34 -13.620000000000001 Z" fill="#000000" />
  <path id="text" d="M 6.239999999999998 -13.72 L 6.640000000000001 -13.72 L 6.640000000000001 -13.620000000000001 L 6.239999999999998 -13.620000000000001 Z" fill="#000000" />
  <path id="text" d="M 8.239999999999998 -13.72 L 8.739999999999998 -13.72 L 8.739999999999998 -13.620000000000001 L 8.239999999999998 -13.620000000000001 Z" fill="#000000" />
  <path id="text" d="M 9.939999999999998 -13.72 L 10.439999999999998 -13.72 L 10.439999999999998 -13.620000000000001 L 9.939999999999998 -13.620000000000001 Z" fill="#000000" />
  <path id="text" d="M 12.939999999999998 -13.72 L 13.34 -13.72 L 13.34 -13.620000000000001 L 12.939999999999998 -13.620000000000001 Z" fill="#000000" />
  <path id="text" d="M -14.260000000000002 -13.620000000000001 L -13.760000000000002 -13.620000000000001 L -13.760000000000002 -13.52 L -14.260000000000002 -13.52 Z" fill="#000000" />
  <path id="text" d="M -12.660000000000002 -13.620000000000001 L -12.260000000000002 -13.620000000000001 L -12.260000000000002 -13.52 L -12.660000000000002 -13.52 Z" fill="#000000" />
  <path id="text" d="M -9.560000000000002 -13.620000000000001 L -9.160000000000002 -13.620000000000001 L -9.160000000000002 -13.52 L -9.560000000000002 -13.52 Z" fill="#000000" />
  <path id="text" d="M -7.460000000000002 -13.620000000000001 L -7.060000000000002 -13.620000000000001 L -7.060000000000002 -13.52 L -7.460000000000002 -13.52 Z" fill="#000000" />
  <path id="text" d="M -3.960000000000001 -13.620000000000001 L -3.5600000000000023 -13.620000000000001 L -3.5600000000000023 -13.52 L -3.960000000000001 -13.52 Z" fill="#000000" />
  <path id="text" d="M -1.8600000000000012 -13.620000000000001 L -1.4600000000000009 -13.620000000000001 L -1.4600000000000009 -13.52 L -1.8600000000000012 -13.52 Z" fill="#000000" />
  <path id="text" d="M 0.8399999999999981 -13.620000000000001 L 1.4399999999999977 -13.620000000000001 L 1.4399999999999977 -13.52 L 0.8399999999999981 -13.52 Z" fill="#000000" />
  <path id="text" d="M 4.439999999999998 -13.620000000000001 L 4.84 -13.620000000000001 L 4.84 -13.52 L 4.439999999999998 -13.52 Z" fill="#000000" />
  <path id="text" d="M 6.140000000000001 -13.620000000000001 L 6.539999999999999 -13.620000000000001 L 6.539999999999999 -13.52 L 6.140000000000001 -13.52 Z" fill="#000000" />
  <path id="text" d="M 8.14 -13.620000000000001 L 8.64 -13.620000000000001 L 8.64 -13.52 L 8.14 -13.52 Z" fill="#000000" />
  <path id="text" d="M 10.04 -13.620000000000001 L 10.439999999999998 -13.620000000000001 L 10.439999999999998 -13.52 L 10.04 -13.52 Z" fill="#000000" />
  <path id="text" d="M 12.939999999999998 -13.620000000000001 L 13.34 -13.620000000000001 L 13.34 -13.52 L 12.939999999999998 -13.52 Z" fill="#000000" />
  <path id="text" d="M -14.360000000000003 -13.52 L -13.860000000000003 -13.52 L -13.860000000000003 -13.42 L -14.360000000000003 -13.42 Z" fill="#000000" />
  <path id="text" d="M -12.660000000000002 -13.52 L -12.260000000000002 -13.52 L -12.260000000000002 -13.42 L -12.660000000000002 -13.42 Z" fill="#000000" />
  <path id="text" d="M -9.560000000000002 -13.52 L -9.060000000000002 -13.52 L -9.060000000000002 -13.42 L -9.560000000000002 -13.42 Z" fill="#000000" />
  <path id="text" d="M -7.460000000000002 -13.52 L -7.060000000000002 -13.52 L -7.060000000000002 -13.42 L -7.460000000000002 -13.42 Z" fill="#000000" />
  <path id="text" d="M -3.960000000000001 -13.52 L -3.460000000000001 -13.52 L -3.460000000000001 -13.42 L -3.960000000000001 -13.42 Z" fill="#000000" />
  <path id="text" d="M -1.8600000000000012 -13.52 L -1.4600000000000009 -13.52 L -1.4600000000000009 -13.42 L -1.8600000000000012 -13.42 Z" fill="#000000" />
  <path id="text" d="M 0.7399999999999984 -13.52 L 1.2399999999999984 -13.52 L 1.2399999999999984 -13.42 L 0.7399999999999984 -13.42 Z" fill="#000000" />
  <path id="text" d="M 4.439999999999998 -13.52 L 4.939999999999998 -13.52 L 4.939999999999998 -13.42 L 4.439999999999998 -13.42 Z" fill="#000000" />
  <path id="text" d="M 6.140000000000001 -13.52 L 6.539999999999999 -13.52 L 6.539999999999999 -13.42 L 6.140000000000001 -13.42 Z" fill="#000000" />
  <path id="text" d="M 8.14 -13.52 L 8.54 -13.52 L 8.54 -13.42 L 8.14 -13.42 Z" fill="#000000" />
  <path id="text" d="M 10.14 -13.52 L 10.54 -13.52 L 10.54 -13.42 L 10.14 -13.42 Z" fill="#000000" />
  <path id="text" d="M 12.939999999999998 -13.52 L 13.34 -13.52 L 13.34 -13.42 L 12.939999999999998 -13.42 Z" fill="#000000" />
  <path id="text" d="M -14.360000000000003 -13.42 L -11.860000000000003 -13.42 L -11.860000000000003 -13.32 L -14.360000000000003 -13.32 Z" fill="#000000" />
  <path id="text" d="M -9.46 -13.42 L -9.060000000000002 -13.42 L -9.060000000000002 -13.32 L -9.46 -13.32 Z" fill="#000000" />
  <path id="text" d="M -7.460000000000002 -13.42 L -7.060000000000002 -13.42 L -7.060000000000002 -13.32 L -7.460000000000002 -13.32 Z" fill="#000000" />
  <path id="text" d="M -3.860000000000001 -13.42 L -3.460000000000001 -13.42 L -3.460000000000001 -13.32 L -3.860000000000001 -13.32 Z" fill="#000000" />
  <path id="text" d="M -1.8600000000000012 -13.42 L -1.4600000000000009 -13.42 L -1.4600000000000009 -13.32 L -1.8600000000000012 -13.32 Z" fill="#000000" />
  <path id="text" d="M 0.6399999999999988 -13.42 L 1.1399999999999988 -13.42 L 1.1399999999999988 -13.32 L 0.6399999999999988 -13.32 Z" fill="#000000" />
  <path id="text" d="M 4.539999999999999 -13.42 L 4.939999999999998 -13.42 L 4.939999999999998 -13.32 L 4.539999999999999 -13.32 Z" fill="#000000" />
  <path id="text" d="M 6.039999999999999 -13.42 L 6.439999999999998 -13.42 L 6.439999999999998 -13.32 L 6.039999999999999 -13.32 Z" fill="#000000" />
  <path id="text" d="M 8.14 -13.42 L 8.54 -13.42 L 8.54 -13.32 L 8.14 -13.32 Z" fill="#000000" />
  <path id="text" d="M 10.14 -13.42 L 10.54 -13.42 L 10.54 -13.32 L 10.14 -13.32 Z" fill="#000000" />
  <path id="text" d="M 12.939999999999998 -13.42 L 13.34 -13.42 L 13.34 -13.32 L 12.939999999999998 -13.32 Z" fill="#000000" />
  <path id="text" d="M -14.360000000000003 -13.32 L -11.860000000000003 -13.32 L -11.860000000000003 -13.22 L -14.360000000000003 -13.22 Z" fill="#000000" />
  <path id="text" d="M -9.46 -13.32 L -9.060000000000002 -13.32 L -9.060000000000002 -13.22 L -9.46 -13.22 Z" fill="#000000" />
  <path id="text" d="M -7.460000000000002 -13.32 L -7.060000000000002 -13.32 L -7.060000000000002 -13.22 L -7.460000000000002 -13.22 Z" fill="#000000" />
  <path id="text" d="M -3.860000000000001 -13.32 L -3.460000000000001 -13.32 L -3.460000000000001 -13.22 L -3.860000000000001 -13.22 Z" fill="#000000" />
  <path id="text" d="M -1.8600000000000012 -13.32 L -1.4600000000000009 -13.32 L -1.4600000000000009 -13.22 L -1.8600000000000012 -13.22 Z" fill="#000000" />
  <path id="text" d="M 0.5399999999999991 -13.32 L 1.0399999999999991 -13.32 L 1.0399999999999991 -13.22 L 0.5399999999999991 -13.22 Z" fill="#000000" />
  <path id="text" d="M 4.539999999999999 -13.32 L 4.939999999999998 -13.32 L 4.939999999999998 -13.22 L 4.539999999999999 -13.22 Z" fill="#000000" />
  <path id="text" d="M 6.039999999999999 -13.32 L 6.439999999999998 -13.32 L 6.439999999999998 -13.22 L 6.039999999999999 -13.22 Z" fill="#000000" />
  <path id="text" d="M 8.14 -13.32 L 8.54 -13.32 L 8.54 -13.22 L 8.14 -13.22 Z" fill="#000000" />
  <path id="text" d="M 10.14 -13.32 L 10.54 -13.32 L 10.54 -13.22 L 10.14 -13.22 Z" fill="#000000" />
  <path id="text" d="M 12.939999999999998 -13.32 L 13.34 -13.32 L 13.34 -13.22 L 12.939999999999998 -13.22 Z" fill="#000000" />
  <path id="text" d="M -14.360000000000003 -13.22 L -11.860000000000003 -13.22 L -11.860000000000003 -13.120000000000001 L -14.360000000000003 -13.120000000000001 Z" fill="#000000" />
  <path id="text" d="M -11.260000000000002 -13.22 L -11.060000000000002 -13.22 L -11.060000000000002 -13.120000000000001 L -11.260000000000002 -13.120000000000001 Z" fill="#000000" />
  <path id="text" d="M -9.46 -13.22 L -9.060000000000002 -13.22 L -9.060000000000002 -13.120000000000001 L -9.46 -13.120000000000001 Z" fill="#000000" />
  <path id="text" d="M -7.460000000000002 -13.22 L -7.060000000000002 -13.22 L -7.060000000000002 -13.120000000000001 L -7.460000000000002 -13.120000000000001 Z" fill="#000000" />
  <path id="text" d="M -5.660000000000002 -13.22 L -5.460000000000003 -13.22 L -5.460000000000003 -13.120000000000001 L -5.660000000000002 -13.120000000000001 Z" fill="#000000" />
  <path id="text" d="M -3.860000000000001 -13.22 L -3.460000000000001 -13.22 L -3.460000000000001 -13.120000000000001 L -3.860000000000001 -13.120000000000001 Z" fill="#000000" />
  <path id="text" d="M -1.8600000000000012 -13.22 L -1.4600000000000009 -13.22 L -1.4600000000000009 -13.120000000000001 L -1.8600000000000012 -13.120000000000001 Z" fill="#000000" />
  <path id="text" d="M 0.3399999999999981 -13.22 L 0.9399999999999977 -13.22 L 0.9399999999999977 -13.120000000000001 L 0.3399999999999981 -13.120000000000001 Z" fill="#000000" />
  <path id="text" d="M 2.7399999999999984 -13.22 L 2.9399999999999977 -13.22 L 2.9399999999999977 -13.120000000000001 L 2.7399999999999984 -13.120000000000001 Z" fill="#000000" />
  <path id="text" d="M 4.539999999999999 -13.22 L 4.939999999999998 -13.22 L 4.939999999999998 -13.120000000000001 L 4.539999999999999 -13.120000000000001 Z" fill="#000000" />
  <path id="text" d="M 6.039999999999999 -13.22 L 6.439999999999998 -13.22 L 6.439999999999998 -13.120000000000001 L 6.039999999999999 -13.120000000000001 Z" fill="#000000" />
  <path id="text" d="M 8.14 -13.22 L 8.54 -13.22 L 8.54 -13.120000000000001 L 8.14 -13.120000000000001 Z" fill="#000000" />
  <path id="text" d="M 10.14 -13.22 L 10.54 -13.22 L 10.54 -13.120000000000001 L 10.14 -13.120000000000001 Z" fill="#000000" />
  <path id="text" d="M 12.939999999999998 -13.22 L 13.34 -13.22 L 13.34 -13.120000000000001 L 12.939999999999998 -13.120000000000001 Z" fill="#000000" />
  <path id="text" d="M -14.360000000000003 -13.120000000000001 L -11.860000000000003 -13.120000000000001 L -11.860000000000003 -13.02 L -14.360000000000003 -13.02 Z" fill="#000000" />
  <path id="text" d="M -11.460000000000003 -13.120000000000001 L -11.060000000000002 -13.120000000000001 L -11.060000000000002 -13.02 L -11.460000000000003 -13.02 Z" fill="#000000" />
  <path id="text" d="M -9.46 -13.120000000000001 L -9.060000000000002 -13.120000000000001 L -9.060000000000002 -13.02 L -9.46 -13.02 Z" fill="#000000" />
  <path id="text" d="M -7.460000000000002 -13.120000000000001 L -7.060000000000002 -13.120000000000001 L -7.060000000000002 -13.02 L -7.460000000000002 -13.02 Z" fill="#000000" />
  <path id="text" d="M -5.860000000000001 -13.120000000000001 L -5.460000000000003 -13.120000000000001 L -5.460000000000003 -13.02 L -5.860000000000001 -13.02 Z" fill="#000000" />
  <path id="text" d="M -3.860000000000001 -13.120000000000001 L -3.460000000000001 -13.120000000000001 L -3.460000000000001 -13.02 L -3.860000000000001 -13.02 Z" fill="#000000" />
  <path id="text" d="M -1.8600000000000012 -13.120000000000001 L -1.4600000000000009 -13.120000000000001 L -1.4600000000000009 -13.02 L -1.8600000000000012 -13.02 Z" fill="#000000" />
  <path id="text" d="M 0.23999999999999844 -13.120000000000001 L 0.8399999999999981 -13.120000000000001 L 0.8399999999999981 -13.02 L 0.23999999999999844 -13.02 Z" fill="#000000" />
  <path id="text" d="M 2.539999999999999 -13.120000000000001 L 2.9399999999999977 -13.120000000000001 L 2.9399999999999977 -13.02 L 2.539999999999999 -13.02 Z" fill="#000000" />
  <path id="text" d="M 4.539999999999999 -13.120000000000001 L 4.939999999999998 -13.120000000000001 L 4.939999999999998 -13.02 L 4.539999999999999 -13.02 Z" fill="#000000" />
  <path id="text" d="M 6.039999999999999 -13.120000000000001 L 6.439999999999998 -13.120000000000001 L 6.439999999999998 -13.02 L 6.039999999999999 -13.02 Z" fill="#000000" />
  <path id="text" d="M 8.14 -13.120000000000001 L 8.54 -13.120000000000001 L 8.54 -13.02 L 8.14 -13.02 Z" fill="#000000" />
  <path id="text" d="M 10.14 -13.120000000000001 L 10.54 -13.120000000000001 L 10.54 -13.02 L 10.14 -13.02 Z" fill="#000000" />
  <path id="text" d="M 10.939999999999998 -13.120000000000001 L 11.34 -13.120000000000001 L 11.34 -13.02 L 10.939999999999998 -13.02 Z" fill="#000000" />
  <path id="text" d="M 12.939999999999998 -13.120000000000001 L 13.34 -13.120000000000001 L 13.34 -13.02 L 12.939999999999998 -13.02 Z" fill="#000000" />
  <path id="text" d="M -12.660000000000002 -13.02 L -12.260000000000002 -13.02 L -12.260000000000002 -12.92 L -12.660000000000002 -12.92 Z" fill="#000000" />
  <path id="text" d="M -11.460000000000003 -13.02 L -10.960000000000003 -13.02 L -10.960000000000003 -12.92 L -11.460000000000003 -12.92 Z" fill="#000000" />
  <path id="text" d="M -9.46 -13.02 L -9.060000000000002 -13.02 L -9.060000000000002 -12.92 L -9.46 -12.92 Z" fill="#000000" />
  <path id="text" d="M -7.460000000000002 -13.02 L -7.060000000000002 -13.02 L -7.060000000000002 -12.92 L -7.460000000000002 -12.92 Z" fill="#000000" />
  <path id="text" d="M -5.860000000000001 -13.02 L -5.360000000000001 -13.02 L -5.360000000000001 -12.92 L -5.860000000000001 -12.92 Z" fill="#000000" />
  <path id="text" d="M -3.860000000000001 -13.02 L -3.460000000000001 -13.02 L -3.460000000000001 -12.92 L -3.860000000000001 -12.92 Z" fill="#000000" />
  <path id="text" d="M -1.8600000000000012 -13.02 L -1.4600000000000009 -13.02 L -1.4600000000000009 -12.92 L -1.8600000000000012 -12.92 Z" fill="#000000" />
  <path id="text" d="M 0.1399999999999988 -13.02 L 0.7399999999999984 -13.02 L 0.7399999999999984 -12.92 L 0.1399999999999988 -12.92 Z" fill="#000000" />
  <path id="text" d="M 2.539999999999999 -13.02 L 3.039999999999999 -13.02 L 3.039999999999999 -12.92 L 2.539999999999999 -12.92 Z" fill="#000000" />
  <path id="text" d="M 4.539999999999999 -13.02 L 4.939999999999998 -13.02 L 4.939999999999998 -12.92 L 4.539999999999999 -12.92 Z" fill="#000000" />
  <path id="text" d="M 5.939999999999998 -13.02 L 6.34 -13.02 L 6.34 -12.92 L 5.939999999999998 -12.92 Z" fill="#000000" />
  <path id="text" d="M 8.14 -13.02 L 8.54 -13.02 L 8.54 -12.92 L 8.14 -12.92 Z" fill="#000000" />
  <path id="text" d="M 10.14 -13.02 L 10.54 -13.02 L 10.54 -12.92 L 10.14 -12.92 Z" fill="#000000" />
  <path id="text" d="M 10.939999999999998 -13.02 L 11.34 -13.02 L 11.34 -12.92 L 10.939999999999998 -12.92 Z" fill="#000000" />
  <path id="text" d="M 12.84 -13.02 L 13.239999999999998 -13.02 L 13.239999999999998 -12.92 L 12.84 -12.92 Z" fill="#000000" />
  <path id="text" d="M -12.660000000000002 -12.92 L -12.260000000000002 -12.92 L -12.260000000000002 -12.82 L -12.660000000000002 -12.82 Z" fill="#000000" />
  <path id="text" d="M -11.460000000000003 -12.92 L -10.960000000000003 -12.92 L -10.960000000000003 -12.82 L -11.460000000000003 -12.82 Z" fill="#000000" />
  <path id="text" d="M -9.560000000000002 -12.92 L -9.160000000000002 -12.92 L -9.160000000000002 -12.82 L -9.560000000000002 -12.82 Z" fill="#000000" />
  <path id="text" d="M -7.460000000000002 -12.92 L -7.060000000000002 -12.92 L -7.060000000000002 -12.82 L -7.460000000000002 -12.82 Z" fill="#000000" />
  <path id="text" d="M -5.860000000000001 -12.92 L -5.360000000000001 -12.92 L -5.360000000000001 -12.82 L -5.860000000000001 -12.82 Z" fill="#000000" />
  <path id="text" d="M -3.960000000000001 -12.92 L -3.5600000000000023 -12.92 L -3.5600000000000023 -12.82 L -3.960000000000001 -12.82 Z" fill="#000000" />
  <path id="text" d="M -1.8600000000000012 -12.92 L -1.4600000000000009 -12.92 L -1.4600000000000009 -12.82 L -1.8600000000000012 -12.82 Z" fill="#000000" />
  <path id="text" d="M 0.03999999999999915 -12.92 L 0.5399999999999991 -12.92 L 0.5399999999999991 -12.82 L 0.03999999999999915 -12.82 Z" fill="#000000" />
  <path id="text" d="M 2.539999999999999 -12.92 L 3.039999999999999 -12.92 L 3.039999999999999 -12.82 L 2.539999999999999 -12.82 Z" fill="#000000" />
  <path id="text" d="M 4.439999999999998 -12.92 L 4.84 -12.92 L 4.84 -12.82 L 4.439999999999998 -12.82 Z" fill="#000000" />
  <path id="text" d="M 5.939999999999998 -12.92 L 6.34 -12.92 L 6.34 -12.82 L 5.939999999999998 -12.82 Z" fill="#000000" />
  <path id="text" d="M 8.14 -12.92 L 8.64 -12.92 L 8.64 -12.82 L 8.14 -12.82 Z" fill="#000000" />
  <path id="text" d="M 10.04 -12.92 L 10.439999999999998 -12.92 L 10.439999999999998 -12.82 L 10.04 -12.82 Z" fill="#000000" />
  <path id="text" d="M 10.939999999999998 -12.92 L 11.439999999999998 -12.92 L 11.439999999999998 -12.82 L 10.939999999999998 -12.82 Z" fill="#000000" />
  <path id="text" d="M 12.84 -12.92 L 13.239999999999998 -12.92 L 13.239999999999998 -12.82 L 12.84 -12.82 Z" fill="#000000" />
  <path id="text" d="M -12.660000000000002 -12.82 L -12.260000000000002 -12.82 L -12.260000000000002 -12.72 L -12.660000000000002 -12.72 Z" fill="#000000" />
  <path id="text" d="M -11.360000000000003 -12.82 L -10.860000000000003 -12.82 L -10.860000000000003 -12.72 L -11.360000000000003 -12.72 Z" fill="#000000" />
  <path id="text" d="M -9.660000000000002 -12.82 L -9.160000000000002 -12.82 L -9.160000000000002 -12.72 L -9.660000000000002 -12.72 Z" fill="#000000" />
  <path id="text" d="M -7.460000000000002 -12.82 L -7.060000000000002 -12.82 L -7.060000000000002 -12.72 L -7.460000000000002 -12.72 Z" fill="#000000" />
  <path id="text" d="M -5.760000000000002 -12.82 L -5.260000000000002 -12.82 L -5.260000000000002 -12.72 L -5.760000000000002 -12.72 Z" fill="#000000" />
  <path id="text" d="M -4.060000000000002 -12.82 L -3.5600000000000023 -12.82 L -3.5600000000000023 -12.72 L -4.060000000000002 -12.72 Z" fill="#000000" />
  <path id="text" d="M -1.8600000000000012 -12.82 L -1.4600000000000009 -12.82 L -1.4600000000000009 -12.72 L -1.8600000000000012 -12.72 Z" fill="#000000" />
  <path id="text" d="M -0.060000000000002274 -12.82 L 0.4399999999999977 -12.82 L 0.4399999999999977 -12.72 L -0.060000000000002274 -12.72 Z" fill="#000000" />
  <path id="text" d="M 2.639999999999997 -12.82 L 3.139999999999997 -12.82 L 3.139999999999997 -12.72 L 2.639999999999997 -12.72 Z" fill="#000000" />
  <path id="text" d="M 4.34 -12.82 L 4.84 -12.82 L 4.84 -12.72 L 4.34 -12.72 Z" fill="#000000" />
  <path id="text" d="M 5.939999999999998 -12.82 L 6.34 -12.82 L 6.34 -12.72 L 5.939999999999998 -12.72 Z" fill="#000000" />
  <path id="text" d="M 8.239999999999998 -12.82 L 8.64 -12.82 L 8.64 -12.72 L 8.239999999999998 -12.72 Z" fill="#000000" />
  <path id="text" d="M 9.939999999999998 -12.82 L 10.439999999999998 -12.82 L 10.439999999999998 -12.72 L 9.939999999999998 -12.72 Z" fill="#000000" />
  <path id="text" d="M 11.04 -12.82 L 11.439999999999998 -12.82 L 11.439999999999998 -12.72 L 11.04 -12.72 Z" fill="#000000" />
  <path id="text" d="M 12.739999999999998 -12.82 L 13.239999999999998 -12.82 L 13.239999999999998 -12.72 L 12.739999999999998 -12.72 Z" fill="#000000" />
  <path id="text" d="M -12.660000000000002 -12.72 L -12.260000000000002 -12.72 L -12.260000000000002 -12.620000000000001 L -12.660000000000002 -12.620000000000001 Z" fill="#000000" />
  <path id="text" d="M -11.360000000000003 -12.72 L -10.760000000000002 -12.72 L -10.760000000000002 -12.620000000000001 L -11.360000000000003 -12.620000000000001 Z" fill="#000000" />
  <path id="text" d="M -9.760000000000002 -12.72 L -9.260000000000002 -12.72 L -9.260000000000002 -12.620000000000001 L -9.760000000000002 -12.620000000000001 Z" fill="#000000" />
  <path id="text" d="M -7.460000000000002 -12.72 L -7.060000000000002 -12.72 L -7.060000000000002 -12.620000000000001 L -7.460000000000002 -12.620000000000001 Z" fill="#000000" />
  <path id="text" d="M -5.760000000000002 -12.72 L -5.160000000000002 -12.72 L -5.160000000000002 -12.620000000000001 L -5.760000000000002 -12.620000000000001 Z" fill="#000000" />
  <path id="text" d="M -4.160000000000002 -12.72 L -3.660000000000002 -12.72 L -3.660000000000002 -12.620000000000001 L -4.160000000000002 -12.620000000000001 Z" fill="#000000" />
  <path id="text" d="M -1.8600000000000012 -12.72 L -1.4600000000000009 -12.72 L -1.4600000000000009 -12.620000000000001 L -1.8600000000000012 -12.620000000000001 Z" fill="#000000" />
  <path id="text" d="M -0.16000000000000192 -12.72 L 0.3399999999999981 -12.72 L 0.3399999999999981 -12.620000000000001 L -0.16000000000000192 -12.620000000000001 Z" fill="#000000" />
  <path id="text" d="M 2.639999999999997 -12.72 L 3.2399999999999984 -12.72 L 3.2399999999999984 -12.620000000000001 L 2.639999999999997 -12.620000000000001 Z" fill="#000000" />
  <path id="text" d="M 4.239999999999998 -12.72 L 4.739999999999998 -12.72 L 4.739999999999998 -12.620000000000001 L 4.239999999999998 -12.620000000000001 Z" fill="#000000" />
  <path id="text" d="M 5.939999999999998 -12.72 L 6.34 -12.72 L 6.34 -12.620000000000001 L 5.939999999999998 -12.620000000000001 Z" fill="#000000" />
  <path id="text" d="M 8.239999999999998 -12.72 L 8.84 -12.72 L 8.84 -12.620000000000001 L 8.239999999999998 -12.620000000000001 Z" fill="#000000" />
  <path id="text" d="M 9.84 -12.72 L 10.439999999999998 -12.72 L 10.439999999999998 -12.620000000000001 L 9.84 -12.620000000000001 Z" fill="#000000" />
  <path id="text" d="M 11.04 -12.72 L 11.54 -12.72 L 11.54 -12.620000000000001 L 11.04 -12.620000000000001 Z" fill="#000000" />
  <path id="text" d="M 12.64 -12.72 L 13.14 -12.72 L 13.14 -12.620000000000001 L 12.64 -12.620000000000001 Z" fill="#000000" />
  <path id="text" d="M -12.660000000000002 -12.620000000000001 L -12.260000000000002 -12.620000000000001 L -12.260000000000002 -12.52 L -12.660000000000002 -12.52 Z" fill="#000000" />
  <path id="text" d="M -11.260000000000002 -12.620000000000001 L -10.560000000000002 -12.620000000000001 L -10.560000000000002 -12.52 L -11.260000000000002 -12.52 Z" fill="#000000" />
  <path id="text" d="M -9.96 -12.620000000000001 L -9.260000000000002 -12.620000000000001 L -9.260000000000002 -12.52 L -9.96 -12.52 Z" fill="#000000" />
  <path id="text" d="M -7.460000000000002 -12.620000000000001 L -7.060000000000002 -12.620000000000001 L -7.060000000000002 -12.52 L -7.460000000000002 -12.52 Z" fill="#000000" />
  <path id="text" d="M -5.660000000000002 -12.620000000000001 L -4.960000000000001 -12.620000000000001 L -4.960000000000001 -12.52 L -5.660000000000002 -12.52 Z" fill="#000000" />
  <path id="text" d="M -4.360000000000001 -12.620000000000001 L -3.660000000000002 -12.620000000000001 L -3.660000000000002 -12.52 L -4.360000000000001 -12.52 Z" fill="#000000" />
  <path id="text" d="M -1.8600000000000012 -12.620000000000001 L -1.4600000000000009 -12.620000000000001 L -1.4600000000000009 -12.52 L -1.8600000000000012 -12.52 Z" fill="#000000" />
  <path id="text" d="M -0.26000000000000156 -12.620000000000001 L 0.23999999999999844 -12.620000000000001 L 0.23999999999999844 -12.52 L -0.26000000000000156 -12.52 Z" fill="#000000" />
  <path id="text" d="M 2.7399999999999984 -12.620000000000001 L 3.4399999999999977 -12.620000000000001 L 3.4399999999999977 -12.52 L 2.7399999999999984 -12.52 Z" fill="#000000" />
  <path id="text" d="M 4.039999999999999 -12.620000000000001 L 4.739999999999998 -12.620000000000001 L 4.739999999999998 -12.52 L 4.039999999999999 -12.52 Z" fill="#000000" />
  <path id="text" d="M 5.84 -12.620000000000001 L 6.239999999999998 -12.620000000000001 L 6.239999999999998 -12.52 L 5.84 -12.52 Z" fill="#000000" />
  <path id="text" d="M 8.34 -12.620000000000001 L 9.04 -12.620000000000001 L 9.04 -12.52 L 8.34 -12.52 Z" fill="#000000" />
  <path id="text" d="M 9.739999999999998 -12.620000000000001 L 10.34 -12.620000000000001 L 10.34 -12.52 L 9.739999999999998 -12.52 Z" fill="#000000" />
  <path id="text" d="M 11.14 -12.620000000000001 L 11.739999999999998 -12.620000000000001 L 11.739999999999998 -12.52 L 11.14 -12.52 Z" fill="#000000" />
  <path id="text" d="M 12.439999999999998 -12.620000000000001 L 13.04 -12.620000000000001 L 13.04 -12.52 L 12.439999999999998 -12.52 Z" fill="#000000" />
  <path id="text" d="M -12.660000000000002 -12.52 L -12.260000000000002 -12.52 L -12.260000000000002 -12.42 L -12.660000000000002 -12.42 Z" fill="#000000" />
  <path id="text" d="M -11.160000000000002 -12.52 L -9.360000000000003 -12.52 L -9.360000000000003 -12.42 L -11.160000000000002 -12.42 Z" fill="#000000" />
  <path id="text" d="M -7.460000000000002 -12.52 L -7.060000000000002 -12.52 L -7.060000000000002 -12.42 L -7.460000000000002 -12.42 Z" fill="#000000" />
  <path id="text" d="M -5.560000000000002 -12.52 L -3.7600000000000016 -12.52 L -3.7600000000000016 -12.42 L -5.560000000000002 -12.42 Z" fill="#000000" />
  <path id="text" d="M -1.8600000000000012 -12.52 L -1.4600000000000009 -12.52 L -1.4600000000000009 -12.42 L -1.8600000000000012 -12.42 Z" fill="#000000" />
  <path id="text" d="M -0.26000000000000156 -12.52 L 2.039999999999999 -12.52 L 2.039999999999999 -12.42 L -0.26000000000000156 -12.42 Z" fill="#000000" />
  <path id="text" d="M 2.84 -12.52 L 4.640000000000001 -12.52 L 4.640000000000001 -12.42 L 2.84 -12.42 Z" fill="#000000" />
  <path id="text" d="M 5.84 -12.52 L 6.239999999999998 -12.52 L 6.239999999999998 -12.42 L 5.84 -12.42 Z" fill="#000000" />
  <path id="text" d="M 8.439999999999998 -12.52 L 10.239999999999998 -12.52 L 10.239999999999998 -12.42 L 8.439999999999998 -12.42 Z" fill="#000000" />
  <path id="text" d="M 11.239999999999998 -12.52 L 12.939999999999998 -12.52 L 12.939999999999998 -12.42 L 11.239999999999998 -12.42 Z" fill="#000000" />
  <path id="text" d="M -12.660000000000002 -12.42 L -12.260000000000002 -12.42 L -12.260000000000002 -12.32 L -12.660000000000002 -12.32 Z" fill="#000000" />
  <path id="text" d="M -11.060000000000002 -12.42 L -9.46 -12.42 L -9.46 -12.32 L -11.060000000000002 -12.32 Z" fill="#000000" />
  <path id="text" d="M -7.460000000000002 -12.42 L -7.060000000000002 -12.42 L -7.060000000000002 -12.32 L -7.460000000000002 -12.32 Z" fill="#000000" />
  <path id="text" d="M -5.460000000000003 -12.42 L -3.860000000000001 -12.42 L -3.860000000000001 -12.32 L -5.460000000000003 -12.32 Z" fill="#000000" />
  <path id="text" d="M -1.8600000000000012 -12.42 L -1.4600000000000009 -12.42 L -1.4600000000000009 -12.32 L -1.8600000000000012 -12.32 Z" fill="#000000" />
  <path id="text" d="M -0.3600000000000012 -12.42 L 2.039999999999999 -12.42 L 2.039999999999999 -12.32 L -0.3600000000000012 -12.32 Z" fill="#000000" />
  <path id="text" d="M 2.9399999999999977 -12.42 L 4.539999999999999 -12.42 L 4.539999999999999 -12.32 L 2.9399999999999977 -12.32 Z" fill="#000000" />
  <path id="text" d="M 5.84 -12.42 L 6.239999999999998 -12.42 L 6.239999999999998 -12.32 L 5.84 -12.32 Z" fill="#000000" />
  <path id="text" d="M 8.54 -12.42 L 10.14 -12.42 L 10.14 -12.32 L 8.54 -12.32 Z" fill="#000000" />
  <path id="text" d="M 11.34 -12.42 L 12.84 -12.42 L 12.84 -12.32 L 11.34 -12.32 Z" fill="#000000" />
  <path id="text" d="M -12.660000000000002 -12.32 L -12.260000000000002 -12.32 L -12.260000000000002 -12.22 L -12.660000000000002 -12.22 Z" fill="#000000" />
  <path id="text" d="M -10.960000000000003 -12.32 L -9.660000000000002 -12.32 L -9.660000000000002 -12.22 L -10.960000000000003 -12.22 Z" fill="#000000" />
  <path id="text" d="M -7.460000000000002 -12.32 L -7.060000000000002 -12.32 L -7.060000000000002 -12.22 L -7.460000000000002 -12.22 Z" fill="#000000" />
  <path id="text" d="M -5.360000000000001 -12.32 L -4.060000000000002 -12.32 L -4.060000000000002 -12.22 L -5.360000000000001 -12.22 Z" fill="#000000" />
  <path id="text" d="M -1.8600000000000012 -12.32 L -1.4600000000000009 -12.32 L -1.4600000000000009 -12.22 L -1.8600000000000012 -12.22 Z" fill="#000000" />
  <path id="text" d="M -0.3600000000000012 -12.32 L 2.039999999999999 -12.32 L 2.039999999999999 -12.22 L -0.3600000000000012 -12.22 Z" fill="#000000" />
  <path id="text" d="M 3.039999999999999 -12.32 L 4.34 -12.32 L 4.34 -12.22 L 3.039999999999999 -12.22 Z" fill="#000000" />
  <path id="text" d="M 5.84 -12.32 L 6.239999999999998 -12.32 L 6.239999999999998 -12.22 L 5.84 -12.22 Z" fill="#000000" />
  <path id="text" d="M 8.64 -12.32 L 9.939999999999998 -12.32 L 9.939999999999998 -12.22 L 8.64 -12.22 Z" fill="#000000" />
  <path id="text" d="M 11.439999999999998 -12.32 L 12.739999999999998 -12.32 L 12.739999999999998 -12.22 L 11.439999999999998 -12.22 Z" fill="#000000" />
  <path id="text" d="M -12.660000000000002 -12.22 L -12.260000000000002 -12.22 L -12.260000000000002 -12.120000000000001 L -12.660000000000002 -12.120000000000001 Z" fill="#000000" />
  <path id="text" d="M -10.660000000000002 -12.22 L -9.860000000000003 -12.22 L -9.860000000000003 -12.120000000000001 L -10.660000000000002 -12.120000000000001 Z" fill="#000000" />
  <path id="text" d="M -7.460000000000002 -12.22 L -7.060000000000002 -12.22 L -7.060000000000002 -12.120000000000001 L -7.460000000000002 -12.120000000000001 Z" fill="#000000" />
  <path id="text" d="M -5.060000000000002 -12.22 L -4.260000000000002 -12.22 L -4.260000000000002 -12.120000000000001 L -5.060000000000002 -12.120000000000001 Z" fill="#000000" />
  <path id="text" d="M -1.8600000000000012 -12.22 L -1.4600000000000009 -12.22 L -1.4600000000000009 -12.120000000000001 L -1.8600000000000012 -12.120000000000001 Z" fill="#000000" />
  <path id="text" d="M -0.3600000000000012 -12.22 L 2.039999999999999 -12.22 L 2.039999999999999 -12.120000000000001 L -0.3600000000000012 -12.120000000000001 Z" fill="#000000" />
  <path id="text" d="M 3.34 -12.22 L 4.139999999999997 -12.22 L 4.139999999999997 -12.120000000000001 L 3.34 -12.120000000000001 Z" fill="#000000" />
  <path id="text" d="M 5.84 -12.22 L 6.239999999999998 -12.22 L 6.239999999999998 -12.120000000000001 L 5.84 -12.120000000000001 Z" fill="#000000" />
  <path id="text" d="M 8.939999999999998 -12.22 L 9.739999999999998 -12.22 L 9.739999999999998 -12.120000000000001 L 8.939999999999998 -12.120000000000001 Z" fill="#000000" />
  <path id="text" d="M 11.739999999999998 -12.22 L 12.439999999999998 -12.22 L 12.439999999999998 -12.120000000000001 L 11.739999999999998 -12.120000000000001 Z" fill="#000000" />
</svg>