<?xml version="1.0" encoding="UTF-8" standalone="no"?>
<svg width="82.6mm" height="82.6mm" viewBox="-41.3 -41.3 82.6 82.6" xmlns="http://www.w3.org/2000/svg">
  <path id="barcode_guard" d="M 13.55 2.5500000000000016 L 11.3 2.550000000000001 L 11.3 -2.5499999999999985 L 13.55 -2.549999999999998 Z" fill="#000000" stroke="none" />
  <path id="barcode_guard" d="M -11.3 2.5499999999999985 L -13.55 2.549999999999998 L -13.55 -2.5500000000000016 L -11.3 -2.550000000000001 Z" fill="#000000" stroke="none" />
  <path id="barcode" d="M 10.920000000000002 2.550000000000001 L 10.546336633663365 2.550000000000001 L 10.546336633663365 -2.5499999999999985 L 10.920000000000002 -2.5499999999999985 Z" fill="#000000" stroke="none" />
  <path id="barcode" d="M 10.269504950495051 2.550000000000001 L 10.112673267326732 2.550000000000001 L 10.112673267326732 -2.5499999999999985 L 10.269504950495051 -2.5499999999999985 Z" fill="#000000" stroke="none" />
  <path id="barcode" d="M 9.6190099009901 2.550000000000001 L 9.028514851485147 2.5500000000000007 L 9.028514851485147 -2.549999999999999 L 9.6190099009901 -2.5499999999999985 Z" fill="#000000" stroke="none" />
  <path id="barcode" d="M 8.534851485148515 2.5500000000000007 L 7.727524752475247 2.5500000000000007 L 7.727524752475247 -2.549999999999999 L 8.534851485148515 -2.549999999999999 Z" fill="#000000" stroke="none" />
  <path id="barcode" d="M 7.45069306930693 2.5500000000000007 L 7.293861386138613 2.5500000000000007 L 7.293861386138613 -2.549999999999999 L 7.45069306930693 -2.549999999999999 Z" fill="#000000" stroke="none" />
  <path id="barcode" d="M 7.017029702970297 2.5500000000000007 L 6.426534653465346 2.5500000000000007 L 6.426534653465346 -2.549999999999999 L 7.017029702970297 -2.549999999999999 Z" fill="#000000" stroke="none" />
  <path id="barcode" d="M 6.149702970297028 2.5500000000000007 L 5.992871287128712 2.5500000000000007 L 5.992871287128712 -2.549999999999999 L 6.149702970297028 -2.549999999999999 Z" fill="#000000" stroke="none" />
  <path id="barcode" d="M 5.716039603960394 2.5500000000000007 L 5.342376237623761 2.5500000000000003 L 5.342376237623761 -2.5499999999999994 L 5.716039603960394 -2.549999999999999 Z" fill="#000000" stroke="none" />
  <path id="barcode" d="M 4.63188118811881 2.5500000000000003 L 4.04138613861386 2.5500000000000003 L 4.04138613861386 -2.5499999999999994 L 4.63188118811881 -2.5499999999999994 Z" fill="#000000" stroke="none" />
  <path id="barcode" d="M 3.7645544554455426 2.5500000000000003 L 3.607722772277225 2.5500000000000003 L 3.607722772277226 -2.5499999999999994 L 3.7645544554455435 -2.5499999999999994 Z" fill="#000000" stroke="none" />
  <path id="barcode" d="M 3.1140594059405924 2.5500000000000003 L 2.7403960396039575 2.5500000000000003 L 2.7403960396039584 -2.5499999999999994 L 3.1140594059405933 -2.5499999999999994 Z" fill="#000000" stroke="none" />
  <path id="barcode" d="M 2.463564356435641 2.5500000000000003 L 1.8730693069306907 2.5500000000000003 L 1.8730693069306912 -2.5499999999999994 L 2.4635643564356418 -2.5499999999999994 Z" fill="#000000" stroke="none" />
  <path id="barcode" d="M 1.3794059405940564 2.55 L 1.0057425742574222 2.55 L 1.0057425742574226 -2.55 L 1.3794059405940569 -2.55 Z" fill="#000000" stroke="none" />
  <path id="barcode" d="M 0.29524752475247196 2.55 L 0.13841584158415585 2.55 L 0.13841584158415646 -2.55 L 0.2952475247524726 -2.55 Z" fill="#000000" stroke="none" />
  <path id="barcode" d="M -0.35524752475247834 2.55 L -0.5120792079207964 2.55 L -0.5120792079207958 -2.55 L -0.3552475247524777 -2.55 Z" fill="#000000" stroke="none" />
  <path id="barcode" d="M -1.0057425742574284 2.55 L -1.3794059405940626 2.55 L -1.3794059405940622 -2.55 L -1.005742574257428 -2.55 Z" fill="#000000" stroke="none" />
  <path id="barcode" d="M -1.6562376237623808 2.55 L -2.0299009900990135 2.5499999999999994 L -2.0299009900990126 -2.5500000000000003 L -1.6562376237623804 -2.55 Z" fill="#000000" stroke="none" />
  <path id="barcode" d="M -2.523564356435647 2.5499999999999994 L -2.8972277227722816 2.5499999999999994 L -2.8972277227722807 -2.5500000000000003 L -2.5235643564356462 -2.5500000000000003 Z" fill="#000000" stroke="none" />
  <path id="barcode" d="M -3.3908910891089157 2.5499999999999994 L -3.76455445544555 2.5499999999999994 L -3.7645544554455492 -2.5500000000000003 L -3.390891089108915 -2.5500000000000003 Z" fill="#000000" stroke="none" />
  <path id="barcode" d="M -4.258217821782182 2.5499999999999994 L -4.4150495049505 2.5499999999999994 L -4.4150495049505 -2.5500000000000003 L -4.258217821782182 -2.5500000000000003 Z" fill="#000000" stroke="none" />
  <path id="barcode" d="M -4.908712871287134 2.5499999999999994 L -5.06554455445545 2.5499999999999994 L -5.06554455445545 -2.5500000000000003 L -4.908712871287134 -2.5500000000000003 Z" fill="#000000" stroke="none" />
  <path id="barcode" d="M -5.776039603960401 2.549999999999999 L -6.149702970297034 2.549999999999999 L -6.149702970297034 -2.5500000000000007 L -5.776039603960401 -2.5500000000000007 Z" fill="#000000" stroke="none" />
  <path id="barcode" d="M -6.643366336633667 2.549999999999999 L -7.233861386138619 2.549999999999999 L -7.233861386138619 -2.5500000000000007 L -6.643366336633667 -2.5500000000000007 Z" fill="#000000" stroke="none" />
  <path id="barcode" d="M -7.727524752475252 2.549999999999999 L -7.8843564356435705 2.549999999999999 L -7.8843564356435705 -2.5500000000000007 L -7.727524752475252 -2.5500000000000007 Z" fill="#000000" stroke="none" />
  <path id="barcode" d="M -8.161188118811886 2.549999999999999 L -8.53485148514852 2.549999999999999 L -8.53485148514852 -2.5500000000000007 L -8.161188118811886 -2.5500000000000007 Z" fill="#000000" stroke="none" />
  <path id="barcode" d="M -9.245346534653471 2.5499999999999985 L -9.835841584158425 2.5499999999999985 L -9.835841584158425 -2.550000000000001 L -9.245346534653471 -2.550000000000001 Z" fill="#000000" stroke="none" />
  <path id="barcode" d="M -10.11267326732674 2.5499999999999985 L -10.269504950495056 2.5499999999999985 L -10.269504950495056 -2.550000000000001 L -10.11267326732674 -2.550000000000001 Z" fill="#000000" stroke="none" />
  <path id="barcode" d="M -10.54633663366337 2.5499999999999985 L -10.920000000000009 2.5499999999999985 L -10.920000000000009 -2.550000000000001 L -10.54633663366337 -2.550000000000001 Z" fill="#000000" stroke="none" />
  <path id="text" d="M 9.537061814289537 -6.387705618457593 L 9.537061814289537 -5.544039735099336 L 11.0 -5.544039735099335 L 11.0 -5.147201452681049 L 9.461265721166711 -2.864612262337106 L 9.123494781910622 -2.864612262337106 L 9.123494781910622 -5.14720145268105 L 8.667982338774419 -5.14720145268105 L 8.667982338774419 -5.544039735099336 L 9.123494781910622 -5.544039735099336 L 9.123494781910622 -6.387705618457593 L 9.537061814289537 -6.387705618457593 Z M 9.537061814289537 -5.14720145268105 L 9.537061814289537 -3.559079256569108 L 10.593055927214342 -5.14720145268105 L 9.537061814289537 -5.14720145268105 Z" fill="#000000" fill-rule="evenodd" stroke="#000000" />
  <path id="text" d="M 8.47002943537597 -5.4579042939542814 L 8.056462402997056 -5.400224311044647 L 7.9600615466952105 -5.716502883999143 L 7.813620551244314 -5.930111087374491 L 7.623578405137812 -6.05181585131382 L 7.396374096869147 -6.092384105960263 L 7.127040406743378 -6.039510788293098 L 6.903331549371154 -5.880890835291603 L 6.752107305325128 -5.644018372142703 L 6.701699223976452 -5.356387524033325 L 6.748243912229061 -5.084907071138644 L 6.887877976986888 -4.865723136082032 L 7.099444741771475 -4.720369579149753 L 7.361787530104363 -4.67191839350566 L 7.493326866470431 -4.683838923306984 L 7.653933636606904 -4.719600512710958 L 7.607572919454109 -4.339681691946164 L 7.570410757291946 -4.3437192907498385 L 7.541343323521542 -4.345065157017729 L 7.289854830077604 -4.309111301004057 L 7.065226117206316 -4.20124973296304 L 6.906275086968157 -4.017635120700703 L 6.853291410222104 -3.7559602649006614 L 6.891925341182768 -3.5386989959410364 L 7.007827134064758 -3.3621982482375543 L 7.1840714476853105 -3.2445310831019 L 7.405204709660156 -3.205308694723348 L 7.626521942734814 -3.2451078829309967 L 7.807733476050308 -3.36450544755394 L 7.940008696815628 -3.5625400555436855 L 8.014516992239765 -3.839788506729329 L 8.428819909017928 -3.7628818628498166 L 8.304823387744179 -3.3771950437940603 L 8.084426010168583 -3.089179662465284 L 7.782345464276158 -2.9097949156163203 L 7.414771206850415 -2.8499999999999988 L 7.149852823120151 -2.880954924161503 L 6.9070109713674075 -2.9738196966460144 L 6.701883195076265 -3.120134586626788 L 6.551578806529302 -3.3114398632770765 L 6.45885737222371 -3.5319696646015792 L 6.427950227455179 -3.7659581286049972 L 6.457385603425209 -3.983603930784019 L 6.545691731335296 -4.181254005554367 L 6.690844929087503 -4.349679555650501 L 6.8922932833823936 -4.479651783806877 L 6.62682298635269 -4.590205084383677 L 6.427950227455179 -4.778818628498183 L 6.303769735081617 -5.034340952787864 L 6.262376237623763 -5.347158726767783 L 6.3429555793417185 -5.773413800469983 L 6.584693604495585 -6.129299295022429 L 6.9489563821247 -6.369824823755606 L 7.398581750066899 -6.449999999999998 L 7.804789938453305 -6.380976287118136 L 8.135937918116136 -6.173905148472547 L 8.36590179288199 -5.856472975859858 L 8.47002943537597 -5.4579042939542814 Z" fill="#000000" fill-rule="evenodd" stroke="#000000" />
  <path id="text" d="M 4.5080278298100085 -6.387705618457593 L 4.921594862188923 -6.387705618457593 L 4.921594862188923 -3.63137150181585 L 5.094343724913032 -3.7799935911130085 L 5.313821246989565 -3.929000213629565 L 5.5441530639550445 -4.059549241615038 L 5.749464811346001 -4.152798547318947 L 5.749464811346001 -3.734426404614397 L 5.424019935777363 -3.5458128604998915 L 5.142360181964143 -3.3214377269814133 L 4.920491035590047 -3.082065797906429 L 4.774417982338775 -2.8499999999999988 L 4.5080278298100085 -2.8499999999999988 L 4.5080278298100085 -6.387705618457593 Z" fill="#000000" fill-rule="evenodd" stroke="#000000" />
  <path id="text" d="M 4.310074926411561 -5.4579042939542814 L 3.8965078940326463 -5.400224311044647 L 3.8001070377308 -5.716502883999143 L 3.653666042279904 -5.930111087374491 L 3.4636238961734014 -6.051815851313821 L 3.236419587904736 -6.092384105960264 L 2.967085897778967 -6.039510788293099 L 2.743377040406743 -5.880890835291604 L 2.5921527963607174 -5.644018372142704 L 2.5417447150120416 -5.356387524033326 L 2.58828940326465 -5.084907071138645 L 2.727923468022478 -4.865723136082033 L 2.9394902328070645 -4.720369579149754 L 3.2018330211399517 -4.671918393505661 L 3.3333723575060206 -4.683838923306985 L 3.493979127642494 -4.719600512710959 L 3.4476184104896976 -4.339681691946165 L 3.410456248327536 -4.343719290749839 L 3.3813888145571314 -4.34506515701773 L 3.129900321113193 -4.309111301004058 L 2.9052716082419052 -4.201249732963041 L 2.7463205780037465 -4.017635120700704 L 2.6933369012576933 -3.7559602649006614 L 2.731970832218358 -3.5386989959410373 L 2.8478726251003477 -3.362198248237555 L 3.0241169387208995 -3.2445310831019007 L 3.2452502006957453 -3.2053086947233496 L 3.466567433770404 -3.2451078829309976 L 3.6477789670858978 -3.36450544755394 L 3.7800541878512175 -3.5625400555436855 L 3.854562483275355 -3.839788506729329 L 4.268865400053519 -3.7628818628498166 L 4.1448688787797705 -3.3771950437940603 L 3.9244715012041738 -3.089179662465284 L 3.6223909553117477 -2.909794915616321 L 3.2548166978860045 -2.8499999999999996 L 2.9898983141557403 -2.880954924161504 L 2.7470564624029965 -2.9738196966460153 L 2.5419286861118544 -3.120134586626789 L 2.391624297564891 -3.3114398632770765 L 2.298902863259299 -3.53196966460158 L 2.267995718490768 -3.765958128604998 L 2.297431094460798 -3.98360393078402 L 2.3857372223708855 -4.181254005554368 L 2.5308904201230926 -4.349679555650502 L 2.7323387744179826 -4.479651783806878 L 2.4668684773882794 -4.590205084383678 L 2.267995718490768 -4.7788186284981835 L 2.1438152261172063 -5.034340952787865 L 2.1024217286593525 -5.347158726767784 L 2.183001070377308 -5.773413800469984 L 2.4247390955311743 -6.12929929502243 L 2.789001873160289 -6.369824823755607 L 3.238627241102489 -6.449999999999999 L 3.6448354294888956 -6.380976287118136 L 3.9759834091517257 -6.173905148472547 L 4.205947283917581 -5.856472975859858 L 4.310074926411561 -5.4579042939542814 Z" fill="#000000" fill-rule="evenodd" stroke="#000000" />
  <path id="text" d="M 0.3480733208455981 -6.387705618457594 L 0.7616403532245121 -6.387705618457594 L 0.7616403532245117 -3.6313715018158508 L 0.9343892159486217 -3.7799935911130094 L 1.153866738025153 -3.929000213629566 L 1.384198554990633 -4.059549241615039 L 1.5895103023815897 -4.152798547318948 L 1.5895103023815895 -3.734426404614398 L 1.2640654268129508 -3.5458128604998924 L 0.9824056729997325 -3.321437726981414 L 0.7605365266256365 -3.08206579790643 L 0.6144634733743645 -2.8499999999999996 L 0.34807332084559767 -2.8499999999999996 L 0.3480733208455981 -6.387705618457594 Z" fill="#000000" fill-rule="evenodd" stroke="#000000" />
  <path id="text" d="M -1.4062750869681564 -6.387705618457594 L -0.9927080545892426 -6.387705618457594 L -0.9927080545892429 -3.6313715018158508 L -0.819959191865133 -3.7799935911130094 L -0.6004816697885998 -3.929000213629566 L -0.37014985282311974 -4.059549241615039 L -0.16483810543216498 -4.152798547318948 L -0.16483810543216504 -3.734426404614398 L -0.490282981000802 -3.5458128604998924 L -0.7719427348140222 -3.321437726981414 L -0.9938118811881202 -3.08206579790643 L -1.1398849344393902 -2.8499999999999996 L -1.4062750869681568 -2.8499999999999996 L -1.4062750869681564 -6.387705618457594 Z" fill="#000000" fill-rule="evenodd" stroke="#000000" />
  <path id="text" d="M -1.6020203371688522 -4.650384533219397 L -1.6327435108375719 -4.086274300363169 L -1.7249130318437265 -3.644445631275368 L -1.8776090446882534 -3.306825464644306 L -2.08991169387209 -3.056878872035889 L -2.3640286325929907 -2.901719718008972 L -2.7006957452502016 -2.8499999999999996 L -2.9554957184907673 -2.878647724845118 L -3.1768129515654278 -2.9645908993804735 L -3.3635436178753015 -3.103791924802392 L -3.5145838908215157 -3.2937513351847887 L -3.633981134599948 -3.531969664601581 L -3.724310944607975 -3.8174855800042726 L -3.781158014450095 -4.179908139286478 L -3.800107037730801 -4.650384533219398 L -3.769567835161896 -5.210457167271951 L -3.677950227455179 -5.650939970091861 L -3.526174070109713 -5.9885601367229215 L -3.3136874498260633 -6.240044862208929 L -3.0393865400053524 -6.395780816064942 L -2.7006957452502016 -6.447692800683614 L -2.265788065293017 -6.356366161076693 L -1.9353759700294355 -6.082386242255928 L -1.6853592453839976 -5.504432813501388 L -1.6020203371688522 -4.650384533219397 Z M -2.027361519935778 -4.650384533219397 L -2.0759298902863264 -5.372922452467421 L -2.2216350013379733 -5.805522324289681 L -2.438536928017127 -6.0206686605426185 L -2.7006957452502016 -6.092384105960264 L -2.963406475782714 -6.020284127323221 L -3.1804923735616804 -5.80398419141209 L -3.3261974846133273 -5.371384319589831 L -3.3747658549638757 -4.650384533219397 L -3.3261974846133273 -3.926116214484084 L -3.1804923735616804 -3.4944776757103178 L -2.962302649183839 -3.2799081392864764 L -2.6962804388546973 -3.2083849604785293 L -2.440008696815627 -3.2714484084597304 L -2.2407679957184916 -3.460638752403332 L -2.080713138881456 -3.91881008331553 L -2.027361519935778 -4.650384533219397 Z" fill="#000000" fill-rule="evenodd" stroke="#000000" />
  <path id="text" d="M -3.9958522879314966 -4.650384533219398 L -4.026575461600213 -4.08627430036317 L -4.11874498260637 -3.644445631275369 L -4.271440995450897 -3.306825464644307 L -4.483743644634734 -3.05687887203589 L -4.757860583355632 -2.901719718008973 L -5.094527696012845 -2.8500000000000005 L -5.349327669253413 -2.878647724845119 L -5.5706449023280715 -2.9645908993804753 L -5.757375568637945 -3.103791924802393 L -5.9084158415841594 -3.2937513351847896 L -6.027813085362592 -3.531969664601581 L -6.118142895370618 -3.8174855800042726 L -6.1749899652127365 -4.179908139286478 L -6.193938988493445 -4.650384533219398 L -6.16339978592454 -5.210457167271951 L -6.0717821782178225 -5.650939970091861 L -5.920006020872358 -5.988560136722922 L -5.707519400588709 -6.24004486220893 L -5.433218490767996 -6.395780816064943 L -5.094527696012845 -6.4476928006836145 L -4.65962001605566 -6.356366161076694 L -4.329207920792079 -6.082386242255929 L -4.079191196146644 -5.5044328135013885 L -3.9958522879314966 -4.650384533219398 Z M -4.421193470698421 -4.650384533219398 L -4.46976184104897 -5.372922452467422 L -4.615466952100617 -5.805522324289682 L -4.8323688787797705 -6.020668660542619 L -5.094527696012845 -6.092384105960265 L -5.35723842654536 -6.0202841273232215 L -5.5743243243243255 -5.803984191412091 L -5.720029435375971 -5.371384319589832 L -5.768597805726519 -4.650384533219398 L -5.720029435375971 -3.926116214484085 L -5.5743243243243255 -3.4944776757103186 L -5.356134599946483 -3.2799081392864773 L -5.090112389617341 -3.20838496047853 L -4.833840647578273 -3.2714484084597313 L -4.634599946481135 -3.460638752403333 L -4.474545089644099 -3.918810083315531 L -4.421193470698421 -4.650384533219398 Z" fill="#000000" fill-rule="evenodd" stroke="#000000" />
  <path id="text" d="M -6.38968423869414 -4.650384533219398 L -6.420407412362859 -4.08627430036317 L -6.512576933369014 -3.644445631275369 L -6.665272946213541 -3.306825464644307 L -6.877575595397378 -3.05687887203589 L -7.151692534118278 -2.901719718008973 L -7.488359646775489 -2.8500000000000005 L -7.743159620016055 -2.878647724845119 L -7.964476853090713 -2.9645908993804753 L -8.15120751940059 -3.103791924802393 L -8.302247792346805 -3.2937513351847896 L -8.421645036125236 -3.531969664601581 L -8.511974846133265 -3.8174855800042726 L -8.568821915975384 -4.179908139286478 L -8.587770939256089 -4.650384533219398 L -8.557231736687182 -5.210457167271951 L -8.465614128980466 -5.650939970091861 L -8.313837971635001 -5.988560136722922 L -8.101351351351353 -6.24004486220893 L -7.827050441530642 -6.395780816064943 L -7.488359646775489 -6.4476928006836145 L -7.053451966818304 -6.356366161076694 L -6.7230398715547235 -6.082386242255929 L -6.473023146909285 -5.5044328135013885 L -6.38968423869414 -4.650384533219398 Z M -6.8150254214610655 -4.650384533219398 L -6.863593791811613 -5.372922452467422 L -7.009298902863261 -5.805522324289682 L -7.226200829542415 -6.020668660542619 L -7.488359646775489 -6.092384105960265 L -7.751070377308001 -6.0202841273232215 L -7.968156275086968 -5.803984191412091 L -8.113861386138616 -5.371384319589832 L -8.162429756489166 -4.650384533219398 L -8.113861386138616 -3.926116214484085 L -7.968156275086968 -3.4944776757103186 L -7.749966550709127 -3.2799081392864773 L -7.483944340379985 -3.20838496047853 L -7.227672598340915 -3.2714484084597313 L -7.028431897243779 -3.460638752403333 L -6.8683770404067435 -3.918810083315531 L -6.8150254214610655 -4.650384533219398 Z" fill="#000000" fill-rule="evenodd" stroke="#000000" />
  <path id="text" d="M -8.845330478993848 -5.573264259773553 L -9.243443938988497 -5.534810937833797 L -9.31666443671394 -5.787641529587695 L -9.436245651592186 -5.960104678487503 L -9.599060074926413 -6.059314249092075 L -9.801980198019804 -6.092384105960265 L -9.980800107037728 -6.06950437940611 L -10.13607171527964 -6.000865199743645 L -10.267243109446081 -5.89415723136082 L -10.372290607439124 -5.757071138645589 L -10.456733342253145 -5.577494125186926 L -10.526090446882526 -5.344851527451399 L -10.573003077334759 -5.082599871822261 L -10.58864062081884 -4.815733817560351 L -10.588088707519402 -4.779972228156377 L -10.58643296762109 -4.7295983764152965 L -10.439440058870755 -4.916481521042512 L -10.2471902595665 -5.064911343729973 L -10.023297431094466 -5.161236915189062 L -9.781375434840784 -5.193345439008759 L -9.394852154134332 -5.114131595812861 L -9.072718758362322 -4.876490066225165 L -8.855816831683173 -4.508491775261696 L -8.783516189456787 -4.039745780816065 L -8.859128311479799 -3.556002990813929 L -9.085964677548837 -3.17685323648793 L -9.42649518330212 -2.9317133091219834 L -9.843189724377845 -2.8500000000000005 L -10.157964276157346 -2.896336252937407 L -10.444407278565697 -3.0353450117496266 L -10.684489563821248 -3.2595278786584068 L -10.858710195343862 -3.562924588763085 L -10.964677548835963 -3.981873531296733 L -11.0 -4.554251228370007 L -10.96486151993578 -5.160660115359967 L -10.859446079743112 -5.629406109805597 L -10.685225448220503 -5.981638538773766 L -10.442199625367943 -6.238506729331339 L -10.141590848274019 -6.395396282845546 L -9.793149585228795 -6.4476928006836145 L -9.433486085094994 -6.390397350993378 L -9.146307198287396 -6.218511001922667 L -8.945962670591387 -5.942223883785516 L -8.845330478993848 -5.573264259773553 Z M -10.54007225046829 -4.018211920529802 L -10.492607706716619 -3.683860286263619 L -10.3502140754616 -3.426799829096347 L -10.141590848274019 -3.2629886776329844 L -9.893965747926146 -3.20838496047853 L -9.63585429488895 -3.267218543046358 L -9.413433235215416 -3.44371929074984 L -9.260001337971635 -3.7140461439863284 L -9.20885737222371 -4.054358043153173 L -9.257425742574261 -4.3591006195257425 L -9.403130853625903 -4.601164281136509 L -9.620032780305058 -4.758630634479812 L -9.882191597538132 -4.811119418927579 L -10.144166443671395 -4.758630634479812 L -10.354629381857105 -4.601164281136509 L -10.493711533315494 -4.3500640888699 L -10.54007225046829 -4.018211920529802 Z" fill="#000000" fill-rule="evenodd" stroke="#000000" />
</svg>