<?xml version="1.0" encoding="UTF-8" standalone="no"?>
<svg width="300mm" height="300mm" viewBox="-150.0 -150.0 300 300" xmlns="http://www.w3.org/2000/svg">
  <g >
    <path id="base_1" d="M -6.608514285714287,36.8304 L -6.608514285714287,36.438122772277225 L -0.10851428571428645,36.438122772277225 L -0.10851428571428645,36.8304 L -6.608514285714287,36.8304" fill="#000000" />
    <path id="base_1" d="M -6.608514285714287,36.438122772277225 L -6.608514285714287,36.04584554455445 L -0.10851428571428645,36.04584554455445 L -0.10851428571428645,36.438122772277225 L -6.608514285714287,36.438122772277225" fill="#000000" />
    <path id="base_1" d="M -6.608514285714287,35.65356831683168 L -6.608514285714287,35.26129108910891 L -0.10851428571428645,35.26129108910891 L -0.10851428571428645,35.65356831683168 L -6.608514285714287,35.65356831683168" fill="#000000" />
    <path id="base_1" d="M -6.6085142857142865,34.476736633663364 L -6.6085142857142865,34.08445940594059 L -0.10851428571428645,34.08445940594059 L -0.10851428571428645,34.476736633663364 L -6.6085142857142865,34.476736633663364" fill="#000000" />
    <path id="base_1" d="M -6.6085142857142865,34.08445940594059 L -6.6085142857142865,33.69218217821782 L -0.10851428571428645,33.69218217821782 L -0.10851428571428645,34.08445940594059 L -6.6085142857142865,34.08445940594059" fill="#000000" />
    <path id="base_1" d="M -6.6085142857142865,33.69218217821782 L -6.6085142857142865,33.29990495049505 L -0.10851428571428645,33.29990495049505 L -0.10851428571428645,33.69218217821782 L -6.6085142857142865,33.69218217821782" fill="#000000" />
    <path id="base_1" d="M -6.6085142857142865,32.5153504950495 L -6.6085142857142865,32.12307326732673 L -0.10851428571428645,32.12307326732673 L -0.10851428571428645,32.5153504950495 L -6.6085142857142865,32.5153504950495" fill="#000000" />
    <path id="base_1" d="M -6.6085142857142865,32.12307326732673 L -6.6085142857142865,31.73079603960396 L -0.10851428571428645,31.73079603960396 L -0.10851428571428645,32.12307326732673 L -6.6085142857142865,32.12307326732673" fill="#000000" />
    <path id="base_1" d="M -6.6085142857142865,31.73079603960396 L -6.6085142857142865,31.338518811881187 L -0.10851428571428645,31.338518811881187 L -0.10851428571428645,31.73079603960396 L -6.6085142857142865,31.73079603960396" fill="#000000" />
    <path id="base_1" d="M -6.6085142857142865,31.338518811881187 L -6.6085142857142865,30.946241584158415 L -0.10851428571428645,30.946241584158415 L -0.10851428571428645,31.338518811881187 L -6.6085142857142865,31.338518811881187" fill="#000000" />
    <path id="base_1" d="M -6.6085142857142865,30.553964356435642 L -6.6085142857142865,30.16168712871287 L -0.10851428571428645,30.16168712871287 L -0.10851428571428645,30.553964356435642 L -6.6085142857142865,30.553964356435642" fill="#000000" />
    <path id="base_1" d="M -6.6085142857142865,29.769409900990098 L -6.6085142857142865,29.377132673267326 L -0.10851428571428645,29.377132673267326 L -0.10851428571428645,29.769409900990098 L -6.6085142857142865,29.769409900990098" fill="#000000" />
    <path id="base_1" d="M -6.6085142857142865,29.377132673267326 L -6.6085142857142865,28.984855445544554 L -0.10851428571428645,28.984855445544554 L -0.10851428571428645,29.377132673267326 L -6.6085142857142865,29.377132673267326" fill="#000000" />
    <path id="base_1" d="M -6.6085142857142865,28.984855445544554 L -6.6085142857142865,28.59257821782178 L -0.10851428571428645,28.59257821782178 L -0.10851428571428645,28.984855445544554 L -6.6085142857142865,28.984855445544554" fill="#000000" />
    <path id="base_1" d="M -6.6085142857142865,28.20030099009901 L -6.608514285714286,27.808023762376237 L -0.10851428571428645,27.808023762376237 L -0.10851428571428645,28.20030099009901 L -6.6085142857142865,28.20030099009901" fill="#000000" />
    <path id="base_1" d="M -6.608514285714286,27.415746534653465 L -6.608514285714286,27.023469306930693 L -0.10851428571428645,27.023469306930693 L -0.10851428571428645,27.415746534653465 L -6.608514285714286,27.415746534653465" fill="#000000" />
    <path id="base_1" d="M -6.608514285714286,27.023469306930693 L -6.608514285714286,26.63119207920792 L -0.10851428571428645,26.63119207920792 L -0.10851428571428645,27.023469306930693 L -6.608514285714286,27.023469306930693" fill="#000000" />
    <path id="base_1" d="M -6.608514285714286,25.454360396039604 L -6.608514285714286,25.062083168316832 L -0.10851428571428645,25.062083168316832 L -0.10851428571428645,25.454360396039604 L -6.608514285714286,25.454360396039604" fill="#000000" />
    <path id="base_1" d="M -6.608514285714286,25.062083168316832 L -6.608514285714286,24.66980594059406 L -0.10851428571428645,24.66980594059406 L -0.10851428571428645,25.062083168316832 L -6.608514285714286,25.062083168316832" fill="#000000" />
    <path id="base_1" d="M -6.608514285714286,24.66980594059406 L -6.608514285714286,24.277528712871288 L -0.10851428571428645,24.277528712871288 L -0.10851428571428645,24.66980594059406 L -6.608514285714286,24.66980594059406" fill="#000000" />
    <path id="base_1" d="M -6.608514285714286,23.885251485148515 L -6.608514285714286,23.492974257425743 L -0.10851428571428645,23.492974257425743 L -0.10851428571428645,23.885251485148515 L -6.608514285714286,23.885251485148515" fill="#000000" />
    <path id="base_1" d="M -6.608514285714286,22.7084198019802 L -6.608514285714286,22.316142574257427 L -0.10851428571428645,22.316142574257427 L -0.10851428571428645,22.7084198019802 L -6.608514285714286,22.7084198019802" fill="#000000" />
    <path id="base_1" d="M -6.608514285714286,22.316142574257427 L -6.608514285714286,21.923865346534654 L -0.10851428571428645,21.923865346534654 L -0.10851428571428645,22.316142574257427 L -6.608514285714286,22.316142574257427" fill="#000000" />
    <path id="base_1" d="M -6.608514285714286,21.531588118811882 L -6.608514285714286,21.13931089108911 L -0.10851428571428645,21.13931089108911 L -0.10851428571428645,21.531588118811882 L -6.608514285714286,21.531588118811882" fill="#000000" />
    <path id="base_1" d="M -6.608514285714286,21.13931089108911 L -6.608514285714286,20.747033663366338 L -0.10851428571428645,20.747033663366338 L -0.10851428571428645,21.13931089108911 L -6.608514285714286,21.13931089108911" fill="#000000" />
    <path id="base_1" d="M -6.608514285714286,20.747033663366338 L -6.608514285714286,20.354756435643566 L -0.10851428571428556,20.354756435643566 L -0.10851428571428645,20.747033663366338 L -6.608514285714286,20.747033663366338" fill="#000000" />
    <path id="base_1" d="M -6.608514285714286,19.57020198019802 L -6.608514285714286,19.17792475247525 L -0.10851428571428556,19.17792475247525 L -0.10851428571428556,19.57020198019802 L -6.608514285714286,19.57020198019802" fill="#000000" />
    <path id="base_1" d="M -6.608514285714286,19.17792475247525 L -6.608514285714286,18.785647524752473 L -0.10851428571428556,18.785647524752477 L -0.10851428571428556,19.17792475247525 L -6.608514285714286,19.17792475247525" fill="#000000" />
    <path id="base_1" d="M -6.608514285714286,17.608815841584157 L -6.608514285714286,17.216538613861385 L -0.10851428571428556,17.216538613861385 L -0.10851428571428556,17.608815841584157 L -6.608514285714286,17.608815841584157" fill="#000000" />
    <path id="base_1" d="M -6.608514285714286,16.43198415841584 L -6.608514285714286,16.039706930693068 L -0.10851428571428556,16.039706930693068 L -0.10851428571428556,16.43198415841584 L -6.608514285714286,16.43198415841584" fill="#000000" />
    <path id="base_1" d="M -6.608514285714286,15.255152475247522 L -6.608514285714286,14.86287524752475 L -0.10851428571428556,14.86287524752475 L -0.10851428571428556,15.255152475247524 L -6.608514285714286,15.255152475247522" fill="#000000" />
    <path id="base_1" d="M -6.608514285714286,14.86287524752475 L -6.608514285714286,14.470598019801978 L -0.10851428571428556,14.470598019801978 L -0.10851428571428556,14.86287524752475 L -6.608514285714286,14.86287524752475" fill="#000000" />
    <path id="base_1" d="M -6.608514285714286,14.078320792079206 L -6.608514285714286,13.686043564356433 L -0.10851428571428556,13.686043564356433 L -0.10851428571428556,14.078320792079206 L -6.608514285714286,14.078320792079206" fill="#000000" />
    <path id="base_1" d="M -6.608514285714286,13.686043564356433 L -6.608514285714286,13.29376633663366 L -0.10851428571428468,13.29376633663366 L -0.10851428571428556,13.686043564356433 L -6.608514285714286,13.686043564356433" fill="#000000" />
    <path id="base_1" d="M -6.608514285714286,12.509211881188115 L -6.608514285714286,12.116934653465343 L -0.10851428571428468,12.116934653465343 L -0.10851428571428468,12.509211881188115 L -6.608514285714286,12.509211881188115" fill="#000000" />
    <path id="base_1" d="M -6.608514285714286,12.116934653465343 L -6.608514285714286,11.72465742574257 L -0.10851428571428468,11.72465742574257 L -0.10851428571428468,12.116934653465343 L -6.608514285714286,12.116934653465343" fill="#000000" />
    <path id="base_1" d="M -6.608514285714286,10.940102970297026 L -6.608514285714286,10.547825742574254 L -0.10851428571428468,10.547825742574254 L -0.10851428571428468,10.940102970297026 L -6.608514285714286,10.940102970297026" fill="#000000" />
    <path id="base_1" d="M -6.608514285714286,10.547825742574254 L -6.608514285714286,10.155548514851482 L -0.10851428571428468,10.155548514851482 L -0.10851428571428468,10.547825742574254 L -6.608514285714286,10.547825742574254" fill="#000000" />
    <path id="base_1" d="M -6.608514285714286,9.370994059405938 L -6.608514285714286,8.978716831683165 L -0.10851428571428468,8.978716831683165 L -0.10851428571428468,9.370994059405938 L -6.608514285714286,9.370994059405938" fill="#000000" />
    <path id="base_1" d="M -6.608514285714286,7.801885148514849 L -6.608514285714286,7.409607920792077 L -0.10851428571428468,7.409607920792077 L -0.10851428571428468,7.801885148514849 L -6.608514285714286,7.801885148514849" fill="#000000" />
    <path id="base_1" d="M -6.608514285714286,6.625053465346532 L -6.608514285714286,6.23277623762376 L -0.10851428571428468,6.23277623762376 L -0.10851428571428468,6.625053465346532 L -6.608514285714286,6.625053465346532" fill="#000000" />
    <path id="base_1" d="M -6.608514285714286,6.23277623762376 L -6.608514285714285,5.840499009900988 L -0.10851428571428468,5.840499009900988 L -0.10851428571428468,6.23277623762376 L -6.608514285714286,6.23277623762376" fill="#000000" />
    <path id="base_1" d="M -6.608514285714285,5.840499009900988 L -6.608514285714285,5.448221782178216 L -0.10851428571428468,5.448221782178216 L -0.10851428571428468,5.840499009900988 L -6.608514285714285,5.840499009900988" fill="#000000" />
    <path id="base_1" d="M -6.608514285714285,5.0559445544554436 L -6.608514285714285,4.66366732673267 L -0.10851428571428468,4.66366732673267 L -0.10851428571428468,5.0559445544554436 L -6.608514285714285,5.0559445544554436" fill="#000000" />
    <path id="base_1" d="M -6.608514285714285,3.8791128712871252 L -6.608514285714285,3.486835643564355 L -0.10851428571428468,3.486835643564355 L -0.10851428571428468,3.8791128712871252 L -6.608514285714285,3.8791128712871252" fill="#000000" />
    <path id="base_1" d="M -6.608514285714285,3.486835643564355 L -6.608514285714285,3.094558415841581 L -0.10851428571428468,3.094558415841581 L -0.10851428571428468,3.486835643564355 L -6.608514285714285,3.486835643564355" fill="#000000" />
    <path id="base_1" d="M -6.608514285714285,2.3100039603960365 L -6.608514285714285,1.917726732673266 L -0.10851428571428468,1.917726732673266 L -0.10851428571428468,2.3100039603960365 L -6.608514285714285,2.3100039603960365" fill="#000000" />
    <path id="base_1" d="M -6.608514285714285,1.917726732673266 L -6.608514285714285,1.5254495049504921 L -0.10851428571428468,1.5254495049504921 L -0.10851428571428468,1.917726732673266 L -6.608514285714285,1.917726732673266" fill="#000000" />
    <path id="base_1" d="M -6.608514285714285,0.3486178217821774 L -6.608514285714285,-0.04365940594059836 L -0.10851428571428468,-0.04365940594059836 L -0.10851428571428468,0.3486178217821774 L -6.608514285714285,0.3486178217821774" fill="#000000" />
    <path id="base_1" d="M -6.608514285714285,-0.04365940594059836 L -6.608514285714285,-0.435936633663367 L -0.10851428571428468,-0.435936633663367 L -0.10851428571428468,-0.04365940594059836 L -6.608514285714285,-0.04365940594059836" fill="#000000" />
    <path id="base_1" d="M -6.608514285714285,-0.435936633663367 L -6.608514285714285,-0.8282138613861427 L -0.10851428571428468,-0.8282138613861427 L -0.10851428571428468,-0.435936633663367 L -6.608514285714285,-0.435936633663367" fill="#000000" />
    <path id="base_1" d="M -6.608514285714284,-1.2204910891089114 L -6.608514285714284,-1.612768316831687 L -0.10851428571428468,-1.612768316831687 L -0.10851428571428468,-1.2204910891089114 L -6.608514285714284,-1.2204910891089114" fill="#000000" />
    <path id="base_1" d="M -6.608514285714284,-2.0050455445544557 L -6.608514285714284,-2.3973227722772315 L -0.10851428571428468,-2.3973227722772315 L -0.10851428571428468,-2.0050455445544557 L -6.608514285714284,-2.0050455445544557" fill="#000000" />
    <path id="base_1" d="M -6.608514285714284,-2.3973227722772315 L -6.608514285714284,-2.7896 L -0.10851428571428468,-2.7896 L -0.10851428571428468,-2.3973227722772315 L -6.608514285714284,-2.3973227722772315" fill="#000000" />
    <path id="base_1" d="M -15.537085714285716,35.43778137082601 L -15.537085714285716,35.159257644991214" fill="none" />
    <path id="base_1" d="M -15.537085714285716,31.88660386643234 L -15.537085714285716,31.32955641476274" fill="none" />
    <path id="base_1" d="M -15.537085714285714,27.221331458699474 L -15.537085714285714,27.012438664323373" fill="none" />
    <path id="base_1" d="M -15.537085714285714,23.5308920913884 L -15.537085714285714,22.973844639718806" fill="none" />
    <path id="base_1" d="M -15.537085714285714,18.865619683655535 L -15.537085714285714,18.656726889279433" fill="none" />
    <path id="base_1" d="M -15.537085714285714,14.687763796133568 L -15.537085714285714,14.478871001757467" fill="none" />
    <path id="base_1" d="M -15.537085714285714,10.997324428822493 L -15.537085714285714,10.440276977152898" fill="none" />
    <path id="base_1" d="M -15.537085714285714,6.819468541300527 L -15.537085714285714,6.26242108963093" fill="none" />
    <path id="base_1" d="M -15.537085714285713,2.1541961335676554 L -15.537085714285713,1.945303339191561" fill="none" />
    <path id="base_1" d="M -15.537085714285713,-1.5362432337434129 L -15.537085714285713,-2.093290685413006" fill="none" />
    <path id="base_1" d="M -15.394228571428574,35.507412302284706 L -15.394228571428574,35.159257644991214" fill="none" />
    <path id="base_1" d="M -15.394228571428574,32.095496660808436 L -15.394228571428574,31.19029455184534" fill="none" />
    <path id="base_1" d="M -15.394228571428572,27.29096239015817 L -15.394228571428572,27.012438664323373" fill="none" />
    <path id="base_1" d="M -15.394228571428572,23.739784885764497 L -15.394228571428572,22.834582776801405" fill="none" />
    <path id="base_1" d="M -15.394228571428572,18.935250615114235 L -15.394228571428572,18.656726889279433" fill="none" />
    <path id="base_1" d="M -15.394228571428572,14.757394727592263 L -15.394228571428572,14.478871001757467" fill="none" />
    <path id="base_1" d="M -15.394228571428572,11.136586291739894 L -15.394228571428572,10.231384182776797" fill="none" />
    <path id="base_1" d="M -15.394228571428572,6.958730404217928 L -15.39422857142857,6.053528295254829" fill="none" />
    <path id="base_1" d="M -15.39422857142857,2.2238270650263594 L -15.39422857142857,1.945303339191561" fill="none" />
    <path id="base_1" d="M -15.39422857142857,-1.396981370826012 L -15.39422857142857,-2.3021834797891074" fill="none" />
    <path id="base_1" d="M -15.25137142857143,35.57704323374341 L -15.25137142857143,35.159257644991214" fill="none" />
    <path id="base_1" d="M -15.251371428571428,32.16512759226713 L -15.251371428571428,31.051032688927943" fill="none" />
    <path id="base_1" d="M -15.251371428571428,27.360593321616868 L -15.251371428571428,27.012438664323373" fill="none" />
    <path id="base_1" d="M -15.251371428571428,23.809415817223197 L -15.251371428571428,22.695320913884004" fill="none" />
    <path id="base_1" d="M -15.251371428571428,19.004881546572932 L -15.251371428571428,18.656726889279433" fill="none" />
    <path id="base_1" d="M -15.251371428571428,14.827025659050964 L -15.251371428571428,14.478871001757467" fill="none" />
    <path id="base_1" d="M -15.251371428571428,11.206217223198594 L -15.251371428571428,10.161753251318096" fill="none" />
    <path id="base_1" d="M -15.251371428571428,7.028361335676621 L -15.251371428571428,5.983897363796128" fill="none" />
    <path id="base_1" d="M -15.251371428571428,2.2934579964850563 L -15.251371428571428,1.945303339191561" fill="none" />
    <path id="base_1" d="M -15.251371428571426,-1.327350439367315 L -15.251371428571426,-2.371814411247808" fill="none" />
    <path id="base_1" d="M -15.108514285714287,35.64667416520211 L -15.108514285714287,35.159257644991214" fill="none" />
    <path id="base_1" d="M -15.108514285714286,32.23475852372584 L -15.108514285714286,30.981401757469243" fill="none" />
    <path id="base_1" d="M -15.108514285714286,27.430224253075572 L -15.108514285714286,27.012438664323373" fill="none" />
    <path id="base_1" d="M -15.108514285714286,23.879046748681894 L -15.108514285714286,22.625689982425307" fill="none" />
    <path id="base_1" d="M -15.108514285714286,19.074512478031632 L -15.108514285714286,18.656726889279433" fill="none" />
    <path id="base_1" d="M -15.108514285714286,14.896656590509664 L -15.108514285714286,14.478871001757467" fill="none" />
    <path id="base_1" d="M -15.108514285714286,11.27584815465729 L -15.108514285714286,10.022491388400702" fill="none" />
    <path id="base_1" d="M -15.108514285714286,7.0979922671353215 L -15.108514285714286,5.844635500878734" fill="none" />
    <path id="base_1" d="M -15.108514285714286,2.3630889279437604 L -15.108514285714286,1.945303339191561" fill="none" />
    <path id="base_1" d="M -15.108514285714284,-1.2577195079086145 L -15.108514285714284,-2.5110762741652053" fill="none" />
    <path id="base_1" d="M -14.965657142857145,35.64667416520211 L -14.965657142857145,35.159257644991214" fill="none" />
    <path id="base_1" d="M -14.965657142857143,32.304389455184534 L -14.965657142857143,30.911770826010546" fill="none" />
    <path id="base_1" d="M -14.965657142857143,27.49985518453427 L -14.965657142857143,27.012438664323373" fill="none" />
    <path id="base_1" d="M -14.965657142857143,23.948677680140598 L -14.965657142857143,22.556059050966606" fill="none" />
    <path id="base_1" d="M -14.965657142857143,19.144143409490333 L -14.965657142857143,18.656726889279433" fill="none" />
    <path id="base_1" d="M -14.965657142857143,14.966287521968365 L -14.965657142857143,14.478871001757467" fill="none" />
    <path id="base_1" d="M -14.965657142857143,11.34547908611599 L -14.965657142857143,10.022491388400702" fill="none" />
    <path id="base_1" d="M -14.965657142857143,7.167623198594022 L -14.965657142857143,5.844635500878734" fill="none" />
    <path id="base_1" d="M -14.965657142857143,2.4327198594024573 L -14.965657142857143,1.945303339191561" fill="none" />
    <path id="base_1" d="M -14.965657142857141,-1.188088576449914 L -14.965657142857141,-2.5110762741652053" fill="none" />
    <path id="base_1" d="M -14.822800000000003,35.716305096660804 L -14.822800000000003,35.159257644991214" fill="none" />
    <path id="base_1" d="M -14.8228,32.37402038664323 L -14.8228,31.816972934973634" fill="none" />
    <path id="base_1" d="M -14.8228,31.399187346221442 L -14.8228,30.842139894551842" fill="none" />
    <path id="base_1" d="M -14.8228,27.56948611599297 L -14.8228,27.012438664323373" fill="none" />
    <path id="base_1" d="M -14.8228,24.018308611599295 L -14.8228,23.4612611599297" fill="none" />
    <path id="base_1" d="M -14.8228,23.043475571177503 L -14.8228,22.486428119507906" fill="none" />
    <path id="base_1" d="M -14.8228,19.21377434094903 L -14.8228,18.656726889279433" fill="none" />
    <path id="base_1" d="M -14.8228,15.035918453427062 L -14.8228,14.478871001757467" fill="none" />
    <path id="base_1" d="M -14.8228,11.41511001757469 L -14.8228,10.858062565905097" fill="none" />
    <path id="base_1" d="M -14.8228,10.509907908611595 L -14.8228,9.952860456942002" fill="none" />
    <path id="base_1" d="M -14.8228,7.2372541300527224 L -14.8228,6.680206678383126" fill="none" />
    <path id="base_1" d="M -14.8228,6.332052021089627 L -14.8228,5.77500456942003" fill="none" />
    <path id="base_1" d="M -14.8228,2.502350790861154 L -14.8228,1.945303339191561" fill="none" />
    <path id="base_1" d="M -14.822799999999999,-1.1184576449912136 L -14.822799999999999,-1.6755050966608138" fill="none" />
    <path id="base_1" d="M -14.822799999999999,-2.0236597539543126 L -14.822799999999999,-2.5807072056239058" fill="none" />
    <path id="base_1" d="M -14.679942857142859,35.78593602811951 L -14.679942857142859,35.159257644991214" fill="none" />
    <path id="base_1" d="M -14.679942857142859,32.443651318101935 L -14.679942857142859,31.956234797891035" fill="none" />
    <path id="base_1" d="M -14.679942857142859,31.25992548330404 L -14.679942857142859,30.842139894551842" fill="none" />
    <path id="base_1" d="M -14.679942857142857,27.63911704745167 L -14.679942857142857,27.012438664323373" fill="none" />
    <path id="base_1" d="M -14.679942857142857,24.087939543057995 L -14.679942857142857,23.6005230228471" fill="none" />
    <path id="base_1" d="M -14.679942857142857,22.9042137082601 L -14.679942857142857,22.486428119507906" fill="none" />
    <path id="base_1" d="M -14.679942857142857,19.283405272407734 L -14.679942857142857,18.656726889279433" fill="none" />
    <path id="base_1" d="M -14.679942857142857,15.105549384885762 L -14.679942857142857,14.478871001757467" fill="none" />
    <path id="base_1" d="M -14.679942857142857,11.41511001757469 L -14.679942857142857,10.997324428822493" fill="none" />
    <path id="base_1" d="M -14.679942857142857,10.370646045694198 L -14.679942857142857,9.952860456942002" fill="none" />
    <path id="base_1" d="M -14.679942857142857,7.2372541300527224 L -14.679942857142857,6.819468541300527" fill="none" />
    <path id="base_1" d="M -14.679942857142857,6.1927901581722296 L -14.679942857142855,5.77500456942003" fill="none" />
    <path id="base_1" d="M -14.679942857142855,2.5719817223198547 L -14.679942857142855,1.945303339191561" fill="none" />
    <path id="base_1" d="M -14.679942857142855,-1.1184576449912136 L -14.679942857142855,-1.5362432337434129" fill="none" />
    <path id="base_1" d="M -14.679942857142855,-2.1629216168717065 L -14.679942857142855,-2.5807072056239058" fill="none" />
    <path id="base_1" d="M -14.537085714285716,35.85556695957821 L -14.537085714285716,35.159257644991214" fill="none" />
    <path id="base_1" d="M -14.537085714285716,32.443651318101935 L -14.537085714285716,32.02586572934973" fill="none" />
    <path id="base_1" d="M -14.537085714285716,31.19029455184534 L -14.537085714285716,30.842139894551842" fill="none" />
    <path id="base_1" d="M -14.537085714285714,27.708747978910367 L -14.537085714285714,27.012438664323373" fill="none" />
    <path id="base_1" d="M -14.537085714285714,24.087939543057995 L -14.537085714285714,23.6701539543058" fill="none" />
    <path id="base_1" d="M -14.537085714285714,22.834582776801405 L -14.537085714285714,22.486428119507906" fill="none" />
    <path id="base_1" d="M -14.537085714285714,19.35303620386643 L -14.537085714285714,18.656726889279433" fill="none" />
    <path id="base_1" d="M -14.537085714285714,15.175180316344461 L -14.537085714285714,14.478871001757467" fill="none" />
    <path id="base_1" d="M -14.537085714285714,11.484740949033391 L -14.537085714285714,11.066955360281193" fill="none" />
    <path id="base_1" d="M -14.537085714285714,10.301015114235497 L -14.537085714285714,9.883229525483301" fill="none" />
    <path id="base_1" d="M -14.537085714285714,7.306885061511423 L -14.537085714285714,6.889099472759224" fill="none" />
    <path id="base_1" d="M -14.537085714285714,6.123159226713529 L -14.537085714285714,5.705373637961333" fill="none" />
    <path id="base_1" d="M -14.537085714285713,2.641612653778555 L -14.537085714285713,1.945303339191561" fill="none" />
    <path id="base_1" d="M -14.537085714285713,-1.048826713532513 L -14.537085714285713,-1.4666123022847124" fill="none" />
    <path id="base_1" d="M -14.537085714285713,-2.232552548330407 L -14.537085714285713,-2.6503381370826062" fill="none" />
    <path id="base_1" d="M -14.394228571428572,35.85556695957821 L -14.394228571428572,35.159257644991214" fill="none" />
    <path id="base_1" d="M -14.39422857142857,32.443651318101935 L -14.39422857142857,32.095496660808436" fill="none" />
    <path id="base_1" d="M -14.39422857142857,31.19029455184534 L -14.39422857142857,30.772508963093145" fill="none" />
    <path id="base_1" d="M -14.39422857142857,27.778378910369067 L -14.39422857142857,27.012438664323373" fill="none" />
    <path id="base_1" d="M -14.39422857142857,24.087939543057995 L -14.39422857142857,23.739784885764497" fill="none" />
    <path id="base_1" d="M -14.39422857142857,22.834582776801405 L -14.39422857142857,22.41679718804921" fill="none" />
    <path id="base_1" d="M -14.39422857142857,19.422667135325128 L -14.39422857142857,18.656726889279433" fill="none" />
    <path id="base_1" d="M -14.39422857142857,15.244811247803161 L -14.39422857142857,14.478871001757467" fill="none" />
    <path id="base_1" d="M -14.39422857142857,11.484740949033391 L -14.39422857142857,11.136586291739894" fill="none" />
    <path id="base_1" d="M -14.39422857142857,10.231384182776797 L -14.39422857142857,9.883229525483301" fill="none" />
    <path id="base_1" d="M -14.39422857142857,7.306885061511423 L -14.39422857142857,6.958730404217928" fill="none" />
    <path id="base_1" d="M -14.39422857142857,6.053528295254829 L -14.39422857142857,5.705373637961333" fill="none" />
    <path id="base_1" d="M -14.39422857142857,2.7112435852372556 L -14.39422857142857,1.945303339191561" fill="none" />
    <path id="base_1" d="M -14.394228571428568,-1.048826713532513 L -14.394228571428568,-1.396981370826012" fill="none" />
    <path id="base_1" d="M -14.394228571428568,-2.3021834797891074 L -14.394228571428568,-2.6503381370826062" fill="none" />
    <path id="base_1" d="M -14.25137142857143,35.92519789103691 L -14.25137142857143,35.159257644991214" fill="none" />
    <path id="base_1" d="M -14.251371428571428,32.51328224956063 L -14.251371428571428,32.095496660808436" fill="none" />
    <path id="base_1" d="M -14.251371428571428,31.120663620386644 L -14.251371428571428,30.772508963093145" fill="none" />
    <path id="base_1" d="M -14.251371428571428,27.917640773286465 L -14.251371428571428,27.012438664323373" fill="none" />
    <path id="base_1" d="M -14.251371428571428,24.157570474516696 L -14.251371428571428,23.739784885764497" fill="none" />
    <path id="base_1" d="M -14.251371428571428,22.764951845342704 L -14.251371428571428,22.41679718804921" fill="none" />
    <path id="base_1" d="M -14.251371428571428,19.56192899824253 L -14.251371428571428,18.656726889279433" fill="none" />
    <path id="base_1" d="M -14.251371428571428,15.38407311072056 L -14.251371428571428,14.478871001757467" fill="none" />
    <path id="base_1" d="M -14.251371428571428,11.554371880492091 L -14.251371428571428,11.136586291739894" fill="none" />
    <path id="base_1" d="M -14.251371428571428,10.231384182776797 L -14.251371428571428,9.8135985940246" fill="none" />
    <path id="base_1" d="M -14.251371428571428,7.376515992970116 L -14.251371428571428,6.958730404217928" fill="none" />
    <path id="base_1" d="M -14.251371428571428,6.053528295254829 L -14.251371428571428,5.635742706502629" fill="none" />
    <path id="base_1" d="M -14.251371428571428,2.850505448154653 L -14.251371428571428,1.945303339191561" fill="none" />
    <path id="base_1" d="M -14.251371428571426,-0.9791957820738197 L -14.251371428571426,-1.396981370826012" fill="none" />
    <path id="base_1" d="M -14.251371428571426,-2.3021834797891074 L -14.251371428571426,-2.7199690685413067" fill="none" />
    <path id="base_1" d="M -14.108514285714287,35.994828822495606 L -14.108514285714287,35.57704323374341" fill="none" />
    <path id="base_1" d="M -14.108514285714287,35.507412302284706 L -14.108514285714287,35.159257644991214" fill="none" />
    <path id="base_1" d="M -14.108514285714286,32.51328224956063 L -14.108514285714286,32.16512759226713" fill="none" />
    <path id="base_1" d="M -14.108514285714286,31.120663620386644 L -14.108514285714286,30.772508963093145" fill="none" />
    <path id="base_1" d="M -14.108514285714286,28.056902636203866 L -14.108514285714286,27.430224253075572" fill="none" />
    <path id="base_1" d="M -14.108514285714286,27.360593321616868 L -14.108514285714286,27.012438664323373" fill="none" />
    <path id="base_1" d="M -14.108514285714286,24.157570474516696 L -14.108514285714286,23.809415817223197" fill="none" />
    <path id="base_1" d="M -14.108514285714286,22.764951845342704 L -14.108514285714286,22.41679718804921" fill="none" />
    <path id="base_1" d="M -14.108514285714286,19.701190861159926 L -14.108514285714286,19.074512478031632" fill="none" />
    <path id="base_1" d="M -14.108514285714286,19.004881546572932 L -14.108514285714286,18.656726889279433" fill="none" />
    <path id="base_1" d="M -14.108514285714286,15.523334973637958 L -14.108514285714286,14.896656590509664" fill="none" />
    <path id="base_1" d="M -14.108514285714286,14.827025659050964 L -14.108514285714286,14.478871001757467" fill="none" />
    <path id="base_1" d="M -14.108514285714286,11.554371880492091 L -14.108514285714286,11.206217223198594" fill="none" />
    <path id="base_1" d="M -14.108514285714286,10.161753251318096 L -14.108514285714286,9.8135985940246" fill="none" />
    <path id="base_1" d="M -14.108514285714286,7.376515992970116 L -14.108514285714286,7.028361335676621" fill="none" />
    <path id="base_1" d="M -14.108514285714286,5.983897363796128 L -14.108514285714286,5.635742706502629" fill="none" />
    <path id="base_1" d="M -14.108514285714286,2.989767311072054 L -14.108514285714286,2.3630889279437604" fill="none" />
    <path id="base_1" d="M -14.108514285714286,2.2934579964850563 L -14.108514285714286,1.945303339191561" fill="none" />
    <path id="base_1" d="M -14.108514285714284,-0.9791957820738197 L -14.108514285714284,-1.327350439367315" fill="none" />
    <path id="base_1" d="M -14.108514285714284,-2.371814411247808 L -14.108514285714284,-2.7199690685413067" fill="none" />
    <path id="base_1" d="M -13.965657142857145,36.06445975395431 L -13.965657142857145,35.64667416520211" fill="none" />
    <path id="base_1" d="M -13.965657142857145,35.507412302284706 L -13.965657142857145,35.159257644991214" fill="none" />
    <path id="base_1" d="M -13.965657142857143,32.37402038664323 L -13.965657142857143,32.16512759226713" fill="none" />
    <path id="base_1" d="M -13.965657142857143,31.120663620386644 L -13.965657142857143,30.772508963093145" fill="none" />
    <path id="base_1" d="M -13.965657142857143,28.056902636203866 L -13.965657142857143,27.56948611599297" fill="none" />
    <path id="base_1" d="M -13.965657142857143,27.360593321616868 L -13.965657142857143,27.012438664323373" fill="none" />
    <path id="base_1" d="M -13.965657142857143,24.018308611599295 L -13.965657142857143,23.809415817223197" fill="none" />
    <path id="base_1" d="M -13.965657142857143,22.764951845342704 L -13.965657142857143,22.41679718804921" fill="none" />
    <path id="base_1" d="M -13.965657142857143,19.701190861159926 L -13.965657142857143,19.21377434094903" fill="none" />
    <path id="base_1" d="M -13.965657142857143,19.004881546572932 L -13.965657142857143,18.656726889279433" fill="none" />
    <path id="base_1" d="M -13.965657142857143,15.523334973637958 L -13.965657142857143,15.035918453427062" fill="none" />
    <path id="base_1" d="M -13.965657142857143,14.827025659050964 L -13.965657142857143,14.478871001757467" fill="none" />
    <path id="base_1" d="M -13.965657142857143,11.554371880492091 L -13.965657142857143,11.206217223198594" fill="none" />
    <path id="base_1" d="M -13.965657142857143,10.161753251318096 L -13.965657142857143,9.8135985940246" fill="none" />
    <path id="base_1" d="M -13.965657142857143,7.376515992970116 L -13.965657142857143,7.028361335676621" fill="none" />
    <path id="base_1" d="M -13.965657142857143,5.983897363796128 L -13.965657142857143,5.635742706502629" fill="none" />
    <path id="base_1" d="M -13.965657142857143,2.989767311072054 L -13.965657142857143,2.502350790861154" fill="none" />
    <path id="base_1" d="M -13.965657142857143,2.2934579964850563 L -13.965657142857143,1.945303339191561" fill="none" />
    <path id="base_1" d="M -13.965657142857141,-0.9791957820738197 L -13.965657142857141,-1.327350439367315" fill="none" />
    <path id="base_1" d="M -13.965657142857141,-2.371814411247808 L -13.965657142857141,-2.7199690685413067" fill="none" />
    <path id="base_1" d="M -13.8228,36.06445975395431 L -13.8228,35.64667416520211" fill="none" />
    <path id="base_1" d="M -13.8228,35.507412302284706 L -13.8228,35.159257644991214" fill="none" />
    <path id="base_1" d="M -13.8228,31.120663620386644 L -13.8228,30.772508963093145" fill="none" />
    <path id="base_1" d="M -13.822799999999999,28.056902636203866 L -13.822799999999999,27.63911704745167" fill="none" />
    <path id="base_1" d="M -13.822799999999999,27.360593321616868 L -13.822799999999999,27.012438664323373" fill="none" />
    <path id="base_1" d="M -13.822799999999999,22.764951845342704 L -13.822799999999999,22.41679718804921" fill="none" />
    <path id="base_1" d="M -13.822799999999999,19.701190861159926 L -13.822799999999999,19.283405272407734" fill="none" />
    <path id="base_1" d="M -13.822799999999999,19.004881546572932 L -13.822799999999999,18.656726889279433" fill="none" />
    <path id="base_1" d="M -13.822799999999999,15.523334973637958 L -13.822799999999999,15.105549384885762" fill="none" />
    <path id="base_1" d="M -13.822799999999999,14.827025659050964 L -13.822799999999999,14.478871001757467" fill="none" />
    <path id="base_1" d="M -13.822799999999999,11.554371880492091 L -13.822799999999999,11.206217223198594" fill="none" />
    <path id="base_1" d="M -13.822799999999999,10.161753251318096 L -13.822799999999999,9.8135985940246" fill="none" />
    <path id="base_1" d="M -13.822799999999999,7.376515992970116 L -13.822799999999999,7.028361335676621" fill="none" />
    <path id="base_1" d="M -13.822799999999999,5.983897363796128 L -13.822799999999999,5.635742706502629" fill="none" />
    <path id="base_1" d="M -13.822799999999997,2.989767311072054 L -13.822799999999997,2.5719817223198547" fill="none" />
    <path id="base_1" d="M -13.822799999999997,2.2934579964850563 L -13.822799999999997,1.945303339191561" fill="none" />
    <path id="base_1" d="M -13.822799999999997,-0.9791957820738197 L -13.822799999999997,-1.327350439367315" fill="none" />
    <path id="base_1" d="M -13.822799999999997,-2.371814411247808 L -13.822799999999997,-2.7199690685413067" fill="none" />
    <path id="base_1" d="M -13.679942857142859,36.134090685413 L -13.679942857142859,35.716305096660804" fill="none" />
    <path id="base_1" d="M -13.679942857142859,35.507412302284706 L -13.679942857142859,35.159257644991214" fill="none" />
    <path id="base_1" d="M -13.679942857142859,31.19029455184534 L -13.679942857142859,30.842139894551842" fill="none" />
    <path id="base_1" d="M -13.679942857142857,28.056902636203866 L -13.679942857142857,27.778378910369067" fill="none" />
    <path id="base_1" d="M -13.679942857142857,27.360593321616868 L -13.679942857142857,27.012438664323373" fill="none" />
    <path id="base_1" d="M -13.679942857142857,22.834582776801405 L -13.679942857142857,22.486428119507906" fill="none" />
    <path id="base_1" d="M -13.679942857142857,19.701190861159926 L -13.679942857142857,19.422667135325128" fill="none" />
    <path id="base_1" d="M -13.679942857142857,19.004881546572932 L -13.679942857142857,18.656726889279433" fill="none" />
    <path id="base_1" d="M -13.679942857142857,15.523334973637958 L -13.679942857142857,15.244811247803161" fill="none" />
    <path id="base_1" d="M -13.679942857142857,14.827025659050964 L -13.679942857142857,14.478871001757467" fill="none" />
    <path id="base_1" d="M -13.679942857142857,11.624002811950787 L -13.679942857142857,11.27584815465729" fill="none" />
    <path id="base_1" d="M -13.679942857142857,10.161753251318096 L -13.679942857142857,9.743967662565904" fill="none" />
    <path id="base_1" d="M -13.679942857142857,7.44614692442882 L -13.679942857142857,7.0979922671353215" fill="none" />
    <path id="base_1" d="M -13.679942857142857,5.983897363796128 L -13.679942857142857,5.566111775043936" fill="none" />
    <path id="base_1" d="M -13.679942857142855,2.989767311072054 L -13.679942857142855,2.7112435852372556" fill="none" />
    <path id="base_1" d="M -13.679942857142855,2.2934579964850563 L -13.679942857142855,1.945303339191561" fill="none" />
    <path id="base_1" d="M -13.679942857142855,-0.9095648506151193 L -13.679942857142855,-1.2577195079086145" fill="none" />
    <path id="base_1" d="M -13.679942857142855,-2.371814411247808 L -13.679942857142855,-2.7896" fill="none" />
    <path id="base_1" d="M -13.537085714285716,36.203721616871704 L -13.537085714285716,35.78593602811951" fill="none" />
    <path id="base_1" d="M -13.537085714285716,35.507412302284706 L -13.537085714285716,35.159257644991214" fill="none" />
    <path id="base_1" d="M -13.537085714285716,31.19029455184534 L -13.537085714285716,30.842139894551842" fill="none" />
    <path id="base_1" d="M -13.537085714285714,28.056902636203866 L -13.537085714285714,27.917640773286465" fill="none" />
    <path id="base_1" d="M -13.537085714285714,27.360593321616868 L -13.537085714285714,27.012438664323373" fill="none" />
    <path id="base_1" d="M -13.537085714285714,22.834582776801405 L -13.537085714285714,22.486428119507906" fill="none" />
    <path id="base_1" d="M -13.537085714285714,19.701190861159926 L -13.537085714285714,19.56192899824253" fill="none" />
    <path id="base_1" d="M -13.537085714285714,19.004881546572932 L -13.537085714285714,18.656726889279433" fill="none" />
    <path id="base_1" d="M -13.537085714285714,15.523334973637958 L -13.537085714285714,15.38407311072056" fill="none" />
    <path id="base_1" d="M -13.537085714285714,14.827025659050964 L -13.537085714285714,14.478871001757467" fill="none" />
    <path id="base_1" d="M -13.537085714285714,11.624002811950787 L -13.537085714285714,11.27584815465729" fill="none" />
    <path id="base_1" d="M -13.537085714285714,10.092122319859403 L -13.537085714285714,9.743967662565904" fill="none" />
    <path id="base_1" d="M -13.537085714285714,7.44614692442882 L -13.537085714285714,7.0979922671353215" fill="none" />
    <path id="base_1" d="M -13.537085714285714,5.914266432337431 L -13.537085714285714,5.566111775043936" fill="none" />
    <path id="base_1" d="M -13.537085714285713,2.989767311072054 L -13.537085714285713,2.850505448154653" fill="none" />
    <path id="base_1" d="M -13.537085714285713,2.2934579964850563 L -13.537085714285713,1.945303339191561" fill="none" />
    <path id="base_1" d="M -13.537085714285713,-0.9095648506151193 L -13.537085714285713,-1.2577195079086145" fill="none" />
    <path id="base_1" d="M -13.537085714285713,-2.441445342706505 L -13.537085714285713,-2.7896" fill="none" />
    <path id="base_1" d="M -13.394228571428572,36.203721616871704 L -13.394228571428572,35.78593602811951" fill="none" />
    <path id="base_1" d="M -13.394228571428572,35.507412302284706 L -13.394228571428572,35.159257644991214" fill="none" />
    <path id="base_1" d="M -13.39422857142857,31.32955641476274 L -13.39422857142857,30.911770826010546" fill="none" />
    <path id="base_1" d="M -13.39422857142857,27.360593321616868 L -13.39422857142857,27.012438664323373" fill="none" />
    <path id="base_1" d="M -13.39422857142857,22.973844639718806 L -13.39422857142857,22.556059050966606" fill="none" />
    <path id="base_1" d="M -13.39422857142857,19.004881546572932 L -13.39422857142857,18.656726889279433" fill="none" />
    <path id="base_1" d="M -13.39422857142857,14.827025659050964 L -13.39422857142857,14.478871001757467" fill="none" />
    <path id="base_1" d="M -13.39422857142857,11.624002811950787 L -13.39422857142857,11.27584815465729" fill="none" />
    <path id="base_1" d="M -13.39422857142857,10.092122319859403 L -13.39422857142857,9.743967662565904" fill="none" />
    <path id="base_1" d="M -13.39422857142857,7.44614692442882 L -13.39422857142857,7.0979922671353215" fill="none" />
    <path id="base_1" d="M -13.39422857142857,5.914266432337431 L -13.39422857142857,5.566111775043936" fill="none" />
    <path id="base_1" d="M -13.39422857142857,2.2934579964850563 L -13.39422857142857,1.945303339191561" fill="none" />
    <path id="base_1" d="M -13.394228571428568,-0.9095648506151193 L -13.394228571428568,-1.2577195079086145" fill="none" />
    <path id="base_1" d="M -13.394228571428568,-2.441445342706505 L -13.394228571428568,-2.7896" fill="none" />
    <path id="base_1" d="M -13.25137142857143,36.27335254833041 L -13.25137142857143,35.85556695957821" fill="none" />
    <path id="base_1" d="M -13.25137142857143,35.507412302284706 L -13.25137142857143,35.159257644991214" fill="none" />
    <path id="base_1" d="M -13.251371428571428,31.46881827768014 L -13.251371428571428,30.911770826010546" fill="none" />
    <path id="base_1" d="M -13.251371428571428,27.360593321616868 L -13.251371428571428,27.012438664323373" fill="none" />
    <path id="base_1" d="M -13.251371428571428,23.113106502636203 L -13.251371428571428,22.556059050966606" fill="none" />
    <path id="base_1" d="M -13.251371428571428,19.004881546572932 L -13.251371428571428,18.656726889279433" fill="none" />
    <path id="base_1" d="M -13.251371428571428,14.827025659050964 L -13.251371428571428,14.478871001757467" fill="none" />
    <path id="base_1" d="M -13.251371428571428,11.624002811950787 L -13.251371428571428,11.27584815465729" fill="none" />
    <path id="base_1" d="M -13.251371428571428,10.092122319859403 L -13.251371428571428,9.743967662565904" fill="none" />
    <path id="base_1" d="M -13.251371428571428,7.44614692442882 L -13.251371428571428,7.0979922671353215" fill="none" />
    <path id="base_1" d="M -13.251371428571428,5.914266432337431 L -13.251371428571428,5.566111775043936" fill="none" />
    <path id="base_1" d="M -13.251371428571428,2.2934579964850563 L -13.251371428571428,1.945303339191561" fill="none" />
    <path id="base_1" d="M -13.251371428571426,-0.9095648506151193 L -13.251371428571426,-1.2577195079086145" fill="none" />
    <path id="base_1" d="M -13.251371428571426,-2.441445342706505 L -13.251371428571426,-2.7896" fill="none" />
    <path id="base_1" d="M -13.108514285714287,36.3429834797891 L -13.108514285714287,35.92519789103691" fill="none" />
    <path id="base_1" d="M -13.108514285714287,35.507412302284706 L -13.108514285714287,35.159257644991214" fill="none" />
    <path id="base_1" d="M -13.108514285714286,31.747342003514937 L -13.108514285714286,31.051032688927943" fill="none" />
    <path id="base_1" d="M -13.108514285714286,27.360593321616868 L -13.108514285714286,27.012438664323373" fill="none" />
    <path id="base_1" d="M -13.108514285714286,23.391630228471 L -13.108514285714286,22.695320913884004" fill="none" />
    <path id="base_1" d="M -13.108514285714286,19.004881546572932 L -13.108514285714286,18.656726889279433" fill="none" />
    <path id="base_1" d="M -13.108514285714286,14.827025659050964 L -13.108514285714286,14.478871001757467" fill="none" />
    <path id="base_1" d="M -13.108514285714286,11.624002811950787 L -13.108514285714286,11.27584815465729" fill="none" />
    <path id="base_1" d="M -13.108514285714286,10.092122319859403 L -13.108514285714286,9.743967662565904" fill="none" />
    <path id="base_1" d="M -13.108514285714286,7.44614692442882 L -13.108514285714286,7.0979922671353215" fill="none" />
    <path id="base_1" d="M -13.108514285714286,5.914266432337431 L -13.108514285714286,5.566111775043936" fill="none" />
    <path id="base_1" d="M -13.108514285714286,2.2934579964850563 L -13.108514285714284,1.945303339191561" fill="none" />
    <path id="base_1" d="M -13.108514285714284,-0.9095648506151193 L -13.108514285714284,-1.2577195079086145" fill="none" />
    <path id="base_1" d="M -13.108514285714284,-2.441445342706505 L -13.108514285714284,-2.7896" fill="none" />
    <path id="base_1" d="M -12.965657142857145,36.4126144112478 L -12.965657142857145,35.994828822495606" fill="none" />
    <path id="base_1" d="M -12.965657142857145,35.507412302284706 L -12.965657142857145,35.159257644991214" fill="none" />
    <path id="base_1" d="M -12.965657142857143,31.816972934973634 L -12.965657142857143,31.120663620386644" fill="none" />
    <path id="base_1" d="M -12.965657142857143,27.360593321616868 L -12.965657142857143,27.012438664323373" fill="none" />
    <path id="base_1" d="M -12.965657142857143,23.4612611599297 L -12.965657142857143,22.764951845342704" fill="none" />
    <path id="base_1" d="M -12.965657142857143,19.004881546572932 L -12.965657142857143,18.656726889279433" fill="none" />
    <path id="base_1" d="M -12.965657142857143,14.827025659050964 L -12.965657142857143,14.478871001757467" fill="none" />
    <path id="base_1" d="M -12.965657142857143,11.624002811950787 L -12.965657142857143,11.27584815465729" fill="none" />
    <path id="base_1" d="M -12.965657142857143,10.092122319859403 L -12.965657142857143,9.743967662565904" fill="none" />
    <path id="base_1" d="M -12.965657142857143,7.44614692442882 L -12.965657142857143,7.0979922671353215" fill="none" />
    <path id="base_1" d="M -12.965657142857143,5.914266432337431 L -12.965657142857143,5.566111775043936" fill="none" />
    <path id="base_1" d="M -12.965657142857143,2.2934579964850563 L -12.965657142857141,1.945303339191561" fill="none" />
    <path id="base_1" d="M -12.965657142857141,-0.9095648506151193 L -12.965657142857141,-1.2577195079086145" fill="none" />
    <path id="base_1" d="M -12.965657142857141,-2.441445342706505 L -12.965657142857141,-2.7896" fill="none" />
    <path id="base_1" d="M -12.8228,36.4126144112478 L -12.8228,35.994828822495606" fill="none" />
    <path id="base_1" d="M -12.8228,35.507412302284706 L -12.8228,35.159257644991214" fill="none" />
    <path id="base_1" d="M -12.8228,31.816972934973634 L -12.822799999999999,31.051032688927943" fill="none" />
    <path id="base_1" d="M -12.822799999999999,27.360593321616868 L -12.822799999999999,27.012438664323373" fill="none" />
    <path id="base_1" d="M -12.822799999999999,23.4612611599297 L -12.822799999999999,22.695320913884004" fill="none" />
    <path id="base_1" d="M -12.822799999999999,19.004881546572932 L -12.822799999999999,18.656726889279433" fill="none" />
    <path id="base_1" d="M -12.822799999999999,14.827025659050964 L -12.822799999999999,14.478871001757467" fill="none" />
    <path id="base_1" d="M -12.822799999999999,11.624002811950787 L -12.822799999999999,11.27584815465729" fill="none" />
    <path id="base_1" d="M -12.822799999999999,10.092122319859403 L -12.822799999999999,9.743967662565904" fill="none" />
    <path id="base_1" d="M -12.822799999999999,7.44614692442882 L -12.822799999999999,7.0979922671353215" fill="none" />
    <path id="base_1" d="M -12.822799999999999,5.914266432337431 L -12.822799999999999,5.566111775043936" fill="none" />
    <path id="base_1" d="M -12.822799999999997,2.2934579964850563 L -12.822799999999997,1.945303339191561" fill="none" />
    <path id="base_1" d="M -12.822799999999997,-0.9095648506151193 L -12.822799999999997,-1.2577195079086145" fill="none" />
    <path id="base_1" d="M -12.822799999999997,-2.441445342706505 L -12.822799999999997,-2.7896" fill="none" />
    <path id="base_1" d="M -12.679942857142859,36.482245342706506 L -12.679942857142859,36.06445975395431" fill="none" />
    <path id="base_1" d="M -12.679942857142859,35.507412302284706 L -12.679942857142859,35.159257644991214" fill="none" />
    <path id="base_1" d="M -12.679942857142859,31.816972934973634 L -12.679942857142857,30.911770826010546" fill="none" />
    <path id="base_1" d="M -12.679942857142857,27.360593321616868 L -12.679942857142857,27.012438664323373" fill="none" />
    <path id="base_1" d="M -12.679942857142857,23.4612611599297 L -12.679942857142857,22.556059050966606" fill="none" />
    <path id="base_1" d="M -12.679942857142857,19.004881546572932 L -12.679942857142857,18.656726889279433" fill="none" />
    <path id="base_1" d="M -12.679942857142857,14.827025659050964 L -12.679942857142857,14.478871001757467" fill="none" />
    <path id="base_1" d="M -12.679942857142857,11.624002811950787 L -12.679942857142857,11.27584815465729" fill="none" />
    <path id="base_1" d="M -12.679942857142857,10.092122319859403 L -12.679942857142857,9.743967662565904" fill="none" />
    <path id="base_1" d="M -12.679942857142857,7.44614692442882 L -12.679942857142857,7.0979922671353215" fill="none" />
    <path id="base_1" d="M -12.679942857142857,5.914266432337431 L -12.679942857142857,5.566111775043936" fill="none" />
    <path id="base_1" d="M -12.679942857142855,2.2934579964850563 L -12.679942857142855,1.945303339191561" fill="none" />
    <path id="base_1" d="M -12.679942857142855,-0.9095648506151193 L -12.679942857142855,-1.2577195079086145" fill="none" />
    <path id="base_1" d="M -12.679942857142855,-2.441445342706505 L -12.679942857142855,-2.7896" fill="none" />
    <path id="base_1" d="M -12.537085714285716,36.5518762741652 L -12.537085714285716,36.134090685413" fill="none" />
    <path id="base_1" d="M -12.537085714285716,35.507412302284706 L -12.537085714285716,35.159257644991214" fill="none" />
    <path id="base_1" d="M -12.537085714285716,31.816972934973634 L -12.537085714285716,31.67771107205624" fill="none" />
    <path id="base_1" d="M -12.537085714285716,31.46881827768014 L -12.537085714285714,30.842139894551842" fill="none" />
    <path id="base_1" d="M -12.537085714285714,27.360593321616868 L -12.537085714285714,27.012438664323373" fill="none" />
    <path id="base_1" d="M -12.537085714285714,23.4612611599297 L -12.537085714285714,23.3219992970123" fill="none" />
    <path id="base_1" d="M -12.537085714285714,23.113106502636203 L -12.537085714285714,22.486428119507906" fill="none" />
    <path id="base_1" d="M -12.537085714285714,19.004881546572932 L -12.537085714285714,18.656726889279433" fill="none" />
    <path id="base_1" d="M -12.537085714285714,14.827025659050964 L -12.537085714285714,14.478871001757467" fill="none" />
    <path id="base_1" d="M -12.537085714285714,11.624002811950787 L -12.537085714285714,11.27584815465729" fill="none" />
    <path id="base_1" d="M -12.537085714285714,10.092122319859403 L -12.537085714285714,9.743967662565904" fill="none" />
    <path id="base_1" d="M -12.537085714285714,7.44614692442882 L -12.537085714285714,7.0979922671353215" fill="none" />
    <path id="base_1" d="M -12.537085714285714,5.914266432337431 L -12.537085714285714,5.566111775043936" fill="none" />
    <path id="base_1" d="M -12.537085714285713,2.2934579964850563 L -12.537085714285713,1.945303339191561" fill="none" />
    <path id="base_1" d="M -12.537085714285713,-0.9095648506151193 L -12.537085714285713,-1.2577195079086145" fill="none" />
    <path id="base_1" d="M -12.537085714285713,-2.441445342706505 L -12.537085714285713,-2.7896" fill="none" />
    <path id="base_1" d="M -12.394228571428572,36.6215072056239 L -12.394228571428572,36.203721616871704" fill="none" />
    <path id="base_1" d="M -12.394228571428572,35.507412302284706 L -12.394228571428572,35.159257644991214" fill="none" />
    <path id="base_1" d="M -12.39422857142857,31.25992548330404 L -12.39422857142857,30.772508963093145" fill="none" />
    <path id="base_1" d="M -12.39422857142857,27.360593321616868 L -12.39422857142857,27.012438664323373" fill="none" />
    <path id="base_1" d="M -12.39422857142857,22.9042137082601 L -12.39422857142857,22.41679718804921" fill="none" />
    <path id="base_1" d="M -12.39422857142857,19.004881546572932 L -12.39422857142857,18.656726889279433" fill="none" />
    <path id="base_1" d="M -12.39422857142857,14.827025659050964 L -12.39422857142857,14.478871001757467" fill="none" />
    <path id="base_1" d="M -12.39422857142857,11.624002811950787 L -12.39422857142857,11.27584815465729" fill="none" />
    <path id="base_1" d="M -12.39422857142857,10.092122319859403 L -12.39422857142857,9.743967662565904" fill="none" />
    <path id="base_1" d="M -12.39422857142857,7.44614692442882 L -12.39422857142857,7.0979922671353215" fill="none" />
    <path id="base_1" d="M -12.39422857142857,5.914266432337431 L -12.39422857142857,5.566111775043936" fill="none" />
    <path id="base_1" d="M -12.39422857142857,2.2934579964850563 L -12.394228571428568,1.945303339191561" fill="none" />
    <path id="base_1" d="M -12.394228571428568,-0.9095648506151193 L -12.394228571428568,-1.2577195079086145" fill="none" />
    <path id="base_1" d="M -12.394228571428568,-2.441445342706505 L -12.394228571428568,-2.7896" fill="none" />
    <path id="base_1" d="M -12.25137142857143,36.6215072056239 L -12.25137142857143,36.203721616871704" fill="none" />
    <path id="base_1" d="M -12.25137142857143,35.507412302284706 L -12.25137142857143,35.159257644991214" fill="none" />
    <path id="base_1" d="M -12.251371428571428,31.120663620386644 L -12.251371428571428,30.702878031634448" fill="none" />
    <path id="base_1" d="M -12.251371428571428,27.360593321616868 L -12.251371428571428,27.012438664323373" fill="none" />
    <path id="base_1" d="M -12.251371428571428,22.764951845342704 L -12.251371428571428,22.34716625659051" fill="none" />
    <path id="base_1" d="M -12.251371428571428,19.004881546572932 L -12.251371428571428,18.656726889279433" fill="none" />
    <path id="base_1" d="M -12.251371428571428,14.827025659050964 L -12.251371428571428,14.478871001757467" fill="none" />
    <path id="base_1" d="M -12.251371428571428,11.624002811950787 L -12.251371428571428,11.27584815465729" fill="none" />
    <path id="base_1" d="M -12.251371428571428,10.092122319859403 L -12.251371428571428,9.743967662565904" fill="none" />
    <path id="base_1" d="M -12.251371428571428,7.44614692442882 L -12.251371428571428,7.0979922671353215" fill="none" />
    <path id="base_1" d="M -12.251371428571428,5.914266432337431 L -12.251371428571428,5.566111775043936" fill="none" />
    <path id="base_1" d="M -12.251371428571428,2.2934579964850563 L -12.251371428571426,1.945303339191561" fill="none" />
    <path id="base_1" d="M -12.251371428571426,-0.9095648506151193 L -12.251371428571426,-1.2577195079086145" fill="none" />
    <path id="base_1" d="M -12.251371428571426,-2.441445342706505 L -12.251371428571426,-2.7896" fill="none" />
    <path id="base_1" d="M -12.108514285714287,36.6911381370826 L -12.108514285714287,36.27335254833041" fill="none" />
    <path id="base_1" d="M -12.108514285714287,35.507412302284706 L -12.108514285714287,35.159257644991214" fill="none" />
    <path id="base_1" d="M -12.108514285714286,31.120663620386644 L -12.108514285714286,30.702878031634448" fill="none" />
    <path id="base_1" d="M -12.108514285714286,27.360593321616868 L -12.108514285714286,27.012438664323373" fill="none" />
    <path id="base_1" d="M -12.108514285714286,22.764951845342704 L -12.108514285714286,22.34716625659051" fill="none" />
    <path id="base_1" d="M -12.108514285714286,19.004881546572932 L -12.108514285714286,18.656726889279433" fill="none" />
    <path id="base_1" d="M -12.108514285714286,14.827025659050964 L -12.108514285714286,14.478871001757467" fill="none" />
    <path id="base_1" d="M -12.108514285714286,11.624002811950787 L -12.108514285714286,11.27584815465729" fill="none" />
    <path id="base_1" d="M -12.108514285714286,10.092122319859403 L -12.108514285714286,9.743967662565904" fill="none" />
    <path id="base_1" d="M -12.108514285714286,7.44614692442882 L -12.108514285714286,7.0979922671353215" fill="none" />
    <path id="base_1" d="M -12.108514285714286,5.914266432337431 L -12.108514285714286,5.566111775043936" fill="none" />
    <path id="base_1" d="M -12.108514285714286,2.2934579964850563 L -12.108514285714286,1.945303339191561" fill="none" />
    <path id="base_1" d="M -12.108514285714284,-0.9095648506151193 L -12.108514285714284,-1.2577195079086145" fill="none" />
    <path id="base_1" d="M -12.108514285714284,-2.441445342706505 L -12.108514285714284,-2.7896" fill="none" />
    <path id="base_1" d="M -11.965657142857145,36.7607690685413 L -11.965657142857145,36.3429834797891" fill="none" />
    <path id="base_1" d="M -11.965657142857145,35.507412302284706 L -11.965657142857145,35.159257644991214" fill="none" />
    <path id="base_1" d="M -11.965657142857143,31.051032688927943 L -11.965657142857143,30.633247100175744" fill="none" />
    <path id="base_1" d="M -11.965657142857143,27.360593321616868 L -11.965657142857143,27.012438664323373" fill="none" />
    <path id="base_1" d="M -11.965657142857143,22.695320913884004 L -11.965657142857143,22.277535325131808" fill="none" />
    <path id="base_1" d="M -11.965657142857143,19.004881546572932 L -11.965657142857143,18.656726889279433" fill="none" />
    <path id="base_1" d="M -11.965657142857143,14.827025659050964 L -11.965657142857143,14.478871001757467" fill="none" />
    <path id="base_1" d="M -11.965657142857143,11.624002811950787 L -11.965657142857143,11.27584815465729" fill="none" />
    <path id="base_1" d="M -11.965657142857143,10.092122319859403 L -11.965657142857143,9.743967662565904" fill="none" />
    <path id="base_1" d="M -11.965657142857143,7.44614692442882 L -11.965657142857143,7.0979922671353215" fill="none" />
    <path id="base_1" d="M -11.965657142857143,5.914266432337431 L -11.965657142857143,5.566111775043936" fill="none" />
    <path id="base_1" d="M -11.965657142857143,2.2934579964850563 L -11.965657142857143,1.945303339191561" fill="none" />
    <path id="base_1" d="M -11.965657142857141,-0.9095648506151193 L -11.965657142857141,-1.2577195079086145" fill="none" />
    <path id="base_1" d="M -11.965657142857141,-2.441445342706505 L -11.965657142857141,-2.7896" fill="none" />
    <path id="base_1" d="M -11.822800000000003,36.8304 L -11.822800000000003,36.4126144112478" fill="none" />
    <path id="base_1" d="M -11.822800000000003,35.507412302284706 L -11.822800000000003,35.159257644991214" fill="none" />
    <path id="base_1" d="M -11.8228,30.981401757469243 L -11.8228,30.633247100175744" fill="none" />
    <path id="base_1" d="M -11.8228,27.360593321616868 L -11.8228,27.012438664323373" fill="none" />
    <path id="base_1" d="M -11.8228,22.625689982425307 L -11.8228,22.277535325131808" fill="none" />
    <path id="base_1" d="M -11.8228,19.004881546572932 L -11.8228,18.656726889279433" fill="none" />
    <path id="base_1" d="M -11.8228,14.827025659050964 L -11.8228,14.478871001757467" fill="none" />
    <path id="base_1" d="M -11.8228,11.624002811950787 L -11.8228,11.27584815465729" fill="none" />
    <path id="base_1" d="M -11.8228,10.092122319859403 L -11.8228,9.743967662565904" fill="none" />
    <path id="base_1" d="M -11.8228,7.44614692442882 L -11.8228,7.0979922671353215" fill="none" />
    <path id="base_1" d="M -11.8228,5.914266432337431 L -11.8228,5.566111775043936" fill="none" />
    <path id="base_1" d="M -11.8228,2.2934579964850563 L -11.8228,1.945303339191561" fill="none" />
    <path id="base_1" d="M -11.822799999999999,-0.9095648506151193 L -11.822799999999999,-1.2577195079086145" fill="none" />
    <path id="base_1" d="M -11.822799999999999,-2.441445342706505 L -11.822799999999999,-2.7896" fill="none" />
    <path id="base_1" d="M -11.679942857142859,36.8304 L -11.679942857142859,34.811102987697716" fill="none" />
    <path id="base_1" d="M -11.679942857142859,30.981401757469243 L -11.679942857142859,30.633247100175744" fill="none" />
    <path id="base_1" d="M -11.679942857142857,27.360593321616868 L -11.679942857142857,27.012438664323373" fill="none" />
    <path id="base_1" d="M -11.679942857142857,22.625689982425307 L -11.679942857142857,22.277535325131808" fill="none" />
    <path id="base_1" d="M -11.679942857142857,19.004881546572932 L -11.679942857142857,18.656726889279433" fill="none" />
    <path id="base_1" d="M -11.679942857142857,14.827025659050964 L -11.679942857142857,14.478871001757467" fill="none" />
    <path id="base_1" d="M -11.679942857142857,11.624002811950787 L -11.679942857142857,11.27584815465729" fill="none" />
    <path id="base_1" d="M -11.679942857142857,10.092122319859403 L -11.679942857142857,9.743967662565904" fill="none" />
    <path id="base_1" d="M -11.679942857142857,7.44614692442882 L -11.679942857142857,7.0979922671353215" fill="none" />
    <path id="base_1" d="M -11.679942857142857,5.914266432337431 L -11.679942857142857,5.566111775043936" fill="none" />
    <path id="base_1" d="M -11.679942857142855,2.2934579964850563 L -11.679942857142855,1.945303339191561" fill="none" />
    <path id="base_1" d="M -11.679942857142855,-0.9095648506151193 L -11.679942857142855,-1.2577195079086145" fill="none" />
    <path id="base_1" d="M -11.679942857142855,-2.441445342706505 L -11.679942857142855,-2.7896" fill="none" />
    <path id="base_1" d="M -11.537085714285716,36.8304 L -11.537085714285716,34.811102987697716" fill="none" />
    <path id="base_1" d="M -11.537085714285716,30.981401757469243 L -11.537085714285716,30.633247100175744" fill="none" />
    <path id="base_1" d="M -11.537085714285714,27.360593321616868 L -11.537085714285714,27.012438664323373" fill="none" />
    <path id="base_1" d="M -11.537085714285714,22.625689982425307 L -11.537085714285714,22.277535325131808" fill="none" />
    <path id="base_1" d="M -11.537085714285714,19.004881546572932 L -11.537085714285714,18.656726889279433" fill="none" />
    <path id="base_1" d="M -11.537085714285714,14.827025659050964 L -11.537085714285714,14.478871001757467" fill="none" />
    <path id="base_1" d="M -11.537085714285714,11.624002811950787 L -11.537085714285714,11.27584815465729" fill="none" />
    <path id="base_1" d="M -11.537085714285714,10.092122319859403 L -11.537085714285714,9.8135985940246" fill="none" />
    <path id="base_1" d="M -11.537085714285714,7.44614692442882 L -11.537085714285714,7.0979922671353215" fill="none" />
    <path id="base_1" d="M -11.537085714285714,5.914266432337431 L -11.537085714285714,5.635742706502629" fill="none" />
    <path id="base_1" d="M -11.537085714285713,2.2934579964850563 L -11.537085714285713,1.945303339191561" fill="none" />
    <path id="base_1" d="M -11.537085714285713,-0.9095648506151193 L -11.537085714285713,-1.2577195079086145" fill="none" />
    <path id="base_1" d="M -11.537085714285713,-2.441445342706505 L -11.537085714285713,-2.7199690685413067" fill="none" />
    <path id="base_1" d="M -11.394228571428574,36.8304 L -11.394228571428574,34.811102987697716" fill="none" />
    <path id="base_1" d="M -11.394228571428574,32.37402038664323 L -11.394228571428574,32.16512759226713" fill="none" />
    <path id="base_1" d="M -11.394228571428574,30.981401757469243 L -11.394228571428574,30.633247100175744" fill="none" />
    <path id="base_1" d="M -11.394228571428572,27.360593321616868 L -11.394228571428572,27.012438664323373" fill="none" />
    <path id="base_1" d="M -11.394228571428572,24.018308611599295 L -11.394228571428572,23.809415817223197" fill="none" />
    <path id="base_1" d="M -11.394228571428572,22.625689982425307 L -11.394228571428572,22.277535325131808" fill="none" />
    <path id="base_1" d="M -11.394228571428572,19.004881546572932 L -11.394228571428572,18.656726889279433" fill="none" />
    <path id="base_1" d="M -11.394228571428572,14.827025659050964 L -11.394228571428572,14.478871001757467" fill="none" />
    <path id="base_1" d="M -11.394228571428572,11.554371880492091 L -11.394228571428572,11.206217223198594" fill="none" />
    <path id="base_1" d="M -11.394228571428572,10.161753251318096 L -11.394228571428572,9.8135985940246" fill="none" />
    <path id="base_1" d="M -11.394228571428572,7.376515992970116 L -11.394228571428572,7.028361335676621" fill="none" />
    <path id="base_1" d="M -11.394228571428572,5.983897363796128 L -11.394228571428572,5.635742706502629" fill="none" />
    <path id="base_1" d="M -11.39422857142857,2.2934579964850563 L -11.39422857142857,1.945303339191561" fill="none" />
    <path id="base_1" d="M -11.39422857142857,-0.9791957820738197 L -11.39422857142857,-1.327350439367315" fill="none" />
    <path id="base_1" d="M -11.39422857142857,-2.371814411247808 L -11.39422857142857,-2.7199690685413067" fill="none" />
    <path id="base_1" d="M -11.251371428571428,36.8304 L -11.251371428571428,34.811102987697716" fill="none" />
    <path id="base_1" d="M -11.251371428571428,32.51328224956063 L -11.251371428571428,32.16512759226713" fill="none" />
    <path id="base_1" d="M -11.251371428571428,30.981401757469243 L -11.251371428571428,30.633247100175744" fill="none" />
    <path id="base_1" d="M -11.251371428571428,27.360593321616868 L -11.251371428571428,27.012438664323373" fill="none" />
    <path id="base_1" d="M -11.251371428571428,24.157570474516696 L -11.251371428571428,23.809415817223197" fill="none" />
    <path id="base_1" d="M -11.251371428571428,22.625689982425307 L -11.251371428571428,22.277535325131808" fill="none" />
    <path id="base_1" d="M -11.251371428571428,19.004881546572932 L -11.251371428571428,18.656726889279433" fill="none" />
    <path id="base_1" d="M -11.251371428571428,14.827025659050964 L -11.251371428571428,14.478871001757467" fill="none" />
    <path id="base_1" d="M -11.251371428571428,11.554371880492091 L -11.251371428571428,11.206217223198594" fill="none" />
    <path id="base_1" d="M -11.251371428571428,10.161753251318096 L -11.251371428571428,9.8135985940246" fill="none" />
    <path id="base_1" d="M -11.251371428571428,7.376515992970116 L -11.251371428571428,7.028361335676621" fill="none" />
    <path id="base_1" d="M -11.251371428571428,5.983897363796128 L -11.251371428571428,5.635742706502629" fill="none" />
    <path id="base_1" d="M -11.251371428571428,2.2934579964850563 L -11.251371428571428,1.945303339191561" fill="none" />
    <path id="base_1" d="M -11.251371428571428,-0.9791957820738197 L -11.251371428571428,-1.327350439367315" fill="none" />
    <path id="base_1" d="M -11.251371428571428,-2.371814411247808 L -11.251371428571428,-2.7199690685413067" fill="none" />
    <path id="base_1" d="M -11.108514285714286,36.8304 L -11.108514285714286,34.811102987697716" fill="none" />
    <path id="base_1" d="M -11.108514285714286,32.51328224956063 L -11.108514285714286,32.095496660808436" fill="none" />
    <path id="base_1" d="M -11.108514285714286,30.981401757469243 L -11.108514285714286,30.633247100175744" fill="none" />
    <path id="base_1" d="M -11.108514285714286,27.360593321616868 L -11.108514285714286,27.012438664323373" fill="none" />
    <path id="base_1" d="M -11.108514285714286,24.157570474516696 L -11.108514285714286,23.739784885764497" fill="none" />
    <path id="base_1" d="M -11.108514285714286,22.625689982425307 L -11.108514285714286,22.277535325131808" fill="none" />
    <path id="base_1" d="M -11.108514285714286,19.004881546572932 L -11.108514285714286,18.656726889279433" fill="none" />
    <path id="base_1" d="M -11.108514285714286,14.827025659050964 L -11.108514285714286,14.478871001757467" fill="none" />
    <path id="base_1" d="M -11.108514285714286,11.554371880492091 L -11.108514285714286,11.206217223198594" fill="none" />
    <path id="base_1" d="M -11.108514285714286,10.161753251318096 L -11.108514285714286,9.8135985940246" fill="none" />
    <path id="base_1" d="M -11.108514285714286,7.376515992970116 L -11.108514285714286,7.028361335676621" fill="none" />
    <path id="base_1" d="M -11.108514285714286,5.983897363796128 L -11.108514285714286,5.635742706502629" fill="none" />
    <path id="base_1" d="M -11.108514285714286,2.2934579964850563 L -11.108514285714286,1.945303339191561" fill="none" />
    <path id="base_1" d="M -11.108514285714286,-0.9791957820738197 L -11.108514285714286,-1.327350439367315" fill="none" />
    <path id="base_1" d="M -11.108514285714286,-2.371814411247808 L -11.108514285714286,-2.7199690685413067" fill="none" />
    <path id="base_1" d="M -10.965657142857143,35.507412302284706 L -10.965657142857143,35.159257644991214" fill="none" />
    <path id="base_1" d="M -10.965657142857143,32.51328224956063 L -10.965657142857143,32.095496660808436" fill="none" />
    <path id="base_1" d="M -10.965657142857143,31.051032688927943 L -10.965657142857143,30.633247100175744" fill="none" />
    <path id="base_1" d="M -10.965657142857143,27.360593321616868 L -10.965657142857143,27.012438664323373" fill="none" />
    <path id="base_1" d="M -10.965657142857143,24.157570474516696 L -10.965657142857143,23.739784885764497" fill="none" />
    <path id="base_1" d="M -10.965657142857143,22.695320913884004 L -10.965657142857143,22.277535325131808" fill="none" />
    <path id="base_1" d="M -10.965657142857143,19.004881546572932 L -10.965657142857143,18.656726889279433" fill="none" />
    <path id="base_1" d="M -10.965657142857143,14.827025659050964 L -10.965657142857143,14.478871001757467" fill="none" />
    <path id="base_1" d="M -10.965657142857143,11.554371880492091 L -10.965657142857143,11.136586291739894" fill="none" />
    <path id="base_1" d="M -10.965657142857143,10.231384182776797 L -10.965657142857143,9.8135985940246" fill="none" />
    <path id="base_1" d="M -10.965657142857143,7.376515992970116 L -10.965657142857143,6.958730404217928" fill="none" />
    <path id="base_1" d="M -10.965657142857143,6.053528295254829 L -10.965657142857143,5.635742706502629" fill="none" />
    <path id="base_1" d="M -10.965657142857143,2.2934579964850563 L -10.965657142857143,1.945303339191561" fill="none" />
    <path id="base_1" d="M -10.965657142857143,-0.9791957820738197 L -10.965657142857143,-1.396981370826012" fill="none" />
    <path id="base_1" d="M -10.965657142857143,-2.3021834797891074 L -10.965657142857143,-2.7199690685413067" fill="none" />
    <path id="base_1" d="M -10.8228,35.507412302284706 L -10.8228,35.159257644991214" fill="none" />
    <path id="base_1" d="M -10.8228,32.443651318101935 L -10.8228,32.02586572934973" fill="none" />
    <path id="base_1" d="M -10.8228,31.051032688927943 L -10.8228,30.702878031634448" fill="none" />
    <path id="base_1" d="M -10.8228,27.360593321616868 L -10.8228,27.012438664323373" fill="none" />
    <path id="base_1" d="M -10.822799999999999,24.087939543057995 L -10.822799999999999,23.6701539543058" fill="none" />
    <path id="base_1" d="M -10.822799999999999,22.695320913884004 L -10.822799999999999,22.34716625659051" fill="none" />
    <path id="base_1" d="M -10.822799999999999,19.004881546572932 L -10.822799999999999,18.656726889279433" fill="none" />
    <path id="base_1" d="M -10.822799999999999,14.827025659050964 L -10.822799999999999,14.478871001757467" fill="none" />
    <path id="base_1" d="M -10.822799999999999,11.484740949033391 L -10.822799999999999,11.136586291739894" fill="none" />
    <path id="base_1" d="M -10.822799999999999,10.231384182776797 L -10.822799999999999,9.883229525483301" fill="none" />
    <path id="base_1" d="M -10.822799999999997,7.306885061511423 L -10.822799999999997,6.958730404217928" fill="none" />
    <path id="base_1" d="M -10.822799999999997,6.053528295254829 L -10.822799999999997,5.705373637961333" fill="none" />
    <path id="base_1" d="M -10.822799999999997,2.2934579964850563 L -10.822799999999997,1.945303339191561" fill="none" />
    <path id="base_1" d="M -10.822799999999997,-1.048826713532513 L -10.822799999999997,-1.396981370826012" fill="none" />
    <path id="base_1" d="M -10.822799999999997,-2.3021834797891074 L -10.822799999999997,-2.6503381370826062" fill="none" />
    <path id="base_1" d="M -10.679942857142859,35.507412302284706 L -10.679942857142859,35.159257644991214" fill="none" />
    <path id="base_1" d="M -10.679942857142859,32.443651318101935 L -10.679942857142859,32.02586572934973" fill="none" />
    <path id="base_1" d="M -10.679942857142859,31.120663620386644 L -10.679942857142859,30.702878031634448" fill="none" />
    <path id="base_1" d="M -10.679942857142859,27.360593321616868 L -10.679942857142859,27.012438664323373" fill="none" />
    <path id="base_1" d="M -10.679942857142857,24.087939543057995 L -10.679942857142857,23.6701539543058" fill="none" />
    <path id="base_1" d="M -10.679942857142857,22.764951845342704 L -10.679942857142857,22.34716625659051" fill="none" />
    <path id="base_1" d="M -10.679942857142857,19.004881546572932 L -10.679942857142857,18.656726889279433" fill="none" />
    <path id="base_1" d="M -10.679942857142857,14.827025659050964 L -10.679942857142857,14.478871001757467" fill="none" />
    <path id="base_1" d="M -10.679942857142857,11.484740949033391 L -10.679942857142857,11.066955360281193" fill="none" />
    <path id="base_1" d="M -10.679942857142857,10.301015114235497 L -10.679942857142857,9.883229525483301" fill="none" />
    <path id="base_1" d="M -10.679942857142855,7.306885061511423 L -10.679942857142855,6.889099472759224" fill="none" />
    <path id="base_1" d="M -10.679942857142855,6.123159226713529 L -10.679942857142855,5.705373637961333" fill="none" />
    <path id="base_1" d="M -10.679942857142855,2.2934579964850563 L -10.679942857142855,1.945303339191561" fill="none" />
    <path id="base_1" d="M -10.679942857142855,-1.048826713532513 L -10.679942857142855,-1.4666123022847124" fill="none" />
    <path id="base_1" d="M -10.679942857142855,-2.232552548330407 L -10.679942857142855,-2.6503381370826062" fill="none" />
    <path id="base_1" d="M -10.537085714285714,35.507412302284706 L -10.537085714285714,35.159257644991214" fill="none" />
    <path id="base_1" d="M -10.537085714285714,32.37402038664323 L -10.537085714285714,31.956234797891035" fill="none" />
    <path id="base_1" d="M -10.537085714285714,31.19029455184534 L -10.537085714285714,30.772508963093145" fill="none" />
    <path id="base_1" d="M -10.537085714285714,27.360593321616868 L -10.537085714285714,27.012438664323373" fill="none" />
    <path id="base_1" d="M -10.537085714285714,24.018308611599295 L -10.537085714285714,23.6005230228471" fill="none" />
    <path id="base_1" d="M -10.537085714285714,22.834582776801405 L -10.537085714285714,22.41679718804921" fill="none" />
    <path id="base_1" d="M -10.537085714285713,19.004881546572932 L -10.537085714285713,18.656726889279433" fill="none" />
    <path id="base_1" d="M -10.537085714285713,14.827025659050964 L -10.537085714285713,14.478871001757467" fill="none" />
    <path id="base_1" d="M -10.537085714285713,11.484740949033391 L -10.537085714285713,10.997324428822493" fill="none" />
    <path id="base_1" d="M -10.537085714285713,10.370646045694198 L -10.537085714285713,9.952860456942002" fill="none" />
    <path id="base_1" d="M -10.537085714285713,7.306885061511423 L -10.537085714285713,6.819468541300527" fill="none" />
    <path id="base_1" d="M -10.537085714285713,6.1927901581722296 L -10.537085714285713,5.77500456942003" fill="none" />
    <path id="base_1" d="M -10.537085714285713,2.2934579964850563 L -10.537085714285713,1.945303339191561" fill="none" />
    <path id="base_1" d="M -10.537085714285713,-1.048826713532513 L -10.537085714285713,-1.5362432337434129" fill="none" />
    <path id="base_1" d="M -10.537085714285713,-2.1629216168717065 L -10.537085714285713,-2.5807072056239058" fill="none" />
    <path id="base_1" d="M -10.394228571428572,35.507412302284706 L -10.394228571428572,35.159257644991214" fill="none" />
    <path id="base_1" d="M -10.39422857142857,32.37402038664323 L -10.39422857142857,31.816972934973634" fill="none" />
    <path id="base_1" d="M -10.39422857142857,31.32955641476274 L -10.39422857142857,30.772508963093145" fill="none" />
    <path id="base_1" d="M -10.39422857142857,27.360593321616868 L -10.39422857142857,27.012438664323373" fill="none" />
    <path id="base_1" d="M -10.39422857142857,24.018308611599295 L -10.39422857142857,23.4612611599297" fill="none" />
    <path id="base_1" d="M -10.39422857142857,22.973844639718806 L -10.39422857142857,22.41679718804921" fill="none" />
    <path id="base_1" d="M -10.39422857142857,19.004881546572932 L -10.39422857142857,18.656726889279433" fill="none" />
    <path id="base_1" d="M -10.39422857142857,14.827025659050964 L -10.39422857142857,14.478871001757467" fill="none" />
    <path id="base_1" d="M -10.39422857142857,11.41511001757469 L -10.39422857142857,10.858062565905097" fill="none" />
    <path id="base_1" d="M -10.39422857142857,10.509907908611595 L -10.39422857142857,9.952860456942002" fill="none" />
    <path id="base_1" d="M -10.39422857142857,7.2372541300527224 L -10.39422857142857,6.680206678383126" fill="none" />
    <path id="base_1" d="M -10.39422857142857,6.332052021089627 L -10.39422857142857,5.77500456942003" fill="none" />
    <path id="base_1" d="M -10.39422857142857,2.2934579964850563 L -10.39422857142857,1.945303339191561" fill="none" />
    <path id="base_1" d="M -10.394228571428568,-1.1184576449912136 L -10.394228571428568,-1.6755050966608138" fill="none" />
    <path id="base_1" d="M -10.394228571428568,-2.0236597539543126 L -10.394228571428568,-2.5807072056239058" fill="none" />
    <path id="base_1" d="M -10.25137142857143,35.507412302284706 L -10.25137142857143,35.159257644991214" fill="none" />
    <path id="base_1" d="M -10.251371428571428,32.304389455184534 L -10.251371428571428,30.842139894551842" fill="none" />
    <path id="base_1" d="M -10.251371428571428,27.360593321616868 L -10.251371428571428,27.012438664323373" fill="none" />
    <path id="base_1" d="M -10.251371428571428,23.948677680140598 L -10.251371428571428,22.486428119507906" fill="none" />
    <path id="base_1" d="M -10.251371428571428,19.004881546572932 L -10.251371428571428,18.656726889279433" fill="none" />
    <path id="base_1" d="M -10.251371428571428,14.827025659050964 L -10.251371428571428,14.478871001757467" fill="none" />
    <path id="base_1" d="M -10.251371428571428,11.34547908611599 L -10.251371428571428,10.022491388400702" fill="none" />
    <path id="base_1" d="M -10.251371428571428,7.167623198594022 L -10.251371428571428,5.844635500878734" fill="none" />
    <path id="base_1" d="M -10.251371428571428,2.2934579964850563 L -10.251371428571428,1.945303339191561" fill="none" />
    <path id="base_1" d="M -10.251371428571426,-1.188088576449914 L -10.251371428571426,-2.5110762741652053" fill="none" />
    <path id="base_1" d="M -10.108514285714287,35.507412302284706 L -10.108514285714287,35.159257644991214" fill="none" />
    <path id="base_1" d="M -10.108514285714286,32.23475852372584 L -10.108514285714286,30.911770826010546" fill="none" />
    <path id="base_1" d="M -10.108514285714286,27.360593321616868 L -10.108514285714286,27.012438664323373" fill="none" />
    <path id="base_1" d="M -10.108514285714286,23.879046748681894 L -10.108514285714286,22.556059050966606" fill="none" />
    <path id="base_1" d="M -10.108514285714286,19.004881546572932 L -10.108514285714286,18.656726889279433" fill="none" />
    <path id="base_1" d="M -10.108514285714286,14.827025659050964 L -10.108514285714286,14.478871001757467" fill="none" />
    <path id="base_1" d="M -10.108514285714286,11.34547908611599 L -10.108514285714286,10.022491388400702" fill="none" />
    <path id="base_1" d="M -10.108514285714286,7.167623198594022 L -10.108514285714286,5.844635500878734" fill="none" />
    <path id="base_1" d="M -10.108514285714286,2.2934579964850563 L -10.108514285714286,1.945303339191561" fill="none" />
    <path id="base_1" d="M -10.108514285714284,-1.188088576449914 L -10.108514285714284,-2.5110762741652053" fill="none" />
    <path id="base_1" d="M -9.965657142857143,35.507412302284706 L -9.965657142857143,35.159257644991214" fill="none" />
    <path id="base_1" d="M -9.965657142857143,32.16512759226713 L -9.965657142857143,30.981401757469243" fill="none" />
    <path id="base_1" d="M -9.965657142857143,27.360593321616868 L -9.965657142857143,27.012438664323373" fill="none" />
    <path id="base_1" d="M -9.965657142857143,23.809415817223197 L -9.965657142857143,22.625689982425307" fill="none" />
    <path id="base_1" d="M -9.965657142857143,19.004881546572932 L -9.965657142857143,18.656726889279433" fill="none" />
    <path id="base_1" d="M -9.965657142857143,14.827025659050964 L -9.965657142857143,14.478871001757467" fill="none" />
    <path id="base_1" d="M -9.965657142857141,11.27584815465729 L -9.965657142857141,10.161753251318096" fill="none" />
    <path id="base_1" d="M -9.965657142857141,7.0979922671353215 L -9.965657142857141,5.983897363796128" fill="none" />
    <path id="base_1" d="M -9.965657142857141,2.2934579964850563 L -9.965657142857141,1.945303339191561" fill="none" />
    <path id="base_1" d="M -9.965657142857141,-1.2577195079086145 L -9.965657142857141,-2.371814411247808" fill="none" />
    <path id="base_1" d="M -9.8228,35.507412302284706 L -9.8228,35.159257644991214" fill="none" />
    <path id="base_1" d="M -9.8228,32.02586572934973 L -9.8228,31.120663620386644" fill="none" />
    <path id="base_1" d="M -9.822799999999999,27.360593321616868 L -9.822799999999999,27.012438664323373" fill="none" />
    <path id="base_1" d="M -9.822799999999999,23.6701539543058 L -9.822799999999999,22.764951845342704" fill="none" />
    <path id="base_1" d="M -9.822799999999999,19.004881546572932 L -9.822799999999999,18.656726889279433" fill="none" />
    <path id="base_1" d="M -9.822799999999999,14.827025659050964 L -9.822799999999999,14.478871001757467" fill="none" />
    <path id="base_1" d="M -9.822799999999999,11.136586291739894 L -9.822799999999999,10.231384182776797" fill="none" />
    <path id="base_1" d="M -9.822799999999999,6.958730404217928 L -9.822799999999997,6.053528295254829" fill="none" />
    <path id="base_1" d="M -9.822799999999997,2.2934579964850563 L -9.822799999999997,1.945303339191561" fill="none" />
    <path id="base_1" d="M -9.822799999999997,-1.396981370826012 L -9.822799999999997,-2.3021834797891074" fill="none" />
    <path id="base_1" d="M -9.679942857142859,35.507412302284706 L -9.679942857142859,35.159257644991214" fill="none" />
    <path id="base_1" d="M -9.679942857142859,31.88660386643234 L -9.679942857142859,31.32955641476274" fill="none" />
    <path id="base_1" d="M -9.679942857142857,27.360593321616868 L -9.679942857142857,27.012438664323373" fill="none" />
    <path id="base_1" d="M -9.679942857142857,23.5308920913884 L -9.679942857142857,22.973844639718806" fill="none" />
    <path id="base_1" d="M -9.679942857142857,19.004881546572932 L -9.679942857142857,18.656726889279433" fill="none" />
    <path id="base_1" d="M -9.679942857142857,14.827025659050964 L -9.679942857142857,14.478871001757467" fill="none" />
    <path id="base_1" d="M -9.679942857142857,10.997324428822493 L -9.679942857142857,10.440276977152898" fill="none" />
    <path id="base_1" d="M -9.679942857142857,6.819468541300527 L -9.679942857142857,6.26242108963093" fill="none" />
    <path id="base_1" d="M -9.679942857142855,2.2934579964850563 L -9.679942857142855,1.945303339191561" fill="none" />
    <path id="base_1" d="M -9.679942857142855,-1.5362432337434129 L -9.679942857142855,-2.093290685413006" fill="none" />
  </g>
</svg>