<?xml version="1.0" encoding="UTF-8" standalone="no"?>
<svg width="300mm" height="300mm" viewBox="-150.0 -150.0 300 300" xmlns="http://www.w3.org/2000/svg">
  <g >
    <path id="base_1" d="M -14.786600000000004,28.154799999999998 L -14.786600000000004,24.9548 L -9.636600000000001,24.9548 L -9.636600000000003,28.154799999999998 L -14.786600000000004,28.154799999999998" fill="#000000" stroke="none" />
    <path id="base_1" d="M -14.7866,-8.2652 L -14.7866,-11.4652 L -9.6366,-11.4652 L -9.636600000000001,-8.2652 L -14.7866,-8.2652" fill="#000000" stroke="none" />
    <path id="base_1" d="M -14.786600000000004,24.504799999999996 L -14.786600000000004,23.962819801980196 L -9.636600000000001,23.962819801980196 L -9.636600000000001,24.504799999999996 L -14.786600000000004,24.504799999999996" fill="#000000" stroke="none" />
    <path id="base_1" d="M -14.786600000000004,23.541829702970297 L -14.786600000000004,23.320839603960394 L -9.636600000000001,23.320839603960394 L -9.636600000000001,23.541829702970297 L -14.786600000000004,23.541829702970297" fill="#000000" stroke="none" />
    <path id="base_1" d="M -14.786600000000004,22.57885940594059 L -14.786600000000004,21.715889108910886 L -9.636600000000001,21.715889108910886 L -9.636600000000001,22.57885940594059 L -14.786600000000004,22.57885940594059" fill="#000000" stroke="none" />
    <path id="base_1" d="M -14.786600000000004,20.973908910891083 L -14.786600000000004,19.78994851485148 L -9.636600000000001,19.78994851485148 L -9.636600000000001,20.973908910891083 L -14.786600000000004,20.973908910891083" fill="#000000" stroke="none" />
    <path id="base_1" d="M -14.786600000000004,19.368958415841576 L -14.786600000000002,19.14796831683168 L -9.636600000000001,19.14796831683168 L -9.636600000000001,19.368958415841576 L -14.786600000000004,19.368958415841576" fill="#000000" stroke="none" />
    <path id="base_1" d="M -14.786600000000002,18.726978217821774 L -14.786600000000002,17.864007920792076 L -9.636600000000001,17.864007920792076 L -9.636600000000001,18.726978217821774 L -14.786600000000002,18.726978217821774" fill="#000000" stroke="none" />
    <path id="base_1" d="M -14.786600000000002,17.44301782178217 L -14.786600000000002,17.222027722772275 L -9.636600000000001,17.222027722772275 L -9.636600000000001,17.44301782178217 L -14.786600000000002,17.44301782178217" fill="#000000" stroke="none" />
    <path id="base_1" d="M -14.786600000000002,16.80103762376237 L -14.786600000000002,16.25905742574257 L -9.636600000000001,16.25905742574257 L -9.636600000000001,16.80103762376237 L -14.786600000000002,16.80103762376237" fill="#000000" stroke="none" />
    <path id="base_1" d="M -14.786600000000002,15.196087128712866 L -14.786600000000002,14.333116831683162 L -9.636600000000001,14.333116831683162 L -9.636600000000001,15.196087128712866 L -14.786600000000002,15.196087128712866" fill="#000000" stroke="none" />
    <path id="base_1" d="M -14.786600000000002,13.912126732673261 L -14.786600000000002,13.69113663366336 L -9.636600000000001,13.69113663366336 L -9.636600000000001,13.912126732673261 L -14.786600000000002,13.912126732673261" fill="#000000" stroke="none" />
    <path id="base_1" d="M -14.786600000000002,12.949156435643559 L -14.786600000000002,12.407176237623755 L -9.636600000000001,12.407176237623755 L -9.636600000000001,12.949156435643559 L -14.786600000000002,12.949156435643559" fill="#000000" stroke="none" />
    <path id="base_1" d="M -14.786600000000002,11.986186138613853 L -14.786600000000002,11.12321584158415 L -9.636600000000001,11.12321584158415 L -9.636600000000001,11.986186138613853 L -14.786600000000002,11.986186138613853" fill="#000000" stroke="none" />
    <path id="base_1" d="M -14.786600000000002,10.381235643564349 L -14.786600000000002,9.839255445544547 L -9.636600000000001,9.839255445544547 L -9.636600000000001,10.381235643564349 L -14.786600000000002,10.381235643564349" fill="#000000" stroke="none" />
    <path id="base_1" d="M -14.786600000000002,8.776285148514843 L -14.786600000000002,8.555295049504942 L -9.636600000000001,8.555295049504942 L -9.636600000000001,8.776285148514843 L -14.786600000000002,8.776285148514843" fill="#000000" stroke="none" />
    <path id="base_1" d="M -14.786600000000002,7.813314851485139 L -14.786600000000002,7.592324752475238 L -9.636600000000001,7.592324752475239 L -9.636600000000001,7.813314851485139 L -14.786600000000002,7.813314851485139" fill="#000000" stroke="none" />
    <path id="base_1" d="M -14.786600000000002,6.850344554455436 L -14.786600000000002,6.308364356435634 L -9.636600000000001,6.308364356435634 L -9.636600000000001,6.850344554455437 L -14.786600000000002,6.850344554455436" fill="#000000" stroke="none" />
    <path id="base_1" d="M -14.786600000000002,5.8873742574257335 L -14.786600000000002,5.34539405940593 L -9.636600000000001,5.34539405940593 L -9.636600000000001,5.8873742574257335 L -14.786600000000002,5.8873742574257335" fill="#000000" stroke="none" />
    <path id="base_1" d="M -14.786600000000002,4.603413861386128 L -14.786600000000002,4.061433663366326 L -9.636600000000001,4.061433663366326 L -9.636600000000001,4.603413861386128 L -14.786600000000002,4.603413861386128" fill="#000000" stroke="none" />
    <path id="base_1" d="M -14.786600000000002,3.319453465346524 L -14.786600000000002,2.777473267326722 L -9.636600000000001,2.777473267326722 L -9.636600000000001,3.319453465346524 L -14.786600000000002,3.319453465346524" fill="#000000" stroke="none" />
    <path id="base_1" d="M -14.786600000000002,2.035493069306921 L -14.786600000000002,1.814502970297017 L -9.636600000000001,1.814502970297017 L -9.636600000000001,2.035493069306921 L -14.786600000000002,2.035493069306921" fill="#000000" stroke="none" />
    <path id="base_1" d="M -14.786600000000002,1.0725227722772157 L -14.786600000000002,0.8515326732673172 L -9.636600000000001,0.8515326732673172 L -9.636600000000001,1.0725227722772157 L -14.786600000000002,1.0725227722772157" fill="#000000" stroke="none" />
    <path id="base_1" d="M -14.786600000000002,-0.2114376237623894 L -14.786600000000002,-0.7534178217821896 L -9.636600000000001,-0.7534178217821896 L -9.636600000000001,-0.2114376237623894 L -14.786600000000002,-0.2114376237623894" fill="#000000" stroke="none" />
    <path id="base_1" d="M -14.786600000000002,-1.4953980198019927 L -14.786600000000002,-2.3583683168316973 L -9.636600000000001,-2.3583683168316973 L -9.636600000000001,-1.4953980198019927 L -14.786600000000002,-1.4953980198019927" fill="#000000" stroke="none" />
    <path id="base_1" d="M -14.7866,-3.1003485148515004 L -14.7866,-3.3213386138614016 L -9.636600000000001,-3.3213386138614016 L -9.636600000000001,-3.1003485148515004 L -14.7866,-3.1003485148515004" fill="#000000" stroke="none" />
    <path id="base_1" d="M -14.7866,-3.742328712871302 L -14.7866,-4.284308910891102 L -9.636600000000001,-4.284308910891102 L -9.636600000000001,-3.742328712871302 L -14.7866,-3.742328712871302" fill="#000000" stroke="none" />
    <path id="base_1" d="M -14.7866,-5.347279207920808 L -14.7866,-6.210249504950507 L -9.636600000000001,-6.210249504950507 L -9.636600000000001,-5.347279207920808 L -14.7866,-5.347279207920808" fill="#000000" stroke="none" />
    <path id="base_1" d="M -14.7866,-6.631239603960413 L -14.7866,-6.852229702970314 L -9.636600000000001,-6.852229702970314 L -9.636600000000001,-6.631239603960413 L -14.7866,-6.631239603960413" fill="#000000" stroke="none" />
    <path id="base_1" d="M -14.7866,-7.273219801980215 L -14.7866,-7.815200000000015 L -9.636600000000001,-7.815200000000015 L -9.636600000000001,-7.273219801980215 L -14.7866,-7.273219801980215" fill="#000000" stroke="none" />
    <path id="base_1" d="M -7.847484426404612,-8.830581321915975 L -6.640573509933772,-8.830581321915975 L -6.640573509933772,-11.4652 L -6.072874300363168,-11.4652 L -2.8075036530655817,-8.694079448755684 L -2.8075036530655817,-8.085784693604495 L -6.072874300363169,-8.085784693604495 L -6.072874300363169,-7.26544819373829 L -6.640573509933773,-7.26544819373829 L -6.640573509933772,-8.085784693604495 L -7.847484426404612,-8.085784693604495 L -7.847484426404612,-8.830581321915975 M -6.072874300363169,-8.830581321915975 L -3.8009772698141395,-8.830581321915975 L -6.072874300363168,-10.732330719828738 L -6.072874300363169,-8.830581321915975" fill="#000000" stroke="#000000" fill-rule="evenodd" />
    <path id="base_1" d="M -6.517351976073487,-6.9089530104361785 L -6.43483755607776,-6.1641563821246965 L -6.887291625720998,-5.990547203639281 L -7.192870027771843,-5.726820283649985 L -7.3669754539628265,-5.384571655070912 L -7.425010596026489,-4.975397350816161 L -7.349372377697071,-4.4903518597805725 L -7.122457722708822,-4.087472544822049 L -6.7835985045930345,-3.8151314289537055 L -6.3721265968810075,-3.724351056997591 L -5.983758726767783,-3.8081738092052433 L -5.670203930784019,-4.0596420658282035 L -5.462267592394785,-4.440654575862991 L -5.392955479598375,-4.9131100883061265 L -5.4100084597308244,-5.150000474979928 L -5.461167400128176,-5.43923866738025 L -4.917672420422985,-5.355747230398714 L -4.9234484298226855,-5.2888215547230395 L -4.925373766289252,-5.23647374899652 L -4.873939777825249,-4.783565834894301 L -4.719637812433239,-4.37902994380519 L -4.456966908780173,-4.092773588439924 L -4.082626490066224,-3.997354803318169 L -3.7718221747489844,-4.066931000802782 L -3.5193280495620582,-4.275659593256622 L -3.350998632770774,-4.593059579876906 L -3.29488882717368,-4.9913004816697875 L -3.35182377697073,-5.3898726986887855 L -3.522628626361887,-5.716218196414236 L -3.8059281350138834,-5.954433843992506 L -4.202547447126681,-6.088616510569976 L -4.09252822046571,-6.834738399785923 L -3.540781798760947,-6.611431937382928 L -3.128759794915614,-6.214516296494512 L -2.8721399487289014,-5.670496695210058 L -2.7865999999999973,-5.008528873427881 L -2.830882738731039,-4.531434947819104 L -2.96373095492416,-4.094098849344391 L -3.1730425336466554,-3.7246823722237075 L -3.4467153599658173,-3.4539978324859497 L -3.76219549241615,-3.287014958522878 L -4.09692898953215,-3.2313540005351875 L -4.408283400982696,-3.2843644367139415 L -4.691032813501388,-3.443395745250198 L -4.931974919888911,-3.7048034586566736 L -5.11790741294595,-4.067593631255017 L -5.276060051271095,-3.5895057599678886 L -5.545882204657124,-3.2313540005351875 L -5.911421085238196,-3.0077162229060743 L -6.358924289681691,-2.9331702970297027 L -6.968705853450117,-3.0782863660690385 L -7.477819824823755,-3.5136345731870477 L -7.821904956205938,-4.1696387208991155 L -7.9365999999999985,-4.97937313352957 L -7.837857744071778,-5.710917152796359 L -7.5416309762871165,-6.30728455980733 L -7.087526618243963,-6.72142859245384 L -6.517351976073487,-6.9089530104361785" fill="#000000" stroke="#000000" fill-rule="evenodd" />
    <path id="base_1" d="M -7.8474844264046135,0.2262516992239778 L -7.8474844264046135,-0.5185449290875024 L -3.9043953428754525,-0.5185449290875024 L -4.1170074983977765,-0.8296499264115589 L -4.330169750053407,-1.2249089911693858 L -4.516927387310402,-1.6397156542681284 L -4.650325699636829,-2.009463446614932 L -4.051821106601152,-2.009463446614932 L -3.7819989532151235,-1.4233668116135938 L -3.4610178594317444,-0.9161232004281494 L -3.1185830164494748,-0.5165570377307986 L -2.786599999999999,-0.2534927481937377 L -2.786599999999999,0.2262516992239778 L -7.8474844264046135,0.2262516992239778" fill="#000000" stroke="#000000" fill-rule="evenodd" />
    <path id="base_1" d="M -6.5173519760734875,0.5827468825260915 L -6.434837556077761,1.3275435108375717 L -6.887291625720999,1.5011526893229883 L -7.1928700277718445,1.7648796093122838 L -7.366975453962827,2.1071282378913567 L -7.425010596026491,2.516302542146107 L -7.3493723776970725,3.0013480331816975 L -7.122457722708823,3.404227348140221 L -6.783598504593035,3.6765684640085627 L -6.372126596881008,3.767348835964678 L -5.9837587267677845,3.683526083757026 L -5.67020393078402,3.4320578271340656 L -5.462267592394787,3.0510453170992777 L -5.392955479598377,2.5785898046561426 L -5.410008459730826,2.3416994179823405 L -5.461167400128177,2.052461225582019 L -4.917672420422987,2.135952662563554 L -4.923448429822687,2.2028783382392296 L -4.925373766289254,2.255226143965749 L -4.8739397778252505,2.7081340580679685 L -4.719637812433241,3.1126699491570786 L -4.456966908780175,3.3989263045223446 L -4.082626490066226,3.4943450896441 L -3.7718221747489844,3.424768892159486 L -3.51932804956206,3.2160402997056483 L -3.350998632770776,2.8986403130853624 L -3.29488882717368,2.500399411292481 L -3.3518237769707317,2.1018271942734827 L -3.522628626361887,1.7754816965480336 L -3.805928135013885,1.5372660489697623 L -4.202547447126682,1.4030833823922935 L -4.092528220465712,0.6569614931763459 L -3.540781798760949,0.8802679555793427 L -3.1287597949156156,1.277183596467757 L -2.872139948728903,1.821203197752208 L -2.786600000000001,2.483171019534387 L -2.8308827387310407,2.960264945143164 L -2.96373095492416,3.397601043617877 L -3.1730425336466572,3.7670175207385626 L -3.446715359965819,4.03770206047632 L -3.7621954924161516,4.20468493443939 L -4.0969289895321515,4.260345892427081 L -4.408283400982697,4.207335456248328 L -4.691032813501389,4.04830414771207 L -4.931974919888913,3.7868964343055946 L -5.117907412945952,3.4241062617072524 L -5.276060051271096,3.9021941329943814 L -5.545882204657125,4.260345892427081 L -5.911421085238197,4.483983670056196 L -6.358924289681692,4.558529595932567 L -6.968705853450118,4.41341352689323 L -7.477819824823756,3.9780653197752223 L -7.821904956205939,3.3220611720631528 L -7.9366,2.5123267594326997 L -7.837857744071779,1.7807827401659075 L -7.541630976287117,1.1844153331549387 L -7.087526618243964,0.7702713005084307 L -6.5173519760734875,0.5827468825260915" fill="#000000" stroke="#000000" fill-rule="evenodd" />
    <path id="base_1" d="M -7.847484426404615,7.717951592186245 L -7.847484426404615,6.973154963874765 L -3.9043953428754543,6.973154963874766 L -4.117007498397778,6.66204996655071 L -4.330169750053408,6.266790901792884 L -4.516927387310404,5.8519842386941425 L -4.65032569963683,5.482236446347338 L -4.051821106601154,5.482236446347338 L -3.7819989532151252,6.068333081348677 L -3.4610178594317462,6.575576692534119 L -3.1185830164494766,6.975142855231467 L -2.786600000000001,7.238207144768532 L -2.786600000000001,7.717951592186247 L -7.847484426404615,7.717951592186245" fill="#000000" stroke="#000000" fill-rule="evenodd" />
    <path id="base_1" d="M -7.847484426404615,10.877373588439927 L -7.847484426404615,10.132576960128446 L -3.9043953428754543,10.132576960128446 L -4.11700749839778,9.821471962804388 L -4.330169750053408,9.426212898046561 L -4.516927387310404,9.011406234947819 L -4.650325699636831,8.641658442601017 L -4.051821106601154,8.641658442601017 L -3.781998953215127,9.227755077602353 L -3.4610178594317462,9.734998688787798 L -3.1185830164494783,10.134564851485152 L -2.786600000000001,10.397629141022211 L -2.786600000000001,10.877373588439927 L -7.847484426404615,10.877373588439927" fill="#000000" stroke="#000000" fill-rule="evenodd" />
    <path id="base_1" d="M -5.362150096133306,11.229892989028635 L -4.555159068575093,11.285222631790209 L -3.923098611407821,11.451211560074928 L -3.440114206366162,11.72620319775221 L -3.0825517197180092,12.108540968691464 L -2.8605879299295056,12.602200655606104 L -2.786600000000001,13.208507519400591 L -2.827582161931212,13.667379107572916 L -2.9505286477248474,14.065951324591918 L -3.1496634479812036,14.402236279100883 L -3.421410937833799,14.67424607974311 L -3.7621954924161534,14.889269661493177 L -4.170641871395003,15.051945437516725 L -4.689107477034823,15.154321842386942 L -5.362150096133306,15.188447310677013 L -6.163365114291819,15.133448983141559 L -6.793500234992525,14.96845400053519 L -7.276484640034182,14.69511893898849 L -7.636247511215554,14.312449852823118 L -7.859036445204017,13.818458850682365 L -7.933299423200172,13.208507519400591 L -7.802651591540272,12.425278324859516 L -7.4107080965605645,11.830236178753012 L -6.5839136082033765,11.379978786459727 L -5.362150096133306,11.229892989028635 M -5.362150096133306,11.995893791811614 L -6.395780730613119,12.083361011506558 L -7.014638880581074,12.345762670591384 L -7.322417667165137,12.73638332218357 L -7.4250105960264925,13.208507519400591 L -7.321867571031833,13.68162566229596 L -7.012438496047855,14.07257762911426 L -6.393580346079899,14.33497928819909 L -5.362150096133306,14.422446507894033 L -4.326044029053623,14.33497928819909 L -3.7085611194189303,14.07257762911426 L -3.4016074770348235,13.679637770939259 L -3.299289596240121,13.200555953973776 L -3.389505362102118,12.739033843992505 L -3.6601526596881024,12.380219454107575 L -4.315592202520831,12.091975207385602 L -5.362150096133306,11.995893791811614" fill="#000000" stroke="#000000" fill-rule="evenodd" />
    <path id="base_1" d="M -5.362150096133306,15.540966711265721 L -4.555159068575093,15.596296354027292 L -3.923098611407821,15.762285282312018 L -3.4401142063661636,16.037276919989296 L -3.082551719718011,16.41961469092855 L -2.8605879299295056,16.913274377843187 L -2.7866000000000026,17.519581241637677 L -2.827582161931214,17.97845282981001 L -2.950528647724849,18.377025046829008 L -3.1496634479812036,18.71331000133797 L -3.421410937833799,18.9853198019802 L -3.7621954924161534,19.200343383730267 L -4.170641871395003,19.36301915975381 L -4.689107477034824,19.46539556462403 L -5.362150096133307,19.499521032914103 L -6.16336511429182,19.444522705378645 L -6.793500234992526,19.279527722772276 L -7.276484640034183,19.006192661225583 L -7.636247511215555,18.62352357506021 L -7.859036445204018,18.12953257291945 L -7.933299423200173,17.519581241637677 L -7.802651591540273,16.736352047096602 L -7.410708096560566,16.141309900990098 L -6.583913608203377,15.691052508696817 L -5.362150096133306,15.540966711265721 M -5.362150096133307,16.3069675140487 L -6.39578073061312,16.394434733743644 L -7.014638880581075,16.656836392828474 L -7.322417667165138,17.047457044420657 L -7.425010596026493,17.519581241637677 L -7.3218675710318335,17.99269938453305 L -7.012438496047856,18.383651351351354 L -6.3935803460799,18.64605301043618 L -5.362150096133307,18.73352023013112 L -4.326044029053624,18.64605301043618 L -3.7085611194189303,18.383651351351354 L -3.4016074770348235,17.990711493176345 L -3.299289596240123,17.511629676210863 L -3.389505362102118,17.0501075662296 L -3.6601526596881024,16.69129317634466 L -4.315592202520832,16.403048929622692 L -5.362150096133307,16.3069675140487" fill="#000000" stroke="#000000" fill-rule="evenodd" />
    <path id="base_1" d="M -5.362150096133307,19.852040433502808 L -4.555159068575094,19.907370076264385 L -3.9230986114078226,20.073359004549104 L -3.4401142063661636,20.348350642226386 L -3.082551719718011,20.73068841316564 L -2.8605879299295056,21.22434810008028 L -2.7866000000000044,21.830654963874768 L -2.8275821619312156,22.289526552047093 L -2.950528647724849,22.68809876906609 L -3.1496634479812053,23.02438372357506 L -3.421410937833799,23.296393524217287 L -3.762195492416155,23.511417105967354 L -4.170641871395005,23.674092881990905 L -4.689107477034825,23.77646928686112 L -5.362150096133308,23.81059475515119 L -6.163365114291821,23.755596427615732 L -6.793500234992527,23.590601445009362 L -7.276484640034184,23.317266383462666 L -7.636247511215556,22.934597297297294 L -7.859036445204019,22.440606295156545 L -7.9332994232001735,21.830654963874768 L -7.802651591540273,21.047425769333692 L -7.410708096560566,20.45238362322719 L -6.583913608203377,20.002126230933904 L -5.362150096133307,19.852040433502808 M -5.362150096133308,20.61804123628579 L -6.39578073061312,20.70550845598073 L -7.014638880581075,20.96791011506556 L -7.322417667165139,21.358530766657747 L -7.425010596026494,21.830654963874768 L -7.321867571031834,22.303773106770137 L -7.0124384960478565,22.694725073588437 L -6.393580346079901,22.957126732673267 L -5.362150096133308,23.044593952368214 L -4.326044029053625,22.957126732673267 L -3.708561119418932,22.694725073588437 L -3.4016074770348235,22.301785215413435 L -3.299289596240123,21.822703398447953 L -3.389505362102118,21.361181288466682 L -3.660152659688104,21.00236689858175 L -4.315592202520832,20.71412265185978 L -5.362150096133308,20.61804123628579" fill="#000000" stroke="#000000" fill-rule="evenodd" />
    <path id="base_1" d="M -6.682380816064947,24.27443607171528 L -6.627371202734463,24.991402221032917 L -6.989059410382402,25.123265681027558 L -7.235777526169627,25.33862057800374 L -7.377702328562278,25.631834553117475 L -7.425010596026495,25.99727524752475 L -7.3922798760948565,26.319313647310672 L -7.2940877162999405,26.5989436981536 L -7.141436039307844,26.835171454375168 L -6.945326767784667,27.02435244848809 L -6.688431873531301,27.176426137275886 L -6.355623712881867,27.301331977522075 L -5.98045814996796,27.38581736018196 L -5.598691433454395,27.413979154401925 L -5.5475324930570435,27.412985208723576 L -5.475469899594108,27.410003371688525 L -5.742816620380265,27.145282506020877 L -5.955153727835937,26.799058094728395 L -6.092952809228802,26.39584746454376 L -6.138885836359757,25.96016794219963 L -6.025566032898957,25.264074652127373 L -5.68560662251656,24.683941691196143 L -5.159164622943819,24.293321039603967 L -4.4885974364452075,24.1631141557399 L -3.7965765007477073,24.29928471367407 L -3.2541817133091255,24.707796387476584 L -2.903495428327285,25.32106087101954 L -2.7866000000000044,26.071489858175006 L -2.8528865840632394,26.638370210061545 L -3.0517463362529407,27.15422801712604 L -3.37245238196967,27.586594387208994 L -3.806478231147195,27.900349906341987 L -4.405807968382828,28.09118747658549 L -5.224626062807097,28.154799999999998 L -6.092127665028844,28.091518791811616 L -6.762694851527455,27.901675167246456 L -7.266582909634697,27.587919648113466 L -7.634047126682337,27.15025223441263 L -7.8584863490707155,26.608883154937118 L -7.933299423200174,25.981372116671125 L -7.851335099337752,25.33365084961198 L -7.605442127750485,24.816467781643027 L -7.210198055970951,24.45566550040139 L -6.682380816064947,24.27443607171528 M -4.457792052980136,27.326511934706982 L -3.9794834650715716,27.241032606368744 L -3.611744199957278,26.984594621354027 L -3.377403247169412,26.608883154937118 L -3.299289596240123,26.162932860583357 L -3.383454304635765,25.698097598340915 L -3.635948429822691,25.297537489965215 L -4.022666011536001,25.02122059138346 L -4.509501089510792,24.92911495852288 L -4.945452275154885,25.016582178217824 L -5.291737791070289,25.278983837302647 L -5.517002157658625,25.669604488894834 L -5.5920902798547365,26.14172868611185 L -5.517002157658625,26.613521568102755 L -5.291737791070289,26.99254618678084 L -4.932525016022222,27.243020497725446 L -4.457792052980136,27.326511934706982" fill="#000000" stroke="#000000" fill-rule="evenodd" />
  </g>
  <g >
    <path id="base_2" d="M 34.5,4.5 L 29.4,4.5 L 29.4,-0.5999999999999996 L 34.5,-0.5999999999999992 L 34.5,4.5" fill="#000000" stroke="none" />
    <path id="base_2" d="M 10.6,4.499999999999997 L 5.5,4.4999999999999964 L 5.5,-0.6000000000000028 L 10.6,-0.6000000000000023 L 10.6,4.499999999999997" fill="#000000" stroke="none" />
    <path id="base_2" d="M 29.020000000000003,4.5 L 28.72158415841584,4.5 L 28.72158415841584,-0.6000000000000001 L 29.020000000000003,-0.6000000000000001 L 29.020000000000003,4.5" fill="#000000" stroke="none" />
    <path id="base_2" d="M 28.482376237623765,4.5 L 28.363168316831683,4.5 L 28.363168316831683,-0.6000000000000001 L 28.482376237623765,-0.6000000000000001 L 28.482376237623765,4.5" fill="#000000" stroke="none" />
    <path id="base_2" d="M 27.944752475247526,4.5 L 27.467128712871286,4.5 L 27.467128712871286,-0.6000000000000001 L 27.944752475247526,-0.6000000000000001 L 27.944752475247526,4.5" fill="#000000" stroke="none" />
    <path id="base_2" d="M 27.04871287128713,4.5 L 26.391881188118813,4.5 L 26.391881188118813,-0.6000000000000001 L 27.04871287128713,-0.6000000000000001 L 27.04871287128713,4.5" fill="#000000" stroke="none" />
    <path id="base_2" d="M 26.152673267326733,4.5 L 26.033465346534655,4.5 L 26.033465346534655,-0.6000000000000001 L 26.152673267326733,-0.6000000000000001 L 26.152673267326733,4.5" fill="#000000" stroke="none" />
    <path id="base_2" d="M 25.794257425742572,4.5 L 25.316633663366336,4.499999999999999 L 25.316633663366336,-0.6000000000000005 L 25.794257425742572,-0.6000000000000001 L 25.794257425742572,4.5" fill="#000000" stroke="none" />
    <path id="base_2" d="M 25.077425742574256,4.499999999999999 L 24.958217821782178,4.499999999999999 L 24.958217821782178,-0.6000000000000005 L 25.077425742574256,-0.6000000000000005 L 25.077425742574256,4.499999999999999" fill="#000000" stroke="none" />
    <path id="base_2" d="M 24.7190099009901,4.499999999999999 L 24.42059405940594,4.499999999999999 L 24.42059405940594,-0.6000000000000005 L 24.7190099009901,-0.6000000000000005 L 24.7190099009901,4.499999999999999" fill="#000000" stroke="none" />
    <path id="base_2" d="M 23.822970297029702,4.499999999999999 L 23.345346534653462,4.499999999999999 L 23.345346534653466,-0.6000000000000005 L 23.822970297029702,-0.6000000000000005 L 23.822970297029702,4.499999999999999" fill="#000000" stroke="none" />
    <path id="base_2" d="M 23.106138613861383,4.499999999999999 L 22.986930693069304,4.499999999999999 L 22.986930693069304,-0.6000000000000005 L 23.106138613861386,-0.6000000000000005 L 23.106138613861383,4.499999999999999" fill="#000000" stroke="none" />
    <path id="base_2" d="M 22.568514851485148,4.499999999999999 L 22.27009900990099,4.499999999999999 L 22.27009900990099,-0.6000000000000005 L 22.568514851485148,-0.6000000000000005 L 22.568514851485148,4.499999999999999" fill="#000000" stroke="none" />
    <path id="base_2" d="M 22.03089108910891,4.499999999999999 L 21.553267326732673,4.499999999999998 L 21.553267326732673,-0.600000000000001 L 22.03089108910891,-0.6000000000000005 L 22.03089108910891,4.499999999999999" fill="#000000" stroke="none" />
    <path id="base_2" d="M 21.134851485148513,4.499999999999998 L 20.836435643564354,4.499999999999998 L 20.836435643564354,-0.600000000000001 L 21.134851485148513,-0.600000000000001 L 21.134851485148513,4.499999999999998" fill="#000000" stroke="none" />
    <path id="base_2" d="M 20.238811881188116,4.499999999999998 L 20.119603960396038,4.499999999999998 L 20.119603960396038,-0.600000000000001 L 20.238811881188116,-0.600000000000001 L 20.238811881188116,4.499999999999998" fill="#000000" stroke="none" />
    <path id="base_2" d="M 19.701188118811878,4.499999999999998 L 19.5819801980198,4.499999999999998 L 19.5819801980198,-0.600000000000001 L 19.701188118811878,-0.600000000000001 L 19.701188118811878,4.499999999999998" fill="#000000" stroke="none" />
    <path id="base_2" d="M 19.163564356435643,4.499999999999998 L 18.865148514851484,4.499999999999998 L 18.865148514851484,-0.600000000000001 L 19.163564356435643,-0.600000000000001 L 19.163564356435643,4.499999999999998" fill="#000000" stroke="none" />
    <path id="base_2" d="M 18.6259405940594,4.499999999999998 L 18.327524752475245,4.499999999999998 L 18.327524752475245,-0.600000000000001 L 18.6259405940594,-0.600000000000001 L 18.6259405940594,4.499999999999998" fill="#000000" stroke="none" />
    <path id="base_2" d="M 17.909108910891085,4.499999999999998 L 17.610693069306926,4.499999999999998 L 17.610693069306926,-0.6000000000000014 L 17.909108910891085,-0.6000000000000014 L 17.909108910891085,4.499999999999998" fill="#000000" stroke="none" />
    <path id="base_2" d="M 17.19227722772277,4.499999999999998 L 16.89386138613861,4.499999999999998 L 16.89386138613861,-0.6000000000000014 L 17.19227722772277,-0.6000000000000014 L 17.19227722772277,4.499999999999998" fill="#000000" stroke="none" />
    <path id="base_2" d="M 16.475445544554454,4.499999999999998 L 16.35623762376237,4.499999999999998 L 16.35623762376237,-0.6000000000000014 L 16.475445544554454,-0.6000000000000014 L 16.475445544554454,4.499999999999998" fill="#000000" stroke="none" />
    <path id="base_2" d="M 15.937821782178213,4.499999999999998 L 15.818613861386135,4.499999999999998 L 15.818613861386135,-0.6000000000000014 L 15.937821782178213,-0.6000000000000014 L 15.937821782178213,4.499999999999998" fill="#000000" stroke="none" />
    <path id="base_2" d="M 15.220990099009898,4.499999999999998 L 14.922574257425739,4.499999999999998 L 14.922574257425739,-0.6000000000000014 L 15.220990099009898,-0.6000000000000014 L 15.220990099009898,4.499999999999998" fill="#000000" stroke="none" />
    <path id="base_2" d="M 14.50415841584158,4.499999999999998 L 14.026534653465344,4.499999999999998 L 14.026534653465344,-0.6000000000000019 L 14.50415841584158,-0.6000000000000019 L 14.50415841584158,4.499999999999998" fill="#000000" stroke="none" />
    <path id="base_2" d="M 13.608118811881184,4.499999999999998 L 13.488910891089104,4.499999999999998 L 13.488910891089104,-0.6000000000000019 L 13.608118811881184,-0.6000000000000019 L 13.608118811881184,4.499999999999998" fill="#000000" stroke="none" />
    <path id="base_2" d="M 13.249702970297024,4.499999999999998 L 12.951287128712867,4.499999999999998 L 12.951287128712867,-0.6000000000000019 L 13.249702970297024,-0.6000000000000019 L 13.249702970297024,4.499999999999998" fill="#000000" stroke="none" />
    <path id="base_2" d="M 12.353663366336628,4.499999999999998 L 11.876039603960388,4.499999999999998 L 11.876039603960388,-0.6000000000000019 L 12.353663366336628,-0.6000000000000019 L 12.353663366336628,4.499999999999998" fill="#000000" stroke="none" />
    <path id="base_2" d="M 11.636831683168312,4.499999999999998 L 11.517623762376232,4.499999999999998 L 11.517623762376232,-0.6000000000000019 L 11.636831683168312,-0.6000000000000019 L 11.636831683168312,4.499999999999998" fill="#000000" stroke="none" />
    <path id="base_2" d="M 11.278415841584154,4.499999999999998 L 10.979999999999993,4.499999999999998 L 10.979999999999993,-0.6000000000000019 L 11.278415841584154,-0.6000000000000019 L 11.278415841584154,4.499999999999998" fill="#000000" stroke="none" />
    <path id="base_2" d="M 29.537061814289537,-4.437705618457594 L 29.537061814289537,-3.594039735099337 L 31.0,-3.594039735099336 L 31.0,-3.19720145268105 L 29.46126572116671,-0.9146122623371071 L 29.123494781910622,-0.9146122623371071 L 29.123494781910622,-3.197201452681051 L 28.66798233877442,-3.197201452681051 L 28.66798233877442,-3.594039735099337 L 29.123494781910622,-3.594039735099337 L 29.123494781910622,-4.437705618457594 L 29.537061814289537,-4.437705618457594 M 29.537061814289537,-3.197201452681051 L 29.537061814289537,-1.609079256569109 L 30.593055927214344,-3.197201452681051 L 29.537061814289537,-3.197201452681051" fill="#000000" stroke="#000000" fill-rule="evenodd" />
    <path id="base_2" d="M 28.47002943537597,-3.5079042939542826 L 28.056462402997056,-3.4502243110446478 L 27.96006154669521,-3.7665028839991446 L 27.813620551244313,-3.980111087374492 L 27.623578405137813,-4.101815851313821 L 27.396374096869145,-4.142384105960264 L 27.127040406743376,-4.089510788293099 L 26.903331549371153,-3.930890835291604 L 26.75210730532513,-3.6940183721427045 L 26.70169922397645,-3.406387524033326 L 26.74824391222906,-3.134907071138645 L 26.88787797698689,-2.915723136082033 L 27.099444741771475,-2.770369579149754 L 27.361787530104362,-2.721918393505661 L 27.493326866470433,-2.7338389233069855 L 27.653933636606904,-2.769600512710959 L 27.607572919454107,-2.389681691946165 L 27.570410757291945,-2.3937192907498397 L 27.54134332352154,-2.3950651570177306 L 27.289854830077605,-2.359111301004058 L 27.065226117206315,-2.2512497329630414 L 26.906275086968158,-2.067635120700704 L 26.853291410222106,-1.8059602649006625 L 26.89192534118277,-1.5886989959410376 L 27.007827134064758,-1.4121982482375555 L 27.184071447685312,-1.294531083101901 L 27.405204709660154,-1.255308694723349 L 27.626521942734815,-1.2951078829309979 L 27.80773347605031,-1.4145054475539411 L 27.940008696815628,-1.6125400555436866 L 28.014516992239763,-1.8897885067293303 L 28.42881990901793,-1.8128818628498178 L 28.30482338774418,-1.4271950437940615 L 28.084426010168585,-1.1391796624652852 L 27.78234546427616,-0.9597949156163215 L 27.414771206850414,-0.8999999999999999 L 27.14985282312015,-0.930954924161504 L 26.907010971367406,-1.0238196966460156 L 26.701883195076263,-1.1701345866267894 L 26.551578806529303,-1.3614398632770777 L 26.45885737222371,-1.5819696646015804 L 26.427950227455177,-1.8159581286049984 L 26.45738560342521,-2.0336039307840204 L 26.545691731335296,-2.231254005554368 L 26.690844929087504,-2.399679555650502 L 26.892293283382394,-2.529651783806878 L 26.62682298635269,-2.640205084383678 L 26.427950227455177,-2.8288186284981838 L 26.303769735081616,-3.084340952787865 L 26.262376237623762,-3.3971587267677843 L 26.34295557934172,-3.8234138004699845 L 26.584693604495584,-4.17929929502243 L 26.9489563821247,-4.419824823755608 L 27.3985817500669,-4.5 L 27.804789938453304,-4.430976287118137 L 28.135937918116134,-4.223905148472548 L 28.365901792881992,-3.906472975859859 L 28.47002943537597,-3.5079042939542826" fill="#000000" stroke="#000000" fill-rule="evenodd" />
    <path id="base_2" d="M 24.508027829810008,-4.437705618457594 L 24.921594862188922,-4.437705618457594 L 24.921594862188922,-1.681371501815851 L 25.09434372491303,-1.8299935911130096 L 25.313821246989566,-1.9790002136295661 L 25.544153063955044,-2.109549241615039 L 25.749464811346,-2.2027985473189484 L 25.749464811346,-1.7844264046143983 L 25.424019935777363,-1.5958128604998927 L 25.142360181964143,-1.3714377269814144 L 24.920491035590047,-1.1320657979064301 L 24.774417982338775,-0.8999999999999999 L 24.508027829810008,-0.8999999999999999 L 24.508027829810008,-4.437705618457594" fill="#000000" stroke="#000000" fill-rule="evenodd" />
    <path id="base_2" d="M 24.31007492641156,-3.5079042939542826 L 23.896507894032645,-3.4502243110446478 L 23.8001070377308,-3.7665028839991446 L 23.653666042279905,-3.980111087374492 L 23.463623896173402,-4.101815851313821 L 23.236419587904734,-4.142384105960264 L 22.96708589777897,-4.089510788293101 L 22.74337704040674,-3.930890835291605 L 22.59215279636072,-3.6940183721427053 L 22.54174471501204,-3.406387524033327 L 22.58828940326465,-3.1349070711386458 L 22.727923468022478,-2.915723136082034 L 22.939490232807064,-2.770369579149755 L 23.20183302113995,-2.721918393505662 L 23.333372357506022,-2.7338389233069864 L 23.493979127642493,-2.76960051271096 L 23.447618410489696,-2.389681691946166 L 23.410456248327534,-2.3937192907498406 L 23.38138881455713,-2.3950651570177315 L 23.129900321113194,-2.359111301004059 L 22.905271608241904,-2.2512497329630423 L 22.746320578003747,-2.067635120700705 L 22.693336901257695,-1.8059602649006625 L 22.73197083221836,-1.5886989959410385 L 22.847872625100347,-1.4121982482375564 L 23.0241169387209,-1.294531083101902 L 23.245250200695747,-1.2553086947233507 L 23.466567433770404,-1.2951078829309988 L 23.647778967085898,-1.4145054475539411 L 23.780054187851217,-1.6125400555436866 L 23.854562483275355,-1.8897885067293303 L 24.26886540005352,-1.8128818628498178 L 24.14486887877977,-1.4271950437940615 L 23.924471501204174,-1.1391796624652852 L 23.622390955311747,-0.9597949156163224 L 23.254816697886003,-0.9000000000000008 L 22.98989831415574,-0.9309549241615049 L 22.747056462402995,-1.0238196966460165 L 22.541928686111856,-1.1701345866267903 L 22.391624297564892,-1.3614398632770777 L 22.2989028632593,-1.5819696646015813 L 22.267995718490766,-1.8159581286049993 L 22.297431094460798,-2.0336039307840212 L 22.385737222370885,-2.231254005554369 L 22.530890420123093,-2.399679555650503 L 22.732338774417983,-2.529651783806879 L 22.466868477388278,-2.640205084383679 L 22.267995718490766,-2.8288186284981847 L 22.143815226117205,-3.084340952787866 L 22.10242172865935,-3.397158726767785 L 22.18300107037731,-3.8234138004699854 L 22.424739095531173,-4.179299295022432 L 22.789001873160288,-4.419824823755608 L 23.23862724110249,-4.5 L 23.644835429488896,-4.430976287118137 L 23.975983409151727,-4.223905148472548 L 24.20594728391758,-3.906472975859859 L 24.31007492641156,-3.5079042939542826" fill="#000000" stroke="#000000" fill-rule="evenodd" />
    <path id="base_2" d="M 20.348073320845597,-4.437705618457596 L 20.76164035322451,-4.437705618457596 L 20.76164035322451,-1.681371501815852 L 20.93438921594862,-1.8299935911130105 L 21.153866738025155,-1.979000213629567 L 21.384198554990633,-2.10954924161504 L 21.58951030238159,-2.2027985473189493 L 21.58951030238159,-1.7844264046143992 L 21.26406542681295,-1.5958128604998936 L 20.982405672999732,-1.3714377269814153 L 20.760536526625636,-1.132065797906431 L 20.614463473374364,-0.9000000000000008 L 20.348073320845597,-0.9000000000000008 L 20.348073320845597,-4.437705618457596" fill="#000000" stroke="#000000" fill-rule="evenodd" />
    <path id="base_2" d="M 18.593724913031842,-4.437705618457596 L 19.007291945410756,-4.437705618457596 L 19.007291945410756,-1.681371501815852 L 19.180040808134866,-1.8299935911130105 L 19.3995183302114,-1.979000213629567 L 19.62985014717688,-2.10954924161504 L 19.835161894567836,-2.2027985473189493 L 19.835161894567836,-1.7844264046143992 L 19.509717018999197,-1.5958128604998936 L 19.228057265185978,-1.3714377269814153 L 19.00618811881188,-1.132065797906431 L 18.86011506556061,-0.9000000000000008 L 18.593724913031842,-0.9000000000000008 L 18.593724913031842,-4.437705618457596" fill="#000000" stroke="#000000" fill-rule="evenodd" />
    <path id="base_2" d="M 18.397979662831148,-2.7003845332193985 L 18.36725648916243,-2.1362743003631706 L 18.275086968156273,-1.6944456312753693 L 18.122390955311747,-1.3568254646443072 L 17.91008830612791,-1.1068788720358902 L 17.63597136740701,-0.9517197180089734 L 17.2993042547498,-0.9000000000000008 L 17.044504281509234,-0.9286477248451193 L 16.823187048434573,-1.0145908993804746 L 16.6364563821247,-1.1537919248023933 L 16.485416109178484,-1.3437513351847898 L 16.36601886540005,-1.5819696646015822 L 16.275689055392025,-1.8674855800042738 L 16.218841985549904,-2.229908139286479 L 16.1998929622692,-2.7003845332193994 L 16.230432164838103,-3.260457167271952 L 16.322049772544823,-3.7009399700918624 L 16.47382592989029,-4.038560136722923 L 16.686312550173938,-4.29004486220893 L 16.960613459994647,-4.445780816064943 L 17.2993042547498,-4.497692800683614 L 17.734211934706984,-4.4063661610766935 L 18.064624029970563,-4.132386242255929 L 18.314640754616,-3.5544328135013887 L 18.397979662831148,-2.7003845332193985 M 17.972638480064223,-2.7003845332193985 L 17.924070109713675,-3.422922452467422 L 17.778364998662028,-3.8555223242896823 L 17.56146307198287,-4.070668660542619 L 17.2993042547498,-4.142384105960264 L 17.036593524217285,-4.070284127323221 L 16.81950762643832,-3.8539841914120916 L 16.673802515386672,-3.421384319589832 L 16.625234145036124,-2.7003845332193985 L 16.673802515386672,-1.9761162144840854 L 16.81950762643832,-1.544477675710319 L 17.03769735081616,-1.3299081392864776 L 17.303719561145304,-1.2583849604785304 L 17.559991303184372,-1.3214484084597315 L 17.759232004281507,-1.5106387524033331 L 17.919286861118543,-1.9688100833155313 L 17.972638480064223,-2.7003845332193985" fill="#000000" stroke="#000000" fill-rule="evenodd" />
    <path id="base_2" d="M 16.0041477120685,-2.7003845332193994 L 15.973424538399787,-2.1362743003631715 L 15.88125501739363,-1.6944456312753702 L 15.728559004549103,-1.356825464644308 L 15.516256355365266,-1.106878872035891 L 15.242139416644367,-0.9517197180089743 L 14.905472303987155,-0.9000000000000017 L 14.650672330746588,-0.9286477248451201 L 14.429355097671928,-1.0145908993804764 L 14.242624431362055,-1.1537919248023942 L 14.091584158415841,-1.3437513351847907 L 13.972186914637408,-1.5819696646015822 L 13.881857104629383,-1.8674855800042738 L 13.825010034787264,-2.229908139286479 L 13.806061011506555,-2.7003845332193994 L 13.83660021407546,-3.260457167271952 L 13.928217821782177,-3.7009399700918624 L 14.079993979127643,-4.038560136722923 L 14.292480599411292,-4.290044862208932 L 14.566781509232005,-4.445780816064945 L 14.905472303987155,-4.497692800683616 L 15.34037998394434,-4.406366161076695 L 15.67079207920792,-4.132386242255929 L 15.920808803853356,-3.5544328135013896 L 16.0041477120685,-2.7003845332193994 M 15.578806529301579,-2.7003845332193994 L 15.530238158951029,-3.422922452467423 L 15.384533047899383,-3.8555223242896832 L 15.167631121220229,-4.070668660542621 L 14.905472303987155,-4.142384105960266 L 14.64276157345464,-4.070284127323223 L 14.425675675675674,-3.8539841914120925 L 14.27997056462403,-3.421384319589833 L 14.231402194273482,-2.7003845332193994 L 14.27997056462403,-1.9761162144840863 L 14.425675675675674,-1.5444776757103198 L 14.643865400053517,-1.3299081392864784 L 14.90988761038266,-1.2583849604785313 L 15.166159352421726,-1.3214484084597324 L 15.365400053518865,-1.510638752403334 L 15.5254549103559,-1.9688100833155322 L 15.578806529301579,-2.7003845332193994" fill="#000000" stroke="#000000" fill-rule="evenodd" />
    <path id="base_2" d="M 13.61031576130586,-2.7003845332193994 L 13.57959258763714,-2.1362743003631715 L 13.487423066630985,-1.6944456312753702 L 13.334727053786459,-1.356825464644308 L 13.122424404602622,-1.106878872035891 L 12.848307465881721,-0.9517197180089743 L 12.51164035322451,-0.9000000000000017 L 12.256840379983945,-0.9286477248451201 L 12.035523146909288,-1.0145908993804764 L 11.84879248059941,-1.1537919248023942 L 11.697752207653195,-1.3437513351847907 L 11.578354963874764,-1.5819696646015822 L 11.488025153866735,-1.8674855800042738 L 11.431178084024616,-2.229908139286479 L 11.412229060743911,-2.7003845332193994 L 11.442768263312818,-3.260457167271952 L 11.534385871019534,-3.7009399700918624 L 11.686162028364999,-4.038560136722923 L 11.898648648648647,-4.290044862208932 L 12.172949558469359,-4.445780816064945 L 12.51164035322451,-4.497692800683616 L 12.946548033181696,-4.406366161076695 L 13.276960128445277,-4.132386242255929 L 13.526976853090716,-3.5544328135013896 L 13.61031576130586,-2.7003845332193994 M 13.184974578538935,-2.7003845332193994 L 13.136406208188387,-3.422922452467423 L 12.99070109713674,-3.8555223242896832 L 12.773799170457586,-4.070668660542621 L 12.51164035322451,-4.142384105960266 L 12.248929622692,-4.070284127323223 L 12.031843724913031,-3.8539841914120925 L 11.886138613861384,-3.421384319589833 L 11.837570243510834,-2.7003845332193994 L 11.886138613861384,-1.9761162144840863 L 12.031843724913031,-1.5444776757103198 L 12.250033449290873,-1.3299081392864784 L 12.516055659620015,-1.2583849604785313 L 12.772327401659085,-1.3214484084597324 L 12.97156810275622,-1.510638752403334 L 13.131622959593257,-1.9688100833155322 L 13.184974578538935,-2.7003845332193994" fill="#000000" stroke="#000000" fill-rule="evenodd" />
    <path id="base_2" d="M 11.154669521006152,-3.623264259773554 L 10.756556061011503,-3.584810937833798 L 10.68333556328606,-3.8376415295876964 L 10.563754348407814,-4.0101046784875045 L 10.400939925073587,-4.109314249092076 L 10.198019801980196,-4.142384105960266 L 10.019199892962272,-4.119504379406111 L 9.86392828472036,-4.050865199743646 L 9.732756890553919,-3.9441572313608213 L 9.627709392560876,-3.80707113864559 L 9.543266657746855,-3.6274941251869275 L 9.473909553117474,-3.3948515274514004 L 9.426996922665241,-3.132599871822262 L 9.41135937918116,-2.865733817560352 L 9.411911292480598,-2.8299722281563784 L 9.41356703237891,-2.7795983764152976 L 9.560559941129245,-2.9664815210425135 L 9.7528097404335,-3.114911343729974 L 9.976702568905534,-3.211236915189063 L 10.218624565159216,-3.24334543900876 L 10.605147845865668,-3.164131595812862 L 10.927281241637678,-2.9264900662251665 L 11.144183168316827,-2.558491775261697 L 11.216483810543213,-2.089745780816066 L 11.140871688520201,-1.6060029908139302 L 10.914035322451163,-1.2268532364879312 L 10.57350481669788,-0.9817133091219845 L 10.156810275622155,-0.9000000000000017 L 9.842035723842654,-0.946336252937408 L 9.555592721434303,-1.0853450117496277 L 9.315510436178752,-1.309527878658408 L 9.141289804656138,-1.6129245887630863 L 9.035322451164037,-2.031873531296734 L 9.0,-2.6042512283700083 L 9.03513848006422,-3.210660115359968 L 9.140553920256888,-3.679406109805598 L 9.314774551779497,-4.031638538773768 L 9.557800374632057,-4.28850672933134 L 9.858409151725981,-4.445396282845547 L 10.206850414771205,-4.497692800683616 L 10.566513914905006,-4.440397350993379 L 10.853692801712604,-4.268511001922668 L 11.054037329408613,-3.9922238837855173 L 11.154669521006152,-3.623264259773554 M 9.45992774953171,-2.068211920529803 L 9.507392293283381,-1.7338602862636203 L 9.6497859245384,-1.4767998290963482 L 9.858409151725981,-1.3129886776329855 L 10.106034252073854,-1.2583849604785313 L 10.36414570511105,-1.317218543046359 L 10.586566764784584,-1.493719290749841 L 10.739998662028365,-1.7640461439863295 L 10.79114262777629,-2.1043580431531743 L 10.742574257425739,-2.4091006195257436 L 10.596869146374097,-2.6511642811365106 L 10.379967219694942,-2.808630634479813 L 10.117808402461868,-2.8611194189275806 L 9.855833556328605,-2.808630634479813 L 9.645370618142895,-2.6511642811365106 L 9.506288466684506,-2.4000640888699007 L 9.45992774953171,-2.068211920529803" fill="#000000" stroke="#000000" fill-rule="evenodd" />
  </g>
</svg>