<?xml version="1.0" encoding="UTF-8" standalone="no"?>
<svg width="83.5mm" height="83.5mm" viewBox="-41.75 -41.75 83.5 83.5" xmlns="http://www.w3.org/2000/svg">
  <path id="barcode_guard" d="M -2.5750000000000015 19.81 L -2.575000000000001 16.61 L 2.5749999999999993 16.61 L 2.574999999999999 19.81 Z" fill="#000000" stroke="none" />
  <path id="barcode_guard" d="M -2.5749999999999993 -16.61 L -2.574999999999999 -19.81 L 2.5750000000000015 -19.81 L 2.575000000000001 -16.61 Z" fill="#000000" stroke="none" />
  <path id="barcode" d="M -2.575000000000001 16.159999999999997 L -2.575000000000001 15.618019801980196 L 2.5749999999999993 15.618019801980196 L 2.5749999999999993 16.159999999999997 Z" fill="#000000" stroke="none" />
  <path id="barcode" d="M -2.575000000000001 15.197029702970296 L -2.575000000000001 14.976039603960395 L 2.5749999999999993 14.976039603960395 L 2.5749999999999993 15.197029702970296 Z" fill="#000000" stroke="none" />
  <path id="barcode" d="M -2.575000000000001 14.234059405940592 L -2.575000000000001 13.371089108910889 L 2.5749999999999993 13.371089108910889 L 2.5749999999999993 14.234059405940592 Z" fill="#000000" stroke="none" />
  <path id="barcode" d="M -2.575000000000001 12.629108910891084 L -2.575000000000001 11.445148514851482 L 2.5749999999999993 11.445148514851482 L 2.5749999999999993 12.629108910891084 Z" fill="#000000" stroke="none" />
  <path id="barcode" d="M -2.575000000000001 11.024158415841578 L -2.5750000000000006 10.80316831683168 L 2.5749999999999997 10.80316831683168 L 2.5749999999999993 11.024158415841578 Z" fill="#000000" stroke="none" />
  <path id="barcode" d="M -2.5750000000000006 10.382178217821776 L -2.5750000000000006 9.519207920792075 L 2.5749999999999997 9.519207920792075 L 2.5749999999999997 10.382178217821776 Z" fill="#000000" stroke="none" />
  <path id="barcode" d="M -2.5750000000000006 9.098217821782173 L -2.5750000000000006 8.877227722772274 L 2.5749999999999997 8.877227722772274 L 2.5749999999999997 9.098217821782173 Z" fill="#000000" stroke="none" />
  <path id="barcode" d="M -2.5750000000000006 8.456237623762371 L -2.5750000000000006 7.914257425742569 L 2.5749999999999997 7.914257425742569 L 2.5749999999999997 8.456237623762371 Z" fill="#000000" stroke="none" />
  <path id="barcode" d="M -2.5750000000000006 6.851287128712867 L -2.5750000000000006 5.9883168316831625 L 2.5749999999999997 5.9883168316831625 L 2.5749999999999997 6.851287128712867 Z" fill="#000000" stroke="none" />
  <path id="barcode" d="M -2.5750000000000006 5.567326732673262 L -2.5750000000000006 5.346336633663361 L 2.5749999999999997 5.346336633663361 L 2.5749999999999997 5.567326732673262 Z" fill="#000000" stroke="none" />
  <path id="barcode" d="M -2.5750000000000006 4.60435643564356 L -2.5750000000000006 4.062376237623755 L 2.5749999999999997 4.062376237623755 L 2.5749999999999997 4.60435643564356 Z" fill="#000000" stroke="none" />
  <path id="barcode" d="M -2.5750000000000006 3.6413861386138544 L -2.575 2.778415841584151 L 2.575 2.778415841584151 L 2.5749999999999997 3.6413861386138544 Z" fill="#000000" stroke="none" />
  <path id="barcode" d="M -2.575 2.03643564356435 L -2.575 1.4944554455445476 L 2.575 1.494455445544548 L 2.575 2.03643564356435 Z" fill="#000000" stroke="none" />
  <path id="barcode" d="M -2.575 0.4314851485148427 L -2.575 0.2104950495049418 L 2.575 0.21049504950494213 L 2.575 0.43148514851484304 Z" fill="#000000" stroke="none" />
  <path id="barcode" d="M -2.575 -0.5314851485148601 L -2.575 -0.7524752475247609 L 2.575 -0.7524752475247607 L 2.575 -0.5314851485148598 Z" fill="#000000" stroke="none" />
  <path id="barcode" d="M -2.575 -1.4944554455445629 L -2.575 -2.036435643564365 L 2.575 -2.036435643564365 L 2.575 -1.4944554455445624 Z" fill="#000000" stroke="none" />
  <path id="barcode" d="M -2.575 -2.4574257425742654 L -2.575 -2.9994059405940696 L 2.575 -2.9994059405940696 L 2.575 -2.4574257425742654 Z" fill="#000000" stroke="none" />
  <path id="barcode" d="M -2.5749999999999997 -3.741386138613871 L -2.5749999999999997 -4.283366336633673 L 2.5750000000000006 -4.283366336633673 L 2.5750000000000006 -3.741386138613871 Z" fill="#000000" stroke="none" />
  <path id="barcode" d="M -2.5749999999999997 -5.025346534653475 L -2.5749999999999997 -5.567326732673277 L 2.5750000000000006 -5.567326732673277 L 2.5750000000000006 -5.025346534653475 Z" fill="#000000" stroke="none" />
  <path id="barcode" d="M -2.5749999999999997 -6.3093069306930785 L -2.5749999999999997 -6.530297029702982 L 2.5750000000000006 -6.530297029702982 L 2.5750000000000006 -6.3093069306930785 Z" fill="#000000" stroke="none" />
  <path id="barcode" d="M -2.5749999999999997 -7.593267326732682 L -2.5749999999999997 -7.814257425742586 L 2.5750000000000006 -7.814257425742586 L 2.5750000000000006 -7.593267326732682 Z" fill="#000000" stroke="none" />
  <path id="barcode" d="M -2.5749999999999997 -8.556237623762389 L -2.5749999999999997 -9.419207920792092 L 2.5750000000000006 -9.419207920792092 L 2.5750000000000006 -8.556237623762389 Z" fill="#000000" stroke="none" />
  <path id="barcode" d="M -2.5749999999999997 -9.840198019801992 L -2.5749999999999997 -10.061188118811895 L 2.5750000000000006 -10.061188118811895 L 2.5750000000000006 -9.840198019801992 Z" fill="#000000" stroke="none" />
  <path id="barcode" d="M -2.5749999999999997 -10.803168316831698 L -2.5749999999999993 -11.345148514851498 L 2.575000000000001 -11.345148514851498 L 2.5750000000000006 -10.803168316831698 Z" fill="#000000" stroke="none" />
  <path id="barcode" d="M -2.5749999999999993 -12.087128712871301 L -2.5749999999999993 -12.629108910891102 L 2.575000000000001 -12.629108910891102 L 2.575000000000001 -12.087128712871301 Z" fill="#000000" stroke="none" />
  <path id="barcode" d="M -2.5749999999999993 -13.692079207920807 L -2.5749999999999993 -14.555049504950507 L 2.575000000000001 -14.555049504950507 L 2.575000000000001 -13.692079207920807 Z" fill="#000000" stroke="none" />
  <path id="barcode" d="M -2.5749999999999993 -14.976039603960412 L -2.5749999999999993 -15.197029702970314 L 2.575000000000001 -15.197029702970314 L 2.575000000000001 -14.976039603960412 Z" fill="#000000" stroke="none" />
  <path id="barcode" d="M -2.5749999999999993 -15.618019801980214 L -2.5749999999999993 -16.160000000000014 L 2.575000000000001 -16.160000000000014 L 2.575000000000001 -15.618019801980214 Z" fill="#000000" stroke="none" />
  <path id="text" d="M 4.36411557359539 -17.094167988414593 L 5.571026490066229 -17.094167988414593 L 5.571026490066229 -19.81 L 6.138725699636834 -19.81 L 9.40409634693442 -16.95345838218054 L 9.40409634693442 -16.32641266119578 L 6.138725699636833 -16.32641266119578 L 6.138725699636833 -15.480788911109581 L 5.571026490066228 -15.480788911109581 L 5.571026490066229 -16.32641266119578 L 4.36411557359539 -16.32641266119578 L 4.36411557359539 -17.094167988414593 Z M 6.138725699636833 -17.094167988414593 L 8.410622730185862 -17.094167988414593 L 6.138725699636834 -19.054539686918144 L 6.138725699636833 -17.094167988414593 Z" fill="#000000" fill-rule="evenodd" stroke="#000000" />
  <path id="text" d="M 5.694248023926515 -15.113304599682781 L 5.776762443922242 -14.345549272463968 L 5.324308374279004 -14.166588511137162 L 5.018729972228159 -13.894732087442247 L 4.844624546037175 -13.541933487345702 L 4.786589403973512 -13.120146196814014 L 4.86222762230293 -12.620148955244467 L 5.089142277291179 -12.204850699951727 L 5.428001495406967 -11.924114543824565 L 5.839473403118994 -11.83053582511551 L 6.227841273232219 -11.916942452244673 L 6.541396069215983 -12.176162333632165 L 6.749332407605216 -12.568919729673816 L 6.818644520401627 -13.055938900765465 L 6.801591540269177 -13.300131542652231 L 6.750432599871826 -13.598285635473417 L 7.293927579577017 -13.512220536514723 L 7.288151570177316 -13.443231846079582 L 7.2862262337107495 -13.389270395145163 L 7.337660222174753 -12.922401386111304 L 7.491962187566762 -12.50539548996621 L 7.754633091219828 -12.210315150679264 L 8.128973509933777 -12.111955037583616 L 8.439777825251017 -12.183675953382528 L 8.692271950437943 -12.398838700779256 L 8.860601367229227 -12.726022688090477 L 8.916711172826322 -13.136539548996621 L 8.859776223029272 -13.547397938073237 L 8.688971373638115 -13.883803185987174 L 8.405671864986118 -14.129361940555825 L 8.009052552873321 -14.26768084959658 L 8.119071779534291 -15.036802289497277 L 8.670818201239054 -14.80661230259982 L 9.082840205084388 -14.39746155437556 L 9.3394600512711 -13.836672298462176 L 9.425000000000002 -13.154299013861113 L 9.380717261268963 -12.66249844838287 L 9.247869045075841 -12.211681263361147 L 9.038557466353346 -11.830877353285981 L 8.764884640034184 -11.551848838011171 L 8.449404507583852 -11.379718640093788 L 8.114671010467852 -11.322341907454659 L 7.803316599017306 -11.37698641473002 L 7.520567186498614 -11.5409199365561 L 7.2796250801110896 -11.81038566305772 L 7.0936925870540515 -12.184359009723469 L 6.9355399487289064 -11.691533859733813 L 6.665717795342878 -11.322341907454659 L 6.300178914761806 -11.091810392386733 L 5.8526757103183105 -11.014966554030758 L 5.242894146549885 -11.164555892697056 L 4.733780175176246 -11.613323908695952 L 4.389695043794063 -12.289549686228536 L 4.275000000000002 -13.124244534859667 L 4.3737422559282235 -13.87833873525964 L 4.669969023712885 -14.49308944210744 L 5.124073381756038 -14.919999655196193 L 5.694248023926515 -15.113304599682781 Z" fill="#000000" fill-rule="evenodd" stroke="#000000" />
  <path id="text" d="M 4.364115573595388 -7.758153920419284 L 4.364115573595388 -8.525909247638095 L 8.307204657124549 -8.525909247638095 L 8.094592501602223 -8.846604199710367 L 7.881430249946595 -9.254047307082272 L 7.694672612689599 -9.681640576511965 L 7.561274300363173 -10.062786014757604 L 8.15977889339885 -10.062786014757604 L 8.429601046784878 -9.458622681194402 L 8.750582140568257 -8.935743052203298 L 9.093016983550527 -8.52386007861527 L 9.425000000000002 -8.252686711261294 L 9.425000000000002 -7.758153920419282 L 4.364115573595388 -7.758153920419284 Z" fill="#000000" fill-rule="evenodd" stroke="#000000" />
  <path id="text" d="M 5.694248023926514 -7.390669608992485 L 5.77676244392224 -6.622914281773672 L 5.324308374279002 -6.4439535204468665 L 5.018729972228157 -6.1720970967519495 L 4.844624546037173 -5.819298496655406 L 4.786589403973511 -5.397511206123717 L 4.862227622302929 -4.897513964554172 L 5.089142277291178 -4.482215709261432 L 5.428001495406966 -4.20147955313427 L 5.839473403118993 -4.107900834425214 L 6.227841273232217 -4.194307461554377 L 6.541396069215981 -4.453527342941868 L 6.749332407605214 -4.84628473898352 L 6.818644520401625 -5.333303910075169 L 6.801591540269175 -5.577496551961935 L 6.750432599871824 -5.87565064478312 L 7.293927579577015 -5.789585545824428 L 7.288151570177314 -5.720596855389286 L 7.286226233710748 -5.666635404454866 L 7.337660222174751 -5.199766395421008 L 7.49196218756676 -4.782760499275914 L 7.7546330912198265 -4.487680159988969 L 8.128973509933775 -4.389320046893319 L 8.439777825251017 -4.4610409626922305 L 8.692271950437942 -4.676203710088961 L 8.860601367229226 -5.003387697400182 L 8.916711172826322 -5.413904558306326 L 8.859776223029268 -5.82476294738294 L 8.688971373638115 -6.161168195296878 L 8.405671864986116 -6.406726949865528 L 8.00905255287332 -6.545045858906285 L 8.11907177953429 -7.31416729880698 L 8.670818201239053 -7.083977311909525 L 9.082840205084386 -6.674826563685264 L 9.339460051271098 -6.114037307771879 L 9.425 -5.431664023170818 L 9.38071726126896 -4.939863457692574 L 9.247869045075841 -4.489046272670851 L 9.038557466353344 -4.108242362595684 L 8.764884640034182 -3.8292138473208754 L 8.44940450758385 -3.6570836494034915 L 8.11467101046785 -3.599706916764363 L 7.803316599017305 -3.654351424039725 L 7.520567186498613 -3.818284945865804 L 7.279625080111089 -4.087750672367424 L 7.09369258705405 -4.461724019033173 L 6.935539948728906 -3.9688988690435165 L 6.665717795342877 -3.5997069167643634 L 6.300178914761805 -3.3691754016964373 L 5.85267571031831 -3.2923315633404617 L 5.242894146549884 -3.441920902006761 L 4.733780175176245 -3.890688918005657 L 4.389695043794062 -4.566914695538241 L 4.275000000000001 -5.40160954416937 L 4.373742255928223 -6.155703744569344 L 4.669969023712884 -6.7704544514171445 L 5.1240733817560375 -7.197364664505897 L 5.694248023926514 -7.390669608992485 Z" fill="#000000" fill-rule="evenodd" stroke="#000000" />
  <path id="text" d="M 4.364115573595386 -0.035518929728987736 L 4.364115573595386 -0.8032742569478009 L 8.307204657124547 -0.8032742569478 L 8.094592501602223 -1.1239692090200704 L 7.881430249946593 -1.5314123163919735 L 7.6946726126895975 -1.959005585821667 L 7.561274300363172 -2.3401510240673087 L 8.159778893398848 -2.3401510240673087 L 8.429601046784876 -1.7359876905041043 L 8.750582140568255 -1.2131080615130019 L 9.093016983550523 -0.8012250879249754 L 9.425 -0.5300517205709969 L 9.425 -0.03551892972898596 L 4.364115573595386 -0.035518929728987736 Z" fill="#000000" fill-rule="evenodd" stroke="#000000" />
  <path id="text" d="M 4.364115573595386 3.2212937038824885 L 4.364115573595386 2.4535383766636754 L 8.307204657124547 2.4535383766636754 L 8.094592501602222 2.132843424591404 L 7.881430249946593 1.7254003172194965 L 7.6946726126895975 1.2978070477898038 L 7.561274300363171 0.9166616095441666 L 8.159778893398848 0.9166616095441666 L 8.429601046784875 1.5208249431073666 L 8.750582140568255 2.0437045720984726 L 9.093016983550523 2.4555875456865026 L 9.425 2.7267609130404766 L 9.425 3.2212937038824885 L 4.364115573595386 3.2212937038824885 Z" fill="#000000" fill-rule="evenodd" stroke="#000000" />
  <path id="text" d="M 6.849449903866695 3.584679677263634 L 7.656440931424909 3.6417148817322937 L 8.28850138859218 3.812820495138266 L 8.77148579363384 4.096288876629196 L 9.129048280281992 4.490412385352731 L 9.351012070070496 4.999289359354525 L 9.425 5.624285911316458 L 9.384017838068788 6.097302427418794 L 9.261071352275154 6.508160816495411 L 9.061936552018798 6.854811909523478 L 8.790189062166203 7.13520653748017 L 8.449404507583848 7.356858320115852 L 8.040958128604998 7.5245486518171125 L 7.522492522965178 7.630080856492653 L 6.849449903866694 7.665258258051165 L 6.048234885708181 7.60856458175298 L 5.418099765007476 7.438483552858421 L 4.935115359965819 7.156722812219841 L 4.575352488784446 6.762257775325835 L 4.352563554795983 6.253039273153573 L 4.27830057679983 5.624285911316458 L 4.40894840845973 4.816913316323011 L 4.800891903439436 4.203528722157089 L 5.627686391796625 3.739391938486997 L 6.849449903866695 3.584679677263634 Z M 6.849449903866695 4.37429280739259 L 5.815819269386883 4.464456244396934 L 5.196961119418927 4.73494655540997 L 4.8891823328348645 5.13760826839528 L 4.786589403973509 5.624285911316458 L 4.889732428968169 6.111988138749049 L 5.199161503952147 6.514991379904829 L 5.818019653920102 6.785481690917865 L 6.849449903866695 6.875645127922209 L 7.885555970946378 6.785481690917865 L 8.503038880581071 6.514991379904829 L 8.809992522965178 6.109938969726223 L 8.91231040375988 5.616089235225155 L 8.822094637897884 5.140340493759045 L 8.5514473403119 4.770465485138954 L 7.896007797479171 4.473335976829181 L 6.849449903866695 4.37429280739259 Z" fill="#000000" fill-rule="evenodd" stroke="#000000" />
  <path id="text" d="M 6.849449903866694 8.02864423143231 L 7.656440931424908 8.085679435900968 L 8.28850138859218 8.256785049306941 L 8.771485793633838 8.540253430797872 L 9.12904828028199 8.934376939521407 L 9.351012070070496 9.4432539135232 L 9.424999999999999 10.068250465485136 L 9.384017838068788 10.541266981587473 L 9.261071352275152 10.952125370664088 L 9.061936552018798 11.298776463692153 L 8.790189062166203 11.579171091648849 L 8.449404507583848 11.800822874284528 L 8.040958128604998 11.96851320598579 L 7.522492522965177 12.074045410661327 L 6.849449903866693 12.10922281221984 L 6.048234885708181 12.052529135921656 L 5.418099765007476 11.882448107027098 L 4.935115359965819 11.60068736638852 L 4.575352488784446 11.206222329494516 L 4.352563554795983 10.697003827322249 L 4.278300576799829 10.068250465485136 L 4.408948408459729 9.260877870491687 L 4.800891903439435 8.647493276325765 L 5.627686391796624 8.183356492655676 L 6.849449903866694 8.02864423143231 Z M 6.849449903866694 8.818257361561265 L 5.815819269386882 8.908420798565611 L 5.196961119418926 9.178911109578646 L 4.889182332834864 9.581572822563956 L 4.786589403973508 10.068250465485136 L 4.889732428968168 10.555952692917728 L 5.199161503952146 10.958955934073508 L 5.818019653920102 11.229446245086542 L 6.849449903866694 11.319609682090885 L 7.885555970946378 11.229446245086542 L 8.503038880581071 10.958955934073508 L 8.809992522965178 10.553903523894899 L 8.912310403759879 10.06005378939383 L 8.822094637897884 9.584305047927728 L 8.5514473403119 9.21443003930763 L 7.89600779747917 8.917300530997856 L 6.849449903866694 8.818257361561265 Z" fill="#000000" fill-rule="evenodd" stroke="#000000" />
  <path id="text" d="M 4.364115573595384 15.366035445831319 L 4.364115573595384 14.598280118612504 L 8.307204657124544 14.598280118612504 L 8.09459250160222 14.277585166540234 L 7.8814302499465905 13.87014205916833 L 7.694672612689595 13.442548789738638 L 7.561274300363168 13.061403351492995 L 8.159778893398846 13.061403351492995 L 8.429601046784873 13.665566685056199 L 8.750582140568252 14.188446314047301 L 9.093016983550521 14.60032928763533 L 9.424999999999997 14.871502654989307 L 9.424999999999997 15.366035445831319 L 4.364115573595384 15.366035445831319 Z" fill="#000000" fill-rule="evenodd" stroke="#000000" />
  <path id="text" d="M 6.849449903866693 15.729421419212468 L 7.656440931424907 15.786456623681126 L 8.288501388592179 15.957562237087089 L 8.771485793633836 16.24103061857803 L 9.129048280281989 16.635154127301565 L 9.351012070070494 17.14403110130335 L 9.424999999999997 17.769027653265283 L 9.384017838068786 18.242044169367627 L 9.261071352275152 18.65290255844424 L 9.061936552018796 18.999553651472304 L 8.7901890621662 19.279948279428996 L 8.449404507583846 19.50160006206468 L 8.040958128604997 19.66929039376594 L 7.522492522965176 19.774822598441485 L 6.8494499038666925 19.81 L 6.04823488570818 19.75330632370181 L 5.418099765007474 19.58322529480725 L 4.935115359965817 19.301464554168675 L 4.575352488784445 18.906999517274667 L 4.352563554795982 18.397781015102403 L 4.278300576799827 17.769027653265283 L 4.408948408459727 16.96165505827184 L 4.8008919034394335 16.34827046410592 L 5.627686391796623 15.88413368043583 L 6.849449903866693 15.729421419212468 Z M 6.849449903866693 16.51903454934142 L 5.81581926938688 16.60919798634576 L 5.1969611194189245 16.879688297358797 L 4.889182332834862 17.282350010344114 L 4.786589403973506 17.769027653265283 L 4.889732428968166 18.256729880697883 L 5.199161503952144 18.659733121853662 L 5.8180196539201 18.93022343286669 L 6.8494499038666925 19.02038686987104 L 7.885555970946376 18.93022343286669 L 8.50303888058107 18.659733121853662 L 8.809992522965176 18.254680711675057 L 8.912310403759879 17.76083097717399 L 8.822094637897882 17.28508223570788 L 8.551447340311897 16.91520722708778 L 7.896007797479168 16.618077718778014 L 6.849449903866693 16.51903454934142 Z" fill="#000000" fill-rule="evenodd" stroke="#000000" />
</svg>