<?xml version="1.0" encoding="UTF-8" standalone="no"?>
<svg width="300mm" height="300mm" viewBox="-150.0 -150.0 300 300" xmlns="http://www.w3.org/2000/svg">
  <g transform="translate(0, 0) rotate(0) scale(1, 1) translate(0, 0)" >
    <path id="barcode" d="M -18.0,-10.0 L -17.6,-10.0 L -17.6,10.0 L -18.0,10.0 L -18.0,-10.0" fill="#000000" />
    <path id="barcode" d="M -17.6,-10.0 L -17.200000000000003,-10.0 L -17.200000000000003,10.0 L -17.6,10.0 L -17.6,-10.0" fill="#000000" />
    <path id="barcode" d="M -16.800000000000004,-10.0 L -16.400000000000006,-10.0 L -16.400000000000006,10.0 L -16.800000000000004,10.0 L -16.800000000000004,-10.0" fill="#000000" />
    <path id="barcode" d="M -15.600000000000007,-10.0 L -15.200000000000006,-10.0 L -15.200000000000006,10.0 L -15.600000000000007,10.0 L -15.600000000000007,-10.0" fill="#000000" />
    <path id="barcode" d="M -15.200000000000006,-10.0 L -14.800000000000006,-10.0 L -14.800000000000006,10.0 L -15.200000000000006,10.0 L -15.200000000000006,-10.0" fill="#000000" />
    <path id="barcode" d="M -14.800000000000006,-10.0 L -14.400000000000006,-10.0 L -14.400000000000006,10.0 L -14.800000000000006,10.0 L -14.800000000000006,-10.0" fill="#000000" />
    <path id="barcode" d="M -13.600000000000005,-10.0 L -13.200000000000005,-10.0 L -13.200000000000005,10.0 L -13.600000000000005,10.0 L -13.600000000000005,-10.0" fill="#000000" />
    <path id="barcode" d="M -12.800000000000004,-10.0 L -12.400000000000004,-10.0 L -12.400000000000004,10.0 L -12.800000000000004,10.0 L -12.800000000000004,-10.0" fill="#000000" />
    <path id="barcode" d="M -12.400000000000004,-10.0 L -12.000000000000004,-10.0 L -12.000000000000004,10.0 L -12.400000000000004,10.0 L -12.400000000000004,-10.0" fill="#000000" />
    <path id="barcode" d="M -10.800000000000002,-10.0 L -10.400000000000002,-10.0 L -10.400000000000002,10.0 L -10.800000000000002,10.0 L -10.800000000000002,-10.0" fill="#000000" />
    <path id="barcode" d="M -10.400000000000002,-10.0 L -10.000000000000002,-10.0 L -10.000000000000002,10.0 L -10.400000000000002,10.0 L -10.400000000000002,-10.0" fill="#000000" />
    <path id="barcode" d="M -10.000000000000002,-10.0 L -9.600000000000001,-10.0 L -9.600000000000001,10.0 L -10.000000000000002,10.0 L -10.000000000000002,-10.0" fill="#000000" />
    <path id="barcode" d="M -9.200000000000001,-10.0 L -8.8,-10.0 L -8.8,10.0 L -9.200000000000001,10.0 L -9.200000000000001,-10.0" fill="#000000" />
    <path id="barcode" d="M -8.0,-10.0 L -7.6,-10.0 L -7.6,10.0 L -8.0,10.0 L -8.0,-10.0" fill="#000000" />
    <path id="barcode" d="M -7.6,-10.0 L -7.199999999999999,-10.0 L -7.199999999999999,10.0 L -7.6,10.0 L -7.6,-10.0" fill="#000000" />
    <path id="barcode" d="M -6.799999999999999,-10.0 L -6.399999999999999,-10.0 L -6.399999999999999,10.0 L -6.799999999999999,10.0 L -6.799999999999999,-10.0" fill="#000000" />
    <path id="barcode" d="M -6.399999999999999,-10.0 L -5.999999999999998,-10.0 L -5.999999999999998,10.0 L -6.399999999999999,10.0 L -6.399999999999999,-10.0" fill="#000000" />
    <path id="barcode" d="M -5.999999999999998,-10.0 L -5.599999999999998,-10.0 L -5.599999999999998,10.0 L -5.999999999999998,10.0 L -5.999999999999998,-10.0" fill="#000000" />
    <path id="barcode" d="M -4.799999999999997,-10.0 L -4.399999999999997,-10.0 L -4.399999999999997,10.0 L -4.799999999999997,10.0 L -4.799999999999997,-10.0" fill="#000000" />
    <path id="barcode" d="M -3.999999999999997,-10.0 L -3.599999999999997,-10.0 L -3.599999999999997,10.0 L -3.999999999999997,10.0 L -3.999999999999997,-10.0" fill="#000000" />
    <path id="barcode" d="M -3.599999999999997,-10.0 L -3.199999999999997,-10.0 L -3.199999999999997,10.0 L -3.599999999999997,10.0 L -3.599999999999997,-10.0" fill="#000000" />
    <path id="barcode" d="M -2.3999999999999972,-10.0 L -1.9999999999999973,-10.0 L -1.9999999999999973,10.0 L -2.3999999999999972,10.0 L -2.3999999999999972,-10.0" fill="#000000" />
    <path id="barcode" d="M -1.9999999999999973,-10.0 L -1.5999999999999974,-10.0 L -1.5999999999999974,10.0 L -1.9999999999999973,10.0 L -1.9999999999999973,-10.0" fill="#000000" />
    <path id="barcode" d="M -1.5999999999999974,-10.0 L -1.1999999999999975,-10.0 L -1.1999999999999975,10.0 L -1.5999999999999974,10.0 L -1.5999999999999974,-10.0" fill="#000000" />
    <path id="barcode" d="M -0.39999999999999747,-10.0 L 2.55351295663786e-15,-10.0 L 2.55351295663786e-15,10.0 L -0.39999999999999747,10.0 L -0.39999999999999747,-10.0" fill="#000000" />
    <path id="barcode" d="M 1.2000000000000026,-10.0 L 1.6000000000000028,-10.0 L 1.6000000000000028,10.0 L 1.2000000000000026,10.0 L 1.2000000000000026,-10.0" fill="#000000" />
    <path id="barcode" d="M 1.6000000000000028,-10.0 L 2.0000000000000027,-10.0 L 2.0000000000000027,10.0 L 1.6000000000000028,10.0 L 1.6000000000000028,-10.0" fill="#000000" />
    <path id="barcode" d="M 2.4000000000000026,-10.0 L 2.8000000000000025,-10.0 L 2.8000000000000025,10.0 L 2.4000000000000026,10.0 L 2.4000000000000026,-10.0" fill="#000000" />
    <path id="barcode" d="M 4.000000000000003,-10.0 L 4.400000000000003,-10.0 L 4.400000000000003,10.0 L 4.000000000000003,10.0 L 4.000000000000003,-10.0" fill="#000000" />
    <path id="barcode" d="M 5.200000000000004,-10.0 L 5.600000000000004,-10.0 L 5.600000000000004,10.0 L 5.200000000000004,10.0 L 5.200000000000004,-10.0" fill="#000000" />
    <path id="barcode" d="M 5.600000000000004,-10.0 L 6.000000000000004,-10.0 L 6.000000000000004,10.0 L 5.600000000000004,10.0 L 5.600000000000004,-10.0" fill="#000000" />
    <path id="barcode" d="M 6.000000000000004,-10.0 L 6.400000000000005,-10.0 L 6.400000000000005,10.0 L 6.000000000000004,10.0 L 6.000000000000004,-10.0" fill="#000000" />
    <path id="barcode" d="M 6.400000000000005,-10.0 L 6.800000000000005,-10.0 L 6.800000000000005,10.0 L 6.400000000000005,10.0 L 6.400000000000005,-10.0" fill="#000000" />
    <path id="barcode" d="M 7.600000000000006,-10.0 L 8.000000000000005,-10.0 L 8.000000000000005,10.0 L 7.600000000000006,10.0 L 7.600000000000006,-10.0" fill="#000000" />
    <path id="barcode" d="M 8.400000000000006,-10.0 L 8.800000000000006,-10.0 L 8.800000000000006,10.0 L 8.400000000000006,10.0 L 8.400000000000006,-10.0" fill="#000000" />
    <path id="barcode" d="M 8.800000000000006,-10.0 L 9.200000000000006,-10.0 L 9.200000000000006,10.0 L 8.800000000000006,10.0 L 8.800000000000006,-10.0" fill="#000000" />
    <path id="barcode" d="M 9.200000000000006,-10.0 L 9.600000000000007,-10.0 L 9.600000000000007,10.0 L 9.200000000000006,10.0 L 9.200000000000006,-10.0" fill="#000000" />
    <path id="barcode" d="M 9.600000000000007,-10.0 L 10.000000000000007,-10.0 L 10.000000000000007,10.0 L 9.600000000000007,10.0 L 9.600000000000007,-10.0" fill="#000000" />
    <path id="barcode" d="M 11.200000000000008,-10.0 L 11.600000000000009,-10.0 L 11.600000000000009,10.0 L 11.200000000000008,10.0 L 11.200000000000008,-10.0" fill="#000000" />
    <path id="barcode" d="M 12.000000000000009,-10.0 L 12.40000000000001,-10.0 L 12.40000000000001,10.0 L 12.000000000000009,10.0 L 12.000000000000009,-10.0" fill="#000000" />
    <path id="barcode" d="M 12.80000000000001,-10.0 L 13.20000000000001,-10.0 L 13.20000000000001,10.0 L 12.80000000000001,10.0 L 12.80000000000001,-10.0" fill="#000000" />
    <path id="barcode" d="M 13.20000000000001,-10.0 L 13.60000000000001,-10.0 L 13.60000000000001,10.0 L 13.20000000000001,10.0 L 13.20000000000001,-10.0" fill="#000000" />
    <path id="barcode" d="M 14.800000000000011,-10.0 L 15.200000000000012,-10.0 L 15.200000000000012,10.0 L 14.800000000000011,10.0 L 14.800000000000011,-10.0" fill="#000000" />
    <path id="barcode" d="M 15.200000000000012,-10.0 L 15.600000000000012,-10.0 L 15.600000000000012,10.0 L 15.200000000000012,10.0 L 15.200000000000012,-10.0" fill="#000000" />
    <path id="barcode" d="M 15.600000000000012,-10.0 L 16.00000000000001,-10.0 L 16.00000000000001,10.0 L 15.600000000000012,10.0 L 15.600000000000012,-10.0" fill="#000000" />
    <path id="barcode" d="M 16.40000000000001,-10.0 L 16.800000000000008,-10.0 L 16.800000000000008,10.0 L 16.40000000000001,10.0 L 16.40000000000001,-10.0" fill="#000000" />
    <path id="barcode" d="M 17.200000000000006,-10.0 L 17.600000000000005,-10.0 L 17.600000000000005,10.0 L 17.200000000000006,10.0 L 17.200000000000006,-10.0" fill="#000000" />
    <path id="barcode" d="M 17.600000000000005,-10.0 L 18.000000000000004,-10.0 L 18.000000000000004,10.0 L 17.600000000000005,10.0 L 17.600000000000005,-10.0" fill="#000000" />
    <path id="text" d="M -5.7,14.15 L -5.5,14.15 L -5.5,14.25 L -5.7,14.25 L -5.7,14.15" fill="#000000" />
    <path id="text" d="M -4.800000000000001,14.15 L -4.4,14.15 L -4.4,14.25 L -4.800000000000001,14.25 L -4.800000000000001,14.15" fill="#000000" />
    <path id="text" d="M -3.2,14.15 L -3.0000000000000004,14.15 L -3.0000000000000004,14.25 L -3.2,14.25 L -3.2,14.15" fill="#000000" />
    <path id="text" d="M -2.2,14.15 L -1.7999999999999998,14.15 L -1.7999999999999998,14.25 L -2.2,14.25 L -2.2,14.15" fill="#000000" />
    <path id="text" d="M -0.6000000000000005,14.15 L -0.40000000000000036,14.15 L -0.40000000000000036,14.25 L -0.6000000000000005,14.25 L -0.6000000000000005,14.15" fill="#000000" />
    <path id="text" d="M 0.39999999999999947,14.15 L 0.8999999999999995,14.15 L 0.8999999999999995,14.25 L 0.39999999999999947,14.25 L 0.39999999999999947,14.15" fill="#000000" />
    <path id="text" d="M 1.7000000000000002,14.15 L 2.1000000000000005,14.15 L 2.1000000000000005,14.25 L 1.7000000000000002,14.25 L 1.7000000000000002,14.15" fill="#000000" />
    <path id="text" d="M 2.7,14.15 L 3.8,14.15 L 3.8,14.25 L 2.7,14.25 L 2.7,14.15" fill="#000000" />
    <path id="text" d="M 4.3,14.15 L 4.8,14.15 L 4.8,14.25 L 4.3,14.25 L 4.3,14.15" fill="#000000" />
    <path id="text" d="M 5.500000000000001,14.15 L 6.3,14.15 L 6.3,14.25 L 5.500000000000001,14.25 L 5.500000000000001,14.15" fill="#000000" />
    <path id="text" d="M -5.800000000000001,14.25 L -5.5,14.25 L -5.5,14.350000000000001 L -5.800000000000001,14.350000000000001 L -5.800000000000001,14.25" fill="#000000" />
    <path id="text" d="M -5.0,14.25 L -4.2,14.25 L -4.2,14.350000000000001 L -5.0,14.350000000000001 L -5.0,14.25" fill="#000000" />
    <path id="text" d="M -3.2,14.25 L -3.0000000000000004,14.25 L -3.0000000000000004,14.350000000000001 L -3.2,14.350000000000001 L -3.2,14.25" fill="#000000" />
    <path id="text" d="M -2.4000000000000004,14.25 L -1.6000000000000005,14.25 L -1.6000000000000005,14.350000000000001 L -2.4000000000000004,14.350000000000001 L -2.4000000000000004,14.25" fill="#000000" />
    <path id="text" d="M -0.6000000000000005,14.25 L -0.40000000000000036,14.25 L -0.40000000000000036,14.350000000000001 L -0.6000000000000005,14.350000000000001 L -0.6000000000000005,14.25" fill="#000000" />
    <path id="text" d="M 0.20000000000000018,14.25 L 1.0999999999999996,14.25 L 1.0999999999999996,14.350000000000001 L 0.20000000000000018,14.350000000000001 L 0.20000000000000018,14.25" fill="#000000" />
    <path id="text" d="M 1.4999999999999991,14.25 L 2.3,14.25 L 2.3,14.350000000000001 L 1.4999999999999991,14.350000000000001 L 1.4999999999999991,14.25" fill="#000000" />
    <path id="text" d="M 2.7,14.25 L 3.8,14.25 L 3.8,14.350000000000001 L 2.7,14.350000000000001 L 2.7,14.25" fill="#000000" />
    <path id="text" d="M 4.2,14.25 L 4.8999999999999995,14.25 L 4.8999999999999995,14.350000000000001 L 4.2,14.350000000000001 L 4.2,14.25" fill="#000000" />
    <path id="text" d="M 5.500000000000001,14.25 L 6.3,14.25 L 6.3,14.350000000000001 L 5.500000000000001,14.350000000000001 L 5.500000000000001,14.25" fill="#000000" />
    <path id="text" d="M -5.9,14.350000000000001 L -5.5,14.350000000000001 L -5.5,14.450000000000001 L -5.9,14.450000000000001 L -5.9,14.350000000000001" fill="#000000" />
    <path id="text" d="M -5.0,14.350000000000001 L -4.800000000000001,14.350000000000001 L -4.800000000000001,14.450000000000001 L -5.0,14.450000000000001 L -5.0,14.350000000000001" fill="#000000" />
    <path id="text" d="M -4.4,14.350000000000001 L -4.1000000000000005,14.350000000000001 L -4.1000000000000005,14.450000000000001 L -4.4,14.450000000000001 L -4.4,14.350000000000001" fill="#000000" />
    <path id="text" d="M -3.3000000000000003,14.350000000000001 L -3.0000000000000004,14.350000000000001 L -3.0000000000000004,14.450000000000001 L -3.3000000000000003,14.450000000000001 L -3.3000000000000003,14.350000000000001" fill="#000000" />
    <path id="text" d="M -2.4000000000000004,14.350000000000001 L -2.2,14.350000000000001 L -2.2,14.450000000000001 L -2.4000000000000004,14.450000000000001 L -2.4000000000000004,14.350000000000001" fill="#000000" />
    <path id="text" d="M -1.7999999999999998,14.350000000000001 L -1.5,14.350000000000001 L -1.5,14.450000000000001 L -1.7999999999999998,14.450000000000001 L -1.7999999999999998,14.350000000000001" fill="#000000" />
    <path id="text" d="M -0.7000000000000002,14.350000000000001 L -0.40000000000000036,14.350000000000001 L -0.40000000000000036,14.450000000000001 L -0.7000000000000002,14.450000000000001 L -0.7000000000000002,14.350000000000001" fill="#000000" />
    <path id="text" d="M 0.20000000000000018,14.350000000000001 L 0.39999999999999947,14.350000000000001 L 0.39999999999999947,14.450000000000001 L 0.20000000000000018,14.450000000000001 L 0.20000000000000018,14.350000000000001" fill="#000000" />
    <path id="text" d="M 0.8999999999999995,14.350000000000001 L 1.0999999999999996,14.350000000000001 L 1.0999999999999996,14.450000000000001 L 0.8999999999999995,14.450000000000001 L 0.8999999999999995,14.350000000000001" fill="#000000" />
    <path id="text" d="M 1.4999999999999991,14.350000000000001 L 1.7000000000000002,14.350000000000001 L 1.7000000000000002,14.450000000000001 L 1.4999999999999991,14.450000000000001 L 1.4999999999999991,14.350000000000001" fill="#000000" />
    <path id="text" d="M 2.1000000000000005,14.350000000000001 L 2.3999999999999995,14.350000000000001 L 2.3999999999999995,14.450000000000001 L 2.1000000000000005,14.450000000000001 L 2.1000000000000005,14.350000000000001" fill="#000000" />
    <path id="text" d="M 3.6000000000000005,14.350000000000001 L 3.7,14.350000000000001 L 3.7,14.450000000000001 L 3.6000000000000005,14.450000000000001 L 3.6000000000000005,14.350000000000001" fill="#000000" />
    <path id="text" d="M 4.1000000000000005,14.350000000000001 L 4.3999999999999995,14.350000000000001 L 4.3999999999999995,14.450000000000001 L 4.1000000000000005,14.450000000000001 L 4.1000000000000005,14.350000000000001" fill="#000000" />
    <path id="text" d="M 4.7,14.350000000000001 L 5.000000000000001,14.350000000000001 L 5.000000000000001,14.450000000000001 L 4.7,14.450000000000001 L 4.7,14.350000000000001" fill="#000000" />
    <path id="text" d="M 5.3999999999999995,14.350000000000001 L 5.6000000000000005,14.350000000000001 L 5.6000000000000005,14.450000000000001 L 5.3999999999999995,14.450000000000001 L 5.3999999999999995,14.350000000000001" fill="#000000" />
    <path id="text" d="M -5.9,14.450000000000001 L -5.5,14.450000000000001 L -5.5,14.55 L -5.9,14.55 L -5.9,14.450000000000001" fill="#000000" />
    <path id="text" d="M -5.1000000000000005,14.450000000000001 L -4.9,14.450000000000001 L -4.9,14.55 L -5.1000000000000005,14.55 L -5.1000000000000005,14.450000000000001" fill="#000000" />
    <path id="text" d="M -4.300000000000001,14.450000000000001 L -4.1000000000000005,14.450000000000001 L -4.1000000000000005,14.55 L -4.300000000000001,14.55 L -4.300000000000001,14.450000000000001" fill="#000000" />
    <path id="text" d="M -3.5000000000000004,14.450000000000001 L -3.0000000000000004,14.450000000000001 L -3.0000000000000004,14.55 L -3.5000000000000004,14.55 L -3.5000000000000004,14.450000000000001" fill="#000000" />
    <path id="text" d="M -2.5,14.450000000000001 L -2.3000000000000007,14.450000000000001 L -2.3000000000000007,14.55 L -2.5,14.55 L -2.5,14.450000000000001" fill="#000000" />
    <path id="text" d="M -1.7000000000000002,14.450000000000001 L -1.5,14.450000000000001 L -1.5,14.55 L -1.7000000000000002,14.55 L -1.7000000000000002,14.450000000000001" fill="#000000" />
    <path id="text" d="M -0.9000000000000004,14.450000000000001 L -0.40000000000000036,14.450000000000001 L -0.40000000000000036,14.55 L -0.9000000000000004,14.55 L -0.9000000000000004,14.450000000000001" fill="#000000" />
    <path id="text" d="M 0.09999999999999964,14.450000000000001 L 0.2999999999999998,14.450000000000001 L 0.2999999999999998,14.55 L 0.09999999999999964,14.55 L 0.09999999999999964,14.450000000000001" fill="#000000" />
    <path id="text" d="M 1.0,14.450000000000001 L 1.2000000000000002,14.450000000000001 L 1.2000000000000002,14.55 L 1.0,14.55 L 1.0,14.450000000000001" fill="#000000" />
    <path id="text" d="M 1.3999999999999995,14.450000000000001 L 1.6000000000000005,14.450000000000001 L 1.6000000000000005,14.55 L 1.3999999999999995,14.55 L 1.3999999999999995,14.450000000000001" fill="#000000" />
    <path id="text" d="M 2.2,14.450000000000001 L 2.3999999999999995,14.450000000000001 L 2.3999999999999995,14.55 L 2.2,14.55 L 2.2,14.450000000000001" fill="#000000" />
    <path id="text" d="M 3.500000000000001,14.450000000000001 L 3.7,14.450000000000001 L 3.7,14.55 L 3.500000000000001,14.55 L 3.500000000000001,14.450000000000001" fill="#000000" />
    <path id="text" d="M 4.1000000000000005,14.450000000000001 L 4.3,14.450000000000001 L 4.3,14.55 L 4.1000000000000005,14.55 L 4.1000000000000005,14.450000000000001" fill="#000000" />
    <path id="text" d="M 4.8,14.450000000000001 L 5.000000000000001,14.450000000000001 L 5.000000000000001,14.55 L 4.8,14.55 L 4.8,14.450000000000001" fill="#000000" />
    <path id="text" d="M 5.3999999999999995,14.450000000000001 L 5.6000000000000005,14.450000000000001 L 5.6000000000000005,14.55 L 5.3999999999999995,14.55 L 5.3999999999999995,14.450000000000001" fill="#000000" />
    <path id="text" d="M -6.0,14.55 L -5.800000000000001,14.55 L -5.800000000000001,14.65 L -6.0,14.65 L -6.0,14.55" fill="#000000" />
    <path id="text" d="M -5.7,14.55 L -5.5,14.55 L -5.5,14.65 L -5.7,14.65 L -5.7,14.55" fill="#000000" />
    <path id="text" d="M -4.300000000000001,14.55 L -4.1000000000000005,14.55 L -4.1000000000000005,14.65 L -4.300000000000001,14.65 L -4.300000000000001,14.55" fill="#000000" />
    <path id="text" d="M -3.6000000000000005,14.55 L -3.3000000000000003,14.55 L -3.3000000000000003,14.65 L -3.6000000000000005,14.65 L -3.6000000000000005,14.55" fill="#000000" />
    <path id="text" d="M -3.2,14.55 L -3.0000000000000004,14.55 L -3.0000000000000004,14.65 L -3.2,14.65 L -3.2,14.55" fill="#000000" />
    <path id="text" d="M -1.7000000000000002,14.55 L -1.5,14.55 L -1.5,14.65 L -1.7000000000000002,14.65 L -1.7000000000000002,14.55" fill="#000000" />
    <path id="text" d="M -1.0,14.55 L -0.7000000000000002,14.55 L -0.7000000000000002,14.65 L -1.0,14.65 L -1.0,14.55" fill="#000000" />
    <path id="text" d="M -0.6000000000000005,14.55 L -0.40000000000000036,14.55 L -0.40000000000000036,14.65 L -0.6000000000000005,14.65 L -0.6000000000000005,14.55" fill="#000000" />
    <path id="text" d="M 0.09999999999999964,14.55 L 0.2999999999999998,14.55 L 0.2999999999999998,14.65 L 0.09999999999999964,14.65 L 0.09999999999999964,14.55" fill="#000000" />
    <path id="text" d="M 1.0,14.55 L 1.2000000000000002,14.55 L 1.2000000000000002,14.65 L 1.0,14.65 L 1.0,14.55" fill="#000000" />
    <path id="text" d="M 2.2,14.55 L 2.3999999999999995,14.55 L 2.3999999999999995,14.65 L 2.2,14.65 L 2.2,14.55" fill="#000000" />
    <path id="text" d="M 3.3999999999999995,14.55 L 3.6000000000000005,14.55 L 3.6000000000000005,14.65 L 3.3999999999999995,14.65 L 3.3999999999999995,14.55" fill="#000000" />
    <path id="text" d="M 4.1000000000000005,14.55 L 4.3,14.55 L 4.3,14.65 L 4.1000000000000005,14.65 L 4.1000000000000005,14.55" fill="#000000" />
    <path id="text" d="M 4.8,14.55 L 5.000000000000001,14.55 L 5.000000000000001,14.65 L 4.8,14.65 L 4.8,14.55" fill="#000000" />
    <path id="text" d="M 5.3999999999999995,14.55 L 5.6000000000000005,14.55 L 5.6000000000000005,14.65 L 5.3999999999999995,14.65 L 5.3999999999999995,14.55" fill="#000000" />
    <path id="text" d="M -6.1000000000000005,14.65 L -5.800000000000001,14.65 L -5.800000000000001,14.75 L -6.1000000000000005,14.75 L -6.1000000000000005,14.65" fill="#000000" />
    <path id="text" d="M -5.7,14.65 L -5.5,14.65 L -5.5,14.75 L -5.7,14.75 L -5.7,14.65" fill="#000000" />
    <path id="text" d="M -4.300000000000001,14.65 L -4.1000000000000005,14.65 L -4.1000000000000005,14.75 L -4.300000000000001,14.75 L -4.300000000000001,14.65" fill="#000000" />
    <path id="text" d="M -3.6000000000000005,14.65 L -3.4000000000000004,14.65 L -3.4000000000000004,14.75 L -3.6000000000000005,14.75 L -3.6000000000000005,14.65" fill="#000000" />
    <path id="text" d="M -3.2,14.65 L -3.0000000000000004,14.65 L -3.0000000000000004,14.75 L -3.2,14.75 L -3.2,14.65" fill="#000000" />
    <path id="text" d="M -1.7000000000000002,14.65 L -1.5,14.65 L -1.5,14.75 L -1.7000000000000002,14.75 L -1.7000000000000002,14.65" fill="#000000" />
    <path id="text" d="M -1.0,14.65 L -0.7999999999999998,14.65 L -0.7999999999999998,14.75 L -1.0,14.75 L -1.0,14.65" fill="#000000" />
    <path id="text" d="M -0.6000000000000005,14.65 L -0.40000000000000036,14.65 L -0.40000000000000036,14.75 L -0.6000000000000005,14.75 L -0.6000000000000005,14.65" fill="#000000" />
    <path id="text" d="M 1.0,14.65 L 1.2000000000000002,14.65 L 1.2000000000000002,14.75 L 1.0,14.75 L 1.0,14.65" fill="#000000" />
    <path id="text" d="M 2.2,14.65 L 2.3999999999999995,14.65 L 2.3999999999999995,14.75 L 2.2,14.75 L 2.2,14.65" fill="#000000" />
    <path id="text" d="M 3.3999999999999995,14.65 L 3.500000000000001,14.65 L 3.500000000000001,14.75 L 3.3999999999999995,14.75 L 3.3999999999999995,14.65" fill="#000000" />
    <path id="text" d="M 4.1000000000000005,14.65 L 4.3,14.65 L 4.3,14.75 L 4.1000000000000005,14.75 L 4.1000000000000005,14.65" fill="#000000" />
    <path id="text" d="M 4.8,14.65 L 5.000000000000001,14.65 L 5.000000000000001,14.75 L 4.8,14.75 L 4.8,14.65" fill="#000000" />
    <path id="text" d="M 5.3999999999999995,14.65 L 5.6000000000000005,14.65 L 5.6000000000000005,14.75 L 5.3999999999999995,14.75 L 5.3999999999999995,14.65" fill="#000000" />
    <path id="text" d="M 5.7,14.65 L 6.1000000000000005,14.65 L 6.1000000000000005,14.75 L 5.7,14.75 L 5.7,14.65" fill="#000000" />
    <path id="text" d="M -6.1000000000000005,14.75 L -5.9,14.75 L -5.9,14.850000000000001 L -6.1000000000000005,14.850000000000001 L -6.1000000000000005,14.75" fill="#000000" />
    <path id="text" d="M -5.7,14.75 L -5.5,14.75 L -5.5,14.850000000000001 L -5.7,14.850000000000001 L -5.7,14.75" fill="#000000" />
    <path id="text" d="M -4.4,14.75 L -4.2,14.75 L -4.2,14.850000000000001 L -4.4,14.850000000000001 L -4.4,14.75" fill="#000000" />
    <path id="text" d="M -3.2,14.75 L -3.0000000000000004,14.75 L -3.0000000000000004,14.850000000000001 L -3.2,14.850000000000001 L -3.2,14.75" fill="#000000" />
    <path id="text" d="M -1.7999999999999998,14.75 L -1.6000000000000005,14.75 L -1.6000000000000005,14.850000000000001 L -1.7999999999999998,14.850000000000001 L -1.7999999999999998,14.75" fill="#000000" />
    <path id="text" d="M -0.6000000000000005,14.75 L -0.40000000000000036,14.75 L -0.40000000000000036,14.850000000000001 L -0.6000000000000005,14.850000000000001 L -0.6000000000000005,14.75" fill="#000000" />
    <path id="text" d="M 1.0,14.75 L 1.2000000000000002,14.75 L 1.2000000000000002,14.850000000000001 L 1.0,14.850000000000001 L 1.0,14.75" fill="#000000" />
    <path id="text" d="M 2.1000000000000005,14.75 L 2.3,14.75 L 2.3,14.850000000000001 L 2.1000000000000005,14.850000000000001 L 2.1000000000000005,14.75" fill="#000000" />
    <path id="text" d="M 3.3,14.75 L 3.500000000000001,14.75 L 3.500000000000001,14.850000000000001 L 3.3,14.850000000000001 L 3.3,14.75" fill="#000000" />
    <path id="text" d="M 4.2,14.75 L 4.3999999999999995,14.75 L 4.3999999999999995,14.850000000000001 L 4.2,14.850000000000001 L 4.2,14.75" fill="#000000" />
    <path id="text" d="M 4.7,14.75 L 4.8999999999999995,14.75 L 4.8999999999999995,14.850000000000001 L 4.7,14.850000000000001 L 4.7,14.75" fill="#000000" />
    <path id="text" d="M 5.3999999999999995,14.75 L 6.2,14.75 L 6.2,14.850000000000001 L 5.3999999999999995,14.850000000000001 L 5.3999999999999995,14.75" fill="#000000" />
    <path id="text" d="M -6.2,14.850000000000001 L -6.0,14.850000000000001 L -6.0,14.950000000000001 L -6.2,14.950000000000001 L -6.2,14.850000000000001" fill="#000000" />
    <path id="text" d="M -5.7,14.850000000000001 L -5.5,14.850000000000001 L -5.5,14.950000000000001 L -5.7,14.950000000000001 L -5.7,14.850000000000001" fill="#000000" />
    <path id="text" d="M -4.7,14.850000000000001 L -4.300000000000001,14.850000000000001 L -4.300000000000001,14.950000000000001 L -4.7,14.950000000000001 L -4.7,14.850000000000001" fill="#000000" />
    <path id="text" d="M -3.2,14.850000000000001 L -3.0000000000000004,14.850000000000001 L -3.0000000000000004,14.950000000000001 L -3.2,14.950000000000001 L -3.2,14.850000000000001" fill="#000000" />
    <path id="text" d="M -2.1000000000000005,14.850000000000001 L -1.7000000000000002,14.850000000000001 L -1.7000000000000002,14.950000000000001 L -2.1000000000000005,14.950000000000001 L -2.1000000000000005,14.850000000000001" fill="#000000" />
    <path id="text" d="M -0.6000000000000005,14.850000000000001 L -0.40000000000000036,14.850000000000001 L -0.40000000000000036,14.950000000000001 L -0.6000000000000005,14.950000000000001 L -0.6000000000000005,14.850000000000001" fill="#000000" />
    <path id="text" d="M 0.8999999999999995,14.850000000000001 L 1.0999999999999996,14.850000000000001 L 1.0999999999999996,14.950000000000001 L 0.8999999999999995,14.950000000000001 L 0.8999999999999995,14.850000000000001" fill="#000000" />
    <path id="text" d="M 1.7999999999999998,14.850000000000001 L 2.2,14.850000000000001 L 2.2,14.950000000000001 L 1.7999999999999998,14.950000000000001 L 1.7999999999999998,14.850000000000001" fill="#000000" />
    <path id="text" d="M 3.2,14.850000000000001 L 3.3999999999999995,14.850000000000001 L 3.3999999999999995,14.950000000000001 L 3.2,14.950000000000001 L 3.2,14.850000000000001" fill="#000000" />
    <path id="text" d="M 4.3,14.850000000000001 L 4.8,14.850000000000001 L 4.8,14.950000000000001 L 4.3,14.950000000000001 L 4.3,14.850000000000001" fill="#000000" />
    <path id="text" d="M 5.3,14.850000000000001 L 5.6000000000000005,14.850000000000001 L 5.6000000000000005,14.950000000000001 L 5.3,14.950000000000001 L 5.3,14.850000000000001" fill="#000000" />
    <path id="text" d="M 6.1000000000000005,14.850000000000001 L 6.3,14.850000000000001 L 6.3,14.950000000000001 L 6.1000000000000005,14.950000000000001 L 6.1000000000000005,14.850000000000001" fill="#000000" />
    <path id="text" d="M -6.2,14.950000000000001 L -6.0,14.950000000000001 L -6.0,15.05 L -6.2,15.05 L -6.2,14.950000000000001" fill="#000000" />
    <path id="text" d="M -5.7,14.950000000000001 L -5.5,14.950000000000001 L -5.5,15.05 L -5.7,15.05 L -5.7,14.950000000000001" fill="#000000" />
    <path id="text" d="M -4.7,14.950000000000001 L -4.2,14.950000000000001 L -4.2,15.05 L -4.7,15.05 L -4.7,14.950000000000001" fill="#000000" />
    <path id="text" d="M -3.2,14.950000000000001 L -3.0000000000000004,14.950000000000001 L -3.0000000000000004,15.05 L -3.2,15.05 L -3.2,14.950000000000001" fill="#000000" />
    <path id="text" d="M -2.1000000000000005,14.950000000000001 L -1.6000000000000005,14.950000000000001 L -1.6000000000000005,15.05 L -2.1000000000000005,15.05 L -2.1000000000000005,14.950000000000001" fill="#000000" />
    <path id="text" d="M -0.6000000000000005,14.950000000000001 L -0.40000000000000036,14.950000000000001 L -0.40000000000000036,15.05 L -0.6000000000000005,15.05 L -0.6000000000000005,14.950000000000001" fill="#000000" />
    <path id="text" d="M 0.7999999999999998,14.950000000000001 L 1.0,14.950000000000001 L 1.0,15.05 L 0.7999999999999998,15.05 L 0.7999999999999998,14.950000000000001" fill="#000000" />
    <path id="text" d="M 1.7999999999999998,14.950000000000001 L 2.3,14.950000000000001 L 2.3,15.05 L 1.7999999999999998,15.05 L 1.7999999999999998,14.950000000000001" fill="#000000" />
    <path id="text" d="M 3.2,14.950000000000001 L 3.3999999999999995,14.950000000000001 L 3.3999999999999995,15.05 L 3.2,15.05 L 3.2,14.950000000000001" fill="#000000" />
    <path id="text" d="M 4.2,14.950000000000001 L 4.8999999999999995,14.950000000000001 L 4.8999999999999995,15.05 L 4.2,15.05 L 4.2,14.950000000000001" fill="#000000" />
    <path id="text" d="M 5.3,14.950000000000001 L 5.500000000000001,14.950000000000001 L 5.500000000000001,15.05 L 5.3,15.05 L 5.3,14.950000000000001" fill="#000000" />
    <path id="text" d="M 6.2,14.950000000000001 L 6.3999999999999995,14.950000000000001 L 6.3999999999999995,15.05 L 6.2,15.05 L 6.2,14.950000000000001" fill="#000000" />
    <path id="text" d="M -6.300000000000001,15.05 L -6.1000000000000005,15.05 L -6.1000000000000005,15.15 L -6.300000000000001,15.15 L -6.300000000000001,15.05" fill="#000000" />
    <path id="text" d="M -5.7,15.05 L -5.5,15.05 L -5.5,15.15 L -5.7,15.15 L -5.7,15.05" fill="#000000" />
    <path id="text" d="M -4.300000000000001,15.05 L -4.1000000000000005,15.05 L -4.1000000000000005,15.15 L -4.300000000000001,15.15 L -4.300000000000001,15.05" fill="#000000" />
    <path id="text" d="M -3.2,15.05 L -3.0000000000000004,15.05 L -3.0000000000000004,15.15 L -3.2,15.15 L -3.2,15.05" fill="#000000" />
    <path id="text" d="M -1.7000000000000002,15.05 L -1.5,15.05 L -1.5,15.15 L -1.7000000000000002,15.15 L -1.7000000000000002,15.05" fill="#000000" />
    <path id="text" d="M -0.6000000000000005,15.05 L -0.40000000000000036,15.05 L -0.40000000000000036,15.15 L -0.6000000000000005,15.15 L -0.6000000000000005,15.05" fill="#000000" />
    <path id="text" d="M 0.7000000000000002,15.05 L 0.8999999999999995,15.05 L 0.8999999999999995,15.15 L 0.7000000000000002,15.15 L 0.7000000000000002,15.05" fill="#000000" />
    <path id="text" d="M 2.2,15.05 L 2.3999999999999995,15.05 L 2.3999999999999995,15.15 L 2.2,15.15 L 2.2,15.05" fill="#000000" />
    <path id="text" d="M 3.2,15.05 L 3.3999999999999995,15.05 L 3.3999999999999995,15.15 L 3.2,15.15 L 3.2,15.05" fill="#000000" />
    <path id="text" d="M 4.1000000000000005,15.05 L 4.3,15.05 L 4.3,15.15 L 4.1000000000000005,15.15 L 4.1000000000000005,15.05" fill="#000000" />
    <path id="text" d="M 4.8,15.05 L 5.000000000000001,15.05 L 5.000000000000001,15.15 L 4.8,15.15 L 4.8,15.05" fill="#000000" />
    <path id="text" d="M 6.2,15.05 L 6.3999999999999995,15.05 L 6.3999999999999995,15.15 L 6.2,15.15 L 6.2,15.05" fill="#000000" />
    <path id="text" d="M -6.4,15.15 L -6.1000000000000005,15.15 L -6.1000000000000005,15.25 L -6.4,15.25 L -6.4,15.15" fill="#000000" />
    <path id="text" d="M -5.7,15.15 L -5.5,15.15 L -5.5,15.25 L -5.7,15.25 L -5.7,15.15" fill="#000000" />
    <path id="text" d="M -4.2,15.15 L -4.0,15.15 L -4.0,15.25 L -4.2,15.25 L -4.2,15.15" fill="#000000" />
    <path id="text" d="M -3.2,15.15 L -3.0000000000000004,15.15 L -3.0000000000000004,15.25 L -3.2,15.25 L -3.2,15.15" fill="#000000" />
    <path id="text" d="M -1.6000000000000005,15.15 L -1.4000000000000004,15.15 L -1.4000000000000004,15.25 L -1.6000000000000005,15.25 L -1.6000000000000005,15.15" fill="#000000" />
    <path id="text" d="M -0.6000000000000005,15.15 L -0.40000000000000036,15.15 L -0.40000000000000036,15.25 L -0.6000000000000005,15.25 L -0.6000000000000005,15.15" fill="#000000" />
    <path id="text" d="M 0.5999999999999996,15.15 L 0.7999999999999998,15.15 L 0.7999999999999998,15.25 L 0.5999999999999996,15.25 L 0.5999999999999996,15.15" fill="#000000" />
    <path id="text" d="M 2.3,15.15 L 2.499999999999999,15.15 L 2.499999999999999,15.25 L 2.3,15.25 L 2.3,15.15" fill="#000000" />
    <path id="text" d="M 3.1000000000000005,15.15 L 3.3,15.15 L 3.3,15.25 L 3.1000000000000005,15.25 L 3.1000000000000005,15.15" fill="#000000" />
    <path id="text" d="M 4.000000000000001,15.15 L 4.2,15.15 L 4.2,15.25 L 4.000000000000001,15.25 L 4.000000000000001,15.15" fill="#000000" />
    <path id="text" d="M 4.8999999999999995,15.15 L 5.1000000000000005,15.15 L 5.1000000000000005,15.25 L 4.8999999999999995,15.25 L 4.8999999999999995,15.15" fill="#000000" />
    <path id="text" d="M 6.2,15.15 L 6.3999999999999995,15.15 L 6.3999999999999995,15.25 L 6.2,15.25 L 6.2,15.15" fill="#000000" />
    <path id="text" d="M -6.4,15.25 L -5.300000000000001,15.25 L -5.300000000000001,15.350000000000001 L -6.4,15.350000000000001 L -6.4,15.25" fill="#000000" />
    <path id="text" d="M -4.2,15.25 L -4.0,15.25 L -4.0,15.350000000000001 L -4.2,15.350000000000001 L -4.2,15.25" fill="#000000" />
    <path id="text" d="M -3.2,15.25 L -3.0000000000000004,15.25 L -3.0000000000000004,15.350000000000001 L -3.2,15.350000000000001 L -3.2,15.25" fill="#000000" />
    <path id="text" d="M -1.6000000000000005,15.25 L -1.4000000000000004,15.25 L -1.4000000000000004,15.350000000000001 L -1.6000000000000005,15.350000000000001 L -1.6000000000000005,15.25" fill="#000000" />
    <path id="text" d="M -0.6000000000000005,15.25 L -0.40000000000000036,15.25 L -0.40000000000000036,15.350000000000001 L -0.6000000000000005,15.350000000000001 L -0.6000000000000005,15.25" fill="#000000" />
    <path id="text" d="M 0.5,15.25 L 0.7000000000000002,15.25 L 0.7000000000000002,15.350000000000001 L 0.5,15.350000000000001 L 0.5,15.25" fill="#000000" />
    <path id="text" d="M 2.3,15.25 L 2.499999999999999,15.25 L 2.499999999999999,15.350000000000001 L 2.3,15.350000000000001 L 2.3,15.25" fill="#000000" />
    <path id="text" d="M 3.1000000000000005,15.25 L 3.3,15.25 L 3.3,15.350000000000001 L 3.1000000000000005,15.350000000000001 L 3.1000000000000005,15.25" fill="#000000" />
    <path id="text" d="M 4.000000000000001,15.25 L 4.2,15.25 L 4.2,15.350000000000001 L 4.000000000000001,15.350000000000001 L 4.000000000000001,15.25" fill="#000000" />
    <path id="text" d="M 4.8999999999999995,15.25 L 5.1000000000000005,15.25 L 5.1000000000000005,15.350000000000001 L 4.8999999999999995,15.350000000000001 L 4.8999999999999995,15.25" fill="#000000" />
    <path id="text" d="M 6.2,15.25 L 6.3999999999999995,15.25 L 6.3999999999999995,15.350000000000001 L 6.2,15.350000000000001 L 6.2,15.25" fill="#000000" />
    <path id="text" d="M -6.4,15.350000000000001 L -5.300000000000001,15.350000000000001 L -5.300000000000001,15.450000000000001 L -6.4,15.450000000000001 L -6.4,15.350000000000001" fill="#000000" />
    <path id="text" d="M -5.1000000000000005,15.350000000000001 L -4.9,15.350000000000001 L -4.9,15.450000000000001 L -5.1000000000000005,15.450000000000001 L -5.1000000000000005,15.350000000000001" fill="#000000" />
    <path id="text" d="M -4.2,15.350000000000001 L -4.0,15.350000000000001 L -4.0,15.450000000000001 L -4.2,15.450000000000001 L -4.2,15.350000000000001" fill="#000000" />
    <path id="text" d="M -3.2,15.350000000000001 L -3.0000000000000004,15.350000000000001 L -3.0000000000000004,15.450000000000001 L -3.2,15.450000000000001 L -3.2,15.350000000000001" fill="#000000" />
    <path id="text" d="M -2.5,15.350000000000001 L -2.3000000000000007,15.350000000000001 L -2.3000000000000007,15.450000000000001 L -2.5,15.450000000000001 L -2.5,15.350000000000001" fill="#000000" />
    <path id="text" d="M -1.6000000000000005,15.350000000000001 L -1.4000000000000004,15.350000000000001 L -1.4000000000000004,15.450000000000001 L -1.6000000000000005,15.450000000000001 L -1.6000000000000005,15.350000000000001" fill="#000000" />
    <path id="text" d="M -0.6000000000000005,15.350000000000001 L -0.40000000000000036,15.350000000000001 L -0.40000000000000036,15.450000000000001 L -0.6000000000000005,15.450000000000001 L -0.6000000000000005,15.350000000000001" fill="#000000" />
    <path id="text" d="M 0.39999999999999947,15.350000000000001 L 0.5999999999999996,15.350000000000001 L 0.5999999999999996,15.450000000000001 L 0.39999999999999947,15.450000000000001 L 0.39999999999999947,15.350000000000001" fill="#000000" />
    <path id="text" d="M 1.3999999999999995,15.350000000000001 L 1.6000000000000005,15.350000000000001 L 1.6000000000000005,15.450000000000001 L 1.3999999999999995,15.450000000000001 L 1.3999999999999995,15.350000000000001" fill="#000000" />
    <path id="text" d="M 2.3,15.350000000000001 L 2.499999999999999,15.350000000000001 L 2.499999999999999,15.450000000000001 L 2.3,15.450000000000001 L 2.3,15.350000000000001" fill="#000000" />
    <path id="text" d="M 3.1000000000000005,15.350000000000001 L 3.3,15.350000000000001 L 3.3,15.450000000000001 L 3.1000000000000005,15.450000000000001 L 3.1000000000000005,15.350000000000001" fill="#000000" />
    <path id="text" d="M 4.000000000000001,15.350000000000001 L 4.2,15.350000000000001 L 4.2,15.450000000000001 L 4.000000000000001,15.450000000000001 L 4.000000000000001,15.350000000000001" fill="#000000" />
    <path id="text" d="M 4.8999999999999995,15.350000000000001 L 5.1000000000000005,15.350000000000001 L 5.1000000000000005,15.450000000000001 L 4.8999999999999995,15.450000000000001 L 4.8999999999999995,15.350000000000001" fill="#000000" />
    <path id="text" d="M 5.3,15.350000000000001 L 5.500000000000001,15.350000000000001 L 5.500000000000001,15.450000000000001 L 5.3,15.450000000000001 L 5.3,15.350000000000001" fill="#000000" />
    <path id="text" d="M 6.2,15.350000000000001 L 6.3999999999999995,15.350000000000001 L 6.3999999999999995,15.450000000000001 L 6.2,15.450000000000001 L 6.2,15.350000000000001" fill="#000000" />
    <path id="text" d="M -5.7,15.450000000000001 L -5.5,15.450000000000001 L -5.5,15.55 L -5.7,15.55 L -5.7,15.450000000000001" fill="#000000" />
    <path id="text" d="M -5.1000000000000005,15.450000000000001 L -4.800000000000001,15.450000000000001 L -4.800000000000001,15.55 L -5.1000000000000005,15.55 L -5.1000000000000005,15.450000000000001" fill="#000000" />
    <path id="text" d="M -4.2,15.450000000000001 L -4.0,15.450000000000001 L -4.0,15.55 L -4.2,15.55 L -4.2,15.450000000000001" fill="#000000" />
    <path id="text" d="M -3.2,15.450000000000001 L -3.0000000000000004,15.450000000000001 L -3.0000000000000004,15.55 L -3.2,15.55 L -3.2,15.450000000000001" fill="#000000" />
    <path id="text" d="M -2.5,15.450000000000001 L -2.2,15.450000000000001 L -2.2,15.55 L -2.5,15.55 L -2.5,15.450000000000001" fill="#000000" />
    <path id="text" d="M -1.6000000000000005,15.450000000000001 L -1.4000000000000004,15.450000000000001 L -1.4000000000000004,15.55 L -1.6000000000000005,15.55 L -1.6000000000000005,15.450000000000001" fill="#000000" />
    <path id="text" d="M -0.6000000000000005,15.450000000000001 L -0.40000000000000036,15.450000000000001 L -0.40000000000000036,15.55 L -0.6000000000000005,15.55 L -0.6000000000000005,15.450000000000001" fill="#000000" />
    <path id="text" d="M 0.2999999999999998,15.450000000000001 L 0.5,15.450000000000001 L 0.5,15.55 L 0.2999999999999998,15.55 L 0.2999999999999998,15.450000000000001" fill="#000000" />
    <path id="text" d="M 1.3999999999999995,15.450000000000001 L 1.7000000000000002,15.450000000000001 L 1.7000000000000002,15.55 L 1.3999999999999995,15.55 L 1.3999999999999995,15.450000000000001" fill="#000000" />
    <path id="text" d="M 2.3,15.450000000000001 L 2.499999999999999,15.450000000000001 L 2.499999999999999,15.55 L 2.3,15.55 L 2.3,15.450000000000001" fill="#000000" />
    <path id="text" d="M 3.000000000000001,15.450000000000001 L 3.2,15.450000000000001 L 3.2,15.55 L 3.000000000000001,15.55 L 3.000000000000001,15.450000000000001" fill="#000000" />
    <path id="text" d="M 4.000000000000001,15.450000000000001 L 4.2,15.450000000000001 L 4.2,15.55 L 4.000000000000001,15.55 L 4.000000000000001,15.450000000000001" fill="#000000" />
    <path id="text" d="M 4.8999999999999995,15.450000000000001 L 5.1000000000000005,15.450000000000001 L 5.1000000000000005,15.55 L 4.8999999999999995,15.55 L 4.8999999999999995,15.450000000000001" fill="#000000" />
    <path id="text" d="M 5.3,15.450000000000001 L 5.500000000000001,15.450000000000001 L 5.500000000000001,15.55 L 5.3,15.55 L 5.3,15.450000000000001" fill="#000000" />
    <path id="text" d="M 6.2,15.450000000000001 L 6.3,15.450000000000001 L 6.3,15.55 L 6.2,15.55 L 6.2,15.450000000000001" fill="#000000" />
    <path id="text" d="M -5.7,15.55 L -5.5,15.55 L -5.5,15.65 L -5.7,15.65 L -5.7,15.55" fill="#000000" />
    <path id="text" d="M -5.0,15.55 L -4.800000000000001,15.55 L -4.800000000000001,15.65 L -5.0,15.65 L -5.0,15.55" fill="#000000" />
    <path id="text" d="M -4.300000000000001,15.55 L -4.1000000000000005,15.55 L -4.1000000000000005,15.65 L -4.300000000000001,15.65 L -4.300000000000001,15.55" fill="#000000" />
    <path id="text" d="M -3.2,15.55 L -3.0000000000000004,15.55 L -3.0000000000000004,15.65 L -3.2,15.65 L -3.2,15.55" fill="#000000" />
    <path id="text" d="M -2.4000000000000004,15.55 L -2.2,15.55 L -2.2,15.65 L -2.4000000000000004,15.65 L -2.4000000000000004,15.55" fill="#000000" />
    <path id="text" d="M -1.7000000000000002,15.55 L -1.5,15.55 L -1.5,15.65 L -1.7000000000000002,15.65 L -1.7000000000000002,15.55" fill="#000000" />
    <path id="text" d="M -0.6000000000000005,15.55 L -0.40000000000000036,15.55 L -0.40000000000000036,15.65 L -0.6000000000000005,15.65 L -0.6000000000000005,15.55" fill="#000000" />
    <path id="text" d="M 0.20000000000000018,15.55 L 0.39999999999999947,15.55 L 0.39999999999999947,15.65 L 0.20000000000000018,15.65 L 0.20000000000000018,15.55" fill="#000000" />
    <path id="text" d="M 1.4999999999999991,15.55 L 1.7000000000000002,15.55 L 1.7000000000000002,15.65 L 1.4999999999999991,15.65 L 1.4999999999999991,15.55" fill="#000000" />
    <path id="text" d="M 2.2,15.55 L 2.3999999999999995,15.55 L 2.3999999999999995,15.65 L 2.2,15.65 L 2.2,15.55" fill="#000000" />
    <path id="text" d="M 3.000000000000001,15.55 L 3.2,15.55 L 3.2,15.65 L 3.000000000000001,15.65 L 3.000000000000001,15.55" fill="#000000" />
    <path id="text" d="M 4.1000000000000005,15.55 L 4.3,15.55 L 4.3,15.65 L 4.1000000000000005,15.65 L 4.1000000000000005,15.55" fill="#000000" />
    <path id="text" d="M 4.8,15.55 L 5.000000000000001,15.55 L 5.000000000000001,15.65 L 4.8,15.65 L 4.8,15.55" fill="#000000" />
    <path id="text" d="M 5.3999999999999995,15.55 L 5.6000000000000005,15.55 L 5.6000000000000005,15.65 L 5.3999999999999995,15.65 L 5.3999999999999995,15.55" fill="#000000" />
    <path id="text" d="M 6.1000000000000005,15.55 L 6.3,15.55 L 6.3,15.65 L 6.1000000000000005,15.65 L 6.1000000000000005,15.55" fill="#000000" />
    <path id="text" d="M -5.7,15.65 L -5.5,15.65 L -5.5,15.75 L -5.7,15.75 L -5.7,15.65" fill="#000000" />
    <path id="text" d="M -4.9,15.65 L -4.2,15.65 L -4.2,15.75 L -4.9,15.75 L -4.9,15.65" fill="#000000" />
    <path id="text" d="M -3.2,15.65 L -3.0000000000000004,15.65 L -3.0000000000000004,15.75 L -3.2,15.75 L -3.2,15.65" fill="#000000" />
    <path id="text" d="M -2.3000000000000007,15.65 L -1.6000000000000005,15.65 L -1.6000000000000005,15.75 L -2.3000000000000007,15.75 L -2.3000000000000007,15.65" fill="#000000" />
    <path id="text" d="M -0.6000000000000005,15.65 L -0.40000000000000036,15.65 L -0.40000000000000036,15.75 L -0.6000000000000005,15.75 L -0.6000000000000005,15.65" fill="#000000" />
    <path id="text" d="M 0.09999999999999964,15.65 L 1.2000000000000002,15.65 L 1.2000000000000002,15.75 L 0.09999999999999964,15.75 L 0.09999999999999964,15.65" fill="#000000" />
    <path id="text" d="M 1.6000000000000005,15.65 L 2.3,15.65 L 2.3,15.75 L 1.6000000000000005,15.75 L 1.6000000000000005,15.65" fill="#000000" />
    <path id="text" d="M 3.000000000000001,15.65 L 3.2,15.65 L 3.2,15.75 L 3.000000000000001,15.75 L 3.000000000000001,15.65" fill="#000000" />
    <path id="text" d="M 4.1000000000000005,15.65 L 5.000000000000001,15.65 L 5.000000000000001,15.75 L 4.1000000000000005,15.75 L 4.1000000000000005,15.65" fill="#000000" />
    <path id="text" d="M 5.3999999999999995,15.65 L 6.2,15.65 L 6.2,15.75 L 5.3999999999999995,15.75 L 5.3999999999999995,15.65" fill="#000000" />
    <path id="text" d="M -5.7,15.75 L -5.5,15.75 L -5.5,15.850000000000001 L -5.7,15.850000000000001 L -5.7,15.75" fill="#000000" />
    <path id="text" d="M -4.800000000000001,15.75 L -4.300000000000001,15.75 L -4.300000000000001,15.850000000000001 L -4.800000000000001,15.850000000000001 L -4.800000000000001,15.75" fill="#000000" />
    <path id="text" d="M -3.2,15.75 L -3.0000000000000004,15.75 L -3.0000000000000004,15.850000000000001 L -3.2,15.850000000000001 L -3.2,15.75" fill="#000000" />
    <path id="text" d="M -2.2,15.75 L -1.7000000000000002,15.75 L -1.7000000000000002,15.850000000000001 L -2.2,15.850000000000001 L -2.2,15.75" fill="#000000" />
    <path id="text" d="M -0.6000000000000005,15.75 L -0.40000000000000036,15.75 L -0.40000000000000036,15.850000000000001 L -0.6000000000000005,15.850000000000001 L -0.6000000000000005,15.75" fill="#000000" />
    <path id="text" d="M 0.09999999999999964,15.75 L 1.2000000000000002,15.75 L 1.2000000000000002,15.850000000000001 L 0.09999999999999964,15.850000000000001 L 0.09999999999999964,15.75" fill="#000000" />
    <path id="text" d="M 1.7000000000000002,15.75 L 2.2,15.75 L 2.2,15.850000000000001 L 1.7000000000000002,15.850000000000001 L 1.7000000000000002,15.75" fill="#000000" />
    <path id="text" d="M 3.000000000000001,15.75 L 3.2,15.75 L 3.2,15.850000000000001 L 3.000000000000001,15.850000000000001 L 3.000000000000001,15.75" fill="#000000" />
    <path id="text" d="M 4.3,15.75 L 4.8,15.75 L 4.8,15.850000000000001 L 4.3,15.850000000000001 L 4.3,15.75" fill="#000000" />
    <path id="text" d="M 5.6000000000000005,15.75 L 6.1000000000000005,15.75 L 6.1000000000000005,15.850000000000001 L 5.6000000000000005,15.850000000000001 L 5.6000000000000005,15.75" fill="#000000" />
  </g>
</svg>