<?xml version="1.0" encoding="UTF-8" standalone="no"?>
<svg width="75.0mm" height="75.0mm" viewBox="-37.5 -37.5 75.0 75.0" xmlns="http://www.w3.org/2000/svg">
  <path id="barcode" d="M -18.0 -10.0 L -17.6 -10.0 L -17.6 10.0 L -18.0 10.0 Z" fill="#000000" />
  <path id="barcode" d="M -17.6 -10.0 L -17.200000000000003 -10.0 L -17.200000000000003 10.0 L -17.6 10.0 Z" fill="#000000" />
  <path id="barcode" d="M -16.800000000000004 -10.0 L -16.400000000000006 -10.0 L -16.400000000000006 10.0 L -16.800000000000004 10.0 Z" fill="#000000" />
  <path id="barcode" d="M -15.600000000000009 -10.0 L -15.200000000000008 -10.0 L -15.200000000000008 10.0 L -15.600000000000009 10.0 Z" fill="#000000" />
  <path id="barcode" d="M -15.200000000000008 -10.0 L -14.800000000000008 -10.0 L -14.800000000000008 10.0 L -15.200000000000008 10.0 Z" fill="#000000" />
  <path id="barcode" d="M -14.800000000000008 -10.0 L -14.400000000000007 -10.0 L -14.400000000000007 10.0 L -14.800000000000008 10.0 Z" fill="#000000" />
  <path id="barcode" d="M -13.600000000000007 -10.0 L -13.200000000000006 -10.0 L -13.200000000000006 10.0 L -13.600000000000007 10.0 Z" fill="#000000" />
  <path id="barcode" d="M -12.800000000000006 -10.0 L -12.400000000000006 -10.0 L -12.400000000000006 10.0 L -12.800000000000006 10.0 Z" fill="#000000" />
  <path id="barcode" d="M -12.400000000000006 -10.0 L -12.000000000000005 -10.0 L -12.000000000000005 10.0 L -12.400000000000006 10.0 Z" fill="#000000" />
  <path id="barcode" d="M -10.800000000000004 -10.0 L -10.400000000000004 -10.0 L -10.400000000000004 10.0 L -10.800000000000004 10.0 Z" fill="#000000" />
  <path id="barcode" d="M -10.400000000000004 -10.0 L -10.000000000000004 -10.0 L -10.000000000000004 10.0 L -10.400000000000004 10.0 Z" fill="#000000" />
  <path id="barcode" d="M -10.000000000000004 -10.0 L -9.600000000000003 -10.0 L -9.600000000000003 10.0 L -10.000000000000004 10.0 Z" fill="#000000" />
  <path id="barcode" d="M -9.200000000000003 -10.0 L -8.800000000000002 -10.0 L -8.800000000000002 10.0 L -9.200000000000003 10.0 Z" fill="#000000" />
  <path id="barcode" d="M -8.000000000000002 -10.0 L -7.600000000000001 -10.0 L -7.600000000000001 10.0 L -8.000000000000002 10.0 Z" fill="#000000" />
  <path id="barcode" d="M -7.600000000000001 -10.0 L -7.200000000000001 -10.0 L -7.200000000000001 10.0 L -7.600000000000001 10.0 Z" fill="#000000" />
  <path id="barcode" d="M -6.800000000000001 -10.0 L -6.4 -10.0 L -6.4 10.0 L -6.800000000000001 10.0 Z" fill="#000000" />
  <path id="barcode" d="M -6.4 -10.0 L -6.0 -10.0 L -6.0 10.0 L -6.4 10.0 Z" fill="#000000" />
  <path id="barcode" d="M -6.0 -10.0 L -5.6 -10.0 L -5.6 10.0 L -6.0 10.0 Z" fill="#000000" />
  <path id="barcode" d="M -4.799999999999999 -10.0 L -4.399999999999999 -10.0 L -4.399999999999999 10.0 L -4.799999999999999 10.0 Z" fill="#000000" />
  <path id="barcode" d="M -4.399999999999999 -10.0 L -3.9999999999999987 -10.0 L -3.9999999999999987 10.0 L -4.399999999999999 10.0 Z" fill="#000000" />
  <path id="barcode" d="M -2.799999999999999 -10.0 L -2.399999999999999 -10.0 L -2.399999999999999 10.0 L -2.799999999999999 10.0 Z" fill="#000000" />
  <path id="barcode" d="M -1.5999999999999992 -10.0 L -1.1999999999999993 -10.0 L -1.1999999999999993 10.0 L -1.5999999999999992 10.0 Z" fill="#000000" />
  <path id="barcode" d="M -0.39999999999999925 -10.0 L 7.771561172376096e-16 -10.0 L 7.771561172376096e-16 10.0 L -0.39999999999999925 10.0 Z" fill="#000000" />
  <path id="barcode" d="M 7.771561172376096e-16 -10.0 L 0.4000000000000008 -10.0 L 0.4000000000000008 10.0 L 7.771561172376096e-16 10.0 Z" fill="#000000" />
  <path id="barcode" d="M 0.8000000000000008 -10.0 L 1.2000000000000008 -10.0 L 1.2000000000000008 10.0 L 0.8000000000000008 10.0 Z" fill="#000000" />
  <path id="barcode" d="M 1.2000000000000008 -10.0 L 1.600000000000001 -10.0 L 1.600000000000001 10.0 L 1.2000000000000008 10.0 Z" fill="#000000" />
  <path id="barcode" d="M 2.400000000000001 -10.0 L 2.8000000000000007 -10.0 L 2.8000000000000007 10.0 L 2.400000000000001 10.0 Z" fill="#000000" />
  <path id="barcode" d="M 2.8000000000000007 -10.0 L 3.2000000000000006 -10.0 L 3.2000000000000006 10.0 L 2.8000000000000007 10.0 Z" fill="#000000" />
  <path id="barcode" d="M 4.000000000000001 -10.0 L 4.400000000000001 -10.0 L 4.400000000000001 10.0 L 4.000000000000001 10.0 Z" fill="#000000" />
  <path id="barcode" d="M 4.400000000000001 -10.0 L 4.800000000000002 -10.0 L 4.800000000000002 10.0 L 4.400000000000001 10.0 Z" fill="#000000" />
  <path id="barcode" d="M 5.600000000000002 -10.0 L 6.000000000000003 -10.0 L 6.000000000000003 10.0 L 5.600000000000002 10.0 Z" fill="#000000" />
  <path id="barcode" d="M 7.200000000000004 -10.0 L 7.600000000000004 -10.0 L 7.600000000000004 10.0 L 7.200000000000004 10.0 Z" fill="#000000" />
  <path id="barcode" d="M 8.400000000000004 -10.0 L 8.800000000000004 -10.0 L 8.800000000000004 10.0 L 8.400000000000004 10.0 Z" fill="#000000" />
  <path id="barcode" d="M 8.800000000000004 -10.0 L 9.200000000000005 -10.0 L 9.200000000000005 10.0 L 8.800000000000004 10.0 Z" fill="#000000" />
  <path id="barcode" d="M 9.600000000000005 -10.0 L 10.000000000000005 -10.0 L 10.000000000000005 10.0 L 9.600000000000005 10.0 Z" fill="#000000" />
  <path id="barcode" d="M 10.000000000000005 -10.0 L 10.400000000000006 -10.0 L 10.400000000000006 10.0 L 10.000000000000005 10.0 Z" fill="#000000" />
  <path id="barcode" d="M 10.400000000000006 -10.0 L 10.800000000000006 -10.0 L 10.800000000000006 10.0 L 10.400000000000006 10.0 Z" fill="#000000" />
  <path id="barcode" d="M 11.200000000000006 -10.0 L 11.600000000000007 -10.0 L 11.600000000000007 10.0 L 11.200000000000006 10.0 Z" fill="#000000" />
  <path id="barcode" d="M 12.800000000000008 -10.0 L 13.200000000000008 -10.0 L 13.200000000000008 10.0 L 12.800000000000008 10.0 Z" fill="#000000" />
  <path id="barcode" d="M 13.200000000000008 -10.0 L 13.600000000000009 -10.0 L 13.600000000000009 10.0 L 13.200000000000008 10.0 Z" fill="#000000" />
  <path id="barcode" d="M 14.80000000000001 -10.0 L 15.20000000000001 -10.0 L 15.20000000000001 10.0 L 14.80000000000001 10.0 Z" fill="#000000" />
  <path id="barcode" d="M 15.20000000000001 -10.0 L 15.60000000000001 -10.0 L 15.60000000000001 10.0 L 15.20000000000001 10.0 Z" fill="#000000" />
  <path id="barcode" d="M 15.60000000000001 -10.0 L 16.000000000000007 -10.0 L 16.000000000000007 10.0 L 15.60000000000001 10.0 Z" fill="#000000" />
  <path id="barcode" d="M 16.400000000000006 -10.0 L 16.800000000000004 -10.0 L 16.800000000000004 10.0 L 16.400000000000006 10.0 Z" fill="#000000" />
  <path id="barcode" d="M 17.200000000000003 -10.0 L 17.6 -10.0 L 17.6 10.0 L 17.200000000000003 10.0 Z" fill="#000000" />
  <path id="barcode" d="M 17.6 -10.0 L 18.0 -10.0 L 18.0 10.0 L 17.6 10.0 Z" fill="#000000" />
  <path id="barcode" d="M -9.8 14.55 L -9.600000000000001 14.55 L -9.600000000000001 14.65 L -9.8 14.65 Z" fill="#000000" />
  <path id="barcode" d="M -7.900000000000001 14.55 L -7.500000000000002 14.55 L -7.500000000000002 14.65 L -7.900000000000001 14.65 Z" fill="#000000" />
  <path id="barcode" d="M -5.300000000000001 14.55 L -5.100000000000001 14.55 L -5.100000000000001 14.65 L -5.300000000000001 14.65 Z" fill="#000000" />
  <path id="barcode" d="M -3.3000000000000007 14.55 L -2.9000000000000004 14.55 L -2.9000000000000004 14.65 L -3.3000000000000007 14.65 Z" fill="#000000" />
  <path id="barcode" d="M -0.7000000000000011 14.55 L -0.5 14.55 L -0.5 14.65 L -0.7000000000000011 14.65 Z" fill="#000000" />
  <path id="barcode" d="M 1.5999999999999996 14.55 L 1.799999999999999 14.55 L 1.799999999999999 14.65 L 1.5999999999999996 14.65 Z" fill="#000000" />
  <path id="barcode" d="M 3.5999999999999996 14.55 L 4.1 14.55 L 4.1 14.65 L 3.5999999999999996 14.65 Z" fill="#000000" />
  <path id="barcode" d="M 5.899999999999999 14.55 L 6.399999999999999 14.55 L 6.399999999999999 14.65 L 5.899999999999999 14.65 Z" fill="#000000" />
  <path id="barcode" d="M 8.5 14.55 L 8.7 14.55 L 8.7 14.65 L 8.5 14.65 Z" fill="#000000" />
  <path id="barcode" d="M 10.5 14.55 L 11.0 14.55 L 11.0 14.65 L 10.5 14.65 Z" fill="#000000" />
  <path id="barcode" d="M -9.900000000000002 14.65 L -9.600000000000001 14.65 L -9.600000000000001 14.75 L -9.900000000000002 14.75 Z" fill="#000000" />
  <path id="barcode" d="M -8.100000000000001 14.65 L -7.300000000000001 14.65 L -7.300000000000001 14.75 L -8.100000000000001 14.75 Z" fill="#000000" />
  <path id="barcode" d="M -5.300000000000001 14.65 L -5.100000000000001 14.65 L -5.100000000000001 14.75 L -5.300000000000001 14.75 Z" fill="#000000" />
  <path id="barcode" d="M -3.500000000000001 14.65 L -2.700000000000001 14.65 L -2.700000000000001 14.75 L -3.500000000000001 14.75 Z" fill="#000000" />
  <path id="barcode" d="M -0.7000000000000011 14.65 L -0.5 14.65 L -0.5 14.75 L -0.7000000000000011 14.75 Z" fill="#000000" />
  <path id="barcode" d="M 1.5999999999999996 14.65 L 1.799999999999999 14.65 L 1.799999999999999 14.75 L 1.5999999999999996 14.75 Z" fill="#000000" />
  <path id="barcode" d="M 3.5 14.65 L 4.199999999999999 14.65 L 4.199999999999999 14.75 L 3.5 14.75 Z" fill="#000000" />
  <path id="barcode" d="M 5.800000000000001 14.65 L 6.5 14.65 L 6.5 14.75 L 5.800000000000001 14.75 Z" fill="#000000" />
  <path id="barcode" d="M 8.5 14.65 L 8.7 14.65 L 8.7 14.75 L 8.5 14.75 Z" fill="#000000" />
  <path id="barcode" d="M 10.399999999999999 14.65 L 11.100000000000001 14.65 L 11.100000000000001 14.75 L 10.399999999999999 14.75 Z" fill="#000000" />
  <path id="barcode" d="M -10.000000000000002 14.75 L -9.600000000000001 14.75 L -9.600000000000001 14.85 L -10.000000000000002 14.85 Z" fill="#000000" />
  <path id="barcode" d="M -8.100000000000001 14.75 L -7.900000000000001 14.75 L -7.900000000000001 14.85 L -8.100000000000001 14.85 Z" fill="#000000" />
  <path id="barcode" d="M -7.500000000000002 14.75 L -7.200000000000001 14.75 L -7.200000000000001 14.85 L -7.500000000000002 14.85 Z" fill="#000000" />
  <path id="barcode" d="M -5.400000000000001 14.75 L -5.100000000000001 14.75 L -5.100000000000001 14.85 L -5.400000000000001 14.85 Z" fill="#000000" />
  <path id="barcode" d="M -3.500000000000001 14.75 L -3.3000000000000007 14.75 L -3.3000000000000007 14.85 L -3.500000000000001 14.85 Z" fill="#000000" />
  <path id="barcode" d="M -2.9000000000000004 14.75 L -2.6000000000000014 14.75 L -2.6000000000000014 14.85 L -2.9000000000000004 14.85 Z" fill="#000000" />
  <path id="barcode" d="M -0.8000000000000007 14.75 L -0.5 14.75 L -0.5 14.85 L -0.8000000000000007 14.85 Z" fill="#000000" />
  <path id="barcode" d="M 1.5 14.75 L 1.799999999999999 14.75 L 1.799999999999999 14.85 L 1.5 14.85 Z" fill="#000000" />
  <path id="barcode" d="M 3.3999999999999986 14.75 L 3.6999999999999993 14.75 L 3.6999999999999993 14.85 L 3.3999999999999986 14.85 Z" fill="#000000" />
  <path id="barcode" d="M 4.0 14.75 L 4.299999999999999 14.75 L 4.299999999999999 14.85 L 4.0 14.85 Z" fill="#000000" />
  <path id="barcode" d="M 5.699999999999999 14.75 L 6.0 14.75 L 6.0 14.85 L 5.699999999999999 14.85 Z" fill="#000000" />
  <path id="barcode" d="M 6.300000000000001 14.75 L 6.599999999999998 14.75 L 6.599999999999998 14.85 L 6.300000000000001 14.85 Z" fill="#000000" />
  <path id="barcode" d="M 8.399999999999999 14.75 L 8.7 14.75 L 8.7 14.85 L 8.399999999999999 14.85 Z" fill="#000000" />
  <path id="barcode" d="M 10.3 14.75 L 10.600000000000001 14.75 L 10.600000000000001 14.85 L 10.3 14.85 Z" fill="#000000" />
  <path id="barcode" d="M 10.899999999999999 14.75 L 11.2 14.75 L 11.2 14.85 L 10.899999999999999 14.85 Z" fill="#000000" />
  <path id="barcode" d="M -10.000000000000002 14.85 L -9.600000000000001 14.85 L -9.600000000000001 14.95 L -10.000000000000002 14.95 Z" fill="#000000" />
  <path id="barcode" d="M -8.200000000000001 14.85 L -8.000000000000002 14.85 L -8.000000000000002 14.95 L -8.200000000000001 14.95 Z" fill="#000000" />
  <path id="barcode" d="M -7.400000000000001 14.85 L -7.200000000000001 14.85 L -7.200000000000001 14.95 L -7.400000000000001 14.95 Z" fill="#000000" />
  <path id="barcode" d="M -5.600000000000001 14.85 L -5.100000000000001 14.85 L -5.100000000000001 14.95 L -5.600000000000001 14.95 Z" fill="#000000" />
  <path id="barcode" d="M -3.6000000000000014 14.85 L -3.4000000000000012 14.85 L -3.4000000000000012 14.95 L -3.6000000000000014 14.95 Z" fill="#000000" />
  <path id="barcode" d="M -2.8000000000000007 14.85 L -2.6000000000000014 14.85 L -2.6000000000000014 14.95 L -2.8000000000000007 14.95 Z" fill="#000000" />
  <path id="barcode" d="M -1.0 14.85 L -0.5 14.85 L -0.5 14.95 L -1.0 14.95 Z" fill="#000000" />
  <path id="barcode" d="M 1.299999999999999 14.85 L 1.799999999999999 14.85 L 1.799999999999999 14.95 L 1.299999999999999 14.95 Z" fill="#000000" />
  <path id="barcode" d="M 3.3999999999999986 14.85 L 3.5999999999999996 14.85 L 3.5999999999999996 14.95 L 3.3999999999999986 14.95 Z" fill="#000000" />
  <path id="barcode" d="M 4.1 14.85 L 4.299999999999999 14.85 L 4.299999999999999 14.95 L 4.1 14.95 Z" fill="#000000" />
  <path id="barcode" d="M 5.699999999999999 14.85 L 5.899999999999999 14.85 L 5.899999999999999 14.95 L 5.699999999999999 14.95 Z" fill="#000000" />
  <path id="barcode" d="M 6.399999999999999 14.85 L 6.599999999999998 14.85 L 6.599999999999998 14.95 L 6.399999999999999 14.95 Z" fill="#000000" />
  <path id="barcode" d="M 8.2 14.85 L 8.7 14.85 L 8.7 14.95 L 8.2 14.95 Z" fill="#000000" />
  <path id="barcode" d="M 10.3 14.85 L 10.5 14.85 L 10.5 14.95 L 10.3 14.95 Z" fill="#000000" />
  <path id="barcode" d="M 11.0 14.85 L 11.2 14.85 L 11.2 14.95 L 11.0 14.95 Z" fill="#000000" />
  <path id="barcode" d="M -10.100000000000001 14.95 L -9.900000000000002 14.95 L -9.900000000000002 15.05 L -10.100000000000001 15.05 Z" fill="#000000" />
  <path id="barcode" d="M -9.8 14.95 L -9.600000000000001 14.95 L -9.600000000000001 15.05 L -9.8 15.05 Z" fill="#000000" />
  <path id="barcode" d="M -7.400000000000001 14.95 L -7.200000000000001 14.95 L -7.200000000000001 15.05 L -7.400000000000001 15.05 Z" fill="#000000" />
  <path id="barcode" d="M -5.700000000000001 14.95 L -5.400000000000001 14.95 L -5.400000000000001 15.05 L -5.700000000000001 15.05 Z" fill="#000000" />
  <path id="barcode" d="M -5.300000000000001 14.95 L -5.100000000000001 14.95 L -5.100000000000001 15.05 L -5.300000000000001 15.05 Z" fill="#000000" />
  <path id="barcode" d="M -2.8000000000000007 14.95 L -2.6000000000000014 14.95 L -2.6000000000000014 15.05 L -2.8000000000000007 15.05 Z" fill="#000000" />
  <path id="barcode" d="M -1.1000000000000014 14.95 L -0.8000000000000007 14.95 L -0.8000000000000007 15.05 L -1.1000000000000014 15.05 Z" fill="#000000" />
  <path id="barcode" d="M -0.7000000000000011 14.95 L -0.5 14.95 L -0.5 15.05 L -0.7000000000000011 15.05 Z" fill="#000000" />
  <path id="barcode" d="M 1.1999999999999993 14.95 L 1.5 14.95 L 1.5 15.05 L 1.1999999999999993 15.05 Z" fill="#000000" />
  <path id="barcode" d="M 1.5999999999999996 14.95 L 1.799999999999999 14.95 L 1.799999999999999 15.05 L 1.5999999999999996 15.05 Z" fill="#000000" />
  <path id="barcode" d="M 3.299999999999999 14.95 L 3.5 14.95 L 3.5 15.05 L 3.299999999999999 15.05 Z" fill="#000000" />
  <path id="barcode" d="M 4.199999999999999 14.95 L 4.399999999999999 14.95 L 4.399999999999999 15.05 L 4.199999999999999 15.05 Z" fill="#000000" />
  <path id="barcode" d="M 5.599999999999998 14.95 L 5.800000000000001 14.95 L 5.800000000000001 15.05 L 5.599999999999998 15.05 Z" fill="#000000" />
  <path id="barcode" d="M 6.5 14.95 L 6.699999999999999 14.95 L 6.699999999999999 15.05 L 6.5 15.05 Z" fill="#000000" />
  <path id="barcode" d="M 8.100000000000001 14.95 L 8.399999999999999 14.95 L 8.399999999999999 15.05 L 8.100000000000001 15.05 Z" fill="#000000" />
  <path id="barcode" d="M 8.5 14.95 L 8.7 14.95 L 8.7 15.05 L 8.5 15.05 Z" fill="#000000" />
  <path id="barcode" d="M 10.2 14.95 L 10.399999999999999 14.95 L 10.399999999999999 15.05 L 10.2 15.05 Z" fill="#000000" />
  <path id="barcode" d="M 11.100000000000001 14.95 L 11.3 14.95 L 11.3 15.05 L 11.100000000000001 15.05 Z" fill="#000000" />
  <path id="barcode" d="M -10.200000000000001 15.05 L -9.900000000000002 15.05 L -9.900000000000002 15.15 L -10.200000000000001 15.15 Z" fill="#000000" />
  <path id="barcode" d="M -9.8 15.05 L -9.600000000000001 15.05 L -9.600000000000001 15.15 L -9.8 15.15 Z" fill="#000000" />
  <path id="barcode" d="M -7.400000000000001 15.05 L -7.200000000000001 15.05 L -7.200000000000001 15.15 L -7.400000000000001 15.15 Z" fill="#000000" />
  <path id="barcode" d="M -5.700000000000001 15.05 L -5.500000000000001 15.05 L -5.500000000000001 15.15 L -5.700000000000001 15.15 Z" fill="#000000" />
  <path id="barcode" d="M -5.300000000000001 15.05 L -5.100000000000001 15.05 L -5.100000000000001 15.15 L -5.300000000000001 15.15 Z" fill="#000000" />
  <path id="barcode" d="M -2.8000000000000007 15.05 L -2.6000000000000014 15.05 L -2.6000000000000014 15.15 L -2.8000000000000007 15.15 Z" fill="#000000" />
  <path id="barcode" d="M -1.1000000000000014 15.05 L -0.9000000000000004 15.05 L -0.9000000000000004 15.15 L -1.1000000000000014 15.15 Z" fill="#000000" />
  <path id="barcode" d="M -0.7000000000000011 15.05 L -0.5 15.05 L -0.5 15.15 L -0.7000000000000011 15.15 Z" fill="#000000" />
  <path id="barcode" d="M 1.1999999999999993 15.05 L 1.3999999999999986 15.05 L 1.3999999999999986 15.15 L 1.1999999999999993 15.15 Z" fill="#000000" />
  <path id="barcode" d="M 1.5999999999999996 15.05 L 1.799999999999999 15.05 L 1.799999999999999 15.15 L 1.5999999999999996 15.15 Z" fill="#000000" />
  <path id="barcode" d="M 3.299999999999999 15.05 L 3.5 15.05 L 3.5 15.15 L 3.299999999999999 15.15 Z" fill="#000000" />
  <path id="barcode" d="M 4.199999999999999 15.05 L 4.399999999999999 15.05 L 4.399999999999999 15.15 L 4.199999999999999 15.15 Z" fill="#000000" />
  <path id="barcode" d="M 5.599999999999998 15.05 L 5.800000000000001 15.05 L 5.800000000000001 15.15 L 5.599999999999998 15.15 Z" fill="#000000" />
  <path id="barcode" d="M 6.5 15.05 L 6.699999999999999 15.05 L 6.699999999999999 15.15 L 6.5 15.15 Z" fill="#000000" />
  <path id="barcode" d="M 8.100000000000001 15.05 L 8.3 15.05 L 8.3 15.15 L 8.100000000000001 15.15 Z" fill="#000000" />
  <path id="barcode" d="M 8.5 15.05 L 8.7 15.05 L 8.7 15.15 L 8.5 15.15 Z" fill="#000000" />
  <path id="barcode" d="M 10.2 15.05 L 10.399999999999999 15.05 L 10.399999999999999 15.15 L 10.2 15.15 Z" fill="#000000" />
  <path id="barcode" d="M 11.100000000000001 15.05 L 11.3 15.05 L 11.3 15.15 L 11.100000000000001 15.15 Z" fill="#000000" />
  <path id="barcode" d="M -10.200000000000001 15.15 L -10.000000000000002 15.15 L -10.000000000000002 15.25 L -10.200000000000001 15.25 Z" fill="#000000" />
  <path id="barcode" d="M -9.8 15.15 L -9.600000000000001 15.15 L -9.600000000000001 15.25 L -9.8 15.25 Z" fill="#000000" />
  <path id="barcode" d="M -7.500000000000002 15.15 L -7.300000000000001 15.15 L -7.300000000000001 15.25 L -7.500000000000002 15.25 Z" fill="#000000" />
  <path id="barcode" d="M -5.300000000000001 15.15 L -5.100000000000001 15.15 L -5.100000000000001 15.25 L -5.300000000000001 15.25 Z" fill="#000000" />
  <path id="barcode" d="M -2.9000000000000004 15.15 L -2.700000000000001 15.15 L -2.700000000000001 15.25 L -2.9000000000000004 15.25 Z" fill="#000000" />
  <path id="barcode" d="M -0.7000000000000011 15.15 L -0.5 15.15 L -0.5 15.25 L -0.7000000000000011 15.25 Z" fill="#000000" />
  <path id="barcode" d="M 1.5999999999999996 15.15 L 1.799999999999999 15.15 L 1.799999999999999 15.25 L 1.5999999999999996 15.25 Z" fill="#000000" />
  <path id="barcode" d="M 3.299999999999999 15.15 L 3.5 15.15 L 3.5 15.25 L 3.299999999999999 15.25 Z" fill="#000000" />
  <path id="barcode" d="M 4.199999999999999 15.15 L 4.399999999999999 15.15 L 4.399999999999999 15.25 L 4.199999999999999 15.25 Z" fill="#000000" />
  <path id="barcode" d="M 5.599999999999998 15.15 L 5.800000000000001 15.15 L 5.800000000000001 15.25 L 5.599999999999998 15.25 Z" fill="#000000" />
  <path id="barcode" d="M 6.5 15.15 L 6.699999999999999 15.15 L 6.699999999999999 15.25 L 6.5 15.25 Z" fill="#000000" />
  <path id="barcode" d="M 8.5 15.15 L 8.7 15.15 L 8.7 15.25 L 8.5 15.25 Z" fill="#000000" />
  <path id="barcode" d="M 10.2 15.15 L 10.399999999999999 15.15 L 10.399999999999999 15.25 L 10.2 15.25 Z" fill="#000000" />
  <path id="barcode" d="M 11.100000000000001 15.15 L 11.3 15.15 L 11.3 15.25 L 11.100000000000001 15.25 Z" fill="#000000" />
  <path id="barcode" d="M -10.3 15.25 L -10.100000000000001 15.25 L -10.100000000000001 15.35 L -10.3 15.35 Z" fill="#000000" />
  <path id="barcode" d="M -9.8 15.25 L -9.600000000000001 15.25 L -9.600000000000001 15.35 L -9.8 15.35 Z" fill="#000000" />
  <path id="barcode" d="M -7.800000000000001 15.25 L -7.400000000000001 15.25 L -7.400000000000001 15.35 L -7.800000000000001 15.35 Z" fill="#000000" />
  <path id="barcode" d="M -5.300000000000001 15.25 L -5.100000000000001 15.25 L -5.100000000000001 15.35 L -5.300000000000001 15.35 Z" fill="#000000" />
  <path id="barcode" d="M -3.200000000000001 15.25 L -2.8000000000000007 15.25 L -2.8000000000000007 15.35 L -3.200000000000001 15.35 Z" fill="#000000" />
  <path id="barcode" d="M -0.7000000000000011 15.25 L -0.5 15.25 L -0.5 15.35 L -0.7000000000000011 15.35 Z" fill="#000000" />
  <path id="barcode" d="M 1.5999999999999996 15.25 L 1.799999999999999 15.25 L 1.799999999999999 15.35 L 1.5999999999999996 15.35 Z" fill="#000000" />
  <path id="barcode" d="M 3.299999999999999 15.25 L 3.5 15.25 L 3.5 15.35 L 3.299999999999999 15.35 Z" fill="#000000" />
  <path id="barcode" d="M 4.199999999999999 15.25 L 4.399999999999999 15.25 L 4.399999999999999 15.35 L 4.199999999999999 15.35 Z" fill="#000000" />
  <path id="barcode" d="M 5.599999999999998 15.25 L 5.800000000000001 15.25 L 5.800000000000001 15.35 L 5.599999999999998 15.35 Z" fill="#000000" />
  <path id="barcode" d="M 6.5 15.25 L 6.699999999999999 15.25 L 6.699999999999999 15.35 L 6.5 15.35 Z" fill="#000000" />
  <path id="barcode" d="M 8.5 15.25 L 8.7 15.25 L 8.7 15.35 L 8.5 15.35 Z" fill="#000000" />
  <path id="barcode" d="M 10.2 15.25 L 10.399999999999999 15.25 L 10.399999999999999 15.35 L 10.2 15.35 Z" fill="#000000" />
  <path id="barcode" d="M 11.100000000000001 15.25 L 11.3 15.25 L 11.3 15.35 L 11.100000000000001 15.35 Z" fill="#000000" />
  <path id="barcode" d="M -10.3 15.35 L -10.100000000000001 15.35 L -10.100000000000001 15.45 L -10.3 15.45 Z" fill="#000000" />
  <path id="barcode" d="M -9.8 15.35 L -9.600000000000001 15.35 L -9.600000000000001 15.45 L -9.8 15.45 Z" fill="#000000" />
  <path id="barcode" d="M -7.800000000000001 15.35 L -7.300000000000001 15.35 L -7.300000000000001 15.45 L -7.800000000000001 15.45 Z" fill="#000000" />
  <path id="barcode" d="M -5.300000000000001 15.35 L -5.100000000000001 15.35 L -5.100000000000001 15.45 L -5.300000000000001 15.45 Z" fill="#000000" />
  <path id="barcode" d="M -3.200000000000001 15.35 L -2.700000000000001 15.35 L -2.700000000000001 15.45 L -3.200000000000001 15.45 Z" fill="#000000" />
  <path id="barcode" d="M -0.7000000000000011 15.35 L -0.5 15.35 L -0.5 15.45 L -0.7000000000000011 15.45 Z" fill="#000000" />
  <path id="barcode" d="M 1.5999999999999996 15.35 L 1.799999999999999 15.35 L 1.799999999999999 15.45 L 1.5999999999999996 15.45 Z" fill="#000000" />
  <path id="barcode" d="M 3.299999999999999 15.35 L 3.5 15.35 L 3.5 15.45 L 3.299999999999999 15.45 Z" fill="#000000" />
  <path id="barcode" d="M 4.199999999999999 15.35 L 4.399999999999999 15.35 L 4.399999999999999 15.45 L 4.199999999999999 15.45 Z" fill="#000000" />
  <path id="barcode" d="M 5.599999999999998 15.35 L 5.800000000000001 15.35 L 5.800000000000001 15.45 L 5.599999999999998 15.45 Z" fill="#000000" />
  <path id="barcode" d="M 6.5 15.35 L 6.699999999999999 15.35 L 6.699999999999999 15.45 L 6.5 15.45 Z" fill="#000000" />
  <path id="barcode" d="M 8.5 15.35 L 8.7 15.35 L 8.7 15.45 L 8.5 15.45 Z" fill="#000000" />
  <path id="barcode" d="M 10.2 15.35 L 10.399999999999999 15.35 L 10.399999999999999 15.45 L 10.2 15.45 Z" fill="#000000" />
  <path id="barcode" d="M 11.100000000000001 15.35 L 11.3 15.35 L 11.3 15.45 L 11.100000000000001 15.45 Z" fill="#000000" />
  <path id="barcode" d="M -10.400000000000002 15.45 L -10.200000000000001 15.45 L -10.200000000000001 15.55 L -10.400000000000002 15.55 Z" fill="#000000" />
  <path id="barcode" d="M -9.8 15.45 L -9.600000000000001 15.45 L -9.600000000000001 15.55 L -9.8 15.55 Z" fill="#000000" />
  <path id="barcode" d="M -7.400000000000001 15.45 L -7.200000000000001 15.45 L -7.200000000000001 15.55 L -7.400000000000001 15.55 Z" fill="#000000" />
  <path id="barcode" d="M -5.300000000000001 15.45 L -5.100000000000001 15.45 L -5.100000000000001 15.55 L -5.300000000000001 15.55 Z" fill="#000000" />
  <path id="barcode" d="M -2.8000000000000007 15.45 L -2.6000000000000014 15.45 L -2.6000000000000014 15.55 L -2.8000000000000007 15.55 Z" fill="#000000" />
  <path id="barcode" d="M -0.7000000000000011 15.45 L -0.5 15.45 L -0.5 15.55 L -0.7000000000000011 15.55 Z" fill="#000000" />
  <path id="barcode" d="M 1.5999999999999996 15.45 L 1.799999999999999 15.45 L 1.799999999999999 15.55 L 1.5999999999999996 15.55 Z" fill="#000000" />
  <path id="barcode" d="M 3.299999999999999 15.45 L 3.5 15.45 L 3.5 15.55 L 3.299999999999999 15.55 Z" fill="#000000" />
  <path id="barcode" d="M 4.199999999999999 15.45 L 4.399999999999999 15.45 L 4.399999999999999 15.55 L 4.199999999999999 15.55 Z" fill="#000000" />
  <path id="barcode" d="M 5.599999999999998 15.45 L 5.800000000000001 15.45 L 5.800000000000001 15.55 L 5.599999999999998 15.55 Z" fill="#000000" />
  <path id="barcode" d="M 6.5 15.45 L 6.699999999999999 15.45 L 6.699999999999999 15.55 L 6.5 15.55 Z" fill="#000000" />
  <path id="barcode" d="M 8.5 15.45 L 8.7 15.45 L 8.7 15.55 L 8.5 15.55 Z" fill="#000000" />
  <path id="barcode" d="M 10.2 15.45 L 10.399999999999999 15.45 L 10.399999999999999 15.55 L 10.2 15.55 Z" fill="#000000" />
  <path id="barcode" d="M 11.100000000000001 15.45 L 11.3 15.45 L 11.3 15.55 L 11.100000000000001 15.55 Z" fill="#000000" />
  <path id="barcode" d="M -10.500000000000002 15.55 L -10.200000000000001 15.55 L -10.200000000000001 15.65 L -10.500000000000002 15.65 Z" fill="#000000" />
  <path id="barcode" d="M -9.8 15.55 L -9.600000000000001 15.55 L -9.600000000000001 15.65 L -9.8 15.65 Z" fill="#000000" />
  <path id="barcode" d="M -7.300000000000001 15.55 L -7.100000000000001 15.55 L -7.100000000000001 15.65 L -7.300000000000001 15.65 Z" fill="#000000" />
  <path id="barcode" d="M -5.300000000000001 15.55 L -5.100000000000001 15.55 L -5.100000000000001 15.65 L -5.300000000000001 15.65 Z" fill="#000000" />
  <path id="barcode" d="M -2.700000000000001 15.55 L -2.5000000000000018 15.55 L -2.5000000000000018 15.65 L -2.700000000000001 15.65 Z" fill="#000000" />
  <path id="barcode" d="M -0.7000000000000011 15.55 L -0.5 15.55 L -0.5 15.65 L -0.7000000000000011 15.65 Z" fill="#000000" />
  <path id="barcode" d="M 1.5999999999999996 15.55 L 1.799999999999999 15.55 L 1.799999999999999 15.65 L 1.5999999999999996 15.65 Z" fill="#000000" />
  <path id="barcode" d="M 3.299999999999999 15.55 L 3.5 15.55 L 3.5 15.65 L 3.299999999999999 15.65 Z" fill="#000000" />
  <path id="barcode" d="M 4.199999999999999 15.55 L 4.399999999999999 15.55 L 4.399999999999999 15.65 L 4.199999999999999 15.65 Z" fill="#000000" />
  <path id="barcode" d="M 5.599999999999998 15.55 L 5.800000000000001 15.55 L 5.800000000000001 15.65 L 5.599999999999998 15.65 Z" fill="#000000" />
  <path id="barcode" d="M 6.5 15.55 L 6.699999999999999 15.55 L 6.699999999999999 15.65 L 6.5 15.65 Z" fill="#000000" />
  <path id="barcode" d="M 8.5 15.55 L 8.7 15.55 L 8.7 15.65 L 8.5 15.65 Z" fill="#000000" />
  <path id="barcode" d="M 10.2 15.55 L 10.399999999999999 15.55 L 10.399999999999999 15.65 L 10.2 15.65 Z" fill="#000000" />
  <path id="barcode" d="M 11.100000000000001 15.55 L 11.3 15.55 L 11.3 15.65 L 11.100000000000001 15.65 Z" fill="#000000" />
  <path id="barcode" d="M -10.500000000000002 15.65 L -9.400000000000002 15.65 L -9.400000000000002 15.75 L -10.500000000000002 15.75 Z" fill="#000000" />
  <path id="barcode" d="M -7.300000000000001 15.65 L -7.100000000000001 15.65 L -7.100000000000001 15.75 L -7.300000000000001 15.75 Z" fill="#000000" />
  <path id="barcode" d="M -5.300000000000001 15.65 L -5.100000000000001 15.65 L -5.100000000000001 15.75 L -5.300000000000001 15.75 Z" fill="#000000" />
  <path id="barcode" d="M -2.700000000000001 15.65 L -2.5000000000000018 15.65 L -2.5000000000000018 15.75 L -2.700000000000001 15.75 Z" fill="#000000" />
  <path id="barcode" d="M -0.7000000000000011 15.65 L -0.5 15.65 L -0.5 15.75 L -0.7000000000000011 15.75 Z" fill="#000000" />
  <path id="barcode" d="M 1.5999999999999996 15.65 L 1.799999999999999 15.65 L 1.799999999999999 15.75 L 1.5999999999999996 15.75 Z" fill="#000000" />
  <path id="barcode" d="M 3.299999999999999 15.65 L 3.5 15.65 L 3.5 15.75 L 3.299999999999999 15.75 Z" fill="#000000" />
  <path id="barcode" d="M 4.199999999999999 15.65 L 4.399999999999999 15.65 L 4.399999999999999 15.75 L 4.199999999999999 15.75 Z" fill="#000000" />
  <path id="barcode" d="M 5.599999999999998 15.65 L 5.800000000000001 15.65 L 5.800000000000001 15.75 L 5.599999999999998 15.75 Z" fill="#000000" />
  <path id="barcode" d="M 6.5 15.65 L 6.699999999999999 15.65 L 6.699999999999999 15.75 L 6.5 15.75 Z" fill="#000000" />
  <path id="barcode" d="M 8.5 15.65 L 8.7 15.65 L 8.7 15.75 L 8.5 15.75 Z" fill="#000000" />
  <path id="barcode" d="M 10.2 15.65 L 10.399999999999999 15.65 L 10.399999999999999 15.75 L 10.2 15.75 Z" fill="#000000" />
  <path id="barcode" d="M 11.100000000000001 15.65 L 11.3 15.65 L 11.3 15.75 L 11.100000000000001 15.75 Z" fill="#000000" />
  <path id="barcode" d="M -10.500000000000002 15.75 L -9.400000000000002 15.75 L -9.400000000000002 15.85 L -10.500000000000002 15.85 Z" fill="#000000" />
  <path id="barcode" d="M -8.200000000000001 15.75 L -8.000000000000002 15.75 L -8.000000000000002 15.85 L -8.200000000000001 15.85 Z" fill="#000000" />
  <path id="barcode" d="M -7.300000000000001 15.75 L -7.100000000000001 15.75 L -7.100000000000001 15.85 L -7.300000000000001 15.85 Z" fill="#000000" />
  <path id="barcode" d="M -5.300000000000001 15.75 L -5.100000000000001 15.75 L -5.100000000000001 15.85 L -5.300000000000001 15.85 Z" fill="#000000" />
  <path id="barcode" d="M -3.6000000000000014 15.75 L -3.4000000000000012 15.75 L -3.4000000000000012 15.85 L -3.6000000000000014 15.85 Z" fill="#000000" />
  <path id="barcode" d="M -2.700000000000001 15.75 L -2.5000000000000018 15.75 L -2.5000000000000018 15.85 L -2.700000000000001 15.85 Z" fill="#000000" />
  <path id="barcode" d="M -0.7000000000000011 15.75 L -0.5 15.75 L -0.5 15.85 L -0.7000000000000011 15.85 Z" fill="#000000" />
  <path id="barcode" d="M 1.5999999999999996 15.75 L 1.799999999999999 15.75 L 1.799999999999999 15.85 L 1.5999999999999996 15.85 Z" fill="#000000" />
  <path id="barcode" d="M 3.299999999999999 15.75 L 3.5 15.75 L 3.5 15.85 L 3.299999999999999 15.85 Z" fill="#000000" />
  <path id="barcode" d="M 4.199999999999999 15.75 L 4.399999999999999 15.75 L 4.399999999999999 15.85 L 4.199999999999999 15.85 Z" fill="#000000" />
  <path id="barcode" d="M 5.599999999999998 15.75 L 5.800000000000001 15.75 L 5.800000000000001 15.85 L 5.599999999999998 15.85 Z" fill="#000000" />
  <path id="barcode" d="M 6.5 15.75 L 6.699999999999999 15.75 L 6.699999999999999 15.85 L 6.5 15.85 Z" fill="#000000" />
  <path id="barcode" d="M 8.5 15.75 L 8.7 15.75 L 8.7 15.85 L 8.5 15.85 Z" fill="#000000" />
  <path id="barcode" d="M 10.2 15.75 L 10.399999999999999 15.75 L 10.399999999999999 15.85 L 10.2 15.85 Z" fill="#000000" />
  <path id="barcode" d="M 11.100000000000001 15.75 L 11.3 15.75 L 11.3 15.85 L 11.100000000000001 15.85 Z" fill="#000000" />
  <path id="barcode" d="M -9.8 15.85 L -9.600000000000001 15.85 L -9.600000000000001 15.95 L -9.8 15.95 Z" fill="#000000" />
  <path id="barcode" d="M -8.200000000000001 15.85 L -7.900000000000001 15.85 L -7.900000000000001 15.95 L -8.200000000000001 15.95 Z" fill="#000000" />
  <path id="barcode" d="M -7.300000000000001 15.85 L -7.100000000000001 15.85 L -7.100000000000001 15.95 L -7.300000000000001 15.95 Z" fill="#000000" />
  <path id="barcode" d="M -5.300000000000001 15.85 L -5.100000000000001 15.85 L -5.100000000000001 15.95 L -5.300000000000001 15.95 Z" fill="#000000" />
  <path id="barcode" d="M -3.6000000000000014 15.85 L -3.3000000000000007 15.85 L -3.3000000000000007 15.95 L -3.6000000000000014 15.95 Z" fill="#000000" />
  <path id="barcode" d="M -2.700000000000001 15.85 L -2.5000000000000018 15.85 L -2.5000000000000018 15.95 L -2.700000000000001 15.95 Z" fill="#000000" />
  <path id="barcode" d="M -0.7000000000000011 15.85 L -0.5 15.85 L -0.5 15.95 L -0.7000000000000011 15.95 Z" fill="#000000" />
  <path id="barcode" d="M 1.5999999999999996 15.85 L 1.799999999999999 15.85 L 1.799999999999999 15.95 L 1.5999999999999996 15.95 Z" fill="#000000" />
  <path id="barcode" d="M 3.3999999999999986 15.85 L 3.5999999999999996 15.85 L 3.5999999999999996 15.95 L 3.3999999999999986 15.95 Z" fill="#000000" />
  <path id="barcode" d="M 4.1 15.85 L 4.299999999999999 15.85 L 4.299999999999999 15.95 L 4.1 15.95 Z" fill="#000000" />
  <path id="barcode" d="M 5.699999999999999 15.85 L 5.899999999999999 15.85 L 5.899999999999999 15.95 L 5.699999999999999 15.95 Z" fill="#000000" />
  <path id="barcode" d="M 6.399999999999999 15.85 L 6.599999999999998 15.85 L 6.599999999999998 15.95 L 6.399999999999999 15.95 Z" fill="#000000" />
  <path id="barcode" d="M 8.5 15.85 L 8.7 15.85 L 8.7 15.95 L 8.5 15.95 Z" fill="#000000" />
  <path id="barcode" d="M 10.3 15.85 L 10.5 15.85 L 10.5 15.95 L 10.3 15.95 Z" fill="#000000" />
  <path id="barcode" d="M 11.0 15.85 L 11.2 15.85 L 11.2 15.95 L 11.0 15.95 Z" fill="#000000" />
  <path id="barcode" d="M -9.8 15.95 L -9.600000000000001 15.95 L -9.600000000000001 16.05 L -9.8 16.05 Z" fill="#000000" />
  <path id="barcode" d="M -8.100000000000001 15.95 L -7.900000000000001 15.95 L -7.900000000000001 16.05 L -8.100000000000001 16.05 Z" fill="#000000" />
  <path id="barcode" d="M -7.400000000000001 15.95 L -7.200000000000001 15.95 L -7.200000000000001 16.05 L -7.400000000000001 16.05 Z" fill="#000000" />
  <path id="barcode" d="M -5.300000000000001 15.95 L -5.100000000000001 15.95 L -5.100000000000001 16.05 L -5.300000000000001 16.05 Z" fill="#000000" />
  <path id="barcode" d="M -3.500000000000001 15.95 L -3.3000000000000007 15.95 L -3.3000000000000007 16.05 L -3.500000000000001 16.05 Z" fill="#000000" />
  <path id="barcode" d="M -2.8000000000000007 15.95 L -2.6000000000000014 15.95 L -2.6000000000000014 16.05 L -2.8000000000000007 16.05 Z" fill="#000000" />
  <path id="barcode" d="M -0.7000000000000011 15.95 L -0.5 15.95 L -0.5 16.05 L -0.7000000000000011 16.05 Z" fill="#000000" />
  <path id="barcode" d="M 1.5999999999999996 15.95 L 1.799999999999999 15.95 L 1.799999999999999 16.05 L 1.5999999999999996 16.05 Z" fill="#000000" />
  <path id="barcode" d="M 3.3999999999999986 15.95 L 3.6999999999999993 15.95 L 3.6999999999999993 16.05 L 3.3999999999999986 16.05 Z" fill="#000000" />
  <path id="barcode" d="M 4.0 15.95 L 4.299999999999999 15.95 L 4.299999999999999 16.05 L 4.0 16.05 Z" fill="#000000" />
  <path id="barcode" d="M 5.699999999999999 15.95 L 6.0 15.95 L 6.0 16.05 L 5.699999999999999 16.05 Z" fill="#000000" />
  <path id="barcode" d="M 6.300000000000001 15.95 L 6.599999999999998 15.95 L 6.599999999999998 16.05 L 6.300000000000001 16.05 Z" fill="#000000" />
  <path id="barcode" d="M 8.5 15.95 L 8.7 15.95 L 8.7 16.05 L 8.5 16.05 Z" fill="#000000" />
  <path id="barcode" d="M 10.3 15.95 L 10.600000000000001 15.95 L 10.600000000000001 16.05 L 10.3 16.05 Z" fill="#000000" />
  <path id="barcode" d="M 10.899999999999999 15.95 L 11.2 15.95 L 11.2 16.05 L 10.899999999999999 16.05 Z" fill="#000000" />
  <path id="barcode" d="M -9.8 16.05 L -9.600000000000001 16.05 L -9.600000000000001 16.15 L -9.8 16.15 Z" fill="#000000" />
  <path id="barcode" d="M -8.000000000000002 16.05 L -7.300000000000001 16.05 L -7.300000000000001 16.15 L -8.000000000000002 16.15 Z" fill="#000000" />
  <path id="barcode" d="M -5.300000000000001 16.05 L -5.100000000000001 16.05 L -5.100000000000001 16.15 L -5.300000000000001 16.15 Z" fill="#000000" />
  <path id="barcode" d="M -3.4000000000000012 16.05 L -2.700000000000001 16.05 L -2.700000000000001 16.15 L -3.4000000000000012 16.15 Z" fill="#000000" />
  <path id="barcode" d="M -0.7000000000000011 16.05 L -0.5 16.05 L -0.5 16.15 L -0.7000000000000011 16.15 Z" fill="#000000" />
  <path id="barcode" d="M 1.5999999999999996 16.05 L 1.799999999999999 16.05 L 1.799999999999999 16.15 L 1.5999999999999996 16.15 Z" fill="#000000" />
  <path id="barcode" d="M 3.3999999999999986 16.05 L 4.199999999999999 16.05 L 4.199999999999999 16.15 L 3.3999999999999986 16.15 Z" fill="#000000" />
  <path id="barcode" d="M 5.699999999999999 16.05 L 6.5 16.05 L 6.5 16.15 L 5.699999999999999 16.15 Z" fill="#000000" />
  <path id="barcode" d="M 8.5 16.05 L 8.7 16.05 L 8.7 16.15 L 8.5 16.15 Z" fill="#000000" />
  <path id="barcode" d="M 10.3 16.05 L 11.100000000000001 16.05 L 11.100000000000001 16.15 L 10.3 16.15 Z" fill="#000000" />
  <path id="barcode" d="M -9.8 16.15 L -9.600000000000001 16.15 L -9.600000000000001 16.25 L -9.8 16.25 Z" fill="#000000" />
  <path id="barcode" d="M -7.900000000000001 16.15 L -7.400000000000001 16.15 L -7.400000000000001 16.25 L -7.900000000000001 16.25 Z" fill="#000000" />
  <path id="barcode" d="M -5.300000000000001 16.15 L -5.100000000000001 16.15 L -5.100000000000001 16.25 L -5.300000000000001 16.25 Z" fill="#000000" />
  <path id="barcode" d="M -3.3000000000000007 16.15 L -2.8000000000000007 16.15 L -2.8000000000000007 16.25 L -3.3000000000000007 16.25 Z" fill="#000000" />
  <path id="barcode" d="M -0.7000000000000011 16.15 L -0.5 16.15 L -0.5 16.25 L -0.7000000000000011 16.25 Z" fill="#000000" />
  <path id="barcode" d="M 1.5999999999999996 16.15 L 1.799999999999999 16.15 L 1.799999999999999 16.25 L 1.5999999999999996 16.25 Z" fill="#000000" />
  <path id="barcode" d="M 3.5999999999999996 16.15 L 4.1 16.15 L 4.1 16.25 L 3.5999999999999996 16.25 Z" fill="#000000" />
  <path id="barcode" d="M 5.899999999999999 16.15 L 6.399999999999999 16.15 L 6.399999999999999 16.25 L 5.899999999999999 16.25 Z" fill="#000000" />
  <path id="barcode" d="M 8.5 16.15 L 8.7 16.15 L 8.7 16.25 L 8.5 16.25 Z" fill="#000000" />
  <path id="barcode" d="M 10.5 16.15 L 11.0 16.15 L 11.0 16.25 L 10.5 16.25 Z" fill="#000000" />
</svg>