<?xml version="1.0" encoding="UTF-8" standalone="no"?>
<svg width="300mm" height="300mm" viewBox="-150.0 -150.0 300 300" xmlns="http://www.w3.org/2000/svg">
  <g >
    <path id="base_1" d="M -14.432500000000001,35.8117 L -14.432500000000001,32.6117 L -9.2825,32.6117 L -9.2825,35.8117 L -14.432500000000001,35.8117" fill="#000000" stroke="none" />
    <path id="base_1" d="M -14.4325,-0.6082999999999998 L -14.4325,-3.808299999999999 L -9.282499999999999,-3.808299999999999 L -9.282499999999999,-0.6082999999999998 L -14.4325,-0.6082999999999998" fill="#000000" stroke="none" />
    <path id="base_1" d="M -14.432500000000001,32.161699999999996 L -14.432500000000001,31.619719801980196 L -9.2825,31.619719801980196 L -9.2825,32.161699999999996 L -14.432500000000001,32.161699999999996" fill="#000000" stroke="none" />
    <path id="base_1" d="M -14.432500000000001,31.198729702970297 L -14.432500000000001,30.977739603960394 L -9.2825,30.977739603960394 L -9.2825,31.198729702970297 L -14.432500000000001,31.198729702970297" fill="#000000" stroke="none" />
    <path id="base_1" d="M -14.432500000000001,30.23575940594059 L -14.432500000000001,29.372789108910887 L -9.2825,29.372789108910887 L -9.2825,30.23575940594059 L -14.432500000000001,30.23575940594059" fill="#000000" stroke="none" />
    <path id="base_1" d="M -14.432500000000001,28.630808910891083 L -14.432500000000001,27.44684851485148 L -9.2825,27.44684851485148 L -9.2825,28.630808910891083 L -14.432500000000001,28.630808910891083" fill="#000000" stroke="none" />
    <path id="base_1" d="M -14.432500000000001,27.025858415841576 L -14.432500000000001,26.80486831683168 L -9.2825,26.80486831683168 L -9.2825,27.025858415841576 L -14.432500000000001,27.025858415841576" fill="#000000" stroke="none" />
    <path id="base_1" d="M -14.432500000000001,26.383878217821774 L -14.432500000000001,25.520907920792077 L -9.2825,25.520907920792077 L -9.2825,26.383878217821774 L -14.432500000000001,26.383878217821774" fill="#000000" stroke="none" />
    <path id="base_1" d="M -14.432500000000001,25.09991782178217 L -14.432500000000001,24.878927722772275 L -9.2825,24.878927722772275 L -9.2825,25.09991782178217 L -14.432500000000001,25.09991782178217" fill="#000000" stroke="none" />
    <path id="base_1" d="M -14.432500000000001,24.45793762376237 L -14.432500000000001,23.91595742574257 L -9.2825,23.91595742574257 L -9.2825,24.45793762376237 L -14.432500000000001,24.45793762376237" fill="#000000" stroke="none" />
    <path id="base_1" d="M -14.432500000000001,22.85298712871287 L -14.432500000000001,21.990016831683164 L -9.2825,21.990016831683164 L -9.2825,22.85298712871287 L -14.432500000000001,22.85298712871287" fill="#000000" stroke="none" />
    <path id="base_1" d="M -14.432500000000001,21.56902673267326 L -14.432500000000001,21.348036633663362 L -9.2825,21.348036633663362 L -9.2825,21.56902673267326 L -14.432500000000001,21.56902673267326" fill="#000000" stroke="none" />
    <path id="base_1" d="M -14.432500000000001,20.60605643564356 L -14.432500000000001,20.064076237623755 L -9.2825,20.064076237623755 L -9.2825,20.60605643564356 L -14.432500000000001,20.60605643564356" fill="#000000" stroke="none" />
    <path id="base_1" d="M -14.432500000000001,19.643086138613853 L -14.432500000000001,18.780115841584152 L -9.282499999999999,18.780115841584152 L -9.2825,19.643086138613853 L -14.432500000000001,19.643086138613853" fill="#000000" stroke="none" />
    <path id="base_1" d="M -14.432500000000001,18.03813564356435 L -14.432500000000001,17.49615544554455 L -9.282499999999999,17.49615544554455 L -9.282499999999999,18.03813564356435 L -14.432500000000001,18.03813564356435" fill="#000000" stroke="none" />
    <path id="base_1" d="M -14.432500000000001,16.43318514851484 L -14.432500000000001,16.212195049504942 L -9.282499999999999,16.212195049504942 L -9.282499999999999,16.43318514851484 L -14.432500000000001,16.43318514851484" fill="#000000" stroke="none" />
    <path id="base_1" d="M -14.432500000000001,15.470214851485139 L -14.432500000000001,15.24922475247524 L -9.282499999999999,15.24922475247524 L -9.282499999999999,15.47021485148514 L -14.432500000000001,15.470214851485139" fill="#000000" stroke="none" />
    <path id="base_1" d="M -14.432500000000001,14.507244554455436 L -14.432500000000001,13.965264356435634 L -9.282499999999999,13.965264356435634 L -9.282499999999999,14.507244554455436 L -14.432500000000001,14.507244554455436" fill="#000000" stroke="none" />
    <path id="base_1" d="M -14.432500000000001,13.544274257425734 L -14.432500000000001,13.00229405940593 L -9.282499999999999,13.00229405940593 L -9.282499999999999,13.544274257425734 L -14.432500000000001,13.544274257425734" fill="#000000" stroke="none" />
    <path id="base_1" d="M -14.4325,12.260313861386129 L -14.4325,11.718333663366327 L -9.282499999999999,11.718333663366327 L -9.282499999999999,12.260313861386129 L -14.4325,12.260313861386129" fill="#000000" stroke="none" />
    <path id="base_1" d="M -14.4325,10.976353465346524 L -14.4325,10.434373267326723 L -9.282499999999999,10.434373267326723 L -9.282499999999999,10.976353465346524 L -14.4325,10.976353465346524" fill="#000000" stroke="none" />
    <path id="base_1" d="M -14.4325,9.69239306930692 L -14.4325,9.471402970297017 L -9.282499999999999,9.471402970297017 L -9.282499999999999,9.69239306930692 L -14.4325,9.69239306930692" fill="#000000" stroke="none" />
    <path id="base_1" d="M -14.4325,8.408432673267317 L -14.4325,8.187442574257414 L -9.282499999999999,8.187442574257414 L -9.282499999999999,8.408432673267317 L -14.4325,8.408432673267317" fill="#000000" stroke="none" />
    <path id="base_1" d="M -14.4325,7.445462376237611 L -14.4325,6.582492079207908 L -9.282499999999999,6.582492079207908 L -9.282499999999999,7.445462376237611 L -14.4325,7.445462376237611" fill="#000000" stroke="none" />
    <path id="base_1" d="M -14.4325,6.1615019801980075 L -14.4325,5.940511881188105 L -9.282499999999999,5.940511881188105 L -9.282499999999999,6.1615019801980075 L -14.4325,6.1615019801980075" fill="#000000" stroke="none" />
    <path id="base_1" d="M -14.4325,5.1985316831683015 L -14.4325,4.656551485148501 L -9.282499999999999,4.656551485148501 L -9.282499999999999,5.1985316831683015 L -14.4325,5.1985316831683015" fill="#000000" stroke="none" />
    <path id="base_1" d="M -14.4325,3.914571287128698 L -14.4325,3.372591089108898 L -9.282499999999999,3.372591089108898 L -9.282499999999999,3.914571287128698 L -14.4325,3.914571287128698" fill="#000000" stroke="none" />
    <path id="base_1" d="M -14.4325,2.3096207920791922 L -14.4325,1.446650495049493 L -9.282499999999999,1.446650495049493 L -9.282499999999999,2.3096207920791922 L -14.4325,2.3096207920791922" fill="#000000" stroke="none" />
    <path id="base_1" d="M -14.4325,1.0256603960395871 L -14.4325,0.804670297029686 L -9.282499999999999,0.804670297029686 L -9.282499999999999,1.0256603960395871 L -14.4325,1.0256603960395871" fill="#000000" stroke="none" />
    <path id="base_1" d="M -14.4325,0.3836801980197855 L -14.4325,-0.15830000000001476 L -9.282499999999999,-0.15830000000001476 L -9.282499999999999,0.3836801980197855 L -14.4325,0.3836801980197855" fill="#000000" stroke="none" />
    <path id="base_1" d="M -7.49338442640461,-1.0924679884145938 L -6.286473509933771,-1.0924679884145938 L -6.286473509933771,-3.808299999999999 L -5.718774300363166,-3.808299999999999 L -2.45340365306558,-0.9517583821805395 L -2.45340365306558,-0.3247126611957789 L -5.718774300363167,-0.3247126611957789 L -5.718774300363167,0.5209110888904185 L -6.286473509933772,0.5209110888904185 L -6.286473509933771,-0.3247126611957789 L -7.49338442640461,-0.3247126611957789 L -7.49338442640461,-1.0924679884145938 M -5.718774300363167,-1.0924679884145938 L -3.446877269814138,-1.0924679884145938 L -5.718774300363166,-3.0528396869181442 L -5.718774300363167,-1.0924679884145938" fill="#000000" stroke="#000000" fill-rule="evenodd" />
    <path id="base_1" d="M -6.163251976073485,0.8883954003172185 L -6.080737556077758,1.6561507275360317 L -6.533191625720996,1.8351114888628377 L -6.838770027771841,2.106967912557753 L -7.012875453962825,2.459766512654298 L -7.070910596026488,2.8815538031859855 L -6.99527237769707,3.3815510447555326 L -6.768357722708821,3.7968493000482724 L -6.429498504593033,4.077585456175434 L -6.018026596881006,4.17116417488449 L -5.629658726767781,4.084757547755327 L -5.316103930784017,3.8255376663678344 L -5.108167592394784,3.432780270326184 L -5.038855479598373,2.9457610992345344 L -5.055908459730823,2.7015684573477685 L -5.107067400128174,2.403414364526583 L -4.563572420422983,2.489479463485276 L -4.569348429822684,2.5584681539204173 L -4.57127376628925,2.612429604854837 L -4.519839777825247,3.079298613888696 L -4.365537812433238,3.4963045100337897 L -4.102866908780172,3.7913848493207354 L -3.7285264900662227,3.8897449624163833 L -3.4177221747489828,3.818024046617472 L -3.1652280495620566,3.602861299220743 L -2.9968986327707725,3.275677311909522 L -2.9407888271736784,2.865160451003378 L -2.9977237769707283,2.4543020619267626 L -3.1685286263618853,2.117896814012825 L -3.4518281350138817,1.872338059444175 L -3.848447447126679,1.7340191504034195 L -3.7384282204657087,0.9648977105027221 L -3.1866817987609455,1.1950876974001794 L -2.774659794915612,1.6042384456244392 L -2.5180399487289,2.1650277015378236 L -2.4324999999999974,2.8474009861388865 L -2.4767827387310373,3.33920155161713 L -2.6096309549241585,3.790018736638853 L -2.818942533646654,4.170822646714019 L -3.0926153599658157,4.449851161988828 L -3.408095492416148,4.621981359906211 L -3.742828989532148,4.679358092545341 L -4.054183400982694,4.62471358526998 L -4.336932813501386,4.460780063443899 L -4.57787491988891,4.191314336942279 L -4.7638074129459484,3.8173409902765307 L -4.9219600512710935,4.310166140266187 L -5.191782204657122,4.679358092545341 L -5.557321085238194,4.909889607613266 L -6.0048242896816895,4.986733445969241 L -6.614605853450115,4.837144107302944 L -7.123719824823754,4.388376091304048 L -7.467804956205937,3.7121503137714633 L -7.582499999999998,2.877455465140333 L -7.483757744071776,2.1233612647403604 L -7.187530976287115,1.5086105578925597 L -6.7334266182439615,1.0817003448038065 L -6.163251976073485,0.8883954003172185" fill="#000000" stroke="#000000" fill-rule="evenodd" />
    <path id="base_1" d="M -7.493384426404612,8.243546079580716 L -7.493384426404612,7.475790752361904 L -3.550295342875451,7.475790752361904 L -3.7629074983977766,7.155095800289633 L -3.976069750053405,6.747652692917727 L -4.162827387310401,6.3200594234880345 L -4.296225699636827,5.9389139852423956 L -3.6977211066011506,5.9389139852423956 L -3.427898953215122,6.543077318805597 L -3.106917859431743,7.0659569477967015 L -2.764483016449473,7.47783992138473 L -2.4324999999999974,7.7490132887387055 L -2.4324999999999974,8.243546079580717 L -7.493384426404612,8.243546079580716" fill="#000000" stroke="#000000" fill-rule="evenodd" />
    <path id="base_1" d="M -6.163251976073486,8.611030391007514 L -6.08073755607776,9.378785718226329 L -6.533191625720998,9.557746479553133 L -6.838770027771843,9.82960290324805 L -7.012875453962827,10.182401503344593 L -7.070910596026489,10.604188793876283 L -6.995272377697071,11.104186035445828 L -6.768357722708822,11.519484290738568 L -6.429498504593034,11.80022044686573 L -6.018026596881007,11.893799165574785 L -5.629658726767783,11.807392538445622 L -5.316103930784019,11.548172657058132 L -5.108167592394786,11.15541526101648 L -5.038855479598375,10.66839608992483 L -5.055908459730825,10.424203448038064 L -5.107067400128176,10.12604935521688 L -4.563572420422985,10.212114454175572 L -4.569348429822686,10.281103144610714 L -4.571273766289252,10.335064595545134 L -4.519839777825249,10.801933604578991 L -4.36553781243324,11.218939500724087 L -4.1028669087801735,11.51401984001103 L -3.7285264900662245,11.61237995310668 L -3.4177221747489828,11.540659037307769 L -3.1652280495620584,11.325496289911039 L -2.9968986327707743,10.998312302599818 L -2.9407888271736784,10.587795441693673 L -2.997723776970732,10.17693705261706 L -3.1685286263618853,9.840531804703122 L -3.4518281350138835,9.59497305013447 L -3.8484474471266807,9.456654141093715 L -3.7384282204657104,8.68753270119302 L -3.1866817987609473,8.917722688090475 L -2.774659794915614,9.326873436314735 L -2.5180399487289016,9.88766269222812 L -2.432499999999999,10.570035976829182 L -2.476782738731039,11.061836542307425 L -2.6096309549241585,11.512653727329148 L -2.8189425336466556,11.893457637404316 L -3.0926153599658175,12.172486152679124 L -3.40809549241615,12.344616350596509 L -3.74282898953215,12.401993083235636 L -4.054183400982695,12.347348575960275 L -4.336932813501387,12.183415054134196 L -4.577874919888911,11.913949327632576 L -4.76380741294595,11.539975980966826 L -4.921960051271094,12.032801130956482 L -5.191782204657123,12.401993083235636 L -5.557321085238195,12.632524598303561 L -6.00482428968169,12.709368436659538 L -6.614605853450116,12.559779097993239 L -7.1237198248237545,12.111011081994342 L -7.467804956205938,11.434785304461759 L -7.582499999999999,10.60009045583063 L -7.483757744071777,9.845996255430656 L -7.187530976287116,9.231245548582855 L -6.733426618243962,8.804335335494102 L -6.163251976073486,8.611030391007514" fill="#000000" stroke="#000000" fill-rule="evenodd" />
    <path id="base_1" d="M -7.493384426404614,15.966181070271013 L -7.493384426404614,15.198425743052198 L -3.5502953428754527,15.1984257430522 L -3.7629074983977766,14.877730790979928 L -3.976069750053407,14.470287683608026 L -4.1628273873104025,14.042694414178332 L -4.296225699636828,13.661548975932691 L -3.6977211066011524,13.661548975932691 L -3.4278989532151236,14.265712309495896 L -3.1069178594317446,14.788591938486999 L -2.7644830164494767,15.200474912075023 L -2.432499999999999,15.471648279429003 L -2.432499999999999,15.966181070271013 L -7.493384426404614,15.966181070271013" fill="#000000" stroke="#000000" fill-rule="evenodd" />
    <path id="base_1" d="M -7.493384426404614,19.222993703882487 L -7.493384426404614,18.455238376663676 L -3.5502953428754527,18.455238376663676 L -3.7629074983977784,18.134543424591403 L -3.976069750053407,17.727100317219495 L -4.1628273873104025,17.299507047789803 L -4.296225699636829,16.918361609544167 L -3.6977211066011524,16.918361609544167 L -3.4278989532151254,17.522524943107367 L -3.1069178594317446,18.045404572098473 L -2.7644830164494767,18.4572875456865 L -2.432499999999999,18.728460913040475 L -2.432499999999999,19.222993703882487 L -7.493384426404614,19.222993703882487" fill="#000000" stroke="#000000" fill-rule="evenodd" />
    <path id="base_1" d="M -5.008050096133305,19.586379677263633 L -4.201059068575091,19.643414881732294 L -3.568998611407819,19.814520495138265 L -3.08601420636616,20.097988876629195 L -2.7284517197180076,20.49211238535273 L -2.506487929929504,21.000989359354524 L -2.432499999999999,21.62598591131646 L -2.473482161931212,22.099002427418792 L -2.5964286477248457,22.50986081649541 L -2.795563447981202,22.856511909523476 L -3.0673109378337973,23.13690653748017 L -3.4080954924161517,23.35855832011585 L -3.8165418713950015,23.526248651817113 L -4.335007477034822,23.631780856492654 L -5.008050096133306,23.666958258051164 L -5.809265114291819,23.61026458175298 L -6.439400234992524,23.44018355285842 L -6.922384640034181,23.15842281221984 L -7.282147511215554,22.763957775325835 L -7.504936445204017,22.25473927315357 L -7.57919942320017,21.62598591131646 L -7.44855159154027,20.81861331632301 L -7.056608096560564,20.205228722157088 L -6.229813608203375,19.741091938486996 L -5.008050096133305,19.586379677263633 M -5.008050096133305,20.37599280739259 L -6.041680730613117,20.466156244396934 L -6.660538880581073,20.73664655540997 L -6.9683176671651355,21.13930826839528 L -7.070910596026491,21.62598591131646 L -6.967767571031831,22.113688138749048 L -6.658338496047853,22.516691379904827 L -6.039480346079898,22.787181690917865 L -5.008050096133305,22.877345127922208 L -3.9719440290536223,22.787181690917865 L -3.3544611194189287,22.516691379904827 L -3.047507477034822,22.111638969726222 L -2.9451895962401196,21.617789235225153 L -3.035405362102116,21.142040493759044 L -3.306052659688101,20.772165485138952 L -3.9614922025208292,20.47503597682918 L -5.008050096133305,20.37599280739259" fill="#000000" stroke="#000000" fill-rule="evenodd" />
    <path id="base_1" d="M -5.008050096133306,24.03034423143231 L -4.201059068575092,24.087379435900967 L -3.568998611407819,24.25848504930694 L -3.086014206366162,24.54195343079787 L -2.7284517197180094,24.936076939521406 L -2.506487929929504,25.4449539135232 L -2.432500000000001,26.069950465485135 L -2.473482161931212,26.542966981587472 L -2.5964286477248475,26.953825370664088 L -2.795563447981202,27.300476463692153 L -3.0673109378337973,27.58087109164885 L -3.4080954924161517,27.802522874284527 L -3.8165418713950015,27.97021320598579 L -4.335007477034823,28.075745410661327 L -5.0080500961333065,28.11092281221984 L -5.809265114291819,28.054229135921656 L -6.439400234992524,27.884148107027098 L -6.922384640034181,27.60238736638852 L -7.282147511215554,27.207922329494515 L -7.504936445204017,26.698703827322248 L -7.579199423200171,26.069950465485135 L -7.448551591540271,25.262577870491686 L -7.056608096560565,24.649193276325764 L -6.229813608203376,24.185056492655676 L -5.008050096133306,24.03034423143231 M -5.008050096133306,24.819957361561265 L -6.041680730613118,24.91012079856561 L -6.660538880581074,25.180611109578646 L -6.968317667165136,25.583272822563956 L -7.070910596026492,26.069950465485135 L -6.967767571031832,26.557652692917728 L -6.658338496047854,26.960655934073507 L -6.039480346079898,27.231146245086542 L -5.008050096133306,27.321309682090885 L -3.9719440290536223,27.231146245086542 L -3.3544611194189287,26.960655934073507 L -3.047507477034822,26.5556035238949 L -2.9451895962401213,26.06175378939383 L -3.035405362102116,25.586005047927728 L -3.306052659688101,25.21613003930763 L -3.96149220252083,24.919000530997856 L -5.008050096133306,24.819957361561265" fill="#000000" stroke="#000000" fill-rule="evenodd" />
    <path id="base_1" d="M -7.493384426404616,31.36773544583132 L -7.493384426404616,30.599980118612503 L -3.5502953428754562,30.599980118612503 L -3.76290749839778,30.279285166540234 L -3.9760697500534095,29.87184205916833 L -4.162827387310405,29.444248789738637 L -4.296225699636832,29.063103351492995 L -3.697721106601154,29.063103351492995 L -3.427898953215127,29.667266685056198 L -3.106917859431748,30.1901463140473 L -2.7644830164494785,30.60202928763533 L -2.4325000000000028,30.873202654989306 L -2.4325000000000028,31.36773544583132 L -7.493384426404616,31.36773544583132" fill="#000000" stroke="#000000" fill-rule="evenodd" />
    <path id="base_1" d="M -5.0080500961333065,31.731121419212467 L -4.201059068575093,31.788156623681125 L -3.568998611407821,31.95926223708709 L -3.0860142063661637,32.24273061857803 L -2.728451719718011,32.63685412730156 L -2.5064879299295058,33.145731101303355 L -2.4325000000000028,33.77072765326528 L -2.473482161931214,34.24374416936763 L -2.5964286477248475,34.65460255844424 L -2.7955634479812037,35.001253651472304 L -3.067310937833799,35.28164827942899 L -3.4080954924161535,35.50330006206468 L -3.8165418713950032,35.67099039376594 L -4.335007477034824,35.77652259844149 L -5.008050096133307,35.8117 L -5.80926511429182,35.75500632370181 L -6.439400234992526,35.58492529480725 L -6.922384640034183,35.303164554168674 L -7.282147511215555,34.90869951727467 L -7.504936445204018,34.3994810151024 L -7.579199423200173,33.77072765326528 L -7.448551591540273,32.963355058271844 L -7.056608096560566,32.34997046410592 L -6.229813608203377,31.88583368043583 L -5.0080500961333065,31.731121419212467 M -5.0080500961333065,32.52073454934142 L -6.04168073061312,32.61089798634576 L -6.6605388805810755,32.8813882973588 L -6.968317667165138,33.28405001034412 L -7.0709105960264935,33.77072765326528 L -6.967767571031834,34.25842988069788 L -6.658338496047856,34.66143312185366 L -6.0394803460799,34.93192343286669 L -5.008050096133307,35.02208686987104 L -3.971944029053624,34.93192343286669 L -3.3544611194189304,34.66143312185366 L -3.0475074770348236,34.25638071167506 L -2.9451895962401213,33.76253097717399 L -3.035405362102118,33.286782235707875 L -3.3060526596881026,32.916907227087776 L -3.961492202520832,32.61977771877801 L -5.0080500961333065,32.52073454934142" fill="#000000" stroke="#000000" fill-rule="evenodd" />
  </g>
  <g >
    <path id="base_2" d="M 7.3984,46.1378 L 2.2984,46.1378 L 2.2984,41.0378 L 7.3984,41.0378 L 7.3984,46.1378" fill="#000000" stroke="none" />
    <path id="base_2" d="M -16.5016,46.1378 L -21.6016,46.1378 L -21.6016,41.0378 L -16.5016,41.0378 L -16.5016,46.1378" fill="#000000" stroke="none" />
    <path id="base_2" d="M 1.918400000000001,46.1378 L 1.61998415841584,46.1378 L 1.61998415841584,41.0378 L 1.918400000000001,41.0378 L 1.918400000000001,46.1378" fill="#000000" stroke="none" />
    <path id="base_2" d="M 1.3807762376237642,46.1378 L 1.2615683168316822,46.1378 L 1.2615683168316822,41.0378 L 1.3807762376237642,41.0378 L 1.3807762376237642,46.1378" fill="#000000" stroke="none" />
    <path id="base_2" d="M 0.8431524752475248,46.1378 L 0.36552871287128674,46.1378 L 0.36552871287128674,41.0378 L 0.8431524752475248,41.0378 L 0.8431524752475248,46.1378" fill="#000000" stroke="none" />
    <path id="base_2" d="M -0.05288712871287249,46.1378 L -0.7097188118811886,46.1378 L -0.7097188118811886,41.0378 L -0.05288712871287249,41.0378 L -0.05288712871287249,46.1378" fill="#000000" stroke="none" />
    <path id="base_2" d="M -0.948926732673268,46.1378 L -1.0681346534653473,46.1378 L -1.0681346534653473,41.0378 L -0.948926732673268,41.0378 L -0.948926732673268,46.1378" fill="#000000" stroke="none" />
    <path id="base_2" d="M -1.3073425742574267,46.1378 L -1.7849663366336639,46.1378 L -1.7849663366336639,41.0378 L -1.3073425742574267,41.0378 L -1.3073425742574267,46.1378" fill="#000000" stroke="none" />
    <path id="base_2" d="M -2.024174257425744,46.1378 L -2.1433821782178226,46.1378 L -2.1433821782178226,41.0378 L -2.024174257425744,41.0378 L -2.024174257425744,46.1378" fill="#000000" stroke="none" />
    <path id="base_2" d="M -2.382590099009903,46.1378 L -2.6810059405940603,46.1378 L -2.6810059405940603,41.0378 L -2.382590099009903,41.0378 L -2.382590099009903,46.1378" fill="#000000" stroke="none" />
    <path id="base_2" d="M -3.2786297029702993,46.1378 L -3.756253465346537,46.1378 L -3.756253465346536,41.0378 L -3.2786297029702984,41.0378 L -3.2786297029702993,46.1378" fill="#000000" stroke="none" />
    <path id="base_2" d="M -3.995461386138616,46.1378 L -4.114669306930695,46.1378 L -4.114669306930695,41.0378 L -3.995461386138615,41.0378 L -3.995461386138616,46.1378" fill="#000000" stroke="none" />
    <path id="base_2" d="M -4.533085148514854,46.1378 L -4.831500990099013,46.1378 L -4.831500990099012,41.0378 L -4.533085148514853,41.0378 L -4.533085148514854,46.1378" fill="#000000" stroke="none" />
    <path id="base_2" d="M -5.070708910891092,46.1378 L -5.548332673267329,46.1378 L -5.548332673267328,41.0378 L -5.07070891089109,41.0378 L -5.070708910891092,46.1378" fill="#000000" stroke="none" />
    <path id="base_2" d="M -5.9667485148514885,46.1378 L -6.265164356435647,46.1378 L -6.265164356435646,41.0378 L -5.966748514851488,41.0378 L -5.9667485148514885,46.1378" fill="#000000" stroke="none" />
    <path id="base_2" d="M -6.862788118811884,46.1378 L -6.981996039603963,46.1378 L -6.981996039603962,41.0378 L -6.862788118811884,41.0378 L -6.862788118811884,46.1378" fill="#000000" stroke="none" />
    <path id="base_2" d="M -7.400411881188122,46.1378 L -7.519619801980202,46.1378 L -7.519619801980201,41.0378 L -7.400411881188121,41.0378 L -7.400411881188122,46.1378" fill="#000000" stroke="none" />
    <path id="base_2" d="M -7.938035643564359,46.1378 L -8.236451485148518,46.1378 L -8.236451485148518,41.0378 L -7.938035643564358,41.0378 L -7.938035643564359,46.1378" fill="#000000" stroke="none" />
    <path id="base_2" d="M -8.475659405940599,46.1378 L -8.774075247524756,46.1378 L -8.774075247524754,41.0378 L -8.475659405940597,41.0378 L -8.475659405940599,46.1378" fill="#000000" stroke="none" />
    <path id="base_2" d="M -9.192491089108914,46.1378 L -9.490906930693074,46.1378 L -9.490906930693072,41.0378 L -9.192491089108913,41.0378 L -9.192491089108914,46.1378" fill="#000000" stroke="none" />
    <path id="base_2" d="M -9.909322772277232,46.1378 L -10.207738613861391,46.1378 L -10.207738613861391,41.0378 L -9.909322772277232,41.0378 L -9.909322772277232,46.1378" fill="#000000" stroke="none" />
    <path id="base_2" d="M -10.626154455445548,46.1378 L -10.74536237623763,46.1378 L -10.745362376237628,41.0378 L -10.626154455445548,41.0378 L -10.626154455445548,46.1378" fill="#000000" stroke="none" />
    <path id="base_2" d="M -11.342986138613867,46.1378 L -11.462194059405943,46.1378 L -11.462194059405943,41.0378 L -11.342986138613867,41.0378 L -11.342986138613867,46.1378" fill="#000000" stroke="none" />
    <path id="base_2" d="M -11.880609900990102,46.1378 L -12.35823366336634,46.1378 L -12.35823366336634,41.0378 L -11.880609900990102,41.0378 L -11.880609900990102,46.1378" fill="#000000" stroke="none" />
    <path id="base_2" d="M -12.59744158415842,46.1378 L -12.7166495049505,46.1378 L -12.7166495049505,41.0378 L -12.59744158415842,41.0378 L -12.59744158415842,46.1378" fill="#000000" stroke="none" />
    <path id="base_2" d="M -13.135065346534658,46.1378 L -13.433481188118815,46.1378 L -13.433481188118815,41.0378 L -13.135065346534658,41.0378 L -13.135065346534658,46.1378" fill="#000000" stroke="none" />
    <path id="base_2" d="M -13.851897029702975,46.1378 L -14.150312871287133,46.1378 L -14.150312871287133,41.0378 L -13.851897029702975,41.0378 L -13.851897029702975,46.1378" fill="#000000" stroke="none" />
    <path id="base_2" d="M -14.747936633663372,46.1378 L -15.225560396039612,46.1378 L -15.225560396039612,41.0378 L -14.747936633663372,41.0378 L -14.747936633663372,46.1378" fill="#000000" stroke="none" />
    <path id="base_2" d="M -15.464768316831687,46.1378 L -15.58397623762377,46.1378 L -15.58397623762377,41.0378 L -15.464768316831687,41.0378 L -15.464768316831687,46.1378" fill="#000000" stroke="none" />
    <path id="base_2" d="M -15.823184158415845,46.1378 L -16.121600000000008,46.1378 L -16.121600000000008,41.0378 L -15.823184158415845,41.0378 L -15.823184158415845,46.1378" fill="#000000" stroke="none" />
    <path id="base_2" d="M 2.3903660713054267,37.20009438154241 L 2.3903660713054267,38.04376026490066 L 3.8983999999999996,38.04376026490066 L 3.8983999999999996,38.44059854731895 L 2.3122335287221576,40.72318773766289 L 1.9640506447831187,40.72318773766289 L 1.9640506447831187,38.44059854731895 L 1.4944968209089025,38.44059854731895 L 1.4944968209089025,38.04376026490066 L 1.9640506447831187,38.04376026490066 L 1.9640506447831187,37.20009438154241 L 2.3903660713054267,37.20009438154241 M 2.3903660713054267,38.44059854731895 L 2.3903660713054267,40.02872074343089 L 3.4789116888490446,38.44059854731895 L 2.3903660713054267,38.44059854731895" fill="#000000" stroke="#000000" fill-rule="evenodd" />
    <path id="base_2" d="M 1.2904419281428874,38.129895706045716 L 0.8641265016205786,38.18757568895535 L 0.7647540445486527,37.871297116000854 L 0.613798938004277,37.65768891262551 L 0.417898655265156,37.535984148686175 L 0.1836906696089935,37.49541589403974 L -0.09394535549272298,37.5482892117069 L -0.32455014136955995,37.70690916470839 L -0.4804359423488016,37.94378162785729 L -0.5323978760085497,38.23141247596667 L -0.4844184263154254,38.50289292886136 L -0.3404800772360508,38.72207686391796 L -0.12239166954003,38.86743042085025 L 0.14803795600303538,38.91588160649434 L 0.2836320529618659,38.903961076693015 L 0.44918960071719294,38.86819948728904 L 0.4013997931177178,39.24811830805383 L 0.363092090200678,39.244080709250156 L 0.3331286394041797,39.242734842982266 L 0.07388789738638923,39.27868869899594 L -0.15766509895869163,39.38655026703696 L -0.32151586787118,39.57016487929929 L -0.3761327908420089,39.83183973509934 L -0.3363079511757787,40.04910100405896 L -0.21683343217708995,40.22560175176244 L -0.035156306461621156,40.3432689168981 L 0.19279349010413238,40.38249130527665 L 0.42093292876353416,40.342692117069 L 0.607730391007518,40.223294552446056 L 0.7440830563409433,40.02525994445631 L 0.8208881042686729,39.74801149327067 L 1.2479620991655755,39.82491813715018 L 1.1201433280463418,40.210604956205934 L 0.892952099855183,40.49862033753471 L 0.5815597820839953,40.67800508438368 L 0.20265487897386514,40.7378 L -0.07042973588028278,40.706845075838494 L -0.32075729949658527,40.61398030335398 L -0.5322082339149015,40.46766541337321 L -0.687145824425901,40.27636013672292 L -0.7827254396248522,40.05583033539842 L -0.8145853113578356,39.821841871395 L -0.7842425763740408,39.60419606921598 L -0.6932143714226591,39.40654599444563 L -0.5435867595338246,39.2381204443495 L -0.3359286669884822,39.10814821619312 L -0.6095822081235758,38.99759491561632 L -0.8145853113578356,38.808981371501815 L -0.9425937245707177,38.55345904721214 L -0.9852631956416786,38.240641273232214 L -0.9021999586235419,37.81438619953001 L -0.6530102475691324,37.45850070497757 L -0.27751890214467867,37.217975176244394 L 0.18596637473277866,37.1378 L 0.6046961175091381,37.206823712881864 L 0.9460518860768223,37.41389485152745 L 1.1831045031377139,37.73132702414014 L 1.2904419281428874,38.129895706045716" fill="#000000" stroke="#000000" fill-rule="evenodd" />
    <path id="base_2" d="M -2.7936902006758135,37.20009438154241 L -2.3673747741535047,37.20009438154241 L -2.3673747741535047,39.956428498184145 L -2.1893008482173624,39.80780640888699 L -1.9630578304944466,39.65879978637043 L -1.7256259292462577,39.52825075838496 L -1.5139853527342924,39.43500145268105 L -1.5139853527342924,39.8533735953856 L -1.8494622163988677,40.04198713950011 L -2.1398042617750486,40.266362273018586 L -2.368512626715397,40.50573420209357 L -2.519088449072476,40.7378 L -2.7936902006758135,40.7378 L -2.7936902006758135,37.20009438154241" fill="#000000" stroke="#000000" fill-rule="evenodd" />
    <path id="base_2" d="M -2.9977450934418295,38.129895706045716 L -3.424060519964139,38.18757568895535 L -3.5234329770360655,37.871297116000854 L -3.6743880835804417,37.6576889126255 L -3.8702883663195626,37.535984148686175 L -4.104496351975724,37.49541589403974 L -4.382132377077442,37.5482892117069 L -4.612737162954279,37.70690916470839 L -4.76862296393352,37.94378162785729 L -4.8205848975932675,38.23141247596667 L -4.772605447900144,38.50289292886135 L -4.628667098820769,38.72207686391796 L -4.410578691124749,38.86743042085024 L -4.140149065581683,38.91588160649434 L -4.004554968622853,38.903961076693015 L -3.8389974208675253,38.86819948728904 L -3.886787228467001,39.24811830805383 L -3.9250949313840406,39.244080709250156 L -3.955058382180538,39.242734842982266 L -4.214299124198329,39.27868869899594 L -4.445852120543409,39.38655026703696 L -4.609702889455898,39.57016487929929 L -4.6643198124267276,39.83183973509934 L -4.624494972760497,40.04910100405896 L -4.505020453761809,40.22560175176244 L -4.32334332804634,40.3432689168981 L -4.095393531480585,40.382491305276645 L -3.8672540928211836,40.342692117069 L -3.6804566305772,40.223294552446056 L -3.544103965243775,40.02525994445631 L -3.467298917316046,39.74801149327067 L -3.040224922419142,39.82491813715018 L -3.1680436935383756,40.210604956205934 L -3.3952349217295352,40.49862033753471 L -3.7066272395007225,40.67800508438368 L -4.0855321426108535,40.7378 L -4.3586167574650005,40.706845075838494 L -4.608944321081304,40.61398030335398 L -4.820395255499619,40.46766541337321 L -4.975332846010619,40.27636013672292 L -5.07091246120957,40.05583033539842 L -5.102772332942553,39.821841871395 L -5.0724295979587595,39.60419606921598 L -4.981401393007378,39.40654599444563 L -4.831773781118542,39.2381204443495 L -4.6241156885732,39.10814821619312 L -4.897769229708294,38.99759491561632 L -5.102772332942553,38.808981371501815 L -5.230780746155435,38.55345904721213 L -5.273450217226396,38.240641273232214 L -5.19038698020826,37.81438619953001 L -4.94119726915385,37.45850070497757 L -4.565705923729396,37.217975176244394 L -4.10222064685194,37.1378 L -3.683490904075579,37.20682371288186 L -3.342135135507895,37.41389485152745 L -3.105082518447003,37.73132702414014 L -2.9977450934418295,38.129895706045716" fill="#000000" stroke="#000000" fill-rule="evenodd" />
    <path id="base_2" d="M -7.081877222260532,37.2000943815424 L -6.6555617957382225,37.2000943815424 L -6.655561795738223,39.956428498184145 L -6.477487869802081,39.80780640888699 L -6.251244852079166,39.65879978637043 L -6.013812950830976,39.52825075838496 L -5.80217237431901,39.43500145268105 L -5.802172374319011,39.8533735953856 L -6.137649237983586,40.04198713950011 L -6.427991283359766,40.266362273018586 L -6.656699648300115,40.50573420209357 L -6.807275470657194,40.7378 L -7.081877222260532,40.7378 L -7.081877222260532,37.2000943815424" fill="#000000" stroke="#000000" fill-rule="evenodd" />
    <path id="base_2" d="M -8.890304227294667,37.2000943815424 L -8.46398880077236,37.2000943815424 L -8.46398880077236,39.956428498184145 L -8.285914874836216,39.80780640888699 L -8.0596718571133,39.65879978637043 L -7.82223995586511,39.52825075838496 L -7.610599379353147,39.43500145268105 L -7.610599379353147,39.8533735953856 L -7.94607624301772,40.04198713950011 L -8.236418288393903,40.266362273018586 L -8.465126653334252,40.50573420209357 L -8.61570247569133,40.7378 L -8.890304227294667,40.7378 L -8.890304227294667,37.2000943815424" fill="#000000" stroke="#000000" fill-rule="evenodd" />
    <path id="base_2" d="M -9.0920834149369,38.9374154667806 L -9.123753644576237,39.50152569963683 L -9.218764333494242,39.94335436872463 L -9.376167271222673,40.28097453535569 L -9.595014247293289,40.530921127964106 L -9.877580966829873,40.686080281991025 L -10.224625998207019,40.7378 L -10.487280297910486,40.70915227515488 L -10.71541973656989,40.623209100619526 L -10.907906461623334,40.48400807519761 L -11.063602620508929,40.29404866481521 L -11.186680339286944,40.05583033539842 L -11.279794607268462,39.77031441999573 L -11.338394014205914,39.40789186071352 L -11.357927149851733,38.9374154667806 L -11.326446562306046,38.37734283272805 L -11.232004799668985,37.93686002990814 L -11.075550072408795,37.59923986327708 L -10.856513454244531,37.34775513779107 L -10.5737570926143,37.19201918393506 L -10.224625998207019,37.14010719931638 L -9.77631208882146,37.23143383892331 L -9.435714888628368,37.505413757744066 L -9.177991283359766,38.08336718649861 L -9.0920834149369,38.9374154667806 M -9.530535935452725,38.9374154667806 L -9.580601448175987,38.21487754753257 L -9.730797986345769,37.78227767571032 L -9.9543860147576,37.567131339457376 L -10.224625998207019,37.49541589403974 L -10.495434907937382,37.56751587267678 L -10.719212578442864,37.78381580858791 L -10.869409116612646,38.216415680410165 L -10.919474629335905,38.9374154667806 L -10.869409116612646,39.66168378551591 L -10.719212578442864,40.09332232428968 L -10.49429705537549,40.30789186071352 L -10.220074587959449,40.37941503952147 L -9.95590315150679,40.31635159154027 L -9.750520764085234,40.12716124759667 L -9.585532142610852,39.66898991668447 L -9.530535935452725,38.9374154667806" fill="#000000" stroke="#000000" fill-rule="evenodd" />
    <path id="base_2" d="M -11.559706337493964,38.9374154667806 L -11.591376567133299,39.50152569963683 L -11.686387256051304,39.94335436872463 L -11.843790193779737,40.28097453535569 L -12.062637169850351,40.530921127964106 L -12.345203889386935,40.686080281991025 L -12.692248920764083,40.7378 L -12.954903220467553,40.70915227515488 L -13.183042659126954,40.62320910061952 L -13.3755293841804,40.48400807519761 L -13.531225543065993,40.29404866481521 L -13.65430326184401,40.05583033539842 L -13.747417529825526,39.77031441999573 L -13.806016936762978,39.40789186071352 L -13.825550072408797,38.9374154667806 L -13.794069484863112,38.37734283272805 L -13.699627722226051,37.93686002990814 L -13.543172994965861,37.59923986327708 L -13.324136376801599,37.34775513779107 L -13.041380015171365,37.19201918393505 L -12.692248920764083,37.14010719931638 L -12.243935011378523,37.2314338389233 L -11.903337811185434,37.505413757744066 L -11.645614205916832,38.083367186498606 L -11.559706337493964,38.9374154667806 M -11.998158858009791,38.9374154667806 L -12.048224370733049,38.21487754753257 L -12.198420908902833,37.78227767571032 L -12.422008937314665,37.567131339457376 L -12.692248920764083,37.49541589403973 L -12.96305783049445,37.56751587267678 L -13.18683550099993,37.7838158085879 L -13.33703203916971,38.216415680410165 L -13.387097551892971,38.9374154667806 L -13.33703203916971,39.66168378551591 L -13.18683550099993,40.09332232428968 L -12.961919977932554,40.30789186071352 L -12.687697510516514,40.37941503952147 L -12.423526074063856,40.31635159154027 L -12.218143686642298,40.12716124759667 L -12.053155065167918,39.66898991668447 L -11.998158858009791,38.9374154667806" fill="#000000" stroke="#000000" fill-rule="evenodd" />
    <path id="base_2" d="M -15.633977077442932,37.2000943815424 L -15.207661650920624,37.2000943815424 L -15.207661650920624,39.956428498184145 L -15.02958772498448,39.80780640888699 L -14.803344707261566,39.65879978637043 L -14.565912806013378,39.52825075838496 L -14.354272229501412,39.43500145268105 L -14.354272229501412,39.8533735953856 L -14.689749093165986,40.0419871395001 L -14.980091138542168,40.26636227301858 L -15.208799503482517,40.505734202093564 L -15.359375325839597,40.7378 L -15.633977077442932,40.7378 L -15.633977077442932,37.2000943815424" fill="#000000" stroke="#000000" fill-rule="evenodd" />
    <path id="base_2" d="M -15.835756265085166,38.9374154667806 L -15.867426494724505,39.50152569963683 L -15.962437183642503,39.94335436872463 L -16.11984012137094,40.28097453535569 L -16.338687097441557,40.530921127964106 L -16.621253816978136,40.686080281991025 L -16.968298848355282,40.7378 L -17.230953148058752,40.70915227515488 L -17.459092586718157,40.62320910061952 L -17.6515793117716,40.48400807519761 L -17.807275470657192,40.29404866481521 L -17.93035318943521,40.05583033539842 L -18.02346745741673,39.77031441999572 L -18.082066864354182,39.40789186071352 L -18.1016,38.9374154667806 L -18.07011941245431,38.37734283272805 L -17.975677649817253,37.93686002990814 L -17.819222922557064,37.59923986327708 L -17.6001863043928,37.34775513779107 L -17.317429942762566,37.19201918393505 L -16.968298848355282,37.14010719931638 L -16.519984938969724,37.2314338389233 L -16.179387738776633,37.505413757744066 L -15.921664133508035,38.083367186498606 L -15.835756265085166,38.9374154667806 M -16.27420878560099,38.9374154667806 L -16.324274298324248,38.21487754753257 L -16.47447083649403,37.78227767571032 L -16.69805886490587,37.567131339457376 L -16.968298848355282,37.49541589403973 L -17.239107758085648,37.56751587267678 L -17.462885428591132,37.7838158085879 L -17.61308196676091,38.216415680410165 L -17.66314747948417,38.9374154667806 L -17.61308196676091,39.66168378551591 L -17.462885428591132,40.09332232428968 L -17.23796990552376,40.30789186071352 L -16.963747438107717,40.37941503952147 L -16.699576001655057,40.31635159154027 L -16.4941936142335,40.12716124759667 L -16.32920499275912,39.66898991668447 L -16.27420878560099,38.9374154667806" fill="#000000" stroke="#000000" fill-rule="evenodd" />
  </g>
</svg>