<?xml version="1.0" encoding="UTF-8" standalone="no"?>
<svg width="300mm" height="300mm" viewBox="-150.0 -150.0 300 300" xmlns="http://www.w3.org/2000/svg">
  <g >
    <path id="barcode" d="M -18.0,-10.0 L -17.200000000000003,-10.0 L -17.200000000000003,10.0 L -18.0,10.0 L -18.0,-10.0" fill="#000000" stroke="none" />
    <path id="barcode" d="M -16.800000000000004,-10.0 L -16.4,-10.0 L -16.4,10.0 L -16.800000000000004,10.0 L -16.800000000000004,-10.0" fill="#000000" stroke="none" />
    <path id="barcode" d="M -15.600000000000001,-10.0 L -14.400000000000002,-10.0 L -14.400000000000002,10.0 L -15.600000000000001,10.0 L -15.600000000000001,-10.0" fill="#000000" stroke="none" />
    <path id="barcode" d="M -13.600000000000001,-10.0 L -13.200000000000001,-10.0 L -13.200000000000001,10.0 L -13.600000000000001,10.0 L -13.600000000000001,-10.0" fill="#000000" stroke="none" />
    <path id="barcode" d="M -12.800000000000002,-10.0 L -12.000000000000002,-10.0 L -12.000000000000002,10.0 L -12.800000000000002,10.0 L -12.800000000000002,-10.0" fill="#000000" stroke="none" />
    <path id="barcode" d="M -10.800000000000002,-10.0 L -9.600000000000001,-10.0 L -9.600000000000001,10.0 L -10.800000000000002,10.0 L -10.800000000000002,-10.0" fill="#000000" stroke="none" />
    <path id="barcode" d="M -9.200000000000001,-10.0 L -8.8,-10.0 L -8.8,10.0 L -9.200000000000001,10.0 L -9.200000000000001,-10.0" fill="#000000" stroke="none" />
    <path id="barcode" d="M -8.000000000000002,-10.0 L -7.200000000000001,-10.0 L -7.200000000000001,10.0 L -8.000000000000002,10.0 L -8.000000000000002,-10.0" fill="#000000" stroke="none" />
    <path id="barcode" d="M -6.800000000000001,-10.0 L -5.600000000000001,-10.0 L -5.600000000000001,10.0 L -6.800000000000001,10.0 L -6.800000000000001,-10.0" fill="#000000" stroke="none" />
    <path id="barcode" d="M -4.800000000000001,-10.0 L -4.000000000000002,-10.0 L -4.000000000000002,10.0 L -4.800000000000001,10.0 L -4.800000000000001,-10.0" fill="#000000" stroke="none" />
    <path id="barcode" d="M -2.8000000000000007,-10.0 L -2.4000000000000004,-10.0 L -2.4000000000000004,10.0 L -2.8000000000000007,10.0 L -2.8000000000000007,-10.0" fill="#000000" stroke="none" />
    <path id="barcode" d="M -1.5999999999999996,-10.0 L -1.200000000000001,-10.0 L -1.200000000000001,10.0 L -1.5999999999999996,10.0 L -1.5999999999999996,-10.0" fill="#000000" stroke="none" />
    <path id="barcode" d="M -0.40000000000000036,-10.0 L 0.40000000000000036,-10.0 L 0.40000000000000036,10.0 L -0.40000000000000036,10.0 L -0.40000000000000036,-10.0" fill="#000000" stroke="none" />
    <path id="barcode" d="M 0.7999999999999989,-10.0 L 1.5999999999999996,-10.0 L 1.5999999999999996,10.0 L 0.7999999999999989,10.0 L 0.7999999999999989,-10.0" fill="#000000" stroke="none" />
    <path id="barcode" d="M 2.4000000000000004,-10.0 L 3.200000000000001,-10.0 L 3.200000000000001,10.0 L 2.4000000000000004,10.0 L 2.4000000000000004,-10.0" fill="#000000" stroke="none" />
    <path id="barcode" d="M 3.9999999999999982,-10.0 L 4.799999999999999,-10.0 L 4.799999999999999,10.0 L 3.9999999999999982,10.0 L 3.9999999999999982,-10.0" fill="#000000" stroke="none" />
    <path id="barcode" d="M 5.6,-10.0 L 5.999999999999998,-10.0 L 5.999999999999998,10.0 L 5.6,10.0 L 5.6,-10.0" fill="#000000" stroke="none" />
    <path id="barcode" d="M 7.200000000000001,-10.0 L 7.6,-10.0 L 7.6,10.0 L 7.200000000000001,10.0 L 7.200000000000001,-10.0" fill="#000000" stroke="none" />
    <path id="barcode" d="M 8.4,-10.0 L 9.200000000000001,-10.0 L 9.200000000000001,10.0 L 8.4,10.0 L 8.4,-10.0" fill="#000000" stroke="none" />
    <path id="barcode" d="M 9.6,-10.0 L 10.799999999999999,-10.0 L 10.799999999999999,10.0 L 9.6,10.0 L 9.6,-10.0" fill="#000000" stroke="none" />
    <path id="barcode" d="M 11.200000000000001,-10.0 L 11.6,-10.0 L 11.6,10.0 L 11.200000000000001,10.0 L 11.200000000000001,-10.0" fill="#000000" stroke="none" />
    <path id="barcode" d="M 12.799999999999999,-10.0 L 13.6,-10.0 L 13.6,10.0 L 12.799999999999999,10.0 L 12.799999999999999,-10.0" fill="#000000" stroke="none" />
    <path id="barcode" d="M 14.800000000000002,-10.0 L 15.999999999999998,-10.0 L 15.999999999999998,10.0 L 14.800000000000002,10.0 L 14.800000000000002,-10.0" fill="#000000" stroke="none" />
    <path id="barcode" d="M 16.4,-10.0 L 16.800000000000004,-10.0 L 16.800000000000004,10.0 L 16.4,10.0 L 16.4,-10.0" fill="#000000" stroke="none" />
    <path id="barcode" d="M 17.200000000000003,-10.0 L 18.0,-10.0 L 18.0,10.0 L 17.200000000000003,10.0 L 17.200000000000003,-10.0" fill="#000000" stroke="none" />
    <path id="text" d="M -2.1590062500000005,15.353046875 L -2.1590062500000005,15.181640625 L -2.4696312500000004,15.181640625 L -2.4696312500000004,15.101015625 L -2.1429125000000004,14.637265625 L -2.0711937500000004,14.637265625 L -2.0711937500000004,15.101015625 L -1.9744750000000004,15.101015625 L -1.9744750000000004,15.181640625 L -2.0711937500000004,15.181640625 L -2.0711937500000004,15.353046875 L -2.1590062500000005,15.353046875 M -2.1590062500000005,15.101015625 L -2.1590062500000005,14.778359375 L -2.3832250000000004,15.101015625 L -2.1590062500000005,15.101015625" fill="#000000" stroke="#000000" fill-rule="evenodd" />
    <path id="text" d="M -1.8871437500000003,15.164140625 L -1.7993312500000003,15.152421875 L -1.7788625000000005,15.2166796875 L -1.7477687500000005,15.260078125 L -1.7074171875000004,15.2848046875 L -1.6591750000000003,15.293046875 L -1.6019875000000003,15.2823046875 L -1.5544875000000005,15.250078125 L -1.5223781250000004,15.201953125 L -1.5116750000000003,15.143515625 L -1.5215578125000004,15.088359375 L -1.5512062500000003,15.043828125 L -1.5961281250000003,15.014296875 L -1.6518312500000003,15.004453125 L -1.6797609375000002,15.006875 L -1.7138625000000003,15.014140625 L -1.7040187500000004,14.936953125 L -1.6961281250000004,14.9377734375 L -1.6899562500000003,14.938046875 L -1.6365578125000004,14.9307421875 L -1.5888625000000003,14.908828125 L -1.5551125000000003,14.8715234375 L -1.5438625000000004,14.818359375 L -1.5520656250000004,14.77421875 L -1.5766750000000005,14.738359375 L -1.6140968750000004,14.714453125 L -1.6610500000000004,14.706484375 L -1.7080421875000003,14.7145703125 L -1.7465187500000003,14.738828125 L -1.7746046875000003,14.7790625 L -1.7904250000000004,14.835390625 L -1.8783937500000003,14.819765625 L -1.8520656250000005,14.74140625 L -1.8052687500000004,14.682890625 L -1.7411281250000004,14.6464453125 L -1.6630812500000003,14.634296875 L -1.6068312500000004,14.6405859375 L -1.5552687500000004,14.659453125 L -1.5117140625000005,14.6891796875 L -1.4798000000000004,14.728046875 L -1.4601125000000004,14.7728515625 L -1.4535500000000003,14.820390625 L -1.4598000000000004,14.864609375 L -1.4785500000000005,14.904765625 L -1.5093703125000004,14.938984375 L -1.5521437500000004,14.965390625 L -1.4957765625000004,14.9878515625 L -1.4535500000000003,15.026171875 L -1.4271828125000003,15.0780859375 L -1.4183937500000003,15.141640625 L -1.4355031250000003,15.2282421875 L -1.4868312500000003,15.300546875 L -1.5641750000000003,15.3494140625 L -1.6596437500000003,15.365703125 L -1.7458937500000005,15.3516796875 L -1.8162062500000005,15.309609375 L -1.8650343750000005,15.2451171875 L -1.8871437500000003,15.164140625" fill="#000000" stroke="#000000" fill-rule="evenodd" />
    <path id="text" d="M -1.0005937500000002,15.353046875 L -1.0884062500000002,15.353046875 L -1.0884062500000002,14.793046875 L -1.1250859375000002,14.8232421875 L -1.1716875000000002,14.853515625 L -1.2205937500000001,14.8800390625 L -1.2641875000000002,14.898984375 L -1.2641875000000002,14.813984375 L -1.1950859375000003,14.7756640625 L -1.1352812500000002,14.730078125 L -1.0881718750000002,14.6814453125 L -1.0571562500000002,14.634296875 L -1.0005937500000002,14.634296875 L -1.0005937500000002,15.353046875" fill="#000000" stroke="#000000" fill-rule="evenodd" />
    <path id="text" d="M -0.9132625000000001,15.164140625 L -0.82545,15.152421875 L -0.80498125,15.2166796875 L -0.7738875000000001,15.260078125 L -0.7335359375000001,15.2848046875 L -0.68529375,15.293046875 L -0.6281062500000001,15.2823046875 L -0.58060625,15.250078125 L -0.5484968750000001,15.201953125 L -0.5377937500000001,15.143515625 L -0.5476765625,15.088359375 L -0.5773250000000001,15.043828125 L -0.6222468750000001,15.014296875 L -0.67795,15.004453125 L -0.7058796875,15.006875 L -0.73998125,15.014140625 L -0.7301375000000001,14.936953125 L -0.7222468750000002,14.9377734375 L -0.716075,14.938046875 L -0.6626765625000002,14.9307421875 L -0.61498125,14.908828125 L -0.5812312500000001,14.8715234375 L -0.5699812500000001,14.818359375 L -0.5781843750000002,14.77421875 L -0.60279375,14.738359375 L -0.6402156250000002,14.714453125 L -0.6871687500000001,14.706484375 L -0.7341609375,14.7145703125 L -0.7726375000000001,14.738828125 L -0.8007234375000001,14.7790625 L -0.8165437500000001,14.835390625 L -0.9045125,14.819765625 L -0.878184375,14.74140625 L -0.8313875,14.682890625 L -0.7672468750000001,14.6464453125 L -0.6892,14.634296875 L -0.6329500000000001,14.6405859375 L -0.5813875,14.659453125 L -0.5378328125,14.6891796875 L -0.50591875,14.728046875 L -0.4862312500000001,14.7728515625 L -0.4796687500000001,14.820390625 L -0.4859187500000002,14.864609375 L -0.50466875,14.904765625 L -0.5354890625,14.938984375 L -0.5782625000000001,14.965390625 L -0.5218953125000001,14.9878515625 L -0.4796687500000001,15.026171875 L -0.4533015625000001,15.0780859375 L -0.4445125000000001,15.141640625 L -0.46162187500000007,15.2282421875 L -0.51295,15.300546875 L -0.5902937500000001,15.3494140625 L -0.6857625,15.365703125 L -0.7720125000000002,15.3516796875 L -0.842325,15.309609375 L -0.891153125,15.2451171875 L -0.9132625000000001,15.164140625" fill="#000000" stroke="#000000" fill-rule="evenodd" />
    <path id="text" d="M -0.026712499999999917,15.353046875 L -0.11452499999999999,15.353046875 L -0.11452499999999999,14.793046875 L -0.15120468749999993,14.8232421875 L -0.19780624999999974,14.853515625 L -0.24671249999999967,14.8800390625 L -0.29030625,14.898984375 L -0.29030625,14.813984375 L -0.22120468749999977,14.7756640625 L -0.1614,14.730078125 L -0.1142906250000002,14.6814453125 L -0.08327499999999999,14.634296875 L -0.026712499999999917,14.634296875 L -0.026712499999999917,15.353046875" fill="#000000" stroke="#000000" fill-rule="evenodd" />
    <path id="text" d="M 0.39108750000000025,15.353046875 L 0.3032750000000002,15.353046875 L 0.3032750000000002,14.793046875 L 0.26659531250000024,14.8232421875 L 0.21999375,14.853515625 L 0.17108750000000006,14.8800390625 L 0.12749375000000018,14.898984375 L 0.12749375000000018,14.813984375 L 0.19659531249999995,14.7756640625 L 0.2564000000000002,14.730078125 L 0.3035093750000004,14.6814453125 L 0.3345250000000002,14.634296875 L 0.39108750000000025,14.634296875 L 0.39108750000000025,15.353046875" fill="#000000" stroke="#000000" fill-rule="evenodd" />
    <path id="text" d="M 0.4779500000000003,15.000078125 L 0.4844734375000006,14.88546875 L 0.5040437500000006,14.795703125 L 0.5364656250000004,14.727109375 L 0.5815437500000002,14.676328125 L 0.6397468750000006,14.6448046875 L 0.7112312500000004,14.634296875 L 0.7653328125000001,14.6401171875 L 0.8123250000000004,14.657578125 L 0.8519734375000003,14.685859375 L 0.8840437500000005,14.724453125 L 0.9093953125000005,14.7728515625 L 0.9285750000000004,14.830859375 L 0.9406453125000005,14.9044921875 L 0.9446687500000004,15.000078125 L 0.9381843750000005,15.1138671875 L 0.9187312500000004,15.203359375 L 0.8865046875,15.271953125 L 0.8413875000000002,15.323046875 L 0.7831453125000003,15.3546875 L 0.7112312500000004,15.365234375 L 0.6188875000000005,15.3466796875 L 0.5487312500000003,15.291015625 L 0.4956453125000002,15.17359375 L 0.4779500000000003,15.000078125 M 0.5682625000000003,15.000078125 L 0.5785750000000003,15.146875 L 0.6095125000000006,15.234765625 L 0.6555671875000004,15.2784765625 L 0.7112312500000004,15.293046875 L 0.7670125000000003,15.2783984375 L 0.8131062500000001,15.234453125 L 0.8440437500000004,15.1465625 L 0.8543562500000004,15.000078125 L 0.8440437500000004,14.8529296875 L 0.8131062500000001,14.765234375 L 0.7667781250000005,14.721640625 L 0.7102937500000004,14.707109375 L 0.6558796875000001,14.719921875 L 0.6135750000000004,14.758359375 L 0.5795906250000002,14.8514453125 L 0.5682625000000003,15.000078125" fill="#000000" stroke="#000000" fill-rule="evenodd" />
    <path id="text" d="M 1.0315312500000005,15.000078125 L 1.0380546875000003,14.88546875 L 1.0576250000000007,14.795703125 L 1.0900468750000005,14.727109375 L 1.1351250000000004,14.676328125 L 1.1933281250000003,14.6448046875 L 1.2648125000000006,14.634296875 L 1.3189140625000007,14.6401171875 L 1.3659062500000005,14.657578125 L 1.4055546875000005,14.685859375 L 1.4376250000000006,14.724453125 L 1.4629765625000006,14.7728515625 L 1.4821562500000005,14.830859375 L 1.4942265625000002,14.9044921875 L 1.4982500000000005,15.000078125 L 1.4917656250000007,15.1138671875 L 1.4723125000000006,15.203359375 L 1.4400859375000006,15.271953125 L 1.3949687500000008,15.323046875 L 1.3367265625000004,15.3546875 L 1.2648125000000006,15.365234375 L 1.1724687500000006,15.3466796875 L 1.1023125000000005,15.291015625 L 1.0492265625000008,15.17359375 L 1.0315312500000005,15.000078125 M 1.1218437500000005,15.000078125 L 1.1321562500000004,15.146875 L 1.1630937500000007,15.234765625 L 1.2091484375000006,15.2784765625 L 1.2648125000000006,15.293046875 L 1.320593750000001,15.2783984375 L 1.3666875000000007,15.234453125 L 1.3976250000000006,15.1465625 L 1.4079375000000005,15.000078125 L 1.3976250000000006,14.8529296875 L 1.3666875000000007,14.765234375 L 1.3203593750000007,14.721640625 L 1.2638750000000005,14.707109375 L 1.2094609375000007,14.719921875 L 1.1671562500000006,14.758359375 L 1.1331718750000004,14.8514453125 L 1.1218437500000005,15.000078125" fill="#000000" stroke="#000000" fill-rule="evenodd" />
    <path id="text" d="M 1.9160499999999998,15.353046875 L 1.8282374999999997,15.353046875 L 1.8282374999999997,14.793046875 L 1.7915578125000002,14.8232421875 L 1.74495625,14.853515625 L 1.69605,14.8800390625 L 1.6524562500000006,14.898984375 L 1.6524562500000006,14.813984375 L 1.7215578125,14.7756640625 L 1.7813625000000006,14.730078125 L 1.8284718749999995,14.6814453125 L 1.8594874999999997,14.634296875 L 1.9160499999999998,14.634296875 L 1.9160499999999998,15.353046875" fill="#000000" stroke="#000000" fill-rule="evenodd" />
    <path id="text" d="M 2.0029125000000003,15.000078125 L 2.0094359375000006,14.88546875 L 2.0290062499999997,14.795703125 L 2.0614281250000004,14.727109375 L 2.1065062500000002,14.676328125 L 2.1647093749999997,14.6448046875 L 2.2361937499999995,14.634296875 L 2.2902953125,14.6401171875 L 2.3372875,14.657578125 L 2.3769359374999994,14.685859375 L 2.4090062499999996,14.724453125 L 2.4343578124999996,14.7728515625 L 2.4535375,14.830859375 L 2.4656078125000005,14.9044921875 L 2.4696312500000004,15.000078125 L 2.463146875,15.1138671875 L 2.44369375,15.203359375 L 2.4114671875,15.271953125 L 2.36635,15.323046875 L 2.3081078125,15.3546875 L 2.2361937499999995,15.365234375 L 2.14385,15.3466796875 L 2.07369375,15.291015625 L 2.0206078125,15.17359375 L 2.0029125000000003,15.000078125 M 2.093225,15.000078125 L 2.1035374999999994,15.146875 L 2.1344749999999997,15.234765625 L 2.1805296875000004,15.2784765625 L 2.2361937499999995,15.293046875 L 2.2919750000000003,15.2783984375 L 2.33806875,15.234453125 L 2.3690062499999995,15.1465625 L 2.37931875,15.000078125 L 2.3690062499999995,14.8529296875 L 2.33806875,14.765234375 L 2.2917406250000005,14.721640625 L 2.2352562500000004,14.707109375 L 2.1808421875,14.719921875 L 2.1385374999999995,14.758359375 L 2.1045531250000002,14.8514453125 L 2.093225,15.000078125" fill="#000000" stroke="#000000" fill-rule="evenodd" />
  </g>
</svg>