<?xml version="1.0" encoding="UTF-8" standalone="no"?>
<svg width="300mm" height="300mm" viewBox="-150.0 -150.0 300 300" xmlns="http://www.w3.org/2000/svg">
  <g >
    <path id="barcode" d="M -24.6,-10.0 L -24.200000000000003,-10.0 L -24.200000000000003,10.0 L -24.6,10.0 L -24.6,-10.0" fill="#000000" />
    <path id="barcode" d="M -24.200000000000003,-10.0 L -23.800000000000004,-10.0 L -23.800000000000004,10.0 L -24.200000000000003,10.0 L -24.200000000000003,-10.0" fill="#000000" />
    <path id="barcode" d="M -23.400000000000006,-10.0 L -23.000000000000007,-10.0 L -23.000000000000007,10.0 L -23.400000000000006,10.0 L -23.400000000000006,-10.0" fill="#000000" />
    <path id="barcode" d="M -22.20000000000001,-10.0 L -21.80000000000001,-10.0 L -21.80000000000001,10.0 L -22.20000000000001,10.0 L -22.20000000000001,-10.0" fill="#000000" />
    <path id="barcode" d="M -20.200000000000017,-10.0 L -19.80000000000002,-10.0 L -19.80000000000002,10.0 L -20.200000000000017,10.0 L -20.200000000000017,-10.0" fill="#000000" />
    <path id="barcode" d="M -19.80000000000002,-10.0 L -19.40000000000002,-10.0 L -19.40000000000002,10.0 L -19.80000000000002,10.0 L -19.80000000000002,-10.0" fill="#000000" />
    <path id="barcode" d="M -19.00000000000002,-10.0 L -18.600000000000023,-10.0 L -18.600000000000023,10.0 L -19.00000000000002,10.0 L -19.00000000000002,-10.0" fill="#000000" />
    <path id="barcode" d="M -18.600000000000023,-10.0 L -18.200000000000024,-10.0 L -18.200000000000024,10.0 L -18.600000000000023,10.0 L -18.600000000000023,-10.0" fill="#000000" />
    <path id="barcode" d="M -18.200000000000024,-10.0 L -17.800000000000026,-10.0 L -17.800000000000026,10.0 L -18.200000000000024,10.0 L -18.200000000000024,-10.0" fill="#000000" />
    <path id="barcode" d="M -16.60000000000003,-10.0 L -16.20000000000003,-10.0 L -16.20000000000003,10.0 L -16.60000000000003,10.0 L -16.60000000000003,-10.0" fill="#000000" />
    <path id="barcode" d="M -15.800000000000031,-10.0 L -15.40000000000003,-10.0 L -15.40000000000003,10.0 L -15.800000000000031,10.0 L -15.800000000000031,-10.0" fill="#000000" />
    <path id="barcode" d="M -14.20000000000003,-10.0 L -13.80000000000003,-10.0 L -13.80000000000003,10.0 L -14.20000000000003,10.0 L -14.20000000000003,-10.0" fill="#000000" />
    <path id="barcode" d="M -13.80000000000003,-10.0 L -13.400000000000029,-10.0 L -13.400000000000029,10.0 L -13.80000000000003,10.0 L -13.80000000000003,-10.0" fill="#000000" />
    <path id="barcode" d="M -13.000000000000028,-10.0 L -12.600000000000028,-10.0 L -12.600000000000028,10.0 L -13.000000000000028,10.0 L -13.000000000000028,-10.0" fill="#000000" />
    <path id="barcode" d="M -11.400000000000027,-10.0 L -11.000000000000027,-10.0 L -11.000000000000027,10.0 L -11.400000000000027,10.0 L -11.400000000000027,-10.0" fill="#000000" />
    <path id="barcode" d="M -11.000000000000027,-10.0 L -10.600000000000026,-10.0 L -10.600000000000026,10.0 L -11.000000000000027,10.0 L -11.000000000000027,-10.0" fill="#000000" />
    <path id="barcode" d="M -10.200000000000026,-10.0 L -9.800000000000026,-10.0 L -9.800000000000026,10.0 L -10.200000000000026,10.0 L -10.200000000000026,-10.0" fill="#000000" />
    <path id="barcode" d="M -9.800000000000026,-10.0 L -9.400000000000025,-10.0 L -9.400000000000025,10.0 L -9.800000000000026,10.0 L -9.800000000000026,-10.0" fill="#000000" />
    <path id="barcode" d="M -9.400000000000025,-10.0 L -9.000000000000025,-10.0 L -9.000000000000025,10.0 L -9.400000000000025,10.0 L -9.400000000000025,-10.0" fill="#000000" />
    <path id="barcode" d="M -8.600000000000025,-10.0 L -8.200000000000024,-10.0 L -8.200000000000024,10.0 L -8.600000000000025,10.0 L -8.600000000000025,-10.0" fill="#000000" />
    <path id="barcode" d="M -7.000000000000023,-10.0 L -6.600000000000023,-10.0 L -6.600000000000023,10.0 L -7.000000000000023,10.0 L -7.000000000000023,-10.0" fill="#000000" />
    <path id="barcode" d="M -6.600000000000023,-10.0 L -6.200000000000022,-10.0 L -6.200000000000022,10.0 L -6.600000000000023,10.0 L -6.600000000000023,-10.0" fill="#000000" />
    <path id="barcode" d="M -5.800000000000022,-10.0 L -5.400000000000022,-10.0 L -5.400000000000022,10.0 L -5.800000000000022,10.0 L -5.800000000000022,-10.0" fill="#000000" />
    <path id="barcode" d="M -5.400000000000022,-10.0 L -5.000000000000021,-10.0 L -5.000000000000021,10.0 L -5.400000000000022,10.0 L -5.400000000000022,-10.0" fill="#000000" />
    <path id="barcode" d="M -5.000000000000021,-10.0 L -4.600000000000021,-10.0 L -4.600000000000021,10.0 L -5.000000000000021,10.0 L -5.000000000000021,-10.0" fill="#000000" />
    <path id="barcode" d="M -3.400000000000021,-10.0 L -3.000000000000021,-10.0 L -3.000000000000021,10.0 L -3.400000000000021,10.0 L -3.400000000000021,-10.0" fill="#000000" />
    <path id="barcode" d="M -2.600000000000021,-10.0 L -2.200000000000021,-10.0 L -2.200000000000021,10.0 L -2.600000000000021,10.0 L -2.600000000000021,-10.0" fill="#000000" />
    <path id="barcode" d="M -1.0000000000000213,-10.0 L -0.6000000000000213,-10.0 L -0.6000000000000213,10.0 L -1.0000000000000213,10.0 L -1.0000000000000213,-10.0" fill="#000000" />
    <path id="barcode" d="M -0.6000000000000213,-10.0 L -0.20000000000002127,-10.0 L -0.20000000000002127,10.0 L -0.6000000000000213,10.0 L -0.6000000000000213,-10.0" fill="#000000" />
    <path id="barcode" d="M 0.19999999999997875,-10.0 L 0.5999999999999788,-10.0 L 0.5999999999999788,10.0 L 0.19999999999997875,10.0 L 0.19999999999997875,-10.0" fill="#000000" />
    <path id="barcode" d="M 1.799999999999979,-10.0 L 2.199999999999979,-10.0 L 2.199999999999979,10.0 L 1.799999999999979,10.0 L 1.799999999999979,-10.0" fill="#000000" />
    <path id="barcode" d="M 2.9999999999999787,-10.0 L 3.3999999999999786,-10.0 L 3.3999999999999786,10.0 L 2.9999999999999787,10.0 L 2.9999999999999787,-10.0" fill="#000000" />
    <path id="barcode" d="M 3.3999999999999786,-10.0 L 3.7999999999999785,-10.0 L 3.7999999999999785,10.0 L 3.3999999999999786,10.0 L 3.3999999999999786,-10.0" fill="#000000" />
    <path id="barcode" d="M 3.7999999999999785,-10.0 L 4.199999999999979,-10.0 L 4.199999999999979,10.0 L 3.7999999999999785,10.0 L 3.7999999999999785,-10.0" fill="#000000" />
    <path id="barcode" d="M 4.99999999999998,-10.0 L 5.39999999999998,-10.0 L 5.39999999999998,10.0 L 4.99999999999998,10.0 L 4.99999999999998,-10.0" fill="#000000" />
    <path id="barcode" d="M 5.39999999999998,-10.0 L 5.79999999999998,-10.0 L 5.79999999999998,10.0 L 5.39999999999998,10.0 L 5.39999999999998,-10.0" fill="#000000" />
    <path id="barcode" d="M 6.199999999999981,-10.0 L 6.599999999999981,-10.0 L 6.599999999999981,10.0 L 6.199999999999981,10.0 L 6.199999999999981,-10.0" fill="#000000" />
    <path id="barcode" d="M 6.599999999999981,-10.0 L 6.999999999999981,-10.0 L 6.999999999999981,10.0 L 6.599999999999981,10.0 L 6.599999999999981,-10.0" fill="#000000" />
    <path id="barcode" d="M 7.799999999999982,-10.0 L 8.199999999999982,-10.0 L 8.199999999999982,10.0 L 7.799999999999982,10.0 L 7.799999999999982,-10.0" fill="#000000" />
    <path id="barcode" d="M 8.199999999999982,-10.0 L 8.599999999999982,-10.0 L 8.599999999999982,10.0 L 8.199999999999982,10.0 L 8.199999999999982,-10.0" fill="#000000" />
    <path id="barcode" d="M 8.599999999999982,-10.0 L 8.999999999999982,-10.0 L 8.999999999999982,10.0 L 8.599999999999982,10.0 L 8.599999999999982,-10.0" fill="#000000" />
    <path id="barcode" d="M 9.799999999999983,-10.0 L 10.199999999999983,-10.0 L 10.199999999999983,10.0 L 9.799999999999983,10.0 L 9.799999999999983,-10.0" fill="#000000" />
    <path id="barcode" d="M 10.599999999999984,-10.0 L 10.999999999999984,-10.0 L 10.999999999999984,10.0 L 10.599999999999984,10.0 L 10.599999999999984,-10.0" fill="#000000" />
    <path id="barcode" d="M 10.999999999999984,-10.0 L 11.399999999999984,-10.0 L 11.399999999999984,10.0 L 10.999999999999984,10.0 L 10.999999999999984,-10.0" fill="#000000" />
    <path id="barcode" d="M 12.199999999999985,-10.0 L 12.599999999999985,-10.0 L 12.599999999999985,10.0 L 12.199999999999985,10.0 L 12.199999999999985,-10.0" fill="#000000" />
    <path id="barcode" d="M 12.999999999999986,-10.0 L 13.399999999999986,-10.0 L 13.399999999999986,10.0 L 12.999999999999986,10.0 L 12.999999999999986,-10.0" fill="#000000" />
    <path id="barcode" d="M 13.399999999999986,-10.0 L 13.799999999999986,-10.0 L 13.799999999999986,10.0 L 13.399999999999986,10.0 L 13.399999999999986,-10.0" fill="#000000" />
    <path id="barcode" d="M 13.799999999999986,-10.0 L 14.199999999999987,-10.0 L 14.199999999999987,10.0 L 13.799999999999986,10.0 L 13.799999999999986,-10.0" fill="#000000" />
    <path id="barcode" d="M 14.999999999999988,-10.0 L 15.399999999999988,-10.0 L 15.399999999999988,10.0 L 14.999999999999988,10.0 L 14.999999999999988,-10.0" fill="#000000" />
    <path id="barcode" d="M 15.399999999999988,-10.0 L 15.799999999999988,-10.0 L 15.799999999999988,10.0 L 15.399999999999988,10.0 L 15.399999999999988,-10.0" fill="#000000" />
    <path id="barcode" d="M 15.799999999999988,-10.0 L 16.19999999999999,-10.0 L 16.19999999999999,10.0 L 15.799999999999988,10.0 L 15.799999999999988,-10.0" fill="#000000" />
    <path id="barcode" d="M 16.599999999999987,-10.0 L 16.999999999999986,-10.0 L 16.999999999999986,10.0 L 16.599999999999987,10.0 L 16.599999999999987,-10.0" fill="#000000" />
    <path id="barcode" d="M 16.999999999999986,-10.0 L 17.399999999999984,-10.0 L 17.399999999999984,10.0 L 16.999999999999986,10.0 L 16.999999999999986,-10.0" fill="#000000" />
    <path id="barcode" d="M 17.799999999999983,-10.0 L 18.19999999999998,-10.0 L 18.19999999999998,10.0 L 17.799999999999983,10.0 L 17.799999999999983,-10.0" fill="#000000" />
    <path id="barcode" d="M 18.19999999999998,-10.0 L 18.59999999999998,-10.0 L 18.59999999999998,10.0 L 18.19999999999998,10.0 L 18.19999999999998,-10.0" fill="#000000" />
    <path id="barcode" d="M 18.59999999999998,-10.0 L 18.99999999999998,-10.0 L 18.99999999999998,10.0 L 18.59999999999998,10.0 L 18.59999999999998,-10.0" fill="#000000" />
    <path id="barcode" d="M 19.399999999999977,-10.0 L 19.799999999999976,-10.0 L 19.799999999999976,10.0 L 19.399999999999977,10.0 L 19.399999999999977,-10.0" fill="#000000" />
    <path id="barcode" d="M 19.799999999999976,-10.0 L 20.199999999999974,-10.0 L 20.199999999999974,10.0 L 19.799999999999976,10.0 L 19.799999999999976,-10.0" fill="#000000" />
    <path id="barcode" d="M 21.39999999999997,-10.0 L 21.79999999999997,-10.0 L 21.79999999999997,10.0 L 21.39999999999997,10.0 L 21.39999999999997,-10.0" fill="#000000" />
    <path id="barcode" d="M 21.79999999999997,-10.0 L 22.199999999999967,-10.0 L 22.199999999999967,10.0 L 21.79999999999997,10.0 L 21.79999999999997,-10.0" fill="#000000" />
    <path id="barcode" d="M 22.199999999999967,-10.0 L 22.599999999999966,-10.0 L 22.599999999999966,10.0 L 22.199999999999967,10.0 L 22.199999999999967,-10.0" fill="#000000" />
    <path id="barcode" d="M 22.999999999999964,-10.0 L 23.399999999999963,-10.0 L 23.399999999999963,10.0 L 22.999999999999964,10.0 L 22.999999999999964,-10.0" fill="#000000" />
    <path id="barcode" d="M 23.79999999999996,-10.0 L 24.19999999999996,-10.0 L 24.19999999999996,10.0 L 23.79999999999996,10.0 L 23.79999999999996,-10.0" fill="#000000" />
    <path id="barcode" d="M 24.19999999999996,-10.0 L 24.59999999999996,-10.0 L 24.59999999999996,10.0 L 24.19999999999996,10.0 L 24.19999999999996,-10.0" fill="#000000" />
    <path id="text" d="M -5.8500000000000005,-15.85 L -4.45,-15.85 L -4.45,-15.75 L -5.8500000000000005,-15.75 L -5.8500000000000005,-15.85" fill="#000000" />
    <path id="text" d="M -4.25,-15.85 L -2.95,-15.85 L -2.95,-15.75 L -4.25,-15.75 L -4.25,-15.85" fill="#000000" />
    <path id="text" d="M -2.35,-15.85 L -1.6500000000000004,-15.85 L -1.6500000000000004,-15.75 L -2.35,-15.75 L -2.35,-15.85" fill="#000000" />
    <path id="text" d="M -1.25,-15.85 L 0.15000000000000036,-15.85 L 0.15000000000000036,-15.75 L -1.25,-15.75 L -1.25,-15.85" fill="#000000" />
    <path id="text" d="M 0.35000000000000053,-15.85 L 1.6500000000000004,-15.85 L 1.6500000000000004,-15.75 L 0.35000000000000053,-15.75 L 0.35000000000000053,-15.85" fill="#000000" />
    <path id="text" d="M 2.45,-15.85 L 2.6499999999999995,-15.85 L 2.6499999999999995,-15.75 L 2.45,-15.75 L 2.45,-15.85" fill="#000000" />
    <path id="text" d="M 3.45,-15.85 L 3.95,-15.85 L 3.95,-15.75 L 3.45,-15.75 L 3.45,-15.85" fill="#000000" />
    <path id="text" d="M 4.750000000000001,-15.85 L 5.150000000000001,-15.85 L 5.150000000000001,-15.75 L 4.750000000000001,-15.75 L 4.750000000000001,-15.85" fill="#000000" />
    <path id="text" d="M -5.8500000000000005,-15.75 L -4.45,-15.75 L -4.45,-15.649999999999999 L -5.8500000000000005,-15.649999999999999 L -5.8500000000000005,-15.75" fill="#000000" />
    <path id="text" d="M -4.25,-15.75 L -2.95,-15.75 L -2.95,-15.649999999999999 L -4.25,-15.649999999999999 L -4.25,-15.75" fill="#000000" />
    <path id="text" d="M -2.55,-15.75 L -1.5499999999999998,-15.75 L -1.5499999999999998,-15.649999999999999 L -2.55,-15.649999999999999 L -2.55,-15.75" fill="#000000" />
    <path id="text" d="M -1.25,-15.75 L 0.15000000000000036,-15.75 L 0.15000000000000036,-15.649999999999999 L -1.25,-15.649999999999999 L -1.25,-15.75" fill="#000000" />
    <path id="text" d="M 0.35000000000000053,-15.75 L 1.6500000000000004,-15.75 L 1.6500000000000004,-15.649999999999999 L 0.35000000000000053,-15.649999999999999 L 0.35000000000000053,-15.75" fill="#000000" />
    <path id="text" d="M 2.45,-15.75 L 2.6499999999999995,-15.75 L 2.6499999999999995,-15.649999999999999 L 2.45,-15.649999999999999 L 2.45,-15.75" fill="#000000" />
    <path id="text" d="M 3.250000000000001,-15.75 L 4.150000000000001,-15.75 L 4.150000000000001,-15.649999999999999 L 3.250000000000001,-15.649999999999999 L 3.250000000000001,-15.75" fill="#000000" />
    <path id="text" d="M 4.55,-15.75 L 5.3500000000000005,-15.75 L 5.3500000000000005,-15.649999999999999 L 4.55,-15.649999999999999 L 4.55,-15.75" fill="#000000" />
    <path id="text" d="M -5.25,-15.649999999999999 L -5.05,-15.649999999999999 L -5.05,-15.549999999999999 L -5.25,-15.549999999999999 L -5.25,-15.649999999999999" fill="#000000" />
    <path id="text" d="M -4.25,-15.649999999999999 L -4.05,-15.649999999999999 L -4.05,-15.549999999999999 L -4.25,-15.549999999999999 L -4.25,-15.649999999999999" fill="#000000" />
    <path id="text" d="M -2.55,-15.649999999999999 L -2.35,-15.649999999999999 L -2.35,-15.549999999999999 L -2.55,-15.549999999999999 L -2.55,-15.649999999999999" fill="#000000" />
    <path id="text" d="M -1.75,-15.649999999999999 L -1.4500000000000002,-15.649999999999999 L -1.4500000000000002,-15.549999999999999 L -1.75,-15.549999999999999 L -1.75,-15.649999999999999" fill="#000000" />
    <path id="text" d="M -0.6499999999999995,-15.649999999999999 L -0.4500000000000002,-15.649999999999999 L -0.4500000000000002,-15.549999999999999 L -0.6499999999999995,-15.549999999999999 L -0.6499999999999995,-15.649999999999999" fill="#000000" />
    <path id="text" d="M 0.35000000000000053,-15.649999999999999 L 0.5499999999999998,-15.649999999999999 L 0.5499999999999998,-15.549999999999999 L 0.35000000000000053,-15.549999999999999 L 0.35000000000000053,-15.649999999999999" fill="#000000" />
    <path id="text" d="M 2.3500000000000005,-15.649999999999999 L 2.6499999999999995,-15.649999999999999 L 2.6499999999999995,-15.549999999999999 L 2.3500000000000005,-15.549999999999999 L 2.3500000000000005,-15.649999999999999" fill="#000000" />
    <path id="text" d="M 3.250000000000001,-15.649999999999999 L 3.45,-15.649999999999999 L 3.45,-15.549999999999999 L 3.250000000000001,-15.549999999999999 L 3.250000000000001,-15.649999999999999" fill="#000000" />
    <path id="text" d="M 3.95,-15.649999999999999 L 4.150000000000001,-15.649999999999999 L 4.150000000000001,-15.549999999999999 L 3.95,-15.549999999999999 L 3.95,-15.649999999999999" fill="#000000" />
    <path id="text" d="M 4.55,-15.649999999999999 L 4.750000000000001,-15.649999999999999 L 4.750000000000001,-15.549999999999999 L 4.55,-15.549999999999999 L 4.55,-15.649999999999999" fill="#000000" />
    <path id="text" d="M 5.150000000000001,-15.649999999999999 L 5.45,-15.649999999999999 L 5.45,-15.549999999999999 L 5.150000000000001,-15.549999999999999 L 5.150000000000001,-15.649999999999999" fill="#000000" />
    <path id="text" d="M -5.25,-15.549999999999999 L -5.05,-15.549999999999999 L -5.05,-15.45 L -5.25,-15.45 L -5.25,-15.549999999999999" fill="#000000" />
    <path id="text" d="M -4.25,-15.549999999999999 L -4.05,-15.549999999999999 L -4.05,-15.45 L -4.25,-15.45 L -4.25,-15.549999999999999" fill="#000000" />
    <path id="text" d="M -2.65,-15.549999999999999 L -2.45,-15.549999999999999 L -2.45,-15.45 L -2.65,-15.45 L -2.65,-15.549999999999999" fill="#000000" />
    <path id="text" d="M -1.6500000000000004,-15.549999999999999 L -1.3499999999999996,-15.549999999999999 L -1.3499999999999996,-15.45 L -1.6500000000000004,-15.45 L -1.6500000000000004,-15.549999999999999" fill="#000000" />
    <path id="text" d="M -0.6499999999999995,-15.549999999999999 L -0.4500000000000002,-15.549999999999999 L -0.4500000000000002,-15.45 L -0.6499999999999995,-15.45 L -0.6499999999999995,-15.549999999999999" fill="#000000" />
    <path id="text" d="M 0.35000000000000053,-15.549999999999999 L 0.5499999999999998,-15.549999999999999 L 0.5499999999999998,-15.45 L 0.35000000000000053,-15.45 L 0.35000000000000053,-15.549999999999999" fill="#000000" />
    <path id="text" d="M 2.1499999999999995,-15.549999999999999 L 2.6499999999999995,-15.549999999999999 L 2.6499999999999995,-15.45 L 2.1499999999999995,-15.45 L 2.1499999999999995,-15.549999999999999" fill="#000000" />
    <path id="text" d="M 3.1499999999999995,-15.549999999999999 L 3.3500000000000005,-15.549999999999999 L 3.3500000000000005,-15.45 L 3.1499999999999995,-15.45 L 3.1499999999999995,-15.549999999999999" fill="#000000" />
    <path id="text" d="M 4.05,-15.549999999999999 L 4.250000000000001,-15.549999999999999 L 4.250000000000001,-15.45 L 4.05,-15.45 L 4.05,-15.549999999999999" fill="#000000" />
    <path id="text" d="M 4.45,-15.549999999999999 L 4.650000000000001,-15.549999999999999 L 4.650000000000001,-15.45 L 4.45,-15.45 L 4.45,-15.549999999999999" fill="#000000" />
    <path id="text" d="M 5.250000000000001,-15.549999999999999 L 5.45,-15.549999999999999 L 5.45,-15.45 L 5.250000000000001,-15.45 L 5.250000000000001,-15.549999999999999" fill="#000000" />
    <path id="text" d="M -5.25,-15.45 L -5.05,-15.45 L -5.05,-15.35 L -5.25,-15.35 L -5.25,-15.45" fill="#000000" />
    <path id="text" d="M -4.25,-15.45 L -4.05,-15.45 L -4.05,-15.35 L -4.25,-15.35 L -4.25,-15.45" fill="#000000" />
    <path id="text" d="M -2.65,-15.45 L -2.45,-15.45 L -2.45,-15.35 L -2.65,-15.35 L -2.65,-15.45" fill="#000000" />
    <path id="text" d="M -1.5499999999999998,-15.45 L -1.3499999999999996,-15.45 L -1.3499999999999996,-15.35 L -1.5499999999999998,-15.35 L -1.5499999999999998,-15.45" fill="#000000" />
    <path id="text" d="M -0.6499999999999995,-15.45 L -0.4500000000000002,-15.45 L -0.4500000000000002,-15.35 L -0.6499999999999995,-15.35 L -0.6499999999999995,-15.45" fill="#000000" />
    <path id="text" d="M 0.35000000000000053,-15.45 L 0.5499999999999998,-15.45 L 0.5499999999999998,-15.35 L 0.35000000000000053,-15.35 L 0.35000000000000053,-15.45" fill="#000000" />
    <path id="text" d="M 2.05,-15.45 L 2.3500000000000005,-15.45 L 2.3500000000000005,-15.35 L 2.05,-15.35 L 2.05,-15.45" fill="#000000" />
    <path id="text" d="M 2.45,-15.45 L 2.6499999999999995,-15.45 L 2.6499999999999995,-15.35 L 2.45,-15.35 L 2.45,-15.45" fill="#000000" />
    <path id="text" d="M 3.1499999999999995,-15.45 L 3.3500000000000005,-15.45 L 3.3500000000000005,-15.35 L 3.1499999999999995,-15.35 L 3.1499999999999995,-15.45" fill="#000000" />
    <path id="text" d="M 4.05,-15.45 L 4.250000000000001,-15.45 L 4.250000000000001,-15.35 L 4.05,-15.35 L 4.05,-15.45" fill="#000000" />
    <path id="text" d="M 5.250000000000001,-15.45 L 5.45,-15.45 L 5.45,-15.35 L 5.250000000000001,-15.35 L 5.250000000000001,-15.45" fill="#000000" />
    <path id="text" d="M -5.25,-15.35 L -5.05,-15.35 L -5.05,-15.25 L -5.25,-15.25 L -5.25,-15.35" fill="#000000" />
    <path id="text" d="M -4.25,-15.35 L -4.05,-15.35 L -4.05,-15.25 L -4.25,-15.25 L -4.25,-15.35" fill="#000000" />
    <path id="text" d="M -2.65,-15.35 L -2.45,-15.35 L -2.45,-15.25 L -2.65,-15.25 L -2.65,-15.35" fill="#000000" />
    <path id="text" d="M -0.6499999999999995,-15.35 L -0.4500000000000002,-15.35 L -0.4500000000000002,-15.25 L -0.6499999999999995,-15.25 L -0.6499999999999995,-15.35" fill="#000000" />
    <path id="text" d="M 0.35000000000000053,-15.35 L 0.5499999999999998,-15.35 L 0.5499999999999998,-15.25 L 0.35000000000000053,-15.25 L 0.35000000000000053,-15.35" fill="#000000" />
    <path id="text" d="M 2.05,-15.35 L 2.250000000000001,-15.35 L 2.250000000000001,-15.25 L 2.05,-15.25 L 2.05,-15.35" fill="#000000" />
    <path id="text" d="M 2.45,-15.35 L 2.6499999999999995,-15.35 L 2.6499999999999995,-15.25 L 2.45,-15.25 L 2.45,-15.35" fill="#000000" />
    <path id="text" d="M 4.05,-15.35 L 4.250000000000001,-15.35 L 4.250000000000001,-15.25 L 4.05,-15.25 L 4.05,-15.35" fill="#000000" />
    <path id="text" d="M 5.250000000000001,-15.35 L 5.45,-15.35 L 5.45,-15.25 L 5.250000000000001,-15.25 L 5.250000000000001,-15.35" fill="#000000" />
    <path id="text" d="M -5.25,-15.25 L -5.05,-15.25 L -5.05,-15.149999999999999 L -5.25,-15.149999999999999 L -5.25,-15.25" fill="#000000" />
    <path id="text" d="M -4.25,-15.25 L -4.05,-15.25 L -4.05,-15.149999999999999 L -4.25,-15.149999999999999 L -4.25,-15.25" fill="#000000" />
    <path id="text" d="M -2.55,-15.25 L -2.25,-15.25 L -2.25,-15.149999999999999 L -2.55,-15.149999999999999 L -2.55,-15.25" fill="#000000" />
    <path id="text" d="M -0.6499999999999995,-15.25 L -0.4500000000000002,-15.25 L -0.4500000000000002,-15.149999999999999 L -0.6499999999999995,-15.149999999999999 L -0.6499999999999995,-15.25" fill="#000000" />
    <path id="text" d="M 0.35000000000000053,-15.25 L 0.5499999999999998,-15.25 L 0.5499999999999998,-15.149999999999999 L 0.35000000000000053,-15.149999999999999 L 0.35000000000000053,-15.25" fill="#000000" />
    <path id="text" d="M 2.45,-15.25 L 2.6499999999999995,-15.25 L 2.6499999999999995,-15.149999999999999 L 2.45,-15.149999999999999 L 2.45,-15.25" fill="#000000" />
    <path id="text" d="M 4.05,-15.25 L 4.250000000000001,-15.25 L 4.250000000000001,-15.149999999999999 L 4.05,-15.149999999999999 L 4.05,-15.25" fill="#000000" />
    <path id="text" d="M 5.150000000000001,-15.25 L 5.3500000000000005,-15.25 L 5.3500000000000005,-15.149999999999999 L 5.150000000000001,-15.149999999999999 L 5.150000000000001,-15.25" fill="#000000" />
    <path id="text" d="M -5.25,-15.149999999999999 L -5.05,-15.149999999999999 L -5.05,-15.049999999999999 L -5.25,-15.049999999999999 L -5.25,-15.149999999999999" fill="#000000" />
    <path id="text" d="M -4.25,-15.149999999999999 L -3.05,-15.149999999999999 L -3.05,-15.049999999999999 L -4.25,-15.049999999999999 L -4.25,-15.149999999999999" fill="#000000" />
    <path id="text" d="M -2.55,-15.149999999999999 L -1.75,-15.149999999999999 L -1.75,-15.049999999999999 L -2.55,-15.049999999999999 L -2.55,-15.149999999999999" fill="#000000" />
    <path id="text" d="M -0.6499999999999995,-15.149999999999999 L -0.4500000000000002,-15.149999999999999 L -0.4500000000000002,-15.049999999999999 L -0.6499999999999995,-15.049999999999999 L -0.6499999999999995,-15.149999999999999" fill="#000000" />
    <path id="text" d="M 0.35000000000000053,-15.149999999999999 L 1.5499999999999998,-15.149999999999999 L 1.5499999999999998,-15.049999999999999 L 0.35000000000000053,-15.049999999999999 L 0.35000000000000053,-15.149999999999999" fill="#000000" />
    <path id="text" d="M 2.45,-15.149999999999999 L 2.6499999999999995,-15.149999999999999 L 2.6499999999999995,-15.049999999999999 L 2.45,-15.049999999999999 L 2.45,-15.149999999999999" fill="#000000" />
    <path id="text" d="M 3.95,-15.149999999999999 L 4.150000000000001,-15.149999999999999 L 4.150000000000001,-15.049999999999999 L 3.95,-15.049999999999999 L 3.95,-15.149999999999999" fill="#000000" />
    <path id="text" d="M 4.8500000000000005,-15.149999999999999 L 5.250000000000001,-15.149999999999999 L 5.250000000000001,-15.049999999999999 L 4.8500000000000005,-15.049999999999999 L 4.8500000000000005,-15.149999999999999" fill="#000000" />
    <path id="text" d="M -5.25,-15.049999999999999 L -5.05,-15.049999999999999 L -5.05,-14.95 L -5.25,-14.95 L -5.25,-15.049999999999999" fill="#000000" />
    <path id="text" d="M -4.25,-15.049999999999999 L -3.05,-15.049999999999999 L -3.05,-14.95 L -4.25,-14.95 L -4.25,-15.049999999999999" fill="#000000" />
    <path id="text" d="M -2.35,-15.049999999999999 L -1.5499999999999998,-15.049999999999999 L -1.5499999999999998,-14.95 L -2.35,-14.95 L -2.35,-15.049999999999999" fill="#000000" />
    <path id="text" d="M -0.6499999999999995,-15.049999999999999 L -0.4500000000000002,-15.049999999999999 L -0.4500000000000002,-14.95 L -0.6499999999999995,-14.95 L -0.6499999999999995,-15.049999999999999" fill="#000000" />
    <path id="text" d="M 0.35000000000000053,-15.049999999999999 L 1.5499999999999998,-15.049999999999999 L 1.5499999999999998,-14.95 L 0.35000000000000053,-14.95 L 0.35000000000000053,-15.049999999999999" fill="#000000" />
    <path id="text" d="M 2.45,-15.049999999999999 L 2.6499999999999995,-15.049999999999999 L 2.6499999999999995,-14.95 L 2.45,-14.95 L 2.45,-15.049999999999999" fill="#000000" />
    <path id="text" d="M 3.8500000000000005,-15.049999999999999 L 4.05,-15.049999999999999 L 4.05,-14.95 L 3.8500000000000005,-14.95 L 3.8500000000000005,-15.049999999999999" fill="#000000" />
    <path id="text" d="M 4.8500000000000005,-15.049999999999999 L 5.3500000000000005,-15.049999999999999 L 5.3500000000000005,-14.95 L 4.8500000000000005,-14.95 L 4.8500000000000005,-15.049999999999999" fill="#000000" />
    <path id="text" d="M -5.25,-14.95 L -5.05,-14.95 L -5.05,-14.85 L -5.25,-14.85 L -5.25,-14.95" fill="#000000" />
    <path id="text" d="M -4.25,-14.95 L -4.05,-14.95 L -4.05,-14.85 L -4.25,-14.85 L -4.25,-14.95" fill="#000000" />
    <path id="text" d="M -1.9500000000000002,-14.95 L -1.4500000000000002,-14.95 L -1.4500000000000002,-14.85 L -1.9500000000000002,-14.85 L -1.9500000000000002,-14.95" fill="#000000" />
    <path id="text" d="M -0.6499999999999995,-14.95 L -0.4500000000000002,-14.95 L -0.4500000000000002,-14.85 L -0.6499999999999995,-14.85 L -0.6499999999999995,-14.95" fill="#000000" />
    <path id="text" d="M 0.35000000000000053,-14.95 L 0.5499999999999998,-14.95 L 0.5499999999999998,-14.85 L 0.35000000000000053,-14.85 L 0.35000000000000053,-14.95" fill="#000000" />
    <path id="text" d="M 2.45,-14.95 L 2.6499999999999995,-14.95 L 2.6499999999999995,-14.85 L 2.45,-14.85 L 2.45,-14.95" fill="#000000" />
    <path id="text" d="M 3.750000000000001,-14.95 L 3.95,-14.95 L 3.95,-14.85 L 3.750000000000001,-14.85 L 3.750000000000001,-14.95" fill="#000000" />
    <path id="text" d="M 5.250000000000001,-14.95 L 5.45,-14.95 L 5.45,-14.85 L 5.250000000000001,-14.85 L 5.250000000000001,-14.95" fill="#000000" />
    <path id="text" d="M -5.25,-14.85 L -5.05,-14.85 L -5.05,-14.75 L -5.25,-14.75 L -5.25,-14.85" fill="#000000" />
    <path id="text" d="M -4.25,-14.85 L -4.05,-14.85 L -4.05,-14.75 L -4.25,-14.75 L -4.25,-14.85" fill="#000000" />
    <path id="text" d="M -1.6500000000000004,-14.85 L -1.3499999999999996,-14.85 L -1.3499999999999996,-14.75 L -1.6500000000000004,-14.75 L -1.6500000000000004,-14.85" fill="#000000" />
    <path id="text" d="M -0.6499999999999995,-14.85 L -0.4500000000000002,-14.85 L -0.4500000000000002,-14.75 L -0.6499999999999995,-14.75 L -0.6499999999999995,-14.85" fill="#000000" />
    <path id="text" d="M 0.35000000000000053,-14.85 L 0.5499999999999998,-14.85 L 0.5499999999999998,-14.75 L 0.35000000000000053,-14.75 L 0.35000000000000053,-14.85" fill="#000000" />
    <path id="text" d="M 2.45,-14.85 L 2.6499999999999995,-14.85 L 2.6499999999999995,-14.75 L 2.45,-14.75 L 2.45,-14.85" fill="#000000" />
    <path id="text" d="M 3.6500000000000012,-14.85 L 3.8500000000000005,-14.85 L 3.8500000000000005,-14.75 L 3.6500000000000012,-14.75 L 3.6500000000000012,-14.85" fill="#000000" />
    <path id="text" d="M 5.3500000000000005,-14.85 L 5.55,-14.85 L 5.55,-14.75 L 5.3500000000000005,-14.75 L 5.3500000000000005,-14.85" fill="#000000" />
    <path id="text" d="M -5.25,-14.75 L -5.05,-14.75 L -5.05,-14.649999999999999 L -5.25,-14.649999999999999 L -5.25,-14.75" fill="#000000" />
    <path id="text" d="M -4.25,-14.75 L -4.05,-14.75 L -4.05,-14.649999999999999 L -4.25,-14.649999999999999 L -4.25,-14.75" fill="#000000" />
    <path id="text" d="M -2.75,-14.75 L -2.55,-14.75 L -2.55,-14.649999999999999 L -2.75,-14.649999999999999 L -2.75,-14.75" fill="#000000" />
    <path id="text" d="M -1.5499999999999998,-14.75 L -1.3499999999999996,-14.75 L -1.3499999999999996,-14.649999999999999 L -1.5499999999999998,-14.649999999999999 L -1.5499999999999998,-14.75" fill="#000000" />
    <path id="text" d="M -0.6499999999999995,-14.75 L -0.4500000000000002,-14.75 L -0.4500000000000002,-14.649999999999999 L -0.6499999999999995,-14.649999999999999 L -0.6499999999999995,-14.75" fill="#000000" />
    <path id="text" d="M 0.35000000000000053,-14.75 L 0.5499999999999998,-14.75 L 0.5499999999999998,-14.649999999999999 L 0.35000000000000053,-14.649999999999999 L 0.35000000000000053,-14.75" fill="#000000" />
    <path id="text" d="M 2.45,-14.75 L 2.6499999999999995,-14.75 L 2.6499999999999995,-14.649999999999999 L 2.45,-14.649999999999999 L 2.45,-14.75" fill="#000000" />
    <path id="text" d="M 3.55,-14.75 L 3.750000000000001,-14.75 L 3.750000000000001,-14.649999999999999 L 3.55,-14.649999999999999 L 3.55,-14.75" fill="#000000" />
    <path id="text" d="M 5.3500000000000005,-14.75 L 5.55,-14.75 L 5.55,-14.649999999999999 L 5.3500000000000005,-14.649999999999999 L 5.3500000000000005,-14.75" fill="#000000" />
    <path id="text" d="M -5.25,-14.649999999999999 L -5.05,-14.649999999999999 L -5.05,-14.549999999999999 L -5.25,-14.549999999999999 L -5.25,-14.649999999999999" fill="#000000" />
    <path id="text" d="M -4.25,-14.649999999999999 L -4.05,-14.649999999999999 L -4.05,-14.549999999999999 L -4.25,-14.549999999999999 L -4.25,-14.649999999999999" fill="#000000" />
    <path id="text" d="M -2.75,-14.649999999999999 L -2.55,-14.649999999999999 L -2.55,-14.549999999999999 L -2.75,-14.549999999999999 L -2.75,-14.649999999999999" fill="#000000" />
    <path id="text" d="M -1.5499999999999998,-14.649999999999999 L -1.3499999999999996,-14.649999999999999 L -1.3499999999999996,-14.549999999999999 L -1.5499999999999998,-14.549999999999999 L -1.5499999999999998,-14.649999999999999" fill="#000000" />
    <path id="text" d="M -0.6499999999999995,-14.649999999999999 L -0.4500000000000002,-14.649999999999999 L -0.4500000000000002,-14.549999999999999 L -0.6499999999999995,-14.549999999999999 L -0.6499999999999995,-14.649999999999999" fill="#000000" />
    <path id="text" d="M 0.35000000000000053,-14.649999999999999 L 0.5499999999999998,-14.649999999999999 L 0.5499999999999998,-14.549999999999999 L 0.35000000000000053,-14.549999999999999 L 0.35000000000000053,-14.649999999999999" fill="#000000" />
    <path id="text" d="M 2.45,-14.649999999999999 L 2.6499999999999995,-14.649999999999999 L 2.6499999999999995,-14.549999999999999 L 2.45,-14.549999999999999 L 2.45,-14.649999999999999" fill="#000000" />
    <path id="text" d="M 3.45,-14.649999999999999 L 3.6500000000000012,-14.649999999999999 L 3.6500000000000012,-14.549999999999999 L 3.45,-14.549999999999999 L 3.45,-14.649999999999999" fill="#000000" />
    <path id="text" d="M 4.45,-14.649999999999999 L 4.650000000000001,-14.649999999999999 L 4.650000000000001,-14.549999999999999 L 4.45,-14.549999999999999 L 4.45,-14.649999999999999" fill="#000000" />
    <path id="text" d="M 5.3500000000000005,-14.649999999999999 L 5.55,-14.649999999999999 L 5.55,-14.549999999999999 L 5.3500000000000005,-14.549999999999999 L 5.3500000000000005,-14.649999999999999" fill="#000000" />
    <path id="text" d="M -5.25,-14.549999999999999 L -5.05,-14.549999999999999 L -5.05,-14.45 L -5.25,-14.45 L -5.25,-14.549999999999999" fill="#000000" />
    <path id="text" d="M -4.25,-14.549999999999999 L -4.05,-14.549999999999999 L -4.05,-14.45 L -4.25,-14.45 L -4.25,-14.549999999999999" fill="#000000" />
    <path id="text" d="M -2.65,-14.549999999999999 L -2.45,-14.549999999999999 L -2.45,-14.45 L -2.65,-14.45 L -2.65,-14.549999999999999" fill="#000000" />
    <path id="text" d="M -1.6500000000000004,-14.549999999999999 L -1.3499999999999996,-14.549999999999999 L -1.3499999999999996,-14.45 L -1.6500000000000004,-14.45 L -1.6500000000000004,-14.549999999999999" fill="#000000" />
    <path id="text" d="M -0.6499999999999995,-14.549999999999999 L -0.4500000000000002,-14.549999999999999 L -0.4500000000000002,-14.45 L -0.6499999999999995,-14.45 L -0.6499999999999995,-14.549999999999999" fill="#000000" />
    <path id="text" d="M 0.35000000000000053,-14.549999999999999 L 0.5499999999999998,-14.549999999999999 L 0.5499999999999998,-14.45 L 0.35000000000000053,-14.45 L 0.35000000000000053,-14.549999999999999" fill="#000000" />
    <path id="text" d="M 2.45,-14.549999999999999 L 2.6499999999999995,-14.549999999999999 L 2.6499999999999995,-14.45 L 2.45,-14.45 L 2.45,-14.549999999999999" fill="#000000" />
    <path id="text" d="M 3.3500000000000005,-14.549999999999999 L 3.55,-14.549999999999999 L 3.55,-14.45 L 3.3500000000000005,-14.45 L 3.3500000000000005,-14.549999999999999" fill="#000000" />
    <path id="text" d="M 4.45,-14.549999999999999 L 4.750000000000001,-14.549999999999999 L 4.750000000000001,-14.45 L 4.45,-14.45 L 4.45,-14.549999999999999" fill="#000000" />
    <path id="text" d="M 5.3500000000000005,-14.549999999999999 L 5.55,-14.549999999999999 L 5.55,-14.45 L 5.3500000000000005,-14.45 L 5.3500000000000005,-14.549999999999999" fill="#000000" />
    <path id="text" d="M -5.25,-14.45 L -5.05,-14.45 L -5.05,-14.35 L -5.25,-14.35 L -5.25,-14.45" fill="#000000" />
    <path id="text" d="M -4.25,-14.45 L -4.05,-14.45 L -4.05,-14.35 L -4.25,-14.35 L -4.25,-14.45" fill="#000000" />
    <path id="text" d="M -2.65,-14.45 L -2.25,-14.45 L -2.25,-14.35 L -2.65,-14.35 L -2.65,-14.45" fill="#000000" />
    <path id="text" d="M -1.75,-14.45 L -1.4500000000000002,-14.45 L -1.4500000000000002,-14.35 L -1.75,-14.35 L -1.75,-14.45" fill="#000000" />
    <path id="text" d="M -0.6499999999999995,-14.45 L -0.4500000000000002,-14.45 L -0.4500000000000002,-14.35 L -0.6499999999999995,-14.35 L -0.6499999999999995,-14.45" fill="#000000" />
    <path id="text" d="M 0.35000000000000053,-14.45 L 0.5499999999999998,-14.45 L 0.5499999999999998,-14.35 L 0.35000000000000053,-14.35 L 0.35000000000000053,-14.45" fill="#000000" />
    <path id="text" d="M 2.45,-14.45 L 2.6499999999999995,-14.45 L 2.6499999999999995,-14.35 L 2.45,-14.35 L 2.45,-14.45" fill="#000000" />
    <path id="text" d="M 3.250000000000001,-14.45 L 3.45,-14.45 L 3.45,-14.35 L 3.250000000000001,-14.35 L 3.250000000000001,-14.45" fill="#000000" />
    <path id="text" d="M 4.55,-14.45 L 4.750000000000001,-14.45 L 4.750000000000001,-14.35 L 4.55,-14.35 L 4.55,-14.45" fill="#000000" />
    <path id="text" d="M 5.250000000000001,-14.45 L 5.45,-14.45 L 5.45,-14.35 L 5.250000000000001,-14.35 L 5.250000000000001,-14.45" fill="#000000" />
    <path id="text" d="M -5.25,-14.35 L -5.05,-14.35 L -5.05,-14.25 L -5.25,-14.25 L -5.25,-14.35" fill="#000000" />
    <path id="text" d="M -4.25,-14.35 L -2.95,-14.35 L -2.95,-14.25 L -4.25,-14.25 L -4.25,-14.35" fill="#000000" />
    <path id="text" d="M -2.55,-14.35 L -1.5499999999999998,-14.35 L -1.5499999999999998,-14.25 L -2.55,-14.25 L -2.55,-14.35" fill="#000000" />
    <path id="text" d="M -0.6499999999999995,-14.35 L -0.4500000000000002,-14.35 L -0.4500000000000002,-14.25 L -0.6499999999999995,-14.25 L -0.6499999999999995,-14.35" fill="#000000" />
    <path id="text" d="M 0.35000000000000053,-14.35 L 1.6500000000000004,-14.35 L 1.6500000000000004,-14.25 L 0.35000000000000053,-14.25 L 0.35000000000000053,-14.35" fill="#000000" />
    <path id="text" d="M 2.45,-14.35 L 2.6499999999999995,-14.35 L 2.6499999999999995,-14.25 L 2.45,-14.25 L 2.45,-14.35" fill="#000000" />
    <path id="text" d="M 3.1499999999999995,-14.35 L 4.250000000000001,-14.35 L 4.250000000000001,-14.25 L 3.1499999999999995,-14.25 L 3.1499999999999995,-14.35" fill="#000000" />
    <path id="text" d="M 4.650000000000001,-14.35 L 5.3500000000000005,-14.35 L 5.3500000000000005,-14.25 L 4.650000000000001,-14.25 L 4.650000000000001,-14.35" fill="#000000" />
    <path id="text" d="M -5.25,-14.25 L -5.05,-14.25 L -5.05,-14.149999999999999 L -5.25,-14.149999999999999 L -5.25,-14.25" fill="#000000" />
    <path id="text" d="M -4.25,-14.25 L -2.95,-14.25 L -2.95,-14.149999999999999 L -4.25,-14.149999999999999 L -4.25,-14.25" fill="#000000" />
    <path id="text" d="M -2.35,-14.25 L -1.75,-14.25 L -1.75,-14.149999999999999 L -2.35,-14.149999999999999 L -2.35,-14.25" fill="#000000" />
    <path id="text" d="M -0.6499999999999995,-14.25 L -0.4500000000000002,-14.25 L -0.4500000000000002,-14.149999999999999 L -0.6499999999999995,-14.149999999999999 L -0.6499999999999995,-14.25" fill="#000000" />
    <path id="text" d="M 0.35000000000000053,-14.25 L 1.6500000000000004,-14.25 L 1.6500000000000004,-14.149999999999999 L 0.35000000000000053,-14.149999999999999 L 0.35000000000000053,-14.25" fill="#000000" />
    <path id="text" d="M 2.45,-14.25 L 2.6499999999999995,-14.25 L 2.6499999999999995,-14.149999999999999 L 2.45,-14.149999999999999 L 2.45,-14.25" fill="#000000" />
    <path id="text" d="M 3.1499999999999995,-14.25 L 4.250000000000001,-14.25 L 4.250000000000001,-14.149999999999999 L 3.1499999999999995,-14.149999999999999 L 3.1499999999999995,-14.25" fill="#000000" />
    <path id="text" d="M 4.750000000000001,-14.25 L 5.250000000000001,-14.25 L 5.250000000000001,-14.149999999999999 L 4.750000000000001,-14.149999999999999 L 4.750000000000001,-14.25" fill="#000000" />
  </g>
  <g fill="#FF0000">
    <path id="custom_0" d="M 1.8858,27.566799999999997 L -3.9534329230000003,24.85238179 C -6.061651478,23.87230906 -7.2835,22.409479531 -7.2835,20.865485064999998 C -7.2835,18.015979756 -3.1493639070000006,15.706 1.8858,15.706 C 6.920924609999999,15.706 11.055100000000001,18.015979756 11.0551,20.865485064999998 C 11.0551,22.409479531 9.833225279999999,23.87230906 7.725072220000001,24.85238179 L 1.8858,27.566799999999997 M -4.6637,20.153799999999997 L -2.0439000000000007,20.153799999999997 C -0.5970237570000003,20.153799999999997 0.5758999999999996,20.817582258999998 0.5758999999999999,21.6364 L 0.5758999999999999,22.377699999999997 L -4.6637,21.265749999999997 L -4.6637,20.153799999999997 M 5.8155,20.153799999999997 C 4.368623756999999,20.153799999999997 3.1957000000000004,20.817582258999998 3.1957,21.6364 L 3.1957,22.377699999999997 L 8.4353,21.265749999999997 L 8.4353,20.153799999999997 L 5.8155,20.153799999999997"  />
  </g>
</svg>