<?xml version="1.0" encoding="UTF-8" standalone="no"?>
<svg width="300mm" height="300mm" viewBox="-150.0 -150.0 300 300" xmlns="http://www.w3.org/2000/svg">
  <g >
    <path id="base_1" d="M -12.630000000000003,34.6934 L -12.630000000000003,31.4934 L -7.480000000000002,31.4934 L -7.480000000000002,34.6934 L -12.630000000000003,34.6934" fill="#000000" stroke="none" />
    <path id="base_1" d="M -12.63,-1.7265999999999995 L -12.629999999999999,-4.926599999999999 L -7.48,-4.926599999999999 L -7.48,-1.7265999999999995 L -12.63,-1.7265999999999995" fill="#000000" stroke="none" />
    <path id="base_1" d="M -12.630000000000003,31.0434 L -12.630000000000003,30.501419801980198 L -7.480000000000002,30.501419801980198 L -7.480000000000002,31.0434 L -12.630000000000003,31.0434" fill="#000000" stroke="none" />
    <path id="base_1" d="M -12.630000000000003,30.080429702970296 L -12.630000000000003,29.859439603960396 L -7.480000000000002,29.859439603960396 L -7.480000000000002,30.080429702970296 L -12.630000000000003,30.080429702970296" fill="#000000" stroke="none" />
    <path id="base_1" d="M -12.630000000000003,29.117459405940593 L -12.630000000000003,28.25448910891089 L -7.480000000000002,28.25448910891089 L -7.480000000000002,29.117459405940593 L -12.630000000000003,29.117459405940593" fill="#000000" stroke="none" />
    <path id="base_1" d="M -12.630000000000003,27.512508910891086 L -12.630000000000003,26.328548514851484 L -7.480000000000002,26.328548514851484 L -7.480000000000002,27.512508910891086 L -12.630000000000003,27.512508910891086" fill="#000000" stroke="none" />
    <path id="base_1" d="M -12.630000000000003,25.907558415841578 L -12.630000000000003,25.686568316831682 L -7.480000000000002,25.686568316831682 L -7.480000000000002,25.907558415841578 L -12.630000000000003,25.907558415841578" fill="#000000" stroke="none" />
    <path id="base_1" d="M -12.630000000000003,25.265578217821776 L -12.630000000000003,24.402607920792075 L -7.480000000000002,24.402607920792075 L -7.480000000000002,25.265578217821776 L -12.630000000000003,25.265578217821776" fill="#000000" stroke="none" />
    <path id="base_1" d="M -12.630000000000003,23.981617821782173 L -12.630000000000003,23.760627722772274 L -7.480000000000002,23.760627722772274 L -7.480000000000002,23.981617821782173 L -12.630000000000003,23.981617821782173" fill="#000000" stroke="none" />
    <path id="base_1" d="M -12.630000000000003,23.33963762376237 L -12.630000000000003,22.79765742574257 L -7.480000000000002,22.79765742574257 L -7.480000000000002,23.33963762376237 L -12.630000000000003,23.33963762376237" fill="#000000" stroke="none" />
    <path id="base_1" d="M -12.630000000000003,21.734687128712867 L -12.630000000000003,20.871716831683162 L -7.480000000000002,20.871716831683162 L -7.480000000000002,21.734687128712867 L -12.630000000000003,21.734687128712867" fill="#000000" stroke="none" />
    <path id="base_1" d="M -12.630000000000003,20.45072673267326 L -12.630000000000003,20.22973663366336 L -7.480000000000002,20.22973663366336 L -7.480000000000002,20.45072673267326 L -12.630000000000003,20.45072673267326" fill="#000000" stroke="none" />
    <path id="base_1" d="M -12.630000000000003,19.48775643564356 L -12.630000000000003,18.945776237623754 L -7.480000000000002,18.945776237623754 L -7.480000000000002,19.48775643564356 L -12.630000000000003,19.48775643564356" fill="#000000" stroke="none" />
    <path id="base_1" d="M -12.630000000000003,18.524786138613855 L -12.630000000000003,17.66181584158415 L -7.480000000000001,17.66181584158415 L -7.480000000000002,18.524786138613855 L -12.630000000000003,18.524786138613855" fill="#000000" stroke="none" />
    <path id="base_1" d="M -12.630000000000003,16.91983564356435 L -12.630000000000003,16.377855445544547 L -7.480000000000001,16.377855445544547 L -7.480000000000001,16.91983564356435 L -12.630000000000003,16.91983564356435" fill="#000000" stroke="none" />
    <path id="base_1" d="M -12.630000000000003,15.314885148514843 L -12.630000000000003,15.093895049504942 L -7.480000000000001,15.093895049504942 L -7.480000000000001,15.314885148514843 L -12.630000000000003,15.314885148514843" fill="#000000" stroke="none" />
    <path id="base_1" d="M -12.630000000000003,14.35191485148514 L -12.630000000000003,14.13092475247524 L -7.480000000000001,14.13092475247524 L -7.480000000000001,14.351914851485141 L -12.630000000000003,14.35191485148514" fill="#000000" stroke="none" />
    <path id="base_1" d="M -12.630000000000003,13.388944554455437 L -12.630000000000003,12.846964356435635 L -7.480000000000001,12.846964356435635 L -7.480000000000001,13.388944554455438 L -12.630000000000003,13.388944554455437" fill="#000000" stroke="none" />
    <path id="base_1" d="M -12.630000000000003,12.425974257425734 L -12.630000000000003,11.88399405940593 L -7.480000000000001,11.88399405940593 L -7.480000000000001,12.425974257425734 L -12.630000000000003,12.425974257425734" fill="#000000" stroke="none" />
    <path id="base_1" d="M -12.630000000000003,11.142013861386129 L -12.630000000000003,10.600033663366327 L -7.48,10.600033663366327 L -7.48,11.142013861386129 L -12.630000000000003,11.142013861386129" fill="#000000" stroke="none" />
    <path id="base_1" d="M -12.630000000000003,9.858053465346526 L -12.630000000000003,9.316073267326722 L -7.48,9.316073267326722 L -7.48,9.858053465346526 L -12.630000000000003,9.858053465346526" fill="#000000" stroke="none" />
    <path id="base_1" d="M -12.630000000000003,8.574093069306922 L -12.630000000000003,8.353102970297018 L -7.48,8.353102970297018 L -7.48,8.574093069306922 L -12.630000000000003,8.574093069306922" fill="#000000" stroke="none" />
    <path id="base_1" d="M -12.630000000000003,7.611122772277216 L -12.630000000000003,7.390132673267318 L -7.48,7.390132673267318 L -7.48,7.611122772277216 L -12.630000000000003,7.611122772277216" fill="#000000" stroke="none" />
    <path id="base_1" d="M -12.630000000000003,6.327162376237611 L -12.630000000000003,5.785182178217811 L -7.48,5.785182178217811 L -7.48,6.327162376237611 L -12.630000000000003,6.327162376237611" fill="#000000" stroke="none" />
    <path id="base_1" d="M -12.630000000000003,5.043201980198008 L -12.630000000000003,4.180231683168303 L -7.48,4.180231683168303 L -7.48,5.043201980198008 L -12.630000000000003,5.043201980198008" fill="#000000" stroke="none" />
    <path id="base_1" d="M -12.63,3.4382514851485 L -12.63,3.217261386138599 L -7.48,3.217261386138599 L -7.48,3.4382514851485 L -12.63,3.4382514851485" fill="#000000" stroke="none" />
    <path id="base_1" d="M -12.63,2.7962712871286985 L -12.63,2.2542910891088983 L -7.48,2.2542910891088983 L -7.48,2.7962712871286985 L -12.63,2.7962712871286985" fill="#000000" stroke="none" />
    <path id="base_1" d="M -12.63,1.1913207920791926 L -12.63,0.3283504950494933 L -7.48,0.3283504950494933 L -7.48,1.1913207920791926 L -12.63,1.1913207920791926" fill="#000000" stroke="none" />
    <path id="base_1" d="M -12.63,-0.09263960396041249 L -12.63,-0.3136297029703137 L -7.48,-0.3136297029703137 L -7.48,-0.09263960396041249 L -12.63,-0.09263960396041249" fill="#000000" stroke="none" />
    <path id="base_1" d="M -12.63,-0.7346198019802141 L -12.63,-1.2766000000000144 L -7.48,-1.2766000000000144 L -7.48,-0.7346198019802141 L -12.63,-0.7346198019802141" fill="#000000" stroke="none" />
    <path id="base_1" d="M -5.690884426404612,-2.2919813219159746 L -4.483973509933772,-2.2919813219159746 L -4.483973509933772,-4.926599999999999 L -3.9162743003631677,-4.926599999999999 L -0.6509036530655816,-2.155479448755683 L -0.6509036530655816,-1.5471846936044944 L -3.9162743003631686,-1.5471846936044944 L -3.9162743003631686,-0.7268481937382898 L -4.483973509933773,-0.7268481937382898 L -4.483973509933772,-1.5471846936044944 L -5.690884426404612,-1.5471846936044944 L -5.690884426404612,-2.2919813219159746 M -3.9162743003631686,-2.2919813219159746 L -1.6443772698141395,-2.2919813219159746 L -3.9162743003631677,-4.1937307198287375 L -3.9162743003631686,-2.2919813219159746" fill="#000000" stroke="#000000" fill-rule="evenodd" />
    <path id="base_1" d="M -4.3607519760734865,-0.37035301043617785 L -4.27823755607776,0.3744436178753041 L -4.730691625720998,0.5480527963607198 L -5.036270027771843,0.8117797163500153 L -5.210375453962826,1.1540283449290882 L -5.268410596026489,1.5632026491838396 L -5.192772377697071,2.048248140219428 L -4.965857722708822,2.451127455177952 L -4.626998504593034,2.723468571046295 L -4.215526596881007,2.8142489430024096 L -3.8271587267677827,2.7304261907947573 L -3.5136039307840186,2.478957934171797 L -3.3056675923947854,2.0979454241370092 L -3.236355479598375,1.6254899116938741 L -3.2534084597308244,1.388599525020073 L -3.3045674001281755,1.0993613326197504 L -2.761072420422985,1.1828527696012863 L -2.7668484298226854,1.2497784452769611 L -2.768773766289252,1.3021262510034806 L -2.7173397778252486,1.7550341651057 L -2.5630378124332394,2.159570056194811 L -2.3003669087801732,2.445826411560077 L -1.9260264900662243,2.5412451966818317 L -1.6152221747489843,2.4716689991972185 L -1.3627280495620582,2.262940406743379 L -1.194398632770774,1.9455404201230948 L -1.13828882717368,1.5472995183302132 L -1.19522377697073,1.1487273013112151 L -1.3660286263618868,0.8223818035857651 L -1.6493281350138833,0.5841661560074947 L -2.0459474471266805,0.449983489430025 L -1.9359282204657102,-0.2961383997859226 L -1.384181798760947,-0.07283193738292759 L -0.9721597949156138,0.32408370350548843 L -0.7155399487289014,0.8681033047899422 L -0.6299999999999972,1.5300711265721194 L -0.6742827387310388,2.0071650521808966 L -0.8071309549241601,2.4445011506556096 L -1.0164425336466554,2.813917627776293 L -1.2901153599658173,3.084602167514051 L -1.6055954924161497,3.2515850414771226 L -1.9403289895321496,3.307245999464813 L -2.251683400982696,3.254235563286059 L -2.534432813501388,3.0952042547498024 L -2.775374919888911,2.833796541343327 L -2.96130741294595,2.471006368744984 L -3.119460051271095,2.949094240032112 L -3.389282204657124,3.307245999464813 L -3.754821085238196,3.5308837770939263 L -4.202324289681691,3.605429702970298 L -4.812105853450117,3.460313633930962 L -5.321219824823755,3.024965426812953 L -5.665304956205938,2.368961279100885 L -5.7799999999999985,1.5592268664704303 L -5.681257744071778,0.8276828472036417 L -5.3850309762871165,0.23131544019267025 L -4.930926618243963,-0.18282859245383953 L -4.3607519760734865,-0.37035301043617785" fill="#000000" stroke="#000000" fill-rule="evenodd" />
    <path id="base_1" d="M -5.6908844264046134,6.764851699223978 L -5.6908844264046134,6.020055070912498 L -1.7477953428754525,6.020055070912498 L -1.9604074983977764,5.708950073588442 L -2.1735697500534066,5.313691008830615 L -2.3603273873104023,4.898884345731872 L -2.493725699636829,4.529136553385069 L -1.8952211066011522,4.529136553385069 L -1.6253989532151234,5.115233188386407 L -1.3044178594317444,5.622476799571851 L -0.9619830164494747,6.022042962269202 L -0.629999999999999,6.285107251806263 L -0.629999999999999,6.764851699223978 L -5.6908844264046134,6.764851699223978" fill="#000000" stroke="#000000" fill-rule="evenodd" />
    <path id="base_1" d="M -4.360751976073487,7.121346882526092 L -4.278237556077761,7.866143510837572 L -4.730691625720999,8.039752689322988 L -5.036270027771844,8.303479609312284 L -5.210375453962827,8.645728237891358 L -5.268410596026491,9.054902542146108 L -5.1927723776970725,9.539948033181698 L -4.965857722708823,9.942827348140222 L -4.626998504593035,10.215168464008563 L -4.215526596881008,10.305948835964678 L -3.8271587267677845,10.222126083757026 L -3.5136039307840203,9.970657827134065 L -3.305667592394787,9.58964531709928 L -3.2363554795983767,9.117189804656142 L -3.253408459730826,8.880299417982341 L -3.3045674001281773,8.59106122558202 L -2.7610724204229866,8.674552662563555 L -2.766848429822687,8.74147833823923 L -2.7687737662892538,8.793826143965749 L -2.7173397778252504,9.246734058067968 L -2.563037812433241,9.65126994915708 L -2.300366908780175,9.937526304522345 L -1.926026490066226,10.032945089644102 L -1.6152221747489843,9.963368892159487 L -1.36272804956206,9.754640299705649 L -1.1943986327707758,9.437240313085363 L -1.13828882717368,9.038999411292481 L -1.1952237769707317,8.640427194273483 L -1.3660286263618868,8.314081696548033 L -1.649328135013885,8.075866048969763 L -2.0459474471266823,7.941683382392294 L -1.935928220465712,7.1955614931763465 L -1.3841817987609488,7.418867955579343 L -0.9721597949156155,7.8157835964677576 L -0.7155399487289031,8.359803197752209 L -0.6300000000000008,9.021771019534388 L -0.6742827387310406,9.498864945143165 L -0.8071309549241601,9.936201043617878 L -1.0164425336466572,10.305617520738563 L -1.290115359965819,10.576302060476321 L -1.6055954924161515,10.74328493443939 L -1.9403289895321514,10.798945892427081 L -2.2516834009826967,10.74593545624833 L -2.5344328135013887,10.58690414771207 L -2.775374919888913,10.325496434305595 L -2.961307412945952,9.962706261707254 L -3.119460051271096,10.440794132994382 L -3.3892822046571247,10.798945892427081 L -3.7548210852381967,11.022583670056196 L -4.202324289681692,11.097129595932568 L -4.8121058534501175,10.95201352689323 L -5.321219824823756,10.516665319775223 L -5.665304956205939,9.860661172063153 L -5.78,9.0509267594327 L -5.681257744071779,8.319382740165908 L -5.385030976287117,7.723015333154939 L -4.930926618243964,7.308871300508431 L -4.360751976073487,7.121346882526092" fill="#000000" stroke="#000000" fill-rule="evenodd" />
    <path id="base_1" d="M -5.690884426404615,14.256551592186245 L -5.690884426404615,13.511754963874765 L -1.7477953428754542,13.511754963874766 L -1.9604074983977782,13.20064996655071 L -2.1735697500534084,12.805390901792885 L -2.360327387310404,12.390584238694142 L -2.4937256996368298,12.020836446347339 L -1.895221106601154,12.020836446347339 L -1.6253989532151252,12.606933081348679 L -1.3044178594317462,13.11417669253412 L -0.9619830164494765,13.513742855231467 L -0.6300000000000008,13.776807144768533 L -0.6300000000000008,14.256551592186248 L -5.690884426404615,14.256551592186245" fill="#000000" stroke="#000000" fill-rule="evenodd" />
    <path id="base_1" d="M -5.690884426404615,17.415973588439925 L -5.690884426404615,16.671176960128445 L -1.7477953428754542,16.671176960128445 L -1.96040749839778,16.36007196280439 L -2.1735697500534084,15.96481289804656 L -2.360327387310404,15.55000623494782 L -2.4937256996368307,15.18025844260102 L -1.895221106601154,15.18025844260102 L -1.625398953215127,15.766355077602354 L -1.3044178594317462,16.2735986887878 L -0.9619830164494783,16.67316485148515 L -0.6300000000000008,16.93622914102221 L -0.6300000000000008,17.415973588439925 L -5.690884426404615,17.415973588439925" fill="#000000" stroke="#000000" fill-rule="evenodd" />
    <path id="base_1" d="M -3.2055500961333063,17.768492989028633 L -2.398559068575093,17.82382263179021 L -1.7664986114078207,17.98981156007493 L -1.2835142063661618,18.264803197752208 L -0.9259517197180092,18.647140968691463 L -0.7039879299295055,19.140800655606107 L -0.6300000000000008,19.74710751940059 L -0.670982161931212,20.20597910757292 L -0.7939286477248473,20.60455132459192 L -0.9930634479812035,20.940836279100886 L -1.2648109378337988,21.212846079743112 L -1.6055954924161533,21.42786966149318 L -2.014041871395003,21.590545437516727 L -2.532507477034823,21.692921842386944 L -3.2055500961333063,21.727047310677015 L -4.006765114291819,21.67204898314156 L -4.636900234992525,21.50705400053519 L -5.119884640034182,21.233718938988492 L -5.479647511215554,20.85104985282312 L -5.702436445204017,20.357058850682368 L -5.776699423200172,19.74710751940059 L -5.646051591540272,18.963878324859515 L -5.254108096560564,18.36883617875301 L -4.427313608203376,17.918578786459726 L -3.2055500961333063,17.768492989028633 M -3.2055500961333063,18.534493791811617 L -4.239180730613119,18.621961011506556 L -4.858038880581074,18.884362670591386 L -5.165817667165137,19.274983322183573 L -5.268410596026492,19.74710751940059 L -5.1652675710318325,20.22022566229596 L -4.855838496047855,20.611177629114263 L -4.236980346079899,20.873579288199092 L -3.2055500961333063,20.961046507894036 L -2.169444029053623,20.873579288199092 L -1.5519611194189302,20.611177629114263 L -1.2450074770348234,20.218237770939258 L -1.1426895962401211,19.73915595397378 L -1.2329053621021178,19.277633843992508 L -1.5035526596881024,18.918819454107574 L -2.158992202520831,18.630575207385604 L -3.2055500961333063,18.534493791811617" fill="#000000" stroke="#000000" fill-rule="evenodd" />
    <path id="base_1" d="M -3.2055500961333063,22.079566711265723 L -2.398559068575093,22.134896354027294 L -1.7664986114078207,22.30088528231202 L -1.2835142063661635,22.575876919989298 L -0.9259517197180109,22.95821469092855 L -0.7039879299295055,23.45187437784319 L -0.6300000000000026,24.058181241637676 L -0.6709821619312137,24.517052829810012 L -0.7939286477248491,24.915625046829007 L -0.9930634479812035,25.25191000133797 L -1.2648109378337988,25.5239198019802 L -1.6055954924161533,25.738943383730266 L -2.014041871395003,25.901619159753814 L -2.532507477034824,26.003995564624027 L -3.205550096133307,26.038121032914106 L -4.00676511429182,25.983122705378648 L -4.636900234992526,25.818127722772275 L -5.119884640034183,25.544792661225586 L -5.479647511215555,25.162123575060214 L -5.702436445204018,24.668132572919454 L -5.7766994232001725,24.058181241637676 L -5.646051591540273,23.274952047096605 L -5.254108096560566,22.6799099009901 L -4.427313608203377,22.22965250869682 L -3.2055500961333063,22.079566711265723 M -3.205550096133307,22.845567514048703 L -4.2391807306131195,22.933034733743646 L -4.858038880581075,23.195436392828476 L -5.165817667165138,23.586057044420656 L -5.268410596026493,24.058181241637676 L -5.165267571031833,24.53129938453305 L -4.855838496047856,24.922251351351356 L -4.2369803460799,25.18465301043618 L -3.205550096133307,25.272120230131122 L -2.169444029053624,25.18465301043618 L -1.5519611194189302,24.922251351351356 L -1.2450074770348234,24.529311493176344 L -1.142689596240123,24.05022967621086 L -1.2329053621021178,23.5887075662296 L -1.5035526596881024,23.22989317634466 L -2.1589922025208317,22.941648929622694 L -3.205550096133307,22.845567514048703" fill="#000000" stroke="#000000" fill-rule="evenodd" />
    <path id="base_1" d="M -3.205550096133307,26.39064043350281 L -2.3985590685750937,26.445970076264388 L -1.7664986114078225,26.611959004549107 L -1.2835142063661635,26.886950642226388 L -0.9259517197180109,27.26928841316564 L -0.7039879299295055,27.76294810008028 L -0.6300000000000043,28.369254963874766 L -0.6709821619312155,28.828126552047095 L -0.7939286477248491,29.22669876906609 L -0.9930634479812053,29.56298372357506 L -1.2648109378337988,29.83499352421729 L -1.605595492416155,30.050017105967356 L -2.014041871395005,30.212692881990904 L -2.532507477034825,30.315069286861117 L -3.205550096133308,30.34919475515119 L -4.006765114291821,30.29419642761573 L -4.636900234992527,30.129201445009365 L -5.119884640034184,29.85586638346267 L -5.479647511215556,29.473197297297297 L -5.702436445204019,28.979206295156544 L -5.776699423200173,28.369254963874766 L -5.646051591540273,27.586025769333695 L -5.254108096560566,26.990983623227187 L -4.427313608203377,26.540726230933906 L -3.205550096133307,26.39064043350281 M -3.205550096133308,27.156641236285793 L -4.2391807306131195,27.24410845598073 L -4.858038880581075,27.50651011506556 L -5.165817667165139,27.897130766657746 L -5.268410596026494,28.369254963874766 L -5.165267571031834,28.84237310677014 L -4.8558384960478564,29.23332507358844 L -4.236980346079901,29.49572673267327 L -3.205550096133308,29.583193952368212 L -2.1694440290536248,29.49572673267327 L -1.551961119418932,29.23332507358844 L -1.2450074770348234,28.840385215413434 L -1.142689596240123,28.36130339844795 L -1.2329053621021178,27.899781288466684 L -1.5035526596881041,27.54096689858175 L -2.1589922025208317,27.252722651859777 L -3.205550096133308,27.156641236285793" fill="#000000" stroke="#000000" fill-rule="evenodd" />
    <path id="base_1" d="M -4.525780816064947,30.81303607171528 L -4.470771202734463,31.530002221032916 L -4.832459410382402,31.661865681027557 L -5.079177526169627,31.877220578003744 L -5.221102328562278,32.170434553117474 L -5.268410596026495,32.53587524752475 L -5.235679876094856,32.857913647310674 L -5.13748771629994,33.1375436981536 L -4.984836039307844,33.37377145437517 L -4.7887267677846665,33.56295244848809 L -4.531831873531301,33.715026137275885 L -4.199023712881867,33.83993197752208 L -3.8238581499679603,33.92441736018196 L -3.4420914334543946,33.952579154401924 L -3.3909324930570435,33.95158520872358 L -3.318869899594108,33.94860337168853 L -3.586216620380265,33.68388250602088 L -3.7985537278359374,33.3376580947284 L -3.9363528092288016,32.93444746454376 L -3.9822858363597566,32.49876794219963 L -3.868966032898957,31.802674652127372 L -3.52900662251656,31.22254169119614 L -3.0025646229438188,30.83192103960397 L -2.3319974364452074,30.7017141557399 L -1.6399765007477072,30.83788471367407 L -1.0975817133091255,31.246396387476587 L -0.7468954283272851,31.859660871019543 L -0.6300000000000043,32.61008985817501 L -0.6962865840632393,33.17697021006155 L -0.8951463362529406,33.69282801712604 L -1.21585238196967,34.12519438720899 L -1.649878231147195,34.43894990634199 L -2.2492079683828283,34.62978747658549 L -3.068026062807097,34.6934 L -3.935527665028844,34.63011879181162 L -4.606094851527455,34.440275167246455 L -5.109982909634697,34.126519648113465 L -5.477447126682337,33.68885223441263 L -5.7018863490707155,33.14748315493712 L -5.776699423200174,32.51997211667113 L -5.694735099337752,31.87225084961198 L -5.448842127750485,31.35506778164303 L -5.053598055970951,30.99426550040139 L -4.525780816064947,30.81303607171528 M -2.301192052980136,33.86511193470698 L -1.8228834650715715,33.77963260636874 L -1.455144199957278,33.52319462135403 L -1.2208032471694121,33.14748315493712 L -1.142689596240123,32.701532860583356 L -1.226854304635765,32.23669759834092 L -1.479348429822691,31.836137489965218 L -1.8660660115360006,31.559820591383463 L -2.352901089510792,31.467714958522883 L -2.788852275154885,31.555182178217827 L -3.1351377910702887,31.81758383730265 L -3.3604021576586245,32.208204488894836 L -3.4354902798547364,32.68032868611185 L -3.3604021576586245,33.15212156810276 L -3.1351377910702887,33.53114618678084 L -2.7759250160222217,33.78162049772545 L -2.301192052980136,33.86511193470698" fill="#000000" stroke="#000000" fill-rule="evenodd" />
  </g>
</svg>