%TF.GenerationSoftware,KiCad,Pcbnew,5.1.12-84ad8e8a86~92~ubuntu18.04.1*%
%TF.CreationDate,2021-11-26T14:22:32-05:00*%
%TF.ProjectId,test,74657374-2e6b-4696-9361-645f70636258,rev?*%
%TF.SameCoordinates,Original*%
%TF.FileFunction,Legend,Top*%
%TF.FilePolarity,Positive*%
%FSLAX46Y46*%
G04 Gerber Fmt 4.6, Leading zero omitted, Abs format (unit mm)*
G04 Created by KiCad (PCBNEW 5.1.12-84ad8e8a86~92~ubuntu18.04.1) date 2021-11-26 14:22:32*
%MOMM*%
%LPD*%
G01*
G04 APERTURE LIST*
%ADD10C,0.120000*%
%ADD11C,0.150000*%
G04 APERTURE END LIST*
D10*
%TO.C,J1*%
X14669000Y-1653000D02*
X14669000Y1457000D01*
X14669000Y-6733000D02*
X14669000Y-3173000D01*
X14669000Y-11813000D02*
X14669000Y-8253000D01*
X14669000Y-16893000D02*
X14669000Y-13333000D01*
X14669000Y-21973000D02*
X14669000Y-18413000D01*
X12009000Y-4193000D02*
X12009000Y-633000D01*
X12009000Y-9273000D02*
X12009000Y-5713000D01*
X12009000Y-14353000D02*
X12009000Y-10793000D01*
X12009000Y-19433000D02*
X12009000Y-15873000D01*
X12009000Y887000D02*
X12009000Y1457000D01*
X14669000Y-24063000D02*
X14669000Y-23493000D01*
X14669000Y-23493000D02*
X16189000Y-23493000D01*
X12009000Y-24063000D02*
X12009000Y-20953000D01*
X14669000Y1457000D02*
X12009000Y1457000D01*
X14669000Y-24063000D02*
X12009000Y-24063000D01*
%TO.C,J2*%
X4051001Y1536999D02*
X5381001Y1536999D01*
X4051001Y206999D02*
X4051001Y1536999D01*
X4051001Y-1063001D02*
X6711001Y-1063001D01*
X6711001Y-1063001D02*
X6711001Y-23983001D01*
X4051001Y-1063001D02*
X4051001Y-23983001D01*
X4051001Y-23983001D02*
X6711001Y-23983001D01*
%TO.C,J1*%
D11*
X13005666Y-24515380D02*
X13005666Y-25229666D01*
X12958047Y-25372523D01*
X12862809Y-25467761D01*
X12719952Y-25515380D01*
X12624714Y-25515380D01*
X14005666Y-25515380D02*
X13434238Y-25515380D01*
X13719952Y-25515380D02*
X13719952Y-24515380D01*
X13624714Y-24658238D01*
X13529476Y-24753476D01*
X13434238Y-24801095D01*
%TO.C,J2*%
X5047667Y3084618D02*
X5047667Y2370332D01*
X5000048Y2227475D01*
X4904810Y2132237D01*
X4761953Y2084618D01*
X4666715Y2084618D01*
X5476239Y2989379D02*
X5523858Y3036999D01*
X5619096Y3084618D01*
X5857191Y3084618D01*
X5952429Y3036999D01*
X6000048Y2989379D01*
X6047667Y2894141D01*
X6047667Y2798903D01*
X6000048Y2656046D01*
X5428620Y2084618D01*
X6047667Y2084618D01*
%TD*%
M02*
