<?xml version="1.0" encoding="UTF-8" standalone="no"?>
<!-- Created with Inkscape (http://www.inkscape.org/) -->

<svg
   xmlns:dc="http://purl.org/dc/elements/1.1/"
   xmlns:cc="http://creativecommons.org/ns#"
   xmlns:rdf="http://www.w3.org/1999/02/22-rdf-syntax-ns#"
   xmlns:svg="http://www.w3.org/2000/svg"
   xmlns="http://www.w3.org/2000/svg"
   xmlns:sodipodi="http://sodipodi.sourceforge.net/DTD/sodipodi-0.dtd"
   xmlns:inkscape="http://www.inkscape.org/namespaces/inkscape"
   width="50.000694mm"
   height="24.998604mm"
   viewBox="0 0 50.000694 24.998604"
   version="1.1"
   id="svg8"
   inkscape:version="0.92.3 (2405546, 2018-03-11)"
   sodipodi:docname="property_tag.svg">
  <defs
     id="defs2" />
  <sodipodi:namedview
     id="base"
     pagecolor="#ffffff"
     bordercolor="#666666"
     borderopacity="1.0"
     inkscape:pageopacity="0.0"
     inkscape:pageshadow="2"
     inkscape:zoom="2.8"
     inkscape:cx="-9.7820513"
     inkscape:cy="-10.938335"
     inkscape:document-units="mm"
     inkscape:current-layer="layer1"
     showgrid="false"
     fit-margin-top="0"
     fit-margin-left="0"
     fit-margin-right="0"
     fit-margin-bottom="0"
     inkscape:window-width="1982"
     inkscape:window-height="1311"
     inkscape:window-x="1677"
     inkscape:window-y="2373"
     inkscape:window-maximized="0" />
  <metadata
     id="metadata5">
    <rdf:RDF>
      <cc:Work
         rdf:about="">
        <dc:format>image/svg+xml</dc:format>
        <dc:type
           rdf:resource="http://purl.org/dc/dcmitype/StillImage" />
        <dc:title />
      </cc:Work>
    </rdf:RDF>
  </metadata>
  <g
     inkscape:label="Layer 1"
     inkscape:groupmode="layer"
     id="layer1"
     transform="translate(25,-284.50139)"
     style="display:inline">
    <text
       xml:space="preserve"
       style="font-style:normal;font-variant:normal;font-weight:normal;font-stretch:normal;font-size:3.37321401px;line-height:1.25;font-family:futura;-inkscape-font-specification:futura;letter-spacing:0px;word-spacing:0px;fill:#000000;fill-opacity:1;stroke:none;stroke-width:0.08433035"
       x="-30.238573"
       y="316.37912"
       id="text846"><tspan
         sodipodi:role="line"
         x="-30.238573"
         y="316.37912"
         style="fill:#00ff00;stroke-width:0.08433035"
         id="tspan852">!pen 00ff00 45.0 34  300 45 100 None 1</tspan><tspan
         sodipodi:role="line"
         x="-30.238573"
         y="320.59564"
         style="stroke-width:0.08433035"
         id="tspan850" /><tspan
         sodipodi:role="line"
         x="-30.238573"
         y="324.81216"
         style="stroke-width:0.08433035"
         id="tspan848" /></text>
  </g>
  <g
     inkscape:groupmode="layer"
     id="layer2"
     inkscape:label="Layer 2">
    <path
       inkscape:connector-curvature="0"
       id="path823"
       style="font-style:normal;font-variant:normal;font-weight:normal;font-stretch:normal;font-size:medium;line-height:1.25;font-family:futura;-inkscape-font-specification:futura;text-align:center;letter-spacing:0px;word-spacing:0px;text-anchor:middle;display:inline;fill:#00ff00;fill-opacity:1;stroke:#ff0000;stroke-width:0.1426374"
       d="M 12.282073,5.6611144 V 7.4865845 H 11.807211 V 3.4188744 h 0.857545 q 0.449723,0 0.662014,0.0473 0.212292,0.0473 0.368716,0.15559 0.195532,0.13892 0.304471,0.38065 0.111733,0.24173 0.111733,0.53625 0,0.29452 -0.111733,0.53625 -0.108939,0.24173 -0.304471,0.38065 -0.156424,0.11114 -0.368716,0.15838 -0.209498,0.0473 -0.662014,0.0473 h -0.136871 z m 0,-0.439 h 0.245812 q 0.6257,0 0.840785,-0.14449 0.217878,-0.14725 0.217878,-0.51123 0,-0.389 -0.223465,-0.54737 -0.220671,-0.15837 -0.835198,-0.15837 h -0.245812 z" />
    <path
       inkscape:connector-curvature="0"
       id="path825"
       style="font-style:normal;font-variant:normal;font-weight:normal;font-stretch:normal;font-size:medium;line-height:1.25;font-family:futura;-inkscape-font-specification:futura;text-align:center;letter-spacing:0px;word-spacing:0px;text-anchor:middle;display:inline;fill:#00ff00;fill-opacity:1;stroke:#ff0000;stroke-width:0.1426374"
       d="M 14.578172,7.4865845 V 4.9442644 h 0.388269 v 0.52791 q 0.175979,-0.33064 0.374304,-0.47234 0.198324,-0.1417 0.483241,-0.1417 0.07821,0 0.150839,0.0139 0.07262,0.0111 0.145252,0.0361 l -0.145252,0.39176 q -0.07542,-0.025 -0.142458,-0.0361 -0.06704,-0.0139 -0.128493,-0.0139 -0.34637,0 -0.519555,0.25006 -0.173185,0.24728 -0.173185,0.74741 v 1.2392101 z" />
    <path
       inkscape:connector-curvature="0"
       id="path827"
       style="font-style:normal;font-variant:normal;font-weight:normal;font-stretch:normal;font-size:medium;line-height:1.25;font-family:futura;-inkscape-font-specification:futura;text-align:center;letter-spacing:0px;word-spacing:0px;text-anchor:middle;display:inline;fill:#00ff00;fill-opacity:1;stroke:#ff0000;stroke-width:0.1426374"
       d="m 16.846337,6.2223744 q 0,0.40287 0.270951,0.6835 0.27095,0.27784 0.656427,0.27784 0.382683,0 0.65084,-0.27784 0.268158,-0.28063 0.268158,-0.6835 0,-0.40289 -0.268158,-0.68074 -0.268157,-0.28062 -0.65084,-0.28062 -0.38827,0 -0.659221,0.28062 -0.268157,0.27785 -0.268157,0.68074 z m -0.463689,0 q 0,-0.28064 0.103353,-0.52792 0.103351,-0.25006 0.301676,-0.44455 0.198325,-0.19451 0.449723,-0.29453 0.251398,-0.10281 0.536315,-0.10281 0.27933,0 0.527935,0.10281 0.251398,0.10281 0.455309,0.30008 0.198325,0.19171 0.301678,0.44177 0.103352,0.2473 0.103352,0.52515 0,0.27785 -0.103352,0.52513 -0.103353,0.2445101 -0.301678,0.43621 -0.203911,0.2000599 -0.458103,0.3056401 -0.251396,0.1055899 -0.525141,0.1055899 -0.282124,0 -0.536315,-0.1055899 -0.251398,-0.10281 -0.449723,-0.2973002 -0.198325,-0.2000398 -0.301676,-0.4445499 -0.103353,-0.24451 -0.103353,-0.52513 z" />
    <path
       inkscape:connector-curvature="0"
       id="path829"
       style="font-style:normal;font-variant:normal;font-weight:normal;font-stretch:normal;font-size:medium;line-height:1.25;font-family:futura;-inkscape-font-specification:futura;text-align:center;letter-spacing:0px;word-spacing:0px;text-anchor:middle;display:inline;fill:#00ff00;fill-opacity:1;stroke:#ff0000;stroke-width:0.1426374"
       d="m 20.262552,6.2223744 q 0,0.42788 0.23743,0.68628 0.237432,0.2584 0.628495,0.2584 0.382683,0 0.600561,-0.23617 0.220671,-0.23617 0.220671,-0.65573 0,-0.46956 -0.220671,-0.73629 -0.217878,-0.26674 -0.608941,-0.26674 -0.399444,0 -0.628494,0.25284 -0.229051,0.25285 -0.229051,0.69741 z m -0.42179,2.50341 v -3.78152 h 0.416203 v 0.4779 q 0.148045,-0.27507 0.391063,-0.42233 0.243018,-0.14727 0.541902,-0.14727 0.553074,0 0.888272,0.3751 0.335196,0.3751 0.335196,0.99471 0,0.63071 -0.329611,1.0030201 -0.326816,0.3695499 -0.877097,0.3695499 -0.315644,0 -0.550282,-0.1417 -0.234637,-0.14449 -0.382683,-0.42789 v 1.70043 z" />
    <path
       inkscape:connector-curvature="0"
       id="path831"
       style="font-style:normal;font-variant:normal;font-weight:normal;font-stretch:normal;font-size:medium;line-height:1.25;font-family:futura;-inkscape-font-specification:futura;text-align:center;letter-spacing:0px;word-spacing:0px;text-anchor:middle;display:inline;fill:#00ff00;fill-opacity:1;stroke:#ff0000;stroke-width:0.1426374"
       d="m 24.927374,5.9278444 q -0.02235,-0.33619 -0.226258,-0.51679 -0.201117,-0.18339 -0.553074,-0.18339 -0.318437,0 -0.530729,0.19172 -0.212291,0.18894 -0.245811,0.50846 z m 0.469275,0.35287 h -2.025147 v 0.0389 q 0,0.40844 0.234638,0.66128 0.234638,0.2500602 0.611734,0.2500602 0.256985,0 0.463689,-0.13614 0.206705,-0.1389302 0.365923,-0.4167802 l 0.332404,0.22228 q -0.192738,0.3445303 -0.491622,0.5195803 -0.298884,0.1750499 -0.69274,0.1750499 -0.583802,0 -0.944138,-0.38344 -0.360336,-0.3834302 -0.360336,-1.0058102 0,-0.59737 0.357543,-0.97803 0.357543,-0.38065 0.918998,-0.38065 0.567041,0 0.896651,0.36121 0.332403,0.36119 0.332403,0.98636 z" />
    <path
       inkscape:connector-curvature="0"
       id="path833"
       style="font-style:normal;font-variant:normal;font-weight:normal;font-stretch:normal;font-size:medium;line-height:1.25;font-family:futura;-inkscape-font-specification:futura;text-align:center;letter-spacing:0px;word-spacing:0px;text-anchor:middle;display:inline;fill:#00ff00;fill-opacity:1;stroke:#ff0000;stroke-width:0.1426374"
       d="M 26.058664,7.4865845 V 4.9442644 h 0.388269 v 0.52791 q 0.175979,-0.33064 0.374305,-0.47234 0.198324,-0.1417 0.483241,-0.1417 0.07821,0 0.150839,0.0139 0.07262,0.0111 0.145253,0.0361 l -0.145253,0.39176 q -0.07542,-0.025 -0.14246,-0.0361 -0.06704,-0.0139 -0.128489,-0.0139 -0.346372,0 -0.519557,0.25006 -0.173184,0.24728 -0.173184,0.74741 v 1.2392101 z" />
    <path
       inkscape:connector-curvature="0"
       id="path835"
       style="font-style:normal;font-variant:normal;font-weight:normal;font-stretch:normal;font-size:medium;line-height:1.25;font-family:futura;-inkscape-font-specification:futura;text-align:center;letter-spacing:0px;word-spacing:0px;text-anchor:middle;display:inline;fill:#00ff00;fill-opacity:1;stroke:#ff0000;stroke-width:0.1426374"
       d="m 28.131296,5.3026844 h -0.469275 v -0.35842 h 0.469275 v -1.02526 h 0.446929 v 1.02526 h 0.469276 v 0.35842 h -0.469276 v 2.1839001 h -0.446929 z" />
    <path
       inkscape:connector-curvature="0"
       id="path837"
       style="font-style:normal;font-variant:normal;font-weight:normal;font-stretch:normal;font-size:medium;line-height:1.25;font-family:futura;-inkscape-font-specification:futura;text-align:center;letter-spacing:0px;word-spacing:0px;text-anchor:middle;display:inline;fill:#00ff00;fill-opacity:1;stroke:#ff0000;stroke-width:0.1426374"
       d="m 29.446945,8.7257844 0.69274,-1.48927 -1.002797,-2.29225 h 0.505589 l 0.743019,1.82547 0.787712,-1.82547 h 0.480449 l -1.71509,3.78152 z" />
    <path
       inkscape:connector-curvature="0"
       id="path839"
       style="font-style:normal;font-variant:normal;font-weight:normal;font-stretch:normal;font-size:medium;line-height:1.25;font-family:futura;-inkscape-font-specification:futura;text-align:center;letter-spacing:0px;word-spacing:0px;text-anchor:middle;display:inline;fill:#00ff00;fill-opacity:1;stroke:#ff0000;stroke-width:0.1426374"
       d="m 34.008417,6.2223744 q 0,0.40287 0.270949,0.6835 0.270952,0.27784 0.656426,0.27784 0.382686,0 0.650844,-0.27784 0.268157,-0.28063 0.268157,-0.6835 0,-0.40289 -0.268157,-0.68074 -0.268158,-0.28062 -0.650844,-0.28062 -0.388268,0 -0.65922,0.28062 -0.268155,0.27785 -0.268155,0.68074 z m -0.46369,0 q 0,-0.28064 0.103351,-0.52792 0.103355,-0.25006 0.301678,-0.44455 0.198324,-0.19451 0.449723,-0.29453 0.251399,-0.10281 0.536313,-0.10281 0.279332,0 0.527937,0.10281 0.251399,0.10281 0.455311,0.30008 0.198323,0.19171 0.301677,0.44177 0.103349,0.2473 0.103349,0.52515 0,0.27785 -0.103349,0.52513 -0.103354,0.2445101 -0.301677,0.43621 -0.203912,0.2000599 -0.458105,0.3056401 -0.251397,0.1055899 -0.525143,0.1055899 -0.282122,0 -0.536313,-0.1055899 -0.251399,-0.10281 -0.449723,-0.2973002 -0.198323,-0.2000398 -0.301678,-0.4445499 -0.103351,-0.24451 -0.103351,-0.52513 z" />
    <path
       inkscape:connector-curvature="0"
       id="path841"
       style="font-style:normal;font-variant:normal;font-weight:normal;font-stretch:normal;font-size:medium;line-height:1.25;font-family:futura;-inkscape-font-specification:futura;text-align:center;letter-spacing:0px;word-spacing:0px;text-anchor:middle;display:inline;fill:#00ff00;fill-opacity:1;stroke:#ff0000;stroke-width:0.1426374"
       d="M 37.117367,7.4865845 V 5.3026844 h -0.491623 v -0.35842 h 0.491623 v -0.7363 q 0,-0.63349 0.159215,-0.85577 0.162015,-0.22506 0.578215,-0.22506 0.103355,0 0.195533,0.0139 0.09497,0.0139 0.181565,0.0445 v 0.45013 q -0.0838,-0.0473 -0.170392,-0.0694 -0.0838,-0.0222 -0.173186,-0.0222 -0.192738,0 -0.265363,0.12225 -0.07262,0.12226 -0.07262,0.60016 v 0.677951 H 38.2319 v 0.358419 h -0.670393 v 2.1839003 z" />
    <path
       inkscape:connector-curvature="0"
       id="path843"
       style="font-style:normal;font-variant:normal;font-weight:bold;font-stretch:normal;font-size:medium;line-height:1.25;font-family:futura;-inkscape-font-specification:futura;text-align:center;letter-spacing:0px;word-spacing:0px;text-anchor:middle;display:inline;fill:#0000ff;fill-opacity:1;stroke:#ff0000;stroke-width:0.1426374"
       d="m 2.952428,12.265984 h 0.2234652 q 0.4162021,0 0.567041,-0.089 0.1536309,-0.0944 0.1536309,-0.31398 0,-0.23061 -0.1424581,-0.32508 -0.1564259,-0.0972 -0.5614548,-0.0972 H 2.952428 Z m -1.0335239,2.44228 v -4.0677 H 3.03902 q 0.6759811,0 0.9664851,0.0445 0.27095,0.0417 0.474862,0.15281 0.223465,0.13059 0.3435771,0.33064 0.1201118,0.21117 0.1201118,0.48902 0,0.35286 -0.1787718,0.55569 -0.1759791,0.20006 -0.564248,0.30564 0.4245829,0.0333 0.6815669,0.30008 0.2458112,0.27228 0.2458112,0.72796 0,0.3223 -0.1396662,0.56959 -0.1396651,0.25562 -0.3938561,0.38621 -0.1955308,0.1028 -0.5139679,0.16115 -0.3296111,0.0445 -1.008384,0.0445 z m 1.0335239,-0.83076 h 0.3910632 q 0.3966498,0 0.5586611,-0.10281 0.1675979,-0.0944 0.1675979,-0.32508 0,-0.25007 -0.1508382,-0.35843 -0.1508379,-0.10002 -0.5586608,-0.10002 H 2.952428 Z" />
    <path
       inkscape:connector-curvature="0"
       id="path845"
       style="font-style:normal;font-variant:normal;font-weight:bold;font-stretch:normal;font-size:medium;line-height:1.25;font-family:futura;-inkscape-font-specification:futura;text-align:center;letter-spacing:0px;word-spacing:0px;text-anchor:middle;display:inline;fill:#0000ff;fill-opacity:1;stroke:#ff0000;stroke-width:0.1426374"
       d="m 5.7317682,14.708264 v -2.80626 h 0.9385509 v 0.66128 q 0.148045,-0.36398 0.3938561,-0.54181 0.2541919,-0.1806 0.611735,-0.1806 0.08101,0 0.1201121,0.006 0.03072,0.003 0.05587,0.006 0.025141,0 0.06424,0.006 l -0.09497,0.900241 q -0.1033521,-0.0333 -0.1787721,-0.0473 -0.111732,-0.0111 -0.1648039,-0.0111 -0.3631311,0 -0.5614559,0.22229 -0.1955311,0.21949 -0.1955311,0.62515 v 1.16141 z" />
    <path
       inkscape:connector-curvature="0"
       id="path847"
       style="font-style:normal;font-variant:normal;font-weight:bold;font-stretch:normal;font-size:medium;line-height:1.25;font-family:futura;-inkscape-font-specification:futura;text-align:center;letter-spacing:0px;word-spacing:0px;text-anchor:middle;display:inline;fill:#0000ff;fill-opacity:1;stroke:#ff0000;stroke-width:0.1426374"
       d="m 8.1312192,15.947474 0.7932989,-1.6671 -1.136876,-2.37837 h 1.103357 l 0.3938561,1.01414 q 0.05866,0.13893 0.081,0.23895 0.03072,0.10281 0.05307,0.20561 0.016761,-0.10003 0.05028,-0.21116 0.022349,-0.0973 0.08101,-0.2334 l 0.3994429,-1.01414 h 1.0642499 l -1.7737489,4.04547 z" />
    <path
       inkscape:connector-curvature="0"
       id="path849"
       style="font-style:normal;font-variant:normal;font-weight:bold;font-stretch:normal;font-size:medium;line-height:1.25;font-family:futura;-inkscape-font-specification:futura;text-align:center;letter-spacing:0px;word-spacing:0px;text-anchor:middle;display:inline;fill:#0000ff;fill-opacity:1;stroke:#ff0000;stroke-width:0.1426374"
       d="m 13.36029,12.824454 q -0.145252,-0.12781 -0.279331,-0.18615 -0.120112,-0.0584 -0.282123,-0.0584 -0.298884,0 -0.469276,0.19449 -0.175978,0.19172 -0.175978,0.52792 0,0.32231 0.181564,0.51125 0.175978,0.19449 0.488829,0.19449 0.148046,0 0.284917,-0.0611 0.145252,-0.0695 0.251398,-0.18338 v 0.85855 q -0.178772,0.0944 -0.360336,0.15004 -0.192739,0.0445 -0.365924,0.0445 -0.653634,0 -1.053077,-0.41677 -0.136872,-0.13893 -0.226258,-0.30564 -0.08659,-0.16671 -0.134079,-0.36121 -0.04469,-0.19449 -0.04469,-0.42511 0,-0.66405 0.407823,-1.07805 0.410616,-0.41677 1.061456,-0.41677 0.203912,0 0.38827,0.0445 0.178772,0.0445 0.326817,0.13059 z" />
    <path
       inkscape:connector-curvature="0"
       id="path851"
       style="font-style:normal;font-variant:normal;font-weight:bold;font-stretch:normal;font-size:medium;line-height:1.25;font-family:futura;-inkscape-font-specification:futura;text-align:center;letter-spacing:0px;word-spacing:0px;text-anchor:middle;display:inline;fill:#0000ff;fill-opacity:1;stroke:#ff0000;stroke-width:0.1426374"
       d="m 15.916165,12.943924 q -0.02514,-0.23339 -0.181564,-0.38064 -0.156426,-0.14727 -0.382684,-0.14727 -0.23743,0 -0.385476,0.13059 -0.153632,0.14726 -0.192739,0.39732 z m 0.980452,0.55849 h -2.145261 q 0.0084,0.32785 0.164806,0.50012 0.162011,0.17782 0.469275,0.17782 0.223465,0 0.382683,-0.0862 0.162012,-0.0917 0.234638,-0.25006 l 0.748607,0.30008 q -0.131286,0.31952 -0.474863,0.49456 -0.340783,0.17783 -0.835198,0.17783 -0.737434,0 -1.184363,-0.41122 -0.444136,-0.4001 -0.444136,-1.06972 0,-0.65294 0.444136,-1.09194 0.444136,-0.43066 1.128496,-0.43066 0.698327,0 1.103356,0.43621 0.206705,0.22506 0.307264,0.52513 0.10056,0.2973 0.10056,0.68074 z" />
    <path
       inkscape:connector-curvature="0"
       id="path853"
       style="font-style:normal;font-variant:normal;font-weight:bold;font-stretch:normal;font-size:medium;line-height:1.25;font-family:futura;-inkscape-font-specification:futura;text-align:center;letter-spacing:0px;word-spacing:0px;text-anchor:middle;display:inline;fill:#0000ff;fill-opacity:1;stroke:#ff0000;stroke-width:0.1426374"
       d="m 19.508359,13.394044 q 0.256984,0.28341 0.491622,0.41956 0.245811,0.13892 0.480448,0.13892 0.220672,0 0.365923,-0.11948 0.145253,-0.11948 0.145253,-0.30285 0,-0.20006 -0.120113,-0.31397 -0.128491,-0.10836 -0.567041,-0.22506 -0.597767,-0.16115 -0.846371,-0.41677 -0.251398,-0.26118 -0.251398,-0.7113 0,-0.58347 0.393856,-0.95024 0.388269,-0.36953 1.016764,-0.36953 0.354749,0 0.642461,0.0917 0.301677,0.0917 0.572628,0.2723 l -0.349164,0.79742 q -0.184359,-0.15837 -0.391063,-0.24451 -0.201118,-0.0806 -0.393857,-0.0806 -0.195531,0 -0.326816,0.0972 -0.125699,0.0917 -0.125699,0.24451 0,0.14726 0.108938,0.24451 0.114527,0.0917 0.43017,0.17504 0.01117,0.003 0.01955,0.006 0.0084,0 0.02514,0.006 0.681567,0.1806 0.899445,0.40565 0.142458,0.1417 0.223465,0.35842 0.07262,0.20562 0.07262,0.46679 0,0.64461 -0.427377,1.04194 -0.430169,0.39176 -1.139669,0.39176 -0.435756,0 -0.779332,-0.1417 -0.340784,-0.1417 -0.673187,-0.45567 z" />
    <path
       inkscape:connector-curvature="0"
       id="path855"
       style="font-style:normal;font-variant:normal;font-weight:bold;font-stretch:normal;font-size:medium;line-height:1.25;font-family:futura;-inkscape-font-specification:futura;text-align:center;letter-spacing:0px;word-spacing:0px;text-anchor:middle;display:inline;fill:#0000ff;fill-opacity:1;stroke:#ff0000;stroke-width:0.1426374"
       d="m 24.611731,12.824454 q -0.145251,-0.12781 -0.279331,-0.18615 -0.120112,-0.0584 -0.282124,-0.0584 -0.298883,0 -0.469276,0.19449 -0.175977,0.19172 -0.175977,0.52792 0,0.32231 0.181564,0.51125 0.175979,0.19449 0.488829,0.19449 0.148045,0 0.284918,-0.0611 0.145251,-0.0695 0.251397,-0.18338 v 0.85855 q -0.178771,0.0944 -0.360337,0.15004 -0.192738,0.0445 -0.365923,0.0445 -0.653633,0 -1.053076,-0.41677 -0.136873,-0.13893 -0.226258,-0.30564 -0.08659,-0.16671 -0.134079,-0.36121 -0.04469,-0.19449 -0.04469,-0.42511 0,-0.66405 0.407823,-1.07805 0.410616,-0.41677 1.061457,-0.41677 0.203911,0 0.388269,0.0445 0.178772,0.0445 0.326817,0.13059 z" />
    <path
       inkscape:connector-curvature="0"
       id="path857"
       style="font-style:normal;font-variant:normal;font-weight:bold;font-stretch:normal;font-size:medium;line-height:1.25;font-family:futura;-inkscape-font-specification:futura;text-align:center;letter-spacing:0px;word-spacing:0px;text-anchor:middle;display:inline;fill:#0000ff;fill-opacity:1;stroke:#ff0000;stroke-width:0.1426374"
       d="m 25.223465,14.708264 v -4.30665 h 0.977657 v 1.5115 q 0,0.10836 -0.01117,0.28062 -0.0084,0.15004 -0.02235,0.22784 0.187151,-0.31397 0.441343,-0.46123 0.256984,-0.14726 0.606147,-0.14726 0.276537,0 0.491622,0.0834 0.212291,0.0944 0.343578,0.25563 0.120112,0.16115 0.159218,0.34175 0.04749,0.23062 0.04749,0.60849 v 1.60596 h -0.997209 v -1.50315 q 0,-0.34176 -0.10894,-0.48902 -0.108939,-0.15281 -0.354751,-0.15281 -0.307263,0 -0.452516,0.22783 -0.142459,0.22783 -0.142459,0.73908 v 1.17807 z" />
    <path
       inkscape:connector-curvature="0"
       id="path859"
       style="font-style:normal;font-variant:normal;font-weight:bold;font-stretch:normal;font-size:medium;line-height:1.25;font-family:futura;-inkscape-font-specification:futura;text-align:center;letter-spacing:0px;word-spacing:0px;text-anchor:middle;display:inline;fill:#0000ff;fill-opacity:1;stroke:#ff0000;stroke-width:0.1426374"
       d="m 28.960911,14.708264 v -2.80626 h 0.938548 v 0.66128 q 0.148048,-0.36398 0.393859,-0.54181 0.25419,-0.1806 0.611735,-0.1806 0.081,0 0.12011,0.006 0.03073,0.003 0.05587,0.006 0.02514,0 0.06424,0.006 l -0.09497,0.900241 q -0.103351,-0.0333 -0.178771,-0.0473 -0.111731,-0.0111 -0.164804,-0.0111 -0.363132,0 -0.561456,0.22229 -0.195532,0.21949 -0.195532,0.62515 v 1.16141 z" />
    <path
       inkscape:connector-curvature="0"
       id="path861"
       style="font-style:normal;font-variant:normal;font-weight:bold;font-stretch:normal;font-size:medium;line-height:1.25;font-family:futura;-inkscape-font-specification:futura;text-align:center;letter-spacing:0px;word-spacing:0px;text-anchor:middle;display:inline;fill:#0000ff;fill-opacity:1;stroke:#ff0000;stroke-width:0.1426374"
       d="m 33.516792,13.313474 q 0,-0.31398 -0.159218,-0.49457 -0.164804,-0.1806 -0.430168,-0.1806 -0.273745,0 -0.43017,0.1806 -0.159218,0.17504 -0.159218,0.49457 0,0.31119 0.15363,0.48901 0.167601,0.18338 0.435758,0.18338 0.268158,0 0.435756,-0.18338 0.15363,-0.18339 0.15363,-0.48901 z m 0.988833,0 q 0,0.30841 -0.120113,0.57514 -0.125698,0.2834 -0.343577,0.48901 -0.245812,0.22784 -0.508381,0.33064 -0.273744,0.10837 -0.606148,0.10837 -0.335198,0 -0.606149,-0.10837 -0.276538,-0.10836 -0.511173,-0.32785 -0.231846,-0.22228 -0.335198,-0.4918 -0.120113,-0.25839 -0.120113,-0.57514 0,-0.30842 0.120113,-0.5807 0.111731,-0.27508 0.33799,-0.48902 0.220673,-0.21117 0.508381,-0.32509 0.273745,-0.10558 0.606149,-0.10558 0.32961,0 0.606148,0.10558 0.28771,0.11392 0.508381,0.32509 0.231843,0.20838 0.343577,0.48902 0.120113,0.27228 0.120113,0.5807 z" />
    <path
       inkscape:connector-curvature="0"
       id="path863"
       style="font-style:normal;font-variant:normal;font-weight:bold;font-stretch:normal;font-size:medium;line-height:1.25;font-family:futura;-inkscape-font-specification:futura;text-align:center;letter-spacing:0px;word-spacing:0px;text-anchor:middle;display:inline;fill:#0000ff;fill-opacity:1;stroke:#ff0000;stroke-width:0.1426374"
       d="m 37.022392,12.943924 q -0.02514,-0.23339 -0.181565,-0.38064 -0.156425,-0.14727 -0.382683,-0.14727 -0.237432,0 -0.385477,0.13059 -0.153633,0.14726 -0.192738,0.39732 z m 0.98045,0.55849 h -2.14526 q 0.0084,0.32785 0.164806,0.50012 0.162013,0.17782 0.469276,0.17782 0.223464,0 0.382683,-0.0862 0.162012,-0.0917 0.234638,-0.25006 l 0.748606,0.30008 q -0.131286,0.31952 -0.474863,0.49456 -0.340784,0.17783 -0.835197,0.17783 -0.737434,0 -1.184362,-0.41122 -0.444135,-0.4001 -0.444135,-1.06972 0,-0.65294 0.444135,-1.09194 0.444134,-0.43066 1.128495,-0.43066 0.698325,0 1.103358,0.43621 0.206703,0.22506 0.307263,0.52513 0.100557,0.2973 0.100557,0.68074 z" />
    <path
       inkscape:connector-curvature="0"
       id="path865"
       style="font-style:normal;font-variant:normal;font-weight:bold;font-stretch:normal;font-size:medium;line-height:1.25;font-family:futura;-inkscape-font-specification:futura;text-align:center;letter-spacing:0px;word-spacing:0px;text-anchor:middle;display:inline;fill:#0000ff;fill-opacity:1;stroke:#ff0000;stroke-width:0.1426374"
       d="m 40.731903,13.307904 q 0,-0.33064 -0.170392,-0.51679 -0.181565,-0.18894 -0.480449,-0.18894 -0.301675,0 -0.474861,0.18894 -0.173185,0.18894 -0.173185,0.51679 0,0.33064 0.173185,0.51958 0.170392,0.18616 0.474861,0.18616 0.301678,0 0.480449,-0.18616 0.170392,-0.18615 0.170392,-0.51958 z m 0.882684,-2.90629 v 4.30665 h -0.916204 v -0.45566 q -0.189944,0.28618 -0.430168,0.42232 -0.223464,0.14171 -0.525142,0.14171 -0.592182,0 -0.94693,-0.41122 -0.351957,-0.41121 -0.351957,-1.09751 0,-0.66683 0.354751,-1.08638 0.351954,-0.40844 0.910616,-0.40844 0.357545,0 0.581009,0.13059 0.215083,0.11948 0.402236,0.4251 -0.01117,-0.075 -0.02236,-0.22783 -0.01116,-0.1667 -0.01116,-0.27229 v -1.46704 z" />
    <path
       inkscape:connector-curvature="0"
       id="path867"
       style="font-style:normal;font-variant:normal;font-weight:bold;font-stretch:normal;font-size:medium;line-height:1.25;font-family:futura;-inkscape-font-specification:futura;text-align:center;letter-spacing:0px;word-spacing:0px;text-anchor:middle;display:inline;fill:#0000ff;fill-opacity:1;stroke:#ff0000;stroke-width:0.1426374"
       d="m 44.296166,12.943924 q -0.02513,-0.23339 -0.181565,-0.38064 -0.156424,-0.14727 -0.382683,-0.14727 -0.237432,0 -0.385477,0.13059 -0.153633,0.14726 -0.192738,0.39732 z m 0.980451,0.55849 h -2.145261 q 0.0084,0.32785 0.164807,0.50012 0.162009,0.17782 0.469275,0.17782 0.223465,0 0.382683,-0.0862 0.162012,-0.0917 0.234638,-0.25006 l 0.748607,0.30008 q -0.131287,0.31952 -0.474864,0.49456 -0.340783,0.17783 -0.8352,0.17783 -0.73743,0 -1.184359,-0.41122 -0.444138,-0.4001 -0.444138,-1.06972 0,-0.65294 0.444138,-1.09194 0.444135,-0.43066 1.128495,-0.43066 0.698326,0 1.103355,0.43621 0.206706,0.22506 0.307263,0.52513 0.100561,0.2973 0.100561,0.68074 z" />
    <path
       inkscape:connector-curvature="0"
       id="path869"
       style="font-style:normal;font-variant:normal;font-weight:bold;font-stretch:normal;font-size:medium;line-height:1.25;font-family:futura;-inkscape-font-specification:futura;text-align:center;letter-spacing:0px;word-spacing:0px;text-anchor:middle;display:inline;fill:#0000ff;fill-opacity:1;stroke:#ff0000;stroke-width:0.1426374"
       d="m 45.854832,14.708264 v -2.80626 h 0.938551 v 0.66128 q 0.148045,-0.36398 0.393853,-0.54181 0.254193,-0.1806 0.611735,-0.1806 0.08101,0 0.120113,0.006 0.03073,0.003 0.05587,0.006 0.02514,0 0.06425,0.006 l -0.09497,0.900241 q -0.103355,-0.0333 -0.178774,-0.0473 -0.111731,-0.0111 -0.164804,-0.0111 -0.36313,0 -0.561456,0.22229 -0.19553,0.21949 -0.19553,0.62515 v 1.16141 z" />
    <path
       inkscape:connector-curvature="0"
       id="path871"
       style="font-style:normal;font-variant:normal;font-weight:normal;font-stretch:normal;font-size:medium;line-height:1.25;font-family:futura;-inkscape-font-specification:futura;text-align:center;letter-spacing:0px;word-spacing:0px;text-anchor:middle;display:inline;fill:#00ff00;fill-opacity:1;stroke:#ff0000;stroke-width:0.1426374"
       d="m 17.572597,21.979574 -1.270955,-2.92298 -0.513968,2.7646 h -0.474863 l 0.829612,-4.22886 1.430174,3.36475 1.430173,-3.36475 0.829612,4.22886 h -0.474861 l -0.519556,-2.7646 z" />
    <path
       inkscape:connector-curvature="0"
       id="path873"
       style="font-style:normal;font-variant:normal;font-weight:normal;font-stretch:normal;font-size:medium;line-height:1.25;font-family:futura;-inkscape-font-specification:futura;text-align:center;letter-spacing:0px;word-spacing:0px;text-anchor:middle;display:inline;fill:#00ff00;fill-opacity:1;stroke:#ff0000;stroke-width:0.1426374"
       d="m 20.952498,21.365524 h 0.310058 q 0.754192,0 1.044696,-0.0639 0.290505,-0.0667 0.483243,-0.22506 0.251397,-0.20838 0.382682,-0.53624 0.131286,-0.33064 0.131286,-0.75575 0,-0.42789 -0.131286,-0.75019 -0.128491,-0.32508 -0.382682,-0.53625 -0.192738,-0.16115 -0.491622,-0.22783 -0.296091,-0.0694 -1.036317,-0.0694 h -0.310058 z m -0.491622,0.45567 v -4.06771 h 0.784919 q 0.871512,0 1.226263,0.0889 0.357543,0.0862 0.625701,0.29174 0.351956,0.26951 0.533521,0.68906 0.181565,0.41956 0.181565,0.96692 0,0.54458 -0.181565,0.96413 -0.178772,0.41677 -0.533521,0.68629 -0.268158,0.20561 -0.611735,0.29452 -0.340783,0.0862 -1.06425,0.0862 h -0.175979 z" />
    <path
       inkscape:connector-curvature="0"
       id="path875"
       style="font-style:normal;font-variant:normal;font-weight:normal;font-stretch:normal;font-size:medium;line-height:1.25;font-family:futura;-inkscape-font-specification:futura;text-align:center;letter-spacing:0px;word-spacing:0px;text-anchor:middle;display:inline;fill:#00ff00;fill-opacity:1;stroke:#ff0000;stroke-width:0.1426374"
       d="m 26.768163,19.995724 v 1.82547 h -0.474862 v -4.06771 h 0.857547 q 0.449721,0 0.662014,0.0473 0.212291,0.0473 0.368716,0.15559 0.19553,0.13893 0.304469,0.38066 0.111734,0.24173 0.111734,0.53625 0,0.29452 -0.111734,0.53624 -0.108939,0.24173 -0.304469,0.38066 -0.156425,0.11113 -0.368716,0.15837 -0.209499,0.0473 -0.662014,0.0473 h -0.136874 z m 0,-0.439 h 0.245811 q 0.625703,0 0.840785,-0.14447 0.217879,-0.14726 0.217879,-0.51125 0,-0.38899 -0.223464,-0.54736 -0.220671,-0.15837 -0.8352,-0.15837 h -0.245811 z" />
    <path
       inkscape:connector-curvature="0"
       id="path877"
       style="font-style:normal;font-variant:normal;font-weight:normal;font-stretch:normal;font-size:medium;line-height:1.25;font-family:futura;-inkscape-font-specification:futura;text-align:center;letter-spacing:0px;word-spacing:0px;text-anchor:middle;display:inline;fill:#00ff00;fill-opacity:1;stroke:#ff0000;stroke-width:0.1426374"
       d="m 29.153649,21.821194 v -4.30665 h 0.427374 v 2.15611 q 0.164806,-0.24451 0.39665,-0.36399 0.231846,-0.11948 0.536315,-0.11948 0.452517,0 0.706708,0.23896 0.25419,0.23894 0.25419,0.66405 v 1.731 h -0.446929 v -1.4976 q 0,-0.38621 -0.164803,-0.57237 -0.162013,-0.18893 -0.502796,-0.18893 -0.195532,0 -0.357545,0.0722 -0.159218,0.0695 -0.265363,0.20005 -0.08101,0.10002 -0.117319,0.22784 -0.03352,0.12781 -0.03352,0.44456 v 1.31422 z" />
    <path
       inkscape:connector-curvature="0"
       id="path879"
       style="font-style:normal;font-variant:normal;font-weight:normal;font-stretch:normal;font-size:medium;line-height:1.25;font-family:futura;-inkscape-font-specification:futura;text-align:center;letter-spacing:0px;word-spacing:0px;text-anchor:middle;display:inline;fill:#00ff00;fill-opacity:1;stroke:#ff0000;stroke-width:0.1426374"
       d="m 32.874334,21.365524 h 0.310057 q 0.754192,0 1.044697,-0.0639 0.290504,-0.0667 0.483243,-0.22506 0.251396,-0.20838 0.38268,-0.53624 0.131286,-0.33064 0.131286,-0.75575 0,-0.42789 -0.131286,-0.75019 -0.128493,-0.32508 -0.38268,-0.53625 -0.192739,-0.16115 -0.491623,-0.22783 -0.296092,-0.0694 -1.036317,-0.0694 h -0.310057 z m -0.491623,0.45567 v -4.06771 h 0.784919 q 0.871513,0 1.226261,0.0889 0.357545,0.0862 0.6257,0.29174 0.35196,0.26951 0.533525,0.68906 0.181565,0.41956 0.181565,0.96692 0,0.54458 -0.181565,0.96413 -0.178774,0.41677 -0.533525,0.68629 -0.268155,0.20561 -0.611732,0.29452 -0.340784,0.0862 -1.06425,0.0862 H 33.16763 Z" />
    <rect
       style="display:inline;fill:none;stroke:#ff0000;stroke-width:0.26249513;stroke-linecap:round;stroke-miterlimit:4;stroke-dasharray:none"
       id="rect821"
       width="49.737499"
       height="24.736805"
       x="0.13124757"
       y="0.13055129"
       rx="4.9737501"
       ry="4.947361" />
  </g>
</svg>
